M48
METRIC,TZ
T01C.2
T02C.3
T03C.85
T04C.889
T05C.89
T06C.9144
T07C.95
T08C1.
T09C1.05
T10C1.5748
T11C1.8034
T12C3.
;LEADER: 12 
;HEADER: 
;CODE  : ASCII 
;FILE  : 7k325t_ffg900_tmp1-1-6.drl for  ... layers TOP and BOTTOM
;DESIGN: 7k325t_ffg900_tmp1.brd
;T01 Holesize 1. = 0.200000 Tolerance = +0.000000/-0.000000 PLATED MM Quantity = 1004
;T02 Holesize 2. = 0.300000 Tolerance = +0.000000/-0.000000 PLATED MM Quantity = 44
;T03 Holesize 3. = 0.850000 Tolerance = +0.000000/-0.000000 PLATED MM Quantity = 4
;T04 Holesize 4. = 0.889000 Tolerance = +0.076200/-0.076200 PLATED MM Quantity = 46
;T05 Holesize 5. = 0.890000 Tolerance = +0.076200/-0.076200 PLATED MM Quantity = 10
;T06 Holesize 6. = 0.914400 Tolerance = +0.076200/-0.076200 PLATED MM Quantity = 2
;T07 Holesize 7. = 0.950000 Tolerance = +0.000000/-0.000000 PLATED MM Quantity = 36
;T08 Holesize 8. = 1.000000 Tolerance = +0.076200/-0.076200 PLATED MM Quantity = 6
;T09 Holesize 9. = 1.050000 Tolerance = +0.000000/-0.000000 PLATED MM Quantity = 40
;T10 Holesize 10. = 1.574800 Tolerance = +0.076200/-0.076200 PLATED MM Quantity = 4
;T11 Holesize 11. = 1.803400 Tolerance = +0.076200/-0.076200 PLATED MM Quantity = 6
;T12 Holesize 12. = 3.000000 Tolerance = +0.000000/-0.000000 PLATED MM Quantity = 6
%
G90
T01
X700000Y-1100000
Y-1400000
Y-1500000
X-5780000Y305440
X-1400000Y-1500000
X-5780000Y225450
X-1400000Y-1400000
X-5780000Y-174550
X-1400000Y-1100000
X-5780000Y-254560
X-1400000Y-1000000
X-1500000Y-900000
X-5780000Y1564970
X-1500000Y-800000
X-5780000Y1484960
X-1500000Y-1300000
X-5780000Y2044960
X-1500000Y-1200000
X-5780000Y1964970
X725000Y2590000
X100000Y1000000
X-6910000Y1524970
X650000Y2590000
X200000Y1000000
X-6910000Y1924970
X450000Y2590000
X200000Y1300000
X-6910000Y185450
X550000Y2590000
X200000Y1200000
X-6910000Y-214550
Y1844960
Y1684960
Y105440
X-6058130Y1804950
X-6910000Y25450
Y1604950
Y1764970
Y-54560
X-6058130Y1724970
Y65430
X-6910000Y-134570
X-6058130Y-14550
X-2800000Y590000
X-2750000Y110000
X-2790000Y-398320
X-2810000Y1080000
X4753730Y-1903090
X-8462390Y3092450
X-9375320Y3013950
X-7952400Y3092450
X-9135320Y3013950
X4753730Y-3253090
X4654360Y-449210
X-990030Y-3193370
X-1049880
X2720240Y-4429740
X2020240Y-4375920
X2080240Y-4555920
X2110240Y-4478620
X1990240Y-4445920
X2723280Y-2397700
X1959530Y-2072620
X3148440Y-3712360
X3088440Y-3772360
X3028440Y-3712360
X3328440Y-3652360
R02X-120000
X3388440Y-3712360
X3328440Y-3772360
X3268440Y-3712360
X3208440Y-3772360
X5056270Y-3676270
X5307370Y-2880000
X4925630Y-2398810
X5301830Y-1507370
X3388440Y-2362360
X3328440Y-2422360
X3268440Y-2362360
X3208440Y-2422360
X3148440Y-2362360
X3088440Y-2422360
X3028440Y-2362360
X3328440Y-2302360
R02X-120000
X5346230Y2311440
X5426230
X5346230Y2391440
X5426230
X5375020Y-399280
X5455020
X5375020Y-319280
X5455020
X700000Y-1790000
R02X100000
X-3588700Y1124390
Y631330
Y-164390
Y138270
X1152120Y2060580
X1094020Y2378680
X7703950Y3670170
X6255850Y3828270
X-6893670Y-2264600
X-6432800Y-1939520
X-7293820Y1659520
X-7235720Y1768240
X-6590000Y1449520
Y1919520
Y1609520
X-6893670Y1214440
X-6432800Y1539520
Y1989520
X-7293820Y-80000
X-7235720Y28720
X-6590000Y-290000
Y180000
Y-130000
X-6893670Y-525080
X-6432800Y-200000
Y250000
X-7293820Y-1819520
X-7235720Y-1710800
X-6590000Y-2029520
Y-1559520
Y-1869520
X-6432800Y-1489520
X-7293820Y-3559040
X-7235720Y-3450320
X-6590000Y-3769040
Y-3299040
Y-3609040
X-6893670Y-4004120
X-6432800Y-3679040
Y-3229040
X1615970Y-2740000
X-2272230Y-1760000
X-2400650Y-1116670
X-2450000Y-536670
X3633700Y-3998430
X2487340Y-4567340
X4880630Y511190
X5203730Y1465730
X-2206640Y-3878870
X-1803950Y-4101560
Y-3986180
X-378420Y2241580
X1159530Y-2672620
X1649530Y-1882620
X1615970Y-2845010
X-8910320Y3214530
X-9450330Y3376370
X-7940330Y3214530
X-8450320
X3348440Y547640
X3288440Y487640
X3228440Y547640
X3168440Y487640
X3108440Y547640
X3048440Y487640
X2988440Y547640
X3288440Y607640
R02X-120000
X-1925720Y-411900
X6441780Y1216420
X6847500Y780700
X-3115480Y-3411040
R06X80000
X-3115480Y-3331040
R06X80000
X-3115480Y-3251040
R06X80000
X-3104230Y-2564870
R06X80000
X-3104230Y-2484870
R06X80000
X-3104230Y-2404870
R06X80000
X-3104230Y-2324870
R06X80000
X-5323670Y2981800
X-650000Y-3090000
X-759860Y-2056410
X-679860
X-759860Y-1976410
X-679860
X-759860Y-1896410
X-679860
X4580000Y-910000
X4950000Y-50000
X4490000Y-910000
X3351710Y-893190
X3231710
X3471710Y-773190
R02X-120000
X3531710Y-833190
R03X-120000
X3471710Y-893190
X-5671680Y2981800
X803350Y-1959000
X6529100Y309100
X-2783670Y2981800
X-5831670
X6398400Y311600
X4614360Y2260790
X-4307670Y2981800
X6790000Y860000
X7177500Y100710
X4470000Y1810000
X3191710Y1936810
X3491710Y1876810
X3431710Y1816810
R02X-120000
X3371710Y1876810
R02X-120000
X3311710Y1936810
X3431710
X4550000Y1810000
X4910000Y2675000
X-3131680Y2981800
X-5163680
X-6179680
X-6339670
X-4815670
X-4655680
X-4147680
X-6687680
X-3799670
X-6910000Y-1954070
X360000Y2590000
X-5403680Y2981800
X270000Y2540000
X-6910000Y-1554070
X-5751690Y2981800
X-5780000Y-1914070
X-2863680Y2981800
X-5780000Y-1994080
X-5911680Y2981800
X-5780000Y-1434080
X-4387680Y2981800
X-5780000Y-1514070
X498300Y1980580
X-3211690Y2981800
X-6058130Y-1674090
X498300Y1840580
X-6058130Y-1754070
X-181900Y2441080
X-5243690Y2981800
X-6910000Y-1634080
X403860Y1886140
X-6910000Y-1794080
X-235980Y2251180
X-6259690Y2981800
X-6910000Y-1874090
Y-1714070
X-6419680Y2981800
X-4895680
X-4735690
X-4227690
X-6767690
X-3879680
X4925780Y2580000
X4868810Y1141190
X4885000Y-3645000
X4713730Y1006920
X-3291670Y2981800
X-2186810Y-136670
X-1834280Y-416900
X-3371680Y2981800
X-3639680
X-3719690
X-3399750Y846940
X-6847670Y2981800
X-3399750Y353880
X2950000Y-4470000
X4965780Y-124220
X1436970Y-4270890
X416220Y-4310890
X48720Y-4730890
X-163780
X496220Y-4383390
X1233720Y-4483390
X1571220Y-4648390
X5230000Y1232630
X5200000Y-1677370
X5310000Y-2780000
X1306220Y-4380890
X1248720Y-4325890
X-163780Y-3930890
X378720Y-4483390
X-3399750Y-139180
Y1340000
X-2265310Y-1178910
X-6900000Y-3133600
X-6590000Y1829520
X-6546330Y1214440
X-6298820Y1689520
X-6910000Y1444960
X-6934550Y1364970
X-6900000Y2084960
X-5784530Y1404950
X-5935080Y1310850
X-5784530Y1644960
R02Y240000
X-6590000Y90000
X-6546330Y-525080
X-6298820Y-50000
X-6910000Y-294560
X-6934550Y-374550
X-5935080Y-428670
X-5784530Y-334570
Y-94560
X-6900000Y345440
X-5784530Y145440
Y385440
X-6934550Y-2114070
X-6298820Y-1789520
X-6590000Y-1649520
X-6546330Y-2264600
X-6910000Y-2034080
X-5935080Y-2168190
X-5784530Y-2074090
Y-1834080
X-6900000Y-1394080
X-6055630Y-1594080
X-5784530Y-1354080
X-6590000Y-3389040
X-6546330Y-4004120
X-6298820Y-3529040
X-6910000Y-3773600
X-6934550Y-3853590
X-5935080Y-3907710
X-5784530Y-3813610
Y-3573600
Y-3333600
Y-3093600
X-2869890Y-5591310
R06X200000
X6570880Y3569750
X5170880
X-2179320Y-2813640
R05X80000
X-2179320Y-2733640
R05X80000
X-2179320Y-2653640
R05X80000
X-2179320Y-2573640
R05X80000
X-2179320Y-2493640
R05X80000
X-2179320Y-2413640
R05X80000
X-1330000Y-1940000
X-964460Y-1967390
X-1274460Y-1887390
X-964460
X-1978060Y-3889670
X1406860Y-2663500
X4675630Y-3097370
X5085630Y-2398810
X1891420Y-3735920
X2715960Y-3935960
X2559800Y-3690200
X5403730Y1311290
X4630630Y1162630
X4713730Y1295730
X4780000Y1311190
X4134020Y-3994160
X5149470Y-902920
X2999910Y-3473090
X5170650Y-651740
X4828810Y-1598810
X3009910Y-1840090
X5154370Y-169100
X4801190Y-2948810
X1916420Y-3499800
X5092630Y-2857370
X5193750Y2121360
X4369420Y-4094150
X5206830Y-3748810
X3016830Y-243170
X2484500Y-4704500
X5443730Y-2940000
Y-1598710
X5097370Y-1507370
X4690000Y-3027370
X4677370Y-1677370
X4107200Y-5096550
X5448810Y-2261760
X2947080Y-522920
X2923090Y786910
X2065500Y-4704500
X5109470Y1807080
X5215570Y2635750
X5448810Y-3611760
X2953090Y-2123090
X7390740Y-879260
X3686430Y-5099110
X3009910Y-3241810
X5166830Y511190
X5113730Y1465730
X2952920Y2187080
X2842160Y2322160
X7080740Y-879260
X4632630Y-1747370
X2858010Y921990
X5408810Y648240
X-3033670Y-1498400
X-2747570Y-520000
X2132190Y-1738870
R02Y248600
X-3147570Y-870000
Y-1120000
X1958670Y-595080
X-2247570Y180000
X-648120Y2307570
X990000Y2380000
X1238600Y2084770
X-2247570Y930000
R02Y250000
Y430000
Y680000
X-1820000Y2307570
X-2747570Y-270000
X-3147570Y-1370000
X-1571400Y2307570
X1958670Y-365080
X-1975730Y-1167780
X1957730Y-773460
X-2046530Y-1096980
X-2070000Y-817310
X-1630000Y-700000
X-1114920Y2158670
X-2050000Y-880000
X-2182690Y-1183340
X-2583110Y-77460
X-896720Y2307570
X-1322800
X-1710000Y297310
X-1256640Y-3428870
X-786640
X-895180Y-4248870
X-2026640Y-3678870
X-1762360Y-3713150
X-431700Y2180580
X916000Y2441080
X669530Y-2302620
X1159530Y-2272620
X1399530Y-2432620
X709530Y-1963190
X1909530Y-2002620
X2534740Y-3026240
X2843280Y-2397700
X1679530Y-2492620
X7874800Y705710
X7645200Y-184310
X7177500Y420690
X7247500Y840700
X7233670Y1005620
X7874800Y-184310
X6797500Y630700
X-9100310Y3376370
X-9640320
X7645200Y705710
X-8130320Y3376370
X-8640310
X2315240Y-3833220
X2365360Y-4035140
R03X-80000
X2365360Y-4115140
R03X-80000
X2365360Y-4195140
R03X-80000
X2365360Y-4275140
R03X-80000
X2630240Y-4220920
X1870240Y-4090920
X1927540Y-4155920
X1870240Y-4220920
X2572940Y-4155920
X2630240Y-4090920
X1432590Y-4111760
X956220Y-4215890
X1525220Y-4111140
X1708720Y424110
R05X80000
X-6058130Y-3413610
Y-3493590
X-6910000Y-3613610
X-5780000Y-3653590
Y-3733600
Y-3173600
Y-3253590
X6082380Y3674990
X-140000Y2600000
X-6910000Y-3693590
X10Y2500000
X-6910000Y-3293590
X-6927680Y2981800
X7482380Y3674990
X-6910000Y-3373600
Y-3453590
Y-3533600
X2438120Y-1837920
X4359420Y-4184150
X2368430Y-1837920
X6255850Y3622070
X7645850Y3818270
X300000Y-1400000
X500000
X300000Y-1500000
X500000
X-100000Y-800000
Y-900000
X-1100000Y300000
X-1400000Y400000
X-1300000
X-1500000Y700000
X-900000Y-600000
X-800000
X-1100000
X-1000000
X-100000Y800000
X100000Y-100000
X-200000Y-200000
X-100000
X-200000Y-100000
X400000Y-800000
X-1300000
Y-900000
X1200000Y-1500000
X1100000Y-1200000
X800000Y-1300000
X700000Y-1000000
X600000Y-700000
X100000
X-1503590Y1403590
X-1400000Y1100000
X-1000000Y900000
X-1300000Y800000
X-900000Y600000
X-1200000Y500000
X-500000Y400000
X-1500000
X-800000Y300000
X-1100000Y200000
X-1400000Y100000
X-700000Y-100000
X-1000000Y-200000
X-1300000Y-300000
X-600000Y-400000
X-900000Y-500000
X-1200000Y-600000
X1300000Y1300000
X1000000Y1200000
X900000Y1500000
X800000Y800000
X700000Y1100000
X600000Y1400000
X500000Y700000
X400000Y1000000
X300000Y1300000
X200000Y600000
X100000Y900000
X-100000Y1200000
X-200000Y500000
Y1500000
X-300000Y800000
X-400000Y1100000
X-500000Y1400000
X-600000Y700000
X-700000Y1000000
X-800000Y1300000
X-1100000Y1200000
X-1200000Y1500000
X1400000Y1000000
X1100000Y900000
X1500000Y700000
X1200000Y600000
X900000Y500000
X600000Y400000
X1300000Y300000
X1000000Y200000
X700000Y100000
X1400000Y-100000
X1100000Y-200000
X800000Y-300000
X500000Y-400000
X1500000
X1200000Y-500000
X900000Y-600000
X1300000Y-800000
X1000000Y-900000
X1400000Y-1100000
X1503590Y-1403590
X-500000Y-600000
X200000Y-400000
Y-600000
X100000Y-500000
X-100000Y-400000
Y-600000
X-200000Y-500000
X-300000Y-400000
Y-600000
X-400000Y-500000
Y200000
X-300000Y100000
Y-200000
X-400000Y-300000
X200000Y300000
X100000Y200000
X-200000
X-300000Y300000
X400000
X300000Y200000
X200000Y100000
X-1400000Y-900000
R06X200000
X-100000Y300000
X400000Y100000
X-100000
X-400000Y-100000
X-800000Y1400000
X-400000Y-600000
X300000Y-1300000
X200000Y-1100000
X100000Y-1300000
X-100000Y-1100000
X-200000Y-1300000
X-300000Y-1100000
X-400000Y-1300000
X-500000Y-1100000
X-800000Y-1300000
X-1100000Y-1100000
X-1300000
X400000
Y-900000
X-700000Y-1100000
X-900000
X-600000Y-1300000
X-1000000
X-1200000
X-1400000
X100000Y-300000
X-200000
X-1300000Y-600000
X400000
X300000Y-500000
X400000Y-200000
X300000Y-300000
X400000Y-400000
X300000Y-100000
X-500000Y1200000
X300000Y-900000
X100000
X1500000Y1100000
X-600000Y1400000
Y1000000
X1400000Y1100000
X-400000Y1500000
X-700000Y1300000
X-500000
X-700000Y1100000
X-600000Y900000
Y1500000
X-400000Y1200000
X-300000Y1500000
X-700000Y700000
X-500000Y800000
X100000Y1100000
X-700000Y1400000
X100000Y1200000
X-500000Y1100000
X-1200000Y-1100000
X-600000Y1300000
X-1200000Y-1000000
X-500000Y1000000
X-1300000Y-1300000
X-400000Y1400000
X-1300000Y-1200000
X-100000Y500000
X-700000Y1200000
X200000Y400000
X-200000Y900000
X-400000Y1300000
X-100000Y1000000
Y600000
X-600000Y1100000
Y800000
X-500000Y1500000
X-300000Y1200000
Y1400000
X-700000Y600000
X-500000Y700000
X-600000Y600000
X-500000
Y500000
X-400000
X-600000Y-600000
X-700000Y900000
X1000000Y-1400000
X900000Y-1100000
X700000Y-1200000
Y-1300000
X600000Y-900000
R02Y-100000
Y-1400000
Y-1500000
Y-1200000
Y-1300000
X500000Y-700000
R02Y-100000
Y-1200000
Y-1300000
Y-1000000
Y-1100000
X400000Y-700000
Y-1400000
Y-500000
Y-1500000
Y-1200000
Y-1300000
X300000Y-800000
Y-1200000
Y-400000
Y-600000
Y-1000000
Y-1100000
X200000Y-1000000
Y-1400000
Y-300000
Y-500000
Y-1500000
X100000Y-800000
Y-1200000
Y-400000
Y-1000000
Y-1100000
X-100000Y-1400000
Y-300000
Y-1200000
Y-1300000
X-200000Y-700000
Y-800000
Y-1200000
Y-400000
Y-600000
Y-1000000
Y-1100000
X-300000Y-700000
Y-1000000
Y-1400000
Y-500000
Y-1500000
X-400000Y-700000
Y-800000
Y-1200000
Y-1000000
Y-1100000
X-500000Y-1000000
Y-1400000
Y-1500000
X-600000Y-700000
Y-800000
Y-1200000
Y-1000000
Y-1100000
X-700000Y-1400000
X-800000Y-1200000
Y-1000000
Y-1100000
X-900000Y-1400000
Y-1500000
Y-1200000
Y-1300000
X-1000000Y-1200000
Y-1100000
X-1100000Y-1400000
X-1300000
Y-1500000
X-1200000Y1000000
X-1500000Y900000
X-1100000Y700000
X-1400000Y600000
X-700000Y500000
X-1000000Y400000
X-400000Y300000
X-1300000
X-300000Y200000
X-600000
X-400000Y100000
X-300000Y-100000
X-400000Y-200000
X-500000
X-300000Y-300000
X-800000
X-400000Y-400000
X-1100000
X-1400000Y-500000
X-700000Y-600000
X-900000Y-700000
X-1000000
X-1200000
X-1400000
X-800000Y-800000
R03X-200000
X-1100000Y-1000000
R02X-200000
X-1000000
X-1500000Y-1100000
Y-1400000
X-1503590Y-1503590
X1403590Y1503590
X1100000Y1400000
X900000Y1000000
X800000Y1300000
X600000Y900000
X500000Y1200000
X400000Y1500000
Y500000
X300000Y800000
Y300000
X200000Y1100000
Y200000
X100000Y1400000
Y300000
Y100000
X-100000Y700000
Y200000
X-200000Y1000000
Y300000
X-300000Y1300000
X-400000Y600000
X-500000Y900000
X-600000Y1200000
X-700000Y1500000
X-800000Y800000
X-900000Y1100000
X-1000000Y1400000
X-1300000Y1300000
X1500000Y1200000
X1200000Y1100000
X1300000Y800000
X1000000Y700000
X700000Y600000
X1400000Y500000
X1100000Y400000
X800000Y300000
X400000Y200000
X1500000
X300000Y100000
X1200000
X400000Y-100000
X900000
X200000
X300000Y-200000
X600000
X200000
X400000Y-300000
X1300000
X1000000Y-400000
X700000Y-500000
X1400000Y-600000
X1100000Y-700000
X800000Y-800000
X1500000Y-900000
X1200000Y-1000000
X1300000Y-1300000
X100000Y400000
X500000Y200000
X-200000Y100000
X-900000
X-1500000Y-200000
X-1200000Y-100000
X-100000Y-500000
Y-1000000
Y-700000
X100000Y-600000
X200000Y-700000
X300000
X400000Y-1000000
X-800000Y-700000
X-700000
X-900000Y-1000000
X-700000
X-500000Y-700000
X-1400000Y-1200000
X-1200000
X-1500000Y-700000
R02X200000
X-100000Y-1500000
X-700000
X-1100000
Y-1300000
Y-1200000
X-1200000Y-1500000
Y-1400000
X-100000Y1300000
X10Y1300010
X-700000Y800000
X1100000Y-600000
X1000000Y1100000
Y-600000
X1200000Y1300000
Y1200000
T02
X4847780Y-412560
X4927780
X4847780Y-332560
X4927780
X5005460Y-3366250
X5125460
X5065460Y-3306250
X5005460Y-3246250
X5125460
X5003880Y-2018270
X5123880
X5063880Y-1958270
X5003880Y-1898270
X5123880
X4967470Y892030
X5087470
X5027470Y952030
X4967470Y1012030
X5087470
X4810350Y2295630
X4890350
X4810350Y2375630
X4890350
X768510Y-4733590
X843510
X768510Y-4658590
X843510
X768510Y-4583590
X843510
X768510Y-4508590
X843510
X768510Y-4808590
X918510
Y-4733590
R03Y75000
X768510Y-4433590
X843510
X768510Y-4358590
X843510
X918510Y-4433590
Y-4358590
X843510Y-4808590
T03
X-6421320Y-2765600
R03Y1739520
T04
X-7193180Y3612920
Y3866920
X-6939180Y3612920
Y3866920
X-6685180Y3612920
Y3866920
X-6431180Y3612920
Y3866920
X-6177180Y3612920
Y3866920
X-5923180Y3612920
Y3866920
X-5669180Y3612920
Y3866920
X-5415180Y3612920
Y3866920
X-5161180Y3612920
Y3866920
X-4907180Y3612920
Y3866920
X-4653180Y3612920
Y3866920
X-4399180Y3612920
Y3866920
X-4145180Y3612920
Y3866920
X-3891180Y3612920
Y3866920
X-3637180Y3612920
Y3866920
X-3383180Y3612920
Y3866920
X-3129180Y3612920
Y3866920
X-2875180Y3612920
Y3866920
X-2621180Y3612920
Y3866920
X-2367180Y3612920
Y3866920
X290320Y-2754320
R02X-254000
Y-3516320
R02X254000
T05
X-9277000Y3663110
Y3917110
X-9023000Y3663110
Y3917110
X-8769000Y3663110
Y3917110
X-8515000Y3663110
Y3917110
X-8261000Y3663110
Y3917110
T06
X4760600Y-5044150
X4510590
T07
X-6171320Y-2765600
X-6671320
X-6171320Y-4191600
X-6671320
X-5711320Y-3958600
Y-2998600
Y-3478600
X-7141320Y-2765600
Y-4191600
X-6171320Y-1026080
X-6671320
X-6171320Y-2452080
X-6671320
X-5711320Y-2219080
Y-1259080
Y-1739080
X-7141320Y-1026080
Y-2452080
X-6171320Y713440
X-6671320
X-6171320Y-712560
X-6671320
X-5711320Y-479560
Y480440
Y440
X-7141320Y713440
Y-712560
X-6171320Y2452960
X-6671320
X-6171320Y1026960
X-6671320
X-5711320Y1259960
Y2219960
Y1739960
X-7141320Y2452960
Y1026960
T08
X7458850Y-1681200
R02Y250010
X6908840Y-1681200
R02Y250010
T09
X-5921320Y-4191600
R03X-1000000
X-7421320Y-2765600
R02X-1000000
X-7421320Y-3333600
Y-3873600
X-9421320Y-3623600
X-5921320Y-2452080
R03X-1000000
X-7421320Y-1026080
R02X-1000000
X-7421320Y-1594080
Y-2134080
X-9421320Y-1884080
X-5921320Y-712560
R03X-1000000
X-7421320Y713440
R02X-1000000
X-7421320Y145440
Y-394560
X-9421320Y-144560
X-5921320Y1026960
R03X-1000000
X-7421320Y2452960
R02X-1000000
X-7421320Y1884960
Y1344960
X-9421320Y1594960
T10
X-6331310Y-3953590
R03Y1739520
T11
X7092840Y-3435440
R02Y-419990
X6542830Y-3435440
R02Y-419990
T12
X-2828420Y-2828420
X6310000Y2470000
X-1430000Y3690000
X6330000Y-5300000
X-4420000Y-4740000
X2828420Y2828420
M30
