G04 ================== begin FILE IDENTIFICATION RECORD ==================*
G04 Layout Name:  C:/Users/hagzg/Desktop/new/7k325t_ffg900_tmp1.brd*
G04 Film Name:    BOTTOM*
G04 File Format:  Gerber RS274X*
G04 File Origin:  Cadence Allegro 17.2-S053*
G04 Origin Date:  Tue Nov 26 13:13:30 2019*
G04 *
G04 Layer:  VIA CLASS/BOTTOM*
G04 Layer:  PIN/BOTTOM*
G04 Layer:  ETCH/BOTTOM*
G04 Layer:  BOARD GEOMETRY/DESIGN_OUTLINE*
G04 *
G04 Offset:    (0.0000 0.0000)*
G04 Mirror:    No*
G04 Mode:      Positive*
G04 Rotation:  0*
G04 FullContactRelief:  No*
G04 UndefLineWidth:     0.0000*
G04 ================== end FILE IDENTIFICATION RECORD ====================*
%FSLAX45Y45*MOMM*%
%IR0*IPPOS*OFA0.00000B0.00000*MIA0B0*SFA1.00000B1.00000*%
%ADD21R,.4X1.*%
%ADD27C,.3*%
%ADD13C,.4*%
%ADD30C,.45*%
%ADD12R,.9144X1.27*%
%ADD11R,.508X.508*%
%ADD26R,.762X.762*%
%ADD14R,.9144X.9144*%
%ADD29C,.5588*%
%ADD24R,1.27X1.143*%
%ADD20R,1.143X1.27*%
%ADD22C,2.032*%
%ADD17C,1.15*%
%ADD10R,2.X2.*%
%ADD34C,1.8001*%
%ADD16C,1.73*%
%ADD35R,3.556X2.032*%
%ADD33R,2.032X3.556*%
%ADD31C,1.4224*%
%ADD23R,1.27X1.27*%
%ADD15R,1.73X1.73*%
%ADD19C,1.7272*%
%ADD28R,1.778X1.524*%
%ADD32C,2.794*%
%ADD25R,1.524X1.778*%
%ADD18R,1.7272X1.7272*%
%ADD36C,.2*%
%ADD37C,.5*%
%ADD38C,.15*%
%ADD39C,.27*%
%ADD40C,.28*%
%ADD41C,.127*%
%ADD42C,.254*%
%ADD43C,.0886*%
%ADD44C,.6544*%
G75*
%LPD*%
G75*
G36*
G01X-1930000Y1540000D02*
X-1580000D01*
X-1570000Y1530000D01*
Y880000D01*
X-1510000Y820000D01*
X-1341740D01*
G02X-1331850Y807510I3J-10159D01*
G03X-1332720Y800000I31852J-7495D01*
G03X-1267280I32720J0D01*
G03X-1268150Y807510I-32722J15D01*
G02X-1258260Y820000I9887J2331D01*
G01X-841740D01*
G02X-831850Y807510I3J-10159D01*
G03X-832720Y800000I31852J-7495D01*
G03X-767280I32720J0D01*
G03X-768150Y807510I-32722J15D01*
G02X-758260Y820000I9887J2331D01*
G01X-741740D01*
G02X-731850Y807510I3J-10159D01*
G03X-732720Y800000I31852J-7495D01*
G03X-667280I32720J0D01*
G03X-668150Y807510I-32722J15D01*
G02X-658260Y820000I9887J2331D01*
G01X-641740D01*
G02X-631850Y807510I3J-10159D01*
G03X-632720Y800000I31852J-7495D01*
G03X-567280I32720J0D01*
G03X-568150Y807510I-32722J15D01*
G02X-558260Y820000I9887J2331D01*
G01X-541740D01*
G02X-531850Y807510I3J-10159D01*
G03X-532720Y800000I31852J-7495D01*
G03X-467280I32720J0D01*
G03X-468150Y807510I-32722J15D01*
G02X-458260Y820000I9887J2331D01*
G01X-341740D01*
G02X-331850Y807510I3J-10159D01*
G03X-332720Y800000I31852J-7495D01*
G03X-300000Y767280I32720J0D01*
G03X-269250Y788810I0J32724D01*
G02X-252520Y792520I9547J-3473D01*
G01X-177150Y717150D01*
Y660000D01*
G03X-172130Y647870I17152J-5D01*
G01X-131920Y607660D01*
X-132320Y605110D01*
G03X-132720Y600000I32321J-5101D01*
G03X-100000Y632720I32720J0D01*
G03X-105110Y632320I-9J-32721D01*
G01X-107660Y631920D01*
X-142850Y667100D01*
Y680000D01*
X-125900D01*
G03X-100000Y667280I25900J20008D01*
G03X-74100Y680000I0J32728D01*
G01X190000D01*
X198380Y671620D01*
G02X191190Y654280I-7188J-7180D01*
G01X184610D01*
G03X172480Y649260I-5J-17152D01*
G01X150740Y627520D01*
G03X145720Y615390I12132J-12125D01*
G01Y589970D01*
X72900Y517150D01*
X-72130D01*
G03X-100000Y532720I-27870J-17158D01*
G03Y467280I0J-32720D01*
G03X-72130Y482850I0J32728D01*
G01X-38120D01*
Y477430D01*
X-38170Y477100D01*
G03X-38280Y475410I12611J-1669D01*
G01Y399210D01*
G03X-25560Y386490I12720J0D01*
G01X50640D01*
G03X57130Y388270I0J12721D01*
G02X71250Y384380I5190J-8735D01*
G03X100000Y367280I28750J15618D01*
G03X132720Y400000I0J32720D01*
G03X108580Y431580I-32727J0D01*
G01X107270Y431930D01*
X82290Y456910D01*
G03X67550Y464600I-19601J-19600D01*
G01X63360Y465350D01*
Y475410D01*
G03X63250Y477100I-12721J21D01*
G01X63200Y477430D01*
Y482850D01*
X80000D01*
G03X92130Y487870I5J17152D01*
G01X175000Y570740D01*
G03X175750Y571550I-12203J12051D01*
G02X182320Y572470I3819J-3352D01*
G03X200000Y567280I17680J27519D01*
G03X232720Y600000I0J32720D01*
G03X227530Y617680I-32709J0D01*
G02X228450Y624250I4272J2751D01*
G03X229260Y625000I-11241J12953D01*
G01X237130Y632870D01*
X296610Y573390D01*
X187870Y464650D01*
G03X182850Y452520I12132J-12125D01*
G01Y427870D01*
G03X167280Y400000I17158J-27870D01*
G03X232720I32720J0D01*
G03X217150Y427870I-32728J0D01*
G01Y445420D01*
X320870Y549130D01*
X367320Y502680D01*
X367280Y500530D01*
Y500000D01*
G03X400000Y467280I32720J0D01*
G01X400530D01*
X402680Y467320D01*
X470000Y400000D01*
Y213100D01*
X469630Y212190D01*
G03X467280Y200000I30373J-12177D01*
G03X469630Y187810I32723J-13D01*
G01X470000Y186900D01*
Y-30000D01*
X460000Y-40000D01*
X390000D01*
X380000Y-30000D01*
Y30000D01*
X327740Y82260D01*
X329350Y85530D01*
G03X332720Y100000I-29352J14463D01*
G03X267280I-32720J0D01*
G03X268150Y92490I32722J-15D01*
G02X258260Y80000I-9887J-2331D01*
G01X141740D01*
G02X131850Y92490I-3J10159D01*
G03X132720Y100000I-31852J7495D01*
G03X67280I-32720J0D01*
G03X67730Y94570I32722J-22D01*
G02X57720Y82720I-10017J-1692D01*
G01X50040D01*
X49310Y82950D01*
G03X45560Y83510I-3733J-12163D01*
G01X-30640D01*
G03X-34390Y82950I-17J-12723D01*
G01X-35120Y82720D01*
X-157720D01*
G02X-167730Y94570I7J10158D01*
G03X-167280Y100000I-32272J5408D01*
G03X-232720I-32720J0D01*
G03X-232270Y94570I32722J-22D01*
G02X-242280Y82720I-10017J-1692D01*
G01X-315270D01*
X-362720Y35270D01*
Y-115270D01*
X-255270Y-222720D01*
X-247280D01*
X-240000Y-230000D01*
X-213100D01*
X-212190Y-230370D01*
G03X-200000Y-232720I12177J30373D01*
G03X-187810Y-230370I13J32723D01*
G01X-186900Y-230000D01*
X-113100D01*
X-112190Y-230370D01*
G03X-100000Y-232720I12177J30373D01*
G03X-87810Y-230370I13J32723D01*
G01X-86900Y-230000D01*
X-81470D01*
G02X-77870Y-238670I5J-5080D01*
G01X-107270Y-268070D01*
X-108580Y-268420D01*
G03X-132720Y-300000I8587J-31580D01*
G03X-100000Y-332720I32720J0D01*
G03X-68420Y-308580I0J32727D01*
G01X-68070Y-307270D01*
X-48320Y-287520D01*
G02X-34220Y-287270I7180J-7188D01*
G03X-25560Y-290670I8660J9329D01*
G01X50640D01*
G03X54240Y-290150I0J12722D01*
G02X67280Y-299920I2880J-9743D01*
G01Y-300000D01*
G03X100000Y-332720I32720J0D01*
G03X132720Y-300240I0J32721D01*
G02X144300Y-290250I10159J-69D01*
G03X150000Y-290650I5689J40261D01*
G03X155700Y-290250I11J40661D01*
G02X167280Y-300240I1421J-10059D01*
G03X200000Y-332720I32720J241D01*
G03X232720Y-300000I0J32720D01*
G03X200240Y-267280I-32721J0D01*
G02X190260Y-255700I78J10158D01*
G03X190660Y-249990I-40261J5689D01*
G03X190260Y-244300I-40670J0D01*
G02X200240Y-232720I10059J1421D01*
G03X208160Y-231690I-228J32721D01*
G01X210960Y-230960D01*
X260000Y-280000D01*
Y-700000D01*
X250690Y-709310D01*
X248690Y-709370D01*
G03X244300Y-709750I1306J-40640D01*
G02X232720Y-699760I-1421J10059D01*
G03X200000Y-667280I-32720J-241D01*
G03X168420Y-691440I0J-32719D01*
G01X168070Y-692740D01*
X151480Y-709320D01*
X149420Y-709350D01*
G03X144300Y-709750I601J-40658D01*
G02X132720Y-699760I-1421J10059D01*
G03X100000Y-667280I-32720J-241D01*
G03X72680Y-681990I0J-32725D01*
G01X71180Y-684280D01*
X63360D01*
Y-675410D01*
X65170Y-673890D01*
G03X66910Y-672290I-17876J21186D01*
G01X107270Y-631930D01*
X108580Y-631580D01*
G03X132720Y-600000I-8587J31580D01*
G03X100000Y-567280I-32720J0D01*
G03X68420Y-591420I0J-32727D01*
G01X68070Y-592730D01*
X57410Y-603390D01*
X54470Y-602460D01*
G03X50640Y-601870I-3830J-12136D01*
G01X-25560D01*
G03X-38280Y-614590I0J-12720D01*
G01Y-690790D01*
G03X-25560Y-703510I12720J0D01*
G01X50640D01*
G03X55220Y-702660I8J12721D01*
G02X68620Y-709260I3657J-9478D01*
G03X99760Y-732720I31382J9259D01*
G02X109740Y-744300I-78J-10158D01*
G03X109590Y-745490I40263J-5680D01*
G01X109090Y-750000D01*
X63690D01*
X62390Y-746870D01*
G03X50640Y-739030I-11750J-4885D01*
G01X-25560D01*
G03X-37310Y-746870I0J-12725D01*
G01X-38610Y-750000D01*
X-98530D01*
G02X-102130Y-741330I-5J5080D01*
G01X-92730Y-731930D01*
X-91420Y-731580D01*
G03X-67280Y-700000I-8587J31580D01*
G03X-100000Y-667280I-32720J0D01*
G03X-131580Y-691420I0J-32727D01*
G01X-131930Y-692730D01*
X-148530Y-709320D01*
X-150590Y-709350D01*
G03X-155700Y-709750I612J-40657D01*
G02X-167280Y-699760I-1421J10059D01*
G03X-200000Y-667280I-32720J-241D01*
G03X-232720Y-700000I0J-32720D01*
G03X-200240Y-732720I32721J0D01*
G02X-190260Y-744300I-78J-10158D01*
G03X-190410Y-745490I40263J-5680D01*
G01X-190910Y-750000D01*
X-282010D01*
X-287000Y-745010D01*
G02X-284600Y-728870I7188J7180D01*
G03X-267280Y-700000I-15401J28870D01*
G03X-300000Y-667280I-32720J0D01*
G03X-332650Y-697800I0J-32724D01*
G02X-342780Y-707280I-10136J678D01*
G01X-357220D01*
G02X-367350Y-697800I6J10158D01*
G03X-400000Y-667280I-32650J-2204D01*
G03X-425870Y-679960I0J-32730D01*
G02X-441080Y-680930I-8032J6218D01*
G01X-474730Y-647280D01*
X-1467280D01*
Y-604770D01*
G03X-1476490Y-582010I-32728J0D01*
G01Y-539360D01*
G03X-1489210Y-526640I-12720J0D01*
G01X-1531860D01*
X-1544320Y-514170D01*
G03X-1567460Y-504590I-23134J-23142D01*
G01X-1701720D01*
Y-499210D01*
G03X-1714440Y-486490I-12720J0D01*
G01X-1790640D01*
G03X-1803360Y-499210I0J-12720D01*
G01Y-575410D01*
G03X-1790640Y-588130I12720J0D01*
G01X-1714440D01*
G03X-1701720Y-575410I0J12720D01*
G01Y-570030D01*
X-1581010D01*
X-1578130Y-572910D01*
Y-615560D01*
G03X-1565410Y-628280I12720J0D01*
G01X-1532720D01*
Y-647280D01*
X-1665270D01*
X-1735270Y-717280D01*
X-2105270D01*
X-2202720Y-814730D01*
Y-884730D01*
X-2252720Y-934730D01*
Y-1136100D01*
G02X-2263460Y-1146240I-10159J2D01*
G03X-2265310Y-1146190I-1809J-32671D01*
G03Y-1211630I0J-32720D01*
G03X-2263460Y-1211580I41J32721D01*
G02X-2252720Y-1221720I581J-10142D01*
G01Y-1718150D01*
G02X-2265100Y-1728070I-10161J-4D01*
G03X-2272230Y-1727280I-7146J-31928D01*
G03Y-1792720I0J-32720D01*
G03X-2265100Y-1791930I-16J32718D01*
G02X-2252720Y-1801850I2219J-9916D01*
G01Y-2004730D01*
X-2462720Y-2214730D01*
Y-3155270D01*
X-2445270Y-3172720D01*
X-1714730D01*
X-1227280Y-2685270D01*
Y-2414730D01*
X-1354730Y-2287280D01*
X-1454730D01*
X-1957280Y-1784730D01*
Y-1535270D01*
X-1917280Y-1495270D01*
Y-925270D01*
X-1864730Y-872720D01*
X-1654730D01*
X-1584730Y-802720D01*
X-1532870D01*
X-1532020Y-806750D01*
G03X-1467980I32020J6755D01*
G01X-1467130Y-802720D01*
X-1432870D01*
X-1432020Y-806750D01*
G03X-1367980I32020J6755D01*
G01X-1367130Y-802720D01*
X-1332870D01*
X-1332020Y-806750D01*
G03X-1267980I32020J6755D01*
G01X-1267130Y-802720D01*
X-1232870D01*
X-1232020Y-806750D01*
G03X-1167980I32020J6755D01*
G01X-1167130Y-802720D01*
X-1032870D01*
X-1032020Y-806750D01*
G03X-967980I32020J6755D01*
G01X-967130Y-802720D01*
X-832870D01*
X-832020Y-806750D01*
G03X-767980I32020J6755D01*
G01X-767130Y-802720D01*
X-632870D01*
X-632020Y-806750D01*
G03X-567980I32020J6755D01*
G01X-567130Y-802720D01*
X-432870D01*
X-432020Y-806750D01*
G03X-367980I32020J6755D01*
G01X-367130Y-802720D01*
X-284730D01*
X-282010Y-800000D01*
X-233020D01*
X-232420Y-804400D01*
G03X-167580I32420J4397D01*
G01X-166980Y-800000D01*
X-133020D01*
X-132420Y-804400D01*
G03X-104400Y-832420I32420J4400D01*
G01X-100000Y-833020D01*
Y-866980D01*
X-104400Y-867580D01*
G03Y-932420I4397J-32420D01*
G01X-100000Y-933020D01*
Y-940000D01*
X-110000Y-950000D01*
X-620000D01*
X-655700Y-985700D01*
G02X-671680Y-983610I-7188J7180D01*
G03X-700000Y-967280I-28320J-16392D01*
G03X-731580Y-991440I0J-32719D01*
G01X-731930Y-992740D01*
X-748520Y-1009320D01*
X-750580Y-1009350D01*
G03X-756830Y-1009930I621J-40656D01*
G01X-757250Y-1010000D01*
X-767600D01*
Y-1004590D01*
X-767560Y-1004260D01*
G03X-767280Y-1000000I-32439J4271D01*
G03X-800000Y-967280I-32720J0D01*
G03X-832720Y-999880I0J-32720D01*
G02X-842880Y-1010000I-10160J40D01*
G01X-857120D01*
G02X-867280Y-999880I0J10160D01*
G03X-900000Y-967280I-32720J-120D01*
G03X-931580Y-991440I0J-32719D01*
G01X-931930Y-992740D01*
X-948520Y-1009320D01*
X-950580Y-1009350D01*
G03X-956830Y-1009930I621J-40656D01*
G01X-957250Y-1010000D01*
X-967600D01*
Y-1004590D01*
X-967560Y-1004260D01*
G03X-967280Y-1000000I-32439J4271D01*
G03X-1000000Y-967280I-32720J0D01*
G03X-1032720Y-999880I0J-32720D01*
G02X-1042880Y-1010000I-10160J40D01*
G01X-1057120D01*
G02X-1067280Y-999880I0J10160D01*
G03X-1132720I-32720J-120D01*
G02X-1142880Y-1010000I-10160J40D01*
G01X-1157120D01*
G02X-1167280Y-999880I0J10160D01*
G03X-1232720I-32720J-120D01*
G02X-1242880Y-1010000I-10160J40D01*
G01X-1257120D01*
G02X-1267280Y-999880I0J10160D01*
G03X-1332720I-32720J-120D01*
G02X-1342880Y-1010000I-10160J40D01*
G01X-1357120D01*
G02X-1367280Y-999880I0J10160D01*
G03X-1400000Y-967280I-32720J-120D01*
G03X-1432720Y-1000000I0J-32720D01*
G03X-1416390Y-1028320I32722J0D01*
G02X-1414300Y-1044300I-5090J-8792D01*
G01X-1455700Y-1085700D01*
G02X-1471680Y-1083610I-7188J7180D01*
G03X-1500000Y-1067280I-28320J-16392D01*
G03Y-1132720I0J-32720D01*
G03X-1484860Y-1129010I6J32722D01*
G02X-1470000Y-1138010I4701J-9005D01*
G01Y-1161990D01*
G02X-1484860Y-1170990I-10159J5D01*
G03X-1500000Y-1167280I-15134J-29012D01*
G03Y-1232720I0J-32720D01*
G03X-1484860Y-1229010I6J32722D01*
G02X-1470000Y-1238010I4701J-9005D01*
G01Y-1261990D01*
G02X-1484860Y-1270990I-10159J5D01*
G03X-1500000Y-1267280I-15134J-29012D01*
G03Y-1332720I0J-32720D01*
G03X-1484860Y-1329010I6J32722D01*
G02X-1470000Y-1338010I4701J-9005D01*
G01Y-1361990D01*
G02X-1484860Y-1370990I-10159J5D01*
G03X-1500000Y-1367280I-15134J-29012D01*
G03Y-1432720I0J-32720D01*
G03X-1484860Y-1429010I6J32722D01*
G02X-1470000Y-1438010I4701J-9005D01*
G01Y-1467680D01*
G02X-1485710Y-1476190I-10160J1D01*
G03X-1503590Y-1470870I-17880J-27386D01*
G03Y-1536310I0J-32720D01*
G03X-1485710Y-1530990I0J32706D01*
G02X-1470000Y-1539500I5550J-8511D01*
G01Y-1610000D01*
X-1477280Y-1617280D01*
X-1485270D01*
X-1562720Y-1694730D01*
Y-1835270D01*
X-1545270Y-1852720D01*
X-1485270D01*
X-1295270Y-2042720D01*
X-867280D01*
X-810000Y-2100000D01*
Y-2720000D01*
X-1560000Y-3470000D01*
X-3230000D01*
X-3240000Y-3460000D01*
Y-1900000D01*
X-3232720Y-1892720D01*
X-3014730D01*
X-2827280Y-1705270D01*
Y-735270D01*
X-2804730Y-712720D01*
X-2494730D01*
X-2417280Y-635270D01*
Y-25270D01*
X-2404730Y-12720D01*
X-2034730D01*
X-1937280Y84730D01*
Y1532720D01*
X-1930000Y1540000D01*
G37*
G36*
G01X-3230000D02*
X-1960000D01*
X-1950000Y1530000D01*
Y90000D01*
X-2040000Y0D01*
X-2410000D01*
X-2430000Y-20000D01*
Y-494930D01*
G02X-2442490Y-504820I-10159J-3D01*
G03X-2450000Y-503950I-7495J-31852D01*
G03Y-569390I0J-32720D01*
G03X-2442490Y-568520I15J32722D01*
G02X-2430000Y-578410I2331J-9887D01*
G01Y-630000D01*
X-2500000Y-700000D01*
X-2810000D01*
X-2840000Y-730000D01*
Y-1700000D01*
X-3020000Y-1880000D01*
X-3240000D01*
Y-107390D01*
X-3129140D01*
Y-150320D01*
G03X-3116420Y-163040I12720J0D01*
G01X-3024980D01*
G03X-3012260Y-150320I0J12720D01*
G01Y-23320D01*
G03X-3024980Y-10600I-12720J0D01*
G01X-3116420D01*
G03X-3129140Y-23320I0J-12720D01*
G01Y-69250D01*
X-3240000D01*
Y385670D01*
X-3129140D01*
Y342740D01*
G03X-3116420Y330020I12720J0D01*
G01X-3024980D01*
G03X-3012260Y342740I0J12720D01*
G01Y469740D01*
G03X-3024980Y482460I-12720J0D01*
G01X-3116420D01*
G03X-3129140Y469740I0J-12720D01*
G01Y423810D01*
X-3240000D01*
Y878730D01*
X-3129140D01*
Y835800D01*
G03X-3116420Y823080I12720J0D01*
G01X-3024980D01*
G03X-3012260Y835800I0J12720D01*
G01Y962800D01*
G03X-3024980Y975520I-12720J0D01*
G01X-3116420D01*
G03X-3129140Y962800I0J-12720D01*
G01Y916870D01*
X-3240000D01*
Y1371790D01*
X-3129140D01*
Y1328860D01*
G03X-3116420Y1316140I12720J0D01*
G01X-3024980D01*
G03X-3012260Y1328860I0J12720D01*
G01Y1455860D01*
G03X-3024980Y1468580I-12720J0D01*
G01X-3116420D01*
G03X-3129140Y1455860I0J-12720D01*
G01Y1409930D01*
X-3240000D01*
Y1530000D01*
X-3230000Y1540000D01*
G37*
G36*
G01X-1660000Y-660000D02*
X-480000D01*
X-440000Y-700000D01*
X-390000D01*
X-370000Y-720000D01*
X-330000D01*
X-280000Y-770000D01*
Y-780000D01*
X-290000Y-790000D01*
X-1268670D01*
X-1270000Y-786950D01*
G03X-1330000I-30000J-13042D01*
G01X-1331330Y-790000D01*
X-1468670D01*
X-1470000Y-786950D01*
G03X-1530000I-30000J-13042D01*
G01X-1531330Y-790000D01*
X-1590000D01*
X-1660000Y-860000D01*
X-1870000D01*
X-1930000Y-920000D01*
Y-1490000D01*
X-1970000Y-1530000D01*
Y-1790000D01*
X-1460000Y-2300000D01*
X-1360000D01*
X-1240000Y-2420000D01*
Y-2680000D01*
X-1720000Y-3160000D01*
X-2440000D01*
X-2450000Y-3150000D01*
Y-2220000D01*
X-2301060Y-2071060D01*
X-2300110Y-2070670D01*
G03X-2293160Y-2063720I-4820J11770D01*
G01X-2292770Y-2062770D01*
X-2240000Y-2010000D01*
Y-1765660D01*
X-2239930Y-1765250D01*
G03X-2239510Y-1760000I-32302J5226D01*
G03X-2239930Y-1754750I-32722J24D01*
G01X-2240000Y-1754340D01*
Y-940000D01*
X-2190000Y-890000D01*
Y-820000D01*
X-2100000Y-730000D01*
X-2005590D01*
X-2004780Y-730280D01*
G03X-2000640Y-730970I4133J12031D01*
G01X-1924440D01*
G03X-1920300Y-730280I7J12721D01*
G01X-1919490Y-730000D01*
X-1875590D01*
X-1874780Y-730280D01*
G03X-1870640Y-730970I4133J12031D01*
G01X-1794440D01*
G03X-1790300Y-730280I7J12721D01*
G01X-1789490Y-730000D01*
X-1730000D01*
X-1660000Y-660000D01*
G37*
G36*
G01X-592010Y2000000D02*
X-590000D01*
X-530000Y1940000D01*
Y1513100D01*
X-530370Y1512190D01*
G03X-532720Y1500000I30373J-12177D01*
G03X-530370Y1487810I32723J-13D01*
G01X-530000Y1486900D01*
Y1313100D01*
X-530370Y1312190D01*
G03X-532720Y1300000I30373J-12177D01*
G03X-530370Y1287810I32723J-13D01*
G01X-530000Y1286900D01*
Y1213100D01*
X-530370Y1212190D01*
G03X-532720Y1200000I30373J-12177D01*
G03X-530370Y1187810I32723J-13D01*
G01X-530000Y1186900D01*
Y1113100D01*
X-530370Y1112190D01*
G03X-532720Y1100000I30373J-12177D01*
G03X-530370Y1087810I32723J-13D01*
G01X-530000Y1086900D01*
Y1070000D01*
X-576860Y1023140D01*
G03X-600000Y1032720I-23134J-23142D01*
G03X-632720Y1000000I0J-32720D01*
G03X-623140Y976860I32722J-6D01*
G01X-650000Y950000D01*
X-1450000D01*
X-1520000Y1020000D01*
Y1550000D01*
X-1570000Y1600000D01*
X-1910000D01*
X-1940000Y1630000D01*
Y1950000D01*
X-1892720Y1997280D01*
X-1187150D01*
X-1185830Y1996330D01*
G03X-1178420Y1993950I7410J10345D01*
G01X-1051420D01*
G03X-1044010Y1996330I0J12725D01*
G01X-1042690Y1997280D01*
X-594730D01*
X-592010Y2000000D01*
G37*
G36*
G01X-600000Y2450000D02*
X-550000Y2400000D01*
Y2060000D01*
X-600000Y2010000D01*
X-1890000D01*
X-1940000Y2060000D01*
Y2400000D01*
X-1890000Y2450000D01*
X-600000D01*
G37*
G36*
G01X-1460000Y-1690000D02*
X-1370000D01*
X-1360000Y-1700000D01*
X-940000D01*
X-930000Y-1710000D01*
Y-1950000D01*
X-890000Y-1990000D01*
X-860000D01*
X-850000Y-2000000D01*
Y-2020000D01*
X-860000Y-2030000D01*
X-1290000D01*
X-1480000Y-1840000D01*
X-1540000D01*
X-1550000Y-1830000D01*
Y-1700000D01*
X-1480000Y-1630000D01*
X-1470000D01*
Y-1680000D01*
X-1460000Y-1690000D01*
G37*
G36*
G01X431330Y-810000D02*
X468670D01*
X470000Y-813050D01*
G03X500000Y-832720I30000J13042D01*
G03X521410Y-824740I0J32711D01*
G02X535240Y-825240I6646J-7685D01*
G01X574760Y-864760D01*
G02X575260Y-878590I-7185J-7184D01*
G03X567280Y-900000I24731J-21410D01*
G03X600000Y-932720I32720J0D01*
G03X615140Y-929010I6J32722D01*
G02X630000Y-938010I4701J-9005D01*
G01Y-961990D01*
G02X615140Y-970990I-10159J5D01*
G03X600000Y-967280I-15134J-29012D01*
G03Y-1032720I0J-32720D01*
G03X615140Y-1029010I6J32722D01*
G02X630000Y-1038010I4701J-9005D01*
G01Y-1061990D01*
G02X615140Y-1070990I-10159J5D01*
G03X600000Y-1067280I-15134J-29012D01*
G03Y-1132720I0J-32720D01*
G03X615140Y-1129010I6J32722D01*
G02X630000Y-1138010I4701J-9005D01*
G01Y-1150000D01*
X610960Y-1169040D01*
X608160Y-1168310D01*
G03X600000Y-1167280I-8145J-31692D01*
G03X567280Y-1200000I0J-32720D01*
G03X568310Y-1208160I32722J-15D01*
G01X569040Y-1210960D01*
X510960Y-1269040D01*
X508160Y-1268310D01*
G03X500000Y-1267280I-8145J-31692D01*
G03X467280Y-1300000I0J-32720D01*
G03X468310Y-1308160I32722J-15D01*
G01X469040Y-1310960D01*
X440000Y-1340000D01*
X430790D01*
G02X423500Y-1322770I4J10159D01*
G03X432720Y-1300000I-23507J22770D01*
G03X367280I-32720J0D01*
G03X376500Y-1322770I32727J0D01*
G02X369210Y-1340000I-7294J-7071D01*
G01X-69210D01*
G02X-76500Y-1322770I4J10159D01*
G03X-67280Y-1300000I-23507J22770D01*
G03X-132720I-32720J0D01*
G03X-123500Y-1322770I32727J0D01*
G02X-130790Y-1340000I-7294J-7071D01*
G01X-430000D01*
X-440000Y-1330000D01*
Y-1220000D01*
X-450000Y-1210000D01*
X-557120D01*
G02X-567280Y-1199880I0J10160D01*
G03X-600000Y-1167280I-32720J-120D01*
G03Y-1232720I0J-32720D01*
G03X-592490Y-1231850I15J32722D01*
G02X-580000Y-1241740I2331J-9887D01*
G01Y-2090000D01*
X-590000Y-2100000D01*
X-780000D01*
X-840000Y-2040000D01*
X-830000Y-2030000D01*
Y-1990000D01*
X-860000Y-1960000D01*
X-880000D01*
X-900000Y-1940000D01*
Y-1700000D01*
X-930000Y-1670000D01*
X-1410000D01*
X-1430000Y-1650000D01*
Y-1538010D01*
G02X-1415140Y-1529010I10159J-5D01*
G03X-1400000Y-1532720I15134J29012D01*
G03Y-1467280I0J32720D01*
G03X-1415140Y-1470990I-6J-32722D01*
G02X-1430000Y-1461990I-4701J9005D01*
G01Y-1438010D01*
G02X-1415140Y-1429010I10159J-5D01*
G03X-1400000Y-1432720I15134J29012D01*
G03Y-1367280I0J32720D01*
G03X-1415140Y-1370990I-6J-32722D01*
G02X-1430000Y-1361990I-4701J9005D01*
G01Y-1238010D01*
G02X-1415140Y-1229010I10159J-5D01*
G03X-1400000Y-1232720I15134J29012D01*
G03X-1368430Y-1208590I0J32717D01*
G01X-1368070Y-1207280D01*
X-1351480Y-1190700D01*
X-1349420Y-1190670D01*
G03X-1344300Y-1190270I-601J40657D01*
G02X-1332720Y-1200250I1421J-10059D01*
G03X-1267280I32720J251D01*
G02X-1255700Y-1190270I10159J-79D01*
G03X-1250580Y-1190670I5721J40258D01*
G01X-1248520Y-1190700D01*
X-1231930Y-1207280D01*
X-1231570Y-1208590D01*
G03X-1200000Y-1232720I31570J8587D01*
G03X-1167280Y-1200000I0J32720D01*
G03X-1191440Y-1168420I-32719J0D01*
G01X-1192740Y-1168070D01*
X-1209310Y-1151490D01*
X-1209340Y-1149430D01*
G03X-1209740Y-1144300I-40658J-590D01*
G02X-1199760Y-1132720I10058J1422D01*
G03X-1167280Y-1100000I-241J32720D01*
G03X-1200000Y-1067280I-32720J0D01*
G03X-1232720Y-1099760I0J-32721D01*
G02X-1244300Y-1109750I-10159J69D01*
G03X-1250000Y-1109350I-5689J-40261D01*
G03X-1290660Y-1150010I0J-40660D01*
G03X-1290260Y-1155700I40670J0D01*
G02X-1300240Y-1167280I-10059J-1421D01*
G03X-1305240Y-1167700I231J-32720D01*
G02X-1310930Y-1161280I-811J5013D01*
G03X-1309340Y-1150010I-39071J11259D01*
G03X-1350000Y-1109350I-40660J0D01*
G03X-1355700Y-1109750I-11J-40661D01*
G02X-1367280Y-1099760I-1421J10059D01*
G03X-1376860Y-1076860I-32721J-235D01*
G01X-1350000Y-1050000D01*
X-990910D01*
X-990410Y-1054520D01*
G03X-990260Y-1055700I40406J4537D01*
G02X-1000240Y-1067280I-10059J-1421D01*
G03X-1032720Y-1100000I241J-32720D01*
G03X-1000000Y-1132720I32720J0D01*
G03X-967280Y-1100250I0J32721D01*
G02X-955700Y-1090270I10159J-79D01*
G03X-950000Y-1090670I5689J40261D01*
G03X-909590Y-1054520I0J40661D01*
G01X-909090Y-1050000D01*
X-790910D01*
X-790410Y-1054520D01*
G03X-790260Y-1055700I40406J4537D01*
G02X-800240Y-1067280I-10059J-1421D01*
G03X-832720Y-1100000I241J-32720D01*
G03X-800000Y-1132720I32720J0D01*
G03X-767280Y-1100250I0J32721D01*
G02X-755700Y-1090270I10159J-79D01*
G03X-750000Y-1090670I5689J40261D01*
G03X-709590Y-1054520I0J40661D01*
G01X-709090Y-1050000D01*
X-650000D01*
X-623350Y-1023350D01*
X-619820Y-1026040D01*
G03X-600000Y-1032720I19813J26042D01*
G03X-567580Y-1004400I0J32717D01*
G01X-566980Y-1000000D01*
X-533020D01*
X-532420Y-1004400D01*
G03X-467580I32420J4397D01*
G01X-466980Y-1000000D01*
X-433020D01*
X-432420Y-1004400D01*
G03X-367580I32420J4397D01*
G01X-366980Y-1000000D01*
X-333020D01*
X-332420Y-1004400D01*
G03X-267580I32420J4397D01*
G01X-266980Y-1000000D01*
X-233020D01*
X-232420Y-1004400D01*
G03X-167580I32420J4397D01*
G01X-166980Y-1000000D01*
X-133020D01*
X-132420Y-1004400D01*
G03X-108580Y-1031580I32424J4395D01*
G01X-107270Y-1031930D01*
X-62290Y-1076910D01*
G03X-47550Y-1084600I19601J19600D01*
G01X-43360Y-1085350D01*
Y-1095410D01*
G03X-30640Y-1108130I12720J0D01*
G01X45560D01*
G03X53230Y-1105560I0J12730D01*
G02X68990Y-1110430I6128J-8104D01*
G03X100000Y-1132720I31010J10426D01*
G03Y-1067280I0J32720D01*
G03X75920Y-1077850I0J-32714D01*
G02X58280Y-1070970I-7480J6877D01*
G01Y-1051720D01*
X82260Y-1027740D01*
X85530Y-1029350D01*
G03X100000Y-1032720I14463J29352D01*
G03X132720Y-1000000I0J32720D01*
G03X129350Y-985530I-32722J7D01*
G01X127740Y-982260D01*
X180000Y-930000D01*
X286900D01*
X287810Y-930370D01*
G03X299760Y-932720I12179J30371D01*
G02X309740Y-944300I-78J-10158D01*
G03X309340Y-950010I40261J-5689D01*
G03X309740Y-955700I40670J0D01*
G02X299760Y-967280I-10059J-1421D01*
G03X267280Y-1000000I241J-32720D01*
G03X300000Y-1032720I32720J0D01*
G03X332720Y-1000250I0J32721D01*
G02X344300Y-990270I10159J-79D01*
G03X349420Y-990670I5721J40258D01*
G01X351480Y-990700D01*
X368070Y-1007280D01*
X368430Y-1008590D01*
G03X400000Y-1032720I31570J8587D01*
G03X432720Y-1000000I0J32720D01*
G03X408560Y-968420I-32719J0D01*
G01X407260Y-968070D01*
X390690Y-951490D01*
X390660Y-949430D01*
G03X352510Y-909430I-40656J-583D01*
G01X350590Y-909310D01*
X345640Y-904360D01*
X350000Y-900000D01*
Y-850000D01*
X376650Y-823350D01*
X380180Y-826040D01*
G03X400000Y-832720I19813J26042D01*
G03X430000Y-813050I0J32712D01*
G01X431330Y-810000D01*
G37*
G36*
G01X-86900Y70000D02*
X100000D01*
X102100Y67900D01*
G02X102520Y53990I-7188J-7178D01*
G03X99330Y45560I9544J-8430D01*
G01Y39330D01*
X95120Y35120D01*
X93470Y34870D01*
G03X78010Y27060I4143J-27408D01*
G01X45560Y-5390D01*
X-133100D01*
G03X-147500Y-9430I10J-27717D01*
G03X-150000Y-9350I-2550J-40578D01*
G03X-190660Y-49430I0J-40664D01*
G01X-190690Y-51490D01*
X-207260Y-68070D01*
X-208560Y-68420D01*
G03X-232720Y-100000I8559J-31580D01*
G03X-200000Y-132720I32720J0D01*
G03X-195740Y-132440I-11J32719D01*
G01X-195410Y-132400D01*
X-190000D01*
Y-142680D01*
X-190070Y-143110D01*
G03X-190660Y-149420I40065J-6929D01*
G01X-190680Y-151480D01*
X-207270Y-168070D01*
X-208580Y-168420D01*
G03X-232720Y-200000I8587J-31580D01*
G01Y-200530D01*
X-232680Y-202680D01*
X-240000Y-210000D01*
X-250000D01*
X-268330Y-191670D01*
X-268700Y-190450D01*
G03X-290450Y-168700I-31300J-9550D01*
G01X-291670Y-168330D01*
X-350000Y-110000D01*
Y30000D01*
X-310960Y69040D01*
X-308160Y68310D01*
G03X-300000Y67280I8145J31692D01*
G03X-287810Y69630I13J32723D01*
G01X-286900Y70000D01*
X-113100D01*
X-112190Y69630D01*
G03X-100000Y67280I12177J30373D01*
G03X-87810Y69630I13J32723D01*
G01X-86900Y70000D01*
G37*
G36*
G01X980000Y250000D02*
X1630000D01*
X1640000Y240000D01*
X1760000D01*
X1770000Y230000D01*
Y210000D01*
X1780000Y200000D01*
X2220000D01*
X2240000Y180000D01*
Y110000D01*
X3070000Y-720000D01*
X3490000D01*
X3570000Y-800000D01*
Y-880000D01*
X3500000Y-950000D01*
X2970000D01*
X2050000Y-30000D01*
X1780000D01*
X1770000Y-40000D01*
Y-840000D01*
X1760000Y-850000D01*
X1640000D01*
X1425240Y-635240D01*
G02X1424740Y-621410I7185J7184D01*
G03X1432720Y-600000I-24731J21410D01*
G03X1367280I-32720J0D01*
G03X1368150Y-607510I32722J-15D01*
G02X1358260Y-620000I-9887J-2331D01*
G01X1141740D01*
G02X1131850Y-607510I-3J10159D01*
G03X1132720Y-600000I-31852J7495D01*
G03X1067280I-32720J0D01*
G03X1068150Y-607510I32722J-15D01*
G02X1058260Y-620000I-9887J-2331D01*
G01X1041740D01*
G02X1031850Y-607510I-3J10159D01*
G03X1032720Y-600000I-31852J7495D01*
G03X967280I-32720J0D01*
G03X968150Y-607510I32722J-15D01*
G02X958260Y-620000I-9887J-2331D01*
G01X941740D01*
G02X931850Y-607510I-3J10159D01*
G03X932720Y-600000I-31852J7495D01*
G03X867280I-32720J0D01*
G03X868150Y-607510I32722J-15D01*
G02X858260Y-620000I-9887J-2331D01*
G01X341740D01*
G02X331850Y-607510I-3J10159D01*
G03X332720Y-600000I-31852J7495D01*
G03X300000Y-567280I-32720J0D01*
G03X292490Y-568150I-15J-32722D01*
G02X280000Y-558260I-2331J9887D01*
G01Y-441740D01*
G02X292490Y-431850I10159J3D01*
G03X300000Y-432720I7495J31852D01*
G03Y-367280I0J32720D01*
G03X292490Y-368150I-15J-32722D01*
G02X280000Y-358260I-2331J9887D01*
G01Y-241740D01*
G02X292490Y-231850I10159J3D01*
G03X300000Y-232720I7495J31852D01*
G03Y-167280I0J32720D01*
G03X292490Y-168150I-15J-32722D01*
G02X280000Y-158260I-2331J9887D01*
G01Y-150000D01*
X240000Y-110000D01*
Y40000D01*
X250000Y50000D01*
X330000D01*
X360000Y20000D01*
Y-60000D01*
X376860Y-76860D01*
G03X367280Y-100000I23142J-23134D01*
G03X432720I32720J0D01*
G03X431850Y-92490I-32722J15D01*
G02X441740Y-80000I9887J2331D01*
G01X650000D01*
X690000Y-40000D01*
X740000D01*
X760000Y-20000D01*
Y30000D01*
X980000Y250000D01*
G37*
G36*
G01X1310000Y-750000D02*
X1440000D01*
X1580000Y-890000D01*
X1790000D01*
X1800000Y-900000D01*
Y-1820000D01*
X1770000Y-1850000D01*
X1370000D01*
X1360000Y-1840000D01*
Y-1710000D01*
X1170000Y-1520000D01*
Y-1430000D01*
X1270000Y-1330000D01*
Y-1323340D01*
X1276990D01*
X1278430Y-1324600D01*
G03X1300000Y-1332720I21570J24589D01*
G03Y-1267280I0J32720D01*
G03X1284860Y-1270990I-6J-32722D01*
G02X1270000Y-1261990I-4701J9005D01*
G01Y-790000D01*
X1310000Y-750000D01*
G37*
G36*
G01X1337990Y2010000D02*
X1490000D01*
X1540000Y1960000D01*
Y1230790D01*
G02X1522770Y1223500I-10159J4D01*
G03X1500000Y1232720I-22770J-23507D01*
G03Y1167280I0J-32720D01*
G03X1522770Y1176500I0J32727D01*
G02X1540000Y1169210I7071J-7294D01*
G01Y1130790D01*
G02X1522770Y1123500I-10159J4D01*
G03X1500000Y1132720I-22770J-23507D01*
G03Y1067280I0J-32720D01*
G03X1522770Y1076500I0J32727D01*
G02X1540000Y1069210I7071J-7294D01*
G01Y870000D01*
X1510000Y840000D01*
X870000D01*
X850000Y860000D01*
Y1960000D01*
X900000Y2010000D01*
X912010D01*
X924730Y1997280D01*
X1325270D01*
X1337990Y2010000D01*
G37*
G36*
G01X880000Y2390000D02*
X940000Y2450000D01*
X1310000D01*
X1370000Y2390000D01*
Y2060000D01*
X1320000Y2010000D01*
X930000D01*
X880000Y2060000D01*
Y2390000D01*
G37*
G36*
G01X1630000Y510000D02*
X2220000D01*
X2240000Y490000D01*
Y230000D01*
X2222720Y212720D01*
X1787280D01*
X1782720Y217280D01*
Y235270D01*
X1765270Y252720D01*
X1645270D01*
X1635270Y262720D01*
X1617280D01*
X1610000Y270000D01*
Y490000D01*
X1630000Y510000D01*
G37*
G36*
G01X1787280Y-42720D02*
X2044730D01*
X2130000Y-127990D01*
Y-960000D01*
X2260000Y-1090000D01*
Y-1820000D01*
X2230000Y-1850000D01*
X1860000D01*
X1830000Y-1820000D01*
Y-910000D01*
X1780000Y-860000D01*
Y-847990D01*
X1782720Y-845270D01*
Y-47280D01*
X1787280Y-42720D01*
G37*
G36*
G01X5270000Y-2130000D02*
Y2540000D01*
X5340000Y2610000D01*
X5620000D01*
X5690000Y2540000D01*
Y-2410000D01*
X5610000Y-2490000D01*
X3050000D01*
X2970000Y-2410000D01*
Y-2300000D01*
X3030000Y-2240000D01*
X5160000D01*
X5270000Y-2130000D01*
G37*
%LPC*%
G75*
G36*
G01X-43360Y-479590D02*
Y-469210D01*
G02X-30640Y-456490I12720J0D01*
G01X45560D01*
G02X58280Y-469210I0J-12720D01*
G01Y-545410D01*
G02X45560Y-558130I-12720J0D01*
G01X-30640D01*
G02X-43360Y-545410I0J12720D01*
G01Y-535030D01*
X-92690D01*
G02X-104440Y-532420I-7J27722D01*
G02X-132720Y-500000I4443J32420D01*
G02X-100000Y-467280I32720J0D01*
G02X-74430Y-479590I0J-32712D01*
G01X-43360D01*
G37*
G36*
G01X-1651720Y-234590D02*
X-1580860D01*
X-1523140Y-176860D01*
G02X-1500000Y-167280I23134J-23142D01*
G02X-1467280Y-200000I0J-32720D01*
G02X-1476860Y-223140I-32722J-6D01*
G01X-1544170Y-290450D01*
G02X-1567310Y-300030I-23134J23142D01*
G01X-1651720D01*
Y-305410D01*
G02X-1664440Y-318130I-12720J0D01*
G01X-1740640D01*
G02X-1753360Y-305410I0J12720D01*
G01Y-300030D01*
X-1791720D01*
Y-305410D01*
G02X-1804440Y-318130I-12720J0D01*
G01X-1880640D01*
G02X-1893360Y-305410I0J12720D01*
G01Y-229210D01*
G02X-1880640Y-216490I12720J0D01*
G01X-1804440D01*
G02X-1791720Y-229210I0J-12720D01*
G01Y-234590D01*
X-1753360D01*
Y-229210D01*
G02X-1740640Y-216490I12720J0D01*
G01X-1664440D01*
G02X-1651720Y-229210I0J-12720D01*
G01Y-234590D01*
G37*
G36*
G01X-1363510Y-40640D02*
Y35560D01*
G02X-1350790Y48280I12720J0D01*
G01X-1274590D01*
G02X-1261870Y35560I0J-12720D01*
G01Y1070D01*
X-1192730Y-68070D01*
X-1191420Y-68420D01*
G02X-1167280Y-100000I-8587J-31580D01*
G02X-1200000Y-132720I-32720J0D01*
G02X-1231580Y-108580I0J32727D01*
G01X-1231930Y-107270D01*
X-1285840Y-53360D01*
X-1350790D01*
G02X-1363510Y-40640I0J12720D01*
G37*
G36*
G01X-937120Y53240D02*
X-932720Y53840D01*
Y100000D01*
G02X-867280I32720J0D01*
G01Y53360D01*
X-859210D01*
G02X-846490Y40640I0J-12720D01*
G01Y-35560D01*
G02X-859210Y-48280I-12720J0D01*
G01X-935410D01*
G02X-948130Y-35560I0J12720D01*
G01Y-30180D01*
X-991870D01*
Y-40640D01*
G02X-1004590Y-53360I-12720J0D01*
G01X-1080790D01*
G02X-1093510Y-40640I0J12720D01*
G01Y35560D01*
G02X-1080790Y48280I12720J0D01*
G01X-1004590D01*
G02X-992340Y38980I0J-12718D01*
G01X-991300Y35260D01*
X-948130D01*
Y40640D01*
G02X-937120Y53240I12715J0D01*
G37*
G36*
G01X-1668280Y330030D02*
Y335410D01*
G02X-1655560Y348130I12720J0D01*
G01X-1579360D01*
G02X-1566640Y335410I0J-12720D01*
G01Y259210D01*
G02X-1579360Y246490I-12720J0D01*
G01X-1655560D01*
G02X-1668280Y259210I0J12720D01*
G01Y264590D01*
X-1710000D01*
G02Y330030I0J32720D01*
G01X-1668280D01*
G37*
G36*
G01X-582400Y-514600D02*
G02X-569680Y-501880I12720J0D01*
G01X-518880D01*
G02X-506160Y-514600I0J-12720D01*
G01Y-538920D01*
X-480400Y-564680D01*
G02X-472340Y-582530I-19603J-19596D01*
G02X-467280Y-600000I-27658J-17478D01*
G02X-532720I-32720J0D01*
G02X-532220Y-594320I32718J-18D01*
G01X-531760Y-591720D01*
X-545360Y-578120D01*
X-558750D01*
G03X-568530Y-591060I-6J-10161D01*
G02X-567280Y-600000I-31468J-8957D01*
G02X-632720I-32720J0D01*
G02X-630630Y-588500I32719J-6D01*
G01X-629480Y-585440D01*
X-636800Y-578120D01*
X-661120D01*
G02X-665020Y-577510I-8J12721D01*
G03X-671070Y-584720I-1560J-4835D01*
G02X-667280Y-600000I-28929J-15285D01*
G02X-700000Y-567280I-32720J0D01*
G02X-681460Y-573040I0J-32718D01*
G03X-673600Y-567870I2877J4186D01*
G02X-673840Y-565400I12481J2459D01*
G01Y-514600D01*
G02X-661120Y-501880I12720J0D01*
G01X-610320D01*
G02X-597600Y-514600I0J-12720D01*
G01Y-538920D01*
X-591070Y-545450D01*
G03X-582400Y-541850I3590J3595D01*
G01Y-514600D01*
G37*
G36*
G01X-2167850Y-156890D02*
G02X-2186810Y-164390I-18960J20215D01*
G02Y-108950I0J27720D01*
G02X-2167850Y-116450I0J-27715D01*
G01X-2114510D01*
G02X-2100210Y-122370I0J-20231D01*
G01X-1833450Y-389130D01*
X-1831640Y-389310D01*
G02X-1806560Y-416900I-2636J-27590D01*
G02X-1834280Y-444620I-27720J0D01*
G02X-1861870Y-419540I0J27716D01*
G01X-1862050Y-417730D01*
X-1875660Y-404110D01*
G03X-1893000Y-411440I-7181J-7187D01*
G01Y-411900D01*
G02X-1925720Y-379180I-32720J0D01*
G01X-1925260D01*
G03X-1917930Y-361840I143J10159D01*
G01X-2122890Y-156890D01*
X-2167850D01*
G37*
G36*
G01X-2921100Y-423720D02*
Y-372920D01*
G02X-2908380Y-360200I12720J0D01*
G01X-2857580D01*
G02X-2844860Y-372920I0J-12720D01*
G01Y-378100D01*
X-2815720D01*
G02X-2790000Y-365600I25720J-20211D01*
G02Y-431040I0J-32720D01*
G02X-2815720Y-418540I0J32711D01*
G01X-2844860D01*
Y-423720D01*
G02X-2857580Y-436440I-12720J0D01*
G01X-2908380D01*
G02X-2921100Y-423720I0J12720D01*
G37*
G36*
G01X-3032140Y-335540D02*
Y-244100D01*
G02X-3019420Y-231380I12720J0D01*
G01X-2927980D01*
G02X-2915260Y-244100I0J-12720D01*
G01Y-335540D01*
G02X-2927980Y-348260I-12720J0D01*
G01X-2954630D01*
Y-360200D01*
X-2949020D01*
G02X-2936300Y-372920I0J-12720D01*
G01Y-423720D01*
G02X-2949020Y-436440I-12720J0D01*
G01X-2999820D01*
G02X-3012540Y-423720I0J12720D01*
G01Y-372920D01*
G02X-2999820Y-360200I12720J0D01*
G01X-2992770D01*
Y-348260D01*
X-3019420D01*
G02X-3032140Y-335540I0J12720D01*
G37*
G36*
G01X-2844860Y120140D02*
Y114960D01*
X-2782570D01*
X-2781540Y118690D01*
G02X-2750000Y142720I31540J-8684D01*
G02Y77280I0J-32720D01*
G02X-2754540Y77600I25J32718D01*
G02X-2765260Y74520I-10726J17138D01*
G01X-2844860D01*
Y69340D01*
G02X-2857580Y56620I-12720J0D01*
G01X-2908380D01*
G02X-2921100Y69340I0J12720D01*
G01Y120140D01*
G02X-2908380Y132860I12720J0D01*
G01X-2857580D01*
G02X-2844860Y120140I0J-12720D01*
G37*
G36*
G01X-3032140Y157520D02*
Y248960D01*
G02X-3019420Y261680I12720J0D01*
G01X-2927980D01*
G02X-2915260Y248960I0J-12720D01*
G01Y157520D01*
G02X-2927980Y144800I-12720J0D01*
G01X-2954630D01*
Y132860D01*
X-2949020D01*
G02X-2936300Y120140I0J-12720D01*
G01Y69340D01*
G02X-2949020Y56620I-12720J0D01*
G01X-2999820D01*
G02X-3012540Y69340I0J12720D01*
G01Y120140D01*
G02X-2999820Y132860I12720J0D01*
G01X-2992770D01*
Y144800D01*
X-3019420D01*
G02X-3032140Y157520I0J12720D01*
G37*
G36*
G01X-2921100Y562400D02*
Y613200D01*
G02X-2908380Y625920I12720J0D01*
G01X-2857580D01*
G02X-2844950Y614700I0J-12719D01*
G01X-2844420Y610220D01*
X-2825720D01*
G02X-2800000Y622720I25720J-20211D01*
G02Y557280I0J-32720D01*
G02X-2825720Y569780I0J32711D01*
G01X-2844860D01*
Y562400D01*
G02X-2857580Y549680I-12720J0D01*
G01X-2908380D01*
G02X-2921100Y562400I0J12720D01*
G37*
G36*
G01X-3032140Y650580D02*
Y742020D01*
G02X-3019420Y754740I12720J0D01*
G01X-2927980D01*
G02X-2915260Y742020I0J-12720D01*
G01Y650580D01*
G02X-2927980Y637860I-12720J0D01*
G01X-2954630D01*
Y625920D01*
X-2949020D01*
G02X-2936300Y613200I0J-12720D01*
G01Y562400D01*
G02X-2949020Y549680I-12720J0D01*
G01X-2999820D01*
G02X-3012540Y562400I0J12720D01*
G01Y613200D01*
G02X-2999820Y625920I12720J0D01*
G01X-2992770D01*
Y637860D01*
X-3019420D01*
G02X-3032140Y650580I0J12720D01*
G37*
G36*
G01X-2921100Y1055460D02*
Y1106260D01*
G02X-2908380Y1118980I12720J0D01*
G01X-2857580D01*
G02X-2844860Y1106260I0J-12720D01*
G01Y1100220D01*
X-2835820D01*
X-2834310Y1101900D01*
G02X-2810000Y1112720I24310J-21899D01*
G02Y1047280I0J-32720D01*
G02X-2834310Y1058100I0J32719D01*
G01X-2835820Y1059780D01*
X-2844660D01*
X-2844870Y1054920D01*
G02X-2857580Y1042740I-12710J542D01*
G01X-2908380D01*
G02X-2921100Y1055460I0J12720D01*
G37*
G36*
G01X-3032140Y1143640D02*
Y1235080D01*
G02X-3019420Y1247800I12720J0D01*
G01X-2927980D01*
G02X-2915260Y1235080I0J-12720D01*
G01Y1143640D01*
G02X-2927980Y1130920I-12720J0D01*
G01X-2954630D01*
Y1118980D01*
X-2949020D01*
G02X-2936300Y1106260I0J-12720D01*
G01Y1055460D01*
G02X-2949020Y1042740I-12720J0D01*
G01X-2999820D01*
G02X-3012540Y1055460I0J12720D01*
G01Y1106260D01*
G02X-2999820Y1118980I12720J0D01*
G01X-2992770D01*
Y1130920D01*
X-3019420D01*
G02X-3032140Y1143640I0J12720D01*
G37*
G36*
G01X-1090260Y-1444300D02*
G03X-1100240Y-1432720I-10059J1421D01*
G02X-1132720Y-1400000I241J32720D01*
G02X-1100000Y-1367280I32720J0D01*
G02X-1067280Y-1399750I0J-32721D01*
G03X-1055700Y-1409730I10159J79D01*
G02X-1050000Y-1409330I5689J-40261D01*
G02X-1009340Y-1449990I0J-40660D01*
G02X-1049420Y-1490650I-40664J0D01*
G01X-1051480Y-1490680D01*
X-1068070Y-1507260D01*
X-1068420Y-1508560D01*
G02X-1100000Y-1532720I-31580J8559D01*
G02X-1132720Y-1500000I0J32720D01*
G02X-1108590Y-1468430I32717J0D01*
G01X-1107280Y-1468070D01*
X-1090690Y-1451470D01*
X-1090660Y-1449410D01*
G02X-1090260Y-1444300I40657J-612D01*
G37*
G36*
G01X-690260D02*
G03X-700240Y-1432720I-10059J1421D01*
G02X-732720Y-1400000I241J32720D01*
G02X-700000Y-1367280I32720J0D01*
G02X-667280Y-1399750I0J-32721D01*
G03X-655700Y-1409730I10159J79D01*
G02X-650000Y-1409330I5689J-40261D01*
G02X-609340Y-1449990I0J-40660D01*
G02X-649420Y-1490650I-40664J0D01*
G01X-651480Y-1490680D01*
X-668070Y-1507260D01*
X-668420Y-1508560D01*
G02X-700000Y-1532720I-31580J8559D01*
G02X-732720Y-1500000I0J32720D01*
G02X-708590Y-1468430I32717J0D01*
G01X-707280Y-1468070D01*
X-690690Y-1451470D01*
X-690660Y-1449410D01*
G02X-690260Y-1444300I40657J-612D01*
G37*
G54D44*
X-400000Y-600000D03*
X-2400650Y-1116670D03*
X400000Y200000D03*
X-700000Y700000D03*
X-600000Y600000D03*
Y700000D03*
X-500000D03*
Y600000D03*
Y500000D03*
X-400000D03*
Y600000D03*
X-200000Y500000D03*
Y300000D03*
X-100000Y200000D03*
X100000Y300000D03*
X200000Y200000D03*
X300000Y300000D03*
X-1500000Y-1000000D03*
X-1300000Y-900000D03*
X-1100000Y-600000D03*
X-800000D03*
X-900000D03*
X-1000000D03*
X-1300000D03*
X-1200000D03*
X-900000Y-500000D03*
X-1400000D03*
X-600000Y-400000D03*
X-1100000D03*
X-400000D03*
X-1300000Y-300000D03*
X-800000D03*
X-300000D03*
X-1000000Y-200000D03*
X-500000D03*
X-400000D03*
X-700000Y-100000D03*
X-1400000Y100000D03*
X-400000D03*
X-1100000Y200000D03*
X-600000D03*
X-300000D03*
X-1100000Y300000D03*
X-800000D03*
X-1300000D03*
X-400000D03*
X-1400000Y400000D03*
X-1300000D03*
X-1500000D03*
X-500000D03*
X-1000000D03*
X-1200000Y500000D03*
X-700000D03*
Y600000D03*
X-900000D03*
X-1400000D03*
X-1500000Y700000D03*
X-1100000D03*
X-300000Y-500000D03*
X-200000Y-300000D03*
Y-600000D03*
Y-400000D03*
X100000D03*
X200000Y-500000D03*
X-1500000Y-900000D03*
X-1300000Y1300000D03*
X-1000000Y1400000D03*
X-900000Y1100000D03*
X-800000Y1400000D03*
X-700000Y1100000D03*
Y1400000D03*
Y1300000D03*
Y1200000D03*
Y1500000D03*
X-600000Y1100000D03*
Y1400000D03*
Y1300000D03*
Y1500000D03*
Y1200000D03*
X-1200000Y1000000D03*
X-1300000Y-1300000D03*
Y-1500000D03*
Y-1400000D03*
X-1200000Y-1500000D03*
Y-1400000D03*
X-1100000Y-1300000D03*
Y-1200000D03*
X-1000000D03*
X-900000Y-1300000D03*
Y-1200000D03*
Y-1500000D03*
Y-1400000D03*
X-800000Y-1200000D03*
X-600000Y-1100000D03*
X-400000D03*
Y-1200000D03*
X-200000Y-1100000D03*
Y-1200000D03*
X-100000D03*
X100000D03*
X200000Y-1000000D03*
X300000Y-1100000D03*
Y-1200000D03*
X400000D03*
X500000Y-1100000D03*
Y-1000000D03*
Y-1200000D03*
Y-900000D03*
X1200000Y-500000D03*
X700000D03*
X1500000Y-400000D03*
X500000D03*
X1000000D03*
X800000Y-300000D03*
X1300000D03*
X400000D03*
X1100000Y-200000D03*
X600000D03*
X1400000Y-100000D03*
X900000D03*
X1200000Y100000D03*
X1000000Y200000D03*
X1500000D03*
X400000Y-500000D03*
X1500000Y-900000D03*
X1400000Y1100000D03*
X1200000D03*
X900000Y1000000D03*
X1000000Y1100000D03*
X1100000Y1400000D03*
X1200000Y1300000D03*
Y1200000D03*
X1403590Y1503590D03*
X1094020Y2378680D03*
X1152120Y2060580D03*
X5408810Y648240D03*
X5448810Y-2261760D03*
X5443730Y-1598710D03*
X5403730Y1311290D03*
X5085630Y-2398810D03*
%LPD*%
G75*
G54D10*
X-9421320Y-3623600D03*
Y-2765600D03*
Y-1884080D03*
Y-1026080D03*
Y-144560D03*
Y713440D03*
Y1594960D03*
Y2452960D03*
X-8921320Y-4191600D03*
Y-2452080D03*
Y-712560D03*
Y1026960D03*
X-8421320Y-2765600D03*
Y-1026080D03*
Y713440D03*
Y2452960D03*
X-7921320Y-4191600D03*
Y-2452080D03*
Y-712560D03*
Y1026960D03*
X-7421320Y-3873600D03*
Y-3333600D03*
Y-2765600D03*
Y-2134080D03*
Y-1594080D03*
Y-1026080D03*
Y-394560D03*
Y145440D03*
Y713440D03*
Y1344960D03*
Y1884960D03*
Y2452960D03*
X-6921320Y-4191600D03*
Y-2452080D03*
Y-712560D03*
Y1026960D03*
X-6421320Y-2765600D03*
Y-1026080D03*
Y713440D03*
Y2452960D03*
X-5921320Y-4191600D03*
Y-2452080D03*
Y-712560D03*
Y1026960D03*
G54D20*
X-6803820Y-4004120D03*
X-6636180D03*
X-6803820Y-2264600D03*
X-6636180D03*
X-6803820Y-525080D03*
X-6636180D03*
X-6803820Y1214440D03*
X-6636180D03*
X1695240Y-773460D03*
X1696180Y-595080D03*
Y-365080D03*
X1862880Y-773460D03*
X1863820Y-595080D03*
Y-365080D03*
X6973680Y1005620D03*
X7141320D03*
G54D11*
X-9325320Y3158230D03*
Y3249670D03*
X-9225320Y3158230D03*
Y3249670D03*
X-8775320Y3158230D03*
Y3249670D03*
X-8265320Y3158230D03*
Y3249670D03*
X-7235720Y-3389040D03*
X-7144280D03*
X-7235720Y-3559040D03*
X-7144280D03*
X-7235720Y-3209040D03*
X-7144280D03*
X-7235720Y-1649520D03*
X-7144280D03*
X-7235720Y-1819520D03*
X-7144280D03*
X-7235720Y-1469520D03*
X-7144280D03*
X-7235720Y90000D03*
X-7144280D03*
X-7235720Y-80000D03*
X-7144280D03*
X-7235720Y270000D03*
X-7144280D03*
X-7235720Y1829520D03*
X-7144280D03*
X-7235720Y1659520D03*
X-7144280D03*
X-7235720Y2009520D03*
X-7144280D03*
X-6674280Y-3769040D03*
X-6765720D03*
X-6674280Y-3609040D03*
X-6765720D03*
X-6674280Y-3389040D03*
X-6765720D03*
X-6674280Y-3299040D03*
X-6765720D03*
X-6674280Y-1869520D03*
X-6765720D03*
X-6674280Y-2029520D03*
X-6765720D03*
X-6674280Y-1649520D03*
X-6765720D03*
X-6674280Y-1559520D03*
X-6765720D03*
X-6674280Y-290000D03*
X-6765720D03*
X-6674280Y-130000D03*
X-6765720D03*
X-6674280Y90000D03*
X-6765720D03*
X-6674280Y180000D03*
X-6765720D03*
X-6674280Y1449520D03*
X-6765720D03*
X-6674280Y1609520D03*
X-6765720D03*
X-6674280Y1829520D03*
X-6765720D03*
X-6674280Y1919520D03*
X-6765720D03*
X-6415720Y-3379040D03*
X-6324280D03*
X-6235720Y-3529040D03*
Y-3379040D03*
X-6415720Y-1639520D03*
X-6324280D03*
X-6235720Y-1789520D03*
Y-1639520D03*
X-6415720Y100000D03*
X-6324280D03*
X-6235720Y-50000D03*
Y100000D03*
X-6415720Y1839520D03*
X-6324280D03*
X-6235720Y1689520D03*
Y1839520D03*
X-6144280Y-3529040D03*
Y-3379040D03*
Y-1789520D03*
Y-1639520D03*
Y-50000D03*
Y100000D03*
Y1689520D03*
Y1839520D03*
X-3584420Y-88320D03*
Y404740D03*
Y897800D03*
Y1390860D03*
X-3492980Y-88320D03*
Y404740D03*
Y897800D03*
Y1390860D03*
X-2882980Y-398320D03*
X-2974420D03*
X-2882980Y94740D03*
X-2974420D03*
X-2882980Y587800D03*
X-2974420D03*
X-2882980Y1080860D03*
X-2974420D03*
X-635720Y-540000D03*
X-544280D03*
X-163780Y-4546610D03*
Y-4455170D03*
X-30000Y955720D03*
Y864280D03*
X271220Y-4281610D03*
X271940Y-4483390D03*
X180500D03*
X271220Y-4190170D03*
X700000Y-1634280D03*
Y-1725720D03*
X800000Y-1634280D03*
Y-1725720D03*
X1249440Y-4215890D03*
X1158000D03*
X900000Y-1634280D03*
Y-1725720D03*
X1348720Y-4274110D03*
X1714720Y-4500110D03*
Y-4408670D03*
X1714690Y-4209140D03*
X1623250D03*
X1348720Y-4182670D03*
X4753730Y-3118810D03*
Y-3027370D03*
Y-1768810D03*
Y-1677370D03*
X4540650Y-737200D03*
Y-828640D03*
X4793730Y1232630D03*
Y1141190D03*
X4713730D03*
Y1232630D03*
X4500650Y1881360D03*
Y1972800D03*
X4833730Y-3027370D03*
Y-3118810D03*
Y-1677370D03*
Y-1768810D03*
X6255850Y3680170D03*
X6164410D03*
Y3770170D03*
X6255850D03*
X7554410Y3670170D03*
X7645850D03*
Y3760170D03*
X7554410D03*
G54D12*
X-9543320Y3092450D03*
X-9003310D03*
X-8543310D03*
X-8033320D03*
X-3070700Y-86820D03*
Y406240D03*
Y899300D03*
Y1392360D03*
G54D30*
X843510Y-4808590D03*
X768510D03*
X843510Y-4733590D03*
X768510D03*
X843510Y-4358590D03*
X768510D03*
X843510Y-4433590D03*
X768510D03*
X843510Y-4508590D03*
X768510D03*
X843510Y-4583590D03*
X768510D03*
X843510Y-4658590D03*
X768510D03*
X918510Y-4733590D03*
Y-4808590D03*
Y-4358590D03*
Y-4433590D03*
Y-4508590D03*
Y-4583590D03*
Y-4658590D03*
X4810350Y2295630D03*
Y2375630D03*
X5125460Y-3246250D03*
X5005460D03*
X5065460Y-3306250D03*
X5125460Y-3366250D03*
X5005460D03*
X5123880Y-1898270D03*
X5003880D03*
X5063880Y-1958270D03*
X5123880Y-2018270D03*
X5003880D03*
X4927780Y-332560D03*
X4847780D03*
X4927780Y-412560D03*
X4847780D03*
X5087470Y1012030D03*
X4967470D03*
X5027470Y952030D03*
X5087470Y892030D03*
X4967470D03*
X4890350Y2295630D03*
Y2375630D03*
G54D21*
X-6687680Y3086620D03*
X-6767690D03*
X-6847670D03*
X-6927680D03*
Y3272420D03*
X-6847670D03*
X-6767690D03*
X-6687680D03*
X-6259690Y3086620D03*
X-6339670D03*
X-6419680D03*
Y3272420D03*
X-6339670D03*
X-6259690D03*
X-5831670Y3086620D03*
X-5911680D03*
X-6179680D03*
X-5911680Y3272420D03*
X-5831670D03*
X-6179680D03*
X-5323670Y3086620D03*
X-5403680D03*
X-5671680D03*
X-5751690D03*
X-5403680Y3272420D03*
X-5323670D03*
X-5751690D03*
X-5671680D03*
X-4895680Y3086620D03*
X-5163680D03*
X-5243690D03*
X-4895680Y3272420D03*
X-5243690D03*
X-5163680D03*
X-4655680Y3086620D03*
X-4735690D03*
X-4815670D03*
Y3272420D03*
X-4735690D03*
X-4655680D03*
X-4147680Y3086620D03*
X-4227690D03*
X-4307670D03*
X-4387680D03*
Y3272420D03*
X-4307670D03*
X-4227690D03*
X-4147680D03*
X-3639680Y3086620D03*
X-3719690D03*
X-3799670D03*
X-3879680D03*
Y3272420D03*
X-3799670D03*
X-3719690D03*
X-3639680D03*
X-3131680Y3086620D03*
X-3211690D03*
X-3291670D03*
X-3371680D03*
Y3272420D03*
X-3291670D03*
X-3211690D03*
X-3131680D03*
X-2703690Y3086620D03*
X-2783670D03*
X-2863680D03*
Y3272420D03*
X-2783670D03*
X-2703690D03*
X-2623680Y3086620D03*
Y3272420D03*
G54D40*
G01X4793730Y1141190D02*
X4868810D01*
G54D31*
X4510590Y-5044150D03*
X4760600D03*
G54D22*
X-6331310Y-3953590D03*
Y-2993600D03*
Y-2214070D03*
Y-1254080D03*
Y-474550D03*
Y485440D03*
Y1264970D03*
Y2224960D03*
G54D13*
G01X-3033670Y-1370000D02*
X-3147570D01*
G01X-3033670Y-870000D02*
X-3147570D01*
G01X-3033670Y-1120000D02*
X-3147570D01*
G01X-3033670Y-1620000D02*
Y-1498400D01*
G01X-2633670Y-520000D02*
X-2747570D01*
G01X-2633670Y-270000D02*
X-2747570D01*
G01X-2507310Y-77460D02*
X-2583110D01*
G01X-2133670Y180000D02*
X-2247570D01*
G01X-2133670Y430000D02*
X-2247570D01*
G01X-2133670Y680000D02*
X-2247570D01*
G01X-2133670Y930000D02*
X-2247570D01*
G01X-2133670Y1180000D02*
X-2247570D01*
G01X-2133670Y1430000D02*
X-2247570D01*
G01X-1975730Y-1228740D02*
Y-1167780D01*
G01X-2182690Y-1112540D02*
Y-1183340D01*
G01X-1962540Y-817310D02*
X-2070000D01*
G01X-1975730Y-965220D02*
Y-1096980D01*
G01X-2050000Y-880000D02*
X-1975730Y-954270D01*
Y-965220D01*
G01X-1630000Y-700000D02*
X-1747310Y-817310D01*
X-1832540D01*
G01X-2046530Y-1096980D02*
X-1975730D01*
G01X-1842540Y-267310D02*
X-1702540D01*
G01X-1820000Y2193670D02*
Y2307570D01*
G01X-1500000Y-700000D02*
Y-604770D01*
X-1527310Y-577460D01*
G01D02*
X-1567460Y-537310D01*
X-1752540D01*
G01X-1702540Y-267310D02*
X-1567310D01*
X-1500000Y-200000D01*
G01X-1617460Y297310D02*
X-1710000D01*
G01X-1571400Y2193670D02*
Y2307570D01*
G01X-897310Y2540D02*
X-1037610D01*
X-1042690Y-2540D01*
G01X-1322800Y2193670D02*
Y2307570D01*
G01X-1114920Y2063820D02*
Y2158670D01*
G01X-900000Y100000D02*
Y5230D01*
X-897310Y2540D01*
G01X-896720Y2193670D02*
Y2307570D01*
G01X-648120Y2193670D02*
Y2307570D01*
G01X990000Y2193670D02*
Y2380000D01*
G01X1238600Y2193670D02*
Y2084770D01*
G01X2018290Y-1738870D02*
X2132190D01*
G01X2018290Y-1241670D02*
X2132190D01*
G01X2018290Y-1490270D02*
X2132190D01*
G01X1862880Y-773460D02*
X1957730D01*
G01X1863820Y-365080D02*
X1958670D01*
G01X1863820Y-595080D02*
X1958670D01*
G01X4753730Y-3027370D02*
X4690000D01*
G01X4753730Y-1677370D02*
X4677370D01*
G01X4500650Y1881360D02*
Y1840650D01*
X4470000Y1810000D01*
X-9375320Y3013950D03*
X-9640320Y3376370D03*
X-9450330D03*
X-8910320Y3214530D03*
X-9135320Y3013950D03*
X-9100310Y3376370D03*
X-8450320Y3214530D03*
X-8462390Y3092450D03*
X-8640310Y3376370D03*
X-8130320D03*
X-7940330Y3214530D03*
X-7952400Y3092450D03*
X-7235720Y-3450320D03*
X-7293820Y-3559040D03*
X-7235720Y-1710800D03*
X-7293820Y-1819520D03*
X-7235720Y28720D03*
X-7293820Y-80000D03*
X-7235720Y1768240D03*
X-7293820Y1659520D03*
X-6934550Y-3853590D03*
X-6893670Y-4004120D03*
X-6910000Y-3533600D03*
Y-3453590D03*
Y-3693590D03*
Y-3613610D03*
Y-3773600D03*
Y-3373600D03*
Y-3293590D03*
X-6900000Y-3133600D03*
X-6934550Y-2114070D03*
X-6893670Y-2264600D03*
X-6910000Y-2034080D03*
Y-1714070D03*
Y-1874090D03*
Y-1794080D03*
Y-1634080D03*
Y-1954070D03*
X-6900000Y-1394080D03*
X-6910000Y-1554070D03*
X-6934550Y-374550D03*
X-6910000Y-294560D03*
X-6893670Y-525080D03*
X-6910000Y-134570D03*
Y-54560D03*
Y25450D03*
Y105440D03*
Y-214550D03*
X-6900000Y345440D03*
X-6910000Y185450D03*
X-6934550Y1364970D03*
X-6910000Y1444960D03*
X-6893670Y1214440D03*
X-6910000Y1764970D03*
Y1604950D03*
Y1684960D03*
Y1844960D03*
Y1524970D03*
X-6900000Y2084960D03*
X-6910000Y1924970D03*
X-6927680Y2981800D03*
X-6847670D03*
X-6767690D03*
X-6687680D03*
X-6546330Y-4004120D03*
X-6298820Y-3529040D03*
X-6590000Y-3389040D03*
X-6432800Y-3679040D03*
X-6590000Y-3609040D03*
Y-3769040D03*
X-6432800Y-3229040D03*
X-6590000Y-3299040D03*
X-6546330Y-2264600D03*
X-6590000Y-1649520D03*
X-6298820Y-1789520D03*
X-6590000Y-1869520D03*
Y-2029520D03*
X-6432800Y-1939520D03*
Y-1489520D03*
X-6590000Y-1559520D03*
X-6546330Y-525080D03*
X-6298820Y-50000D03*
X-6590000Y90000D03*
X-6432800Y-200000D03*
X-6590000Y-130000D03*
Y-290000D03*
X-6432800Y250000D03*
X-6590000Y180000D03*
X-6546330Y1214440D03*
X-6590000Y1449520D03*
X-6298820Y1689520D03*
X-6590000Y1829520D03*
X-6432800Y1539520D03*
X-6590000Y1609520D03*
X-6432800Y1989520D03*
X-6590000Y1919520D03*
X-6419680Y2981800D03*
X-6259690D03*
X-6339670D03*
X-5935080Y-3907710D03*
X-5780000Y-3733600D03*
Y-3653590D03*
X-6058130Y-3493590D03*
Y-3413610D03*
X-5784530Y-3573600D03*
Y-3813610D03*
X-5780000Y-3253590D03*
Y-3173600D03*
X-5784530Y-3093600D03*
Y-3333600D03*
Y-2074090D03*
X-5935080Y-2168190D03*
X-5784530Y-1834080D03*
X-6058130Y-1754070D03*
Y-1674090D03*
X-5780000Y-1994080D03*
Y-1914070D03*
X-5784530Y-1354080D03*
X-6055630Y-1594080D03*
X-5780000Y-1514070D03*
Y-1434080D03*
X-5784530Y-334570D03*
X-5935080Y-428670D03*
X-5784530Y145440D03*
Y-94560D03*
X-6058130Y-14550D03*
Y65430D03*
X-5780000Y-254560D03*
Y-174550D03*
X-5784530Y385440D03*
X-5780000Y225450D03*
Y305440D03*
X-5935080Y1310850D03*
X-5784530Y1404950D03*
Y1884960D03*
Y1644960D03*
X-6058130Y1724970D03*
Y1804950D03*
X-5780000Y1484960D03*
Y1564970D03*
X-5784530Y2124960D03*
X-5780000Y1964970D03*
Y2044960D03*
X-5911680Y2981800D03*
X-5751690D03*
X-6179680D03*
X-5831670D03*
X-5403680D03*
X-5671680D03*
X-5323670D03*
X-4895680D03*
X-5243690D03*
X-5163680D03*
X-4735690D03*
X-4655680D03*
X-4815670D03*
X-4227690D03*
X-4387680D03*
X-4147680D03*
X-4307670D03*
X-3588700Y138270D03*
Y-164390D03*
Y631330D03*
Y1124390D03*
X-3719690Y2981800D03*
X-3639680D03*
X-3879680D03*
X-3799670D03*
X-3115480Y-3411040D03*
Y-3251040D03*
Y-3331040D03*
X-3147570Y-1370000D03*
Y-1120000D03*
Y-870000D03*
X-3399750Y-139180D03*
Y353880D03*
Y846940D03*
Y1340000D03*
X-3371680Y2981800D03*
X-3291670D03*
X-3211690D03*
X-3131680D03*
X-2669890Y-5591310D03*
X-2869890D03*
X-2715480Y-3411040D03*
X-2795480D03*
X-2875480D03*
X-2955480D03*
X-3035480D03*
X-2715480Y-3251040D03*
X-2795480D03*
X-2875480D03*
X-2955480D03*
X-3035480D03*
X-2715480Y-3331040D03*
X-2795480D03*
X-2875480D03*
X-2955480D03*
X-3035480D03*
X-2704230Y-2564870D03*
X-2784230D03*
X-2864230D03*
X-2944230D03*
X-3024230D03*
X-3104230D03*
X-2704230Y-2324870D03*
X-2784230D03*
X-2864230D03*
X-2944230D03*
X-3024230D03*
X-3104230D03*
X-2704230Y-2404870D03*
X-2784230D03*
X-2864230D03*
X-2944230D03*
X-3024230D03*
X-3104230D03*
X-2704230Y-2484870D03*
X-2784230D03*
X-2864230D03*
X-2944230D03*
X-3024230D03*
X-3104230D03*
X-3033670Y-1498400D03*
X-2747570Y-520000D03*
X-2790000Y-398320D03*
X-2747570Y-270000D03*
X-2750000Y110000D03*
X-2800000Y590000D03*
X-2810000Y1080000D03*
X-2863680Y2981800D03*
X-2783670D03*
X-2269890Y-5591310D03*
X-2469890D03*
X-2635480Y-3411040D03*
Y-3251040D03*
Y-3331040D03*
X-2624230Y-2564870D03*
Y-2324870D03*
Y-2404870D03*
Y-2484870D03*
X-2272230Y-1760000D03*
X-2265310Y-1178910D03*
X-2400650Y-1116670D03*
X-2450000Y-536670D03*
X-2583110Y-77460D03*
X-2247570Y430000D03*
Y180000D03*
Y680000D03*
Y930000D03*
Y1430000D03*
Y1180000D03*
X-1869890Y-5591310D03*
X-2069890D03*
X-1978060Y-3889670D03*
X-1803950Y-3986180D03*
Y-4101560D03*
X-2206640Y-3878870D03*
X-2026640Y-3678870D03*
X-1859320Y-2573640D03*
X-1939320D03*
X-2019320D03*
X-2099320D03*
X-2179320D03*
X-1859320Y-2653640D03*
X-1939320D03*
X-2019320D03*
X-2099320D03*
X-2179320D03*
X-1859320Y-2733640D03*
X-1939320D03*
X-2019320D03*
X-2099320D03*
X-2179320D03*
X-1859320Y-2813640D03*
X-1939320D03*
X-2019320D03*
X-2099320D03*
X-2179320D03*
X-1859320Y-2413640D03*
X-1939320D03*
X-2019320D03*
X-2099320D03*
X-2179320D03*
X-1859320Y-2493640D03*
X-1939320D03*
X-2019320D03*
X-2099320D03*
X-2179320D03*
X-2182690Y-1183340D03*
X-2050000Y-880000D03*
X-2070000Y-817310D03*
X-2046530Y-1096980D03*
X-1975730Y-1167780D03*
X-1925720Y-411900D03*
X-1820000Y2307570D03*
X-1669890Y-5591310D03*
X-1762360Y-3713150D03*
X-1779320Y-2573640D03*
Y-2653640D03*
Y-2733640D03*
Y-2813640D03*
Y-2413640D03*
Y-2493640D03*
X-1400000Y-1200000D03*
X-1503590Y-1503590D03*
X-1500000Y-1400000D03*
X-1400000Y-1300000D03*
X-1500000Y-1200000D03*
Y-1300000D03*
X-1400000Y-1400000D03*
Y-1500000D03*
X-1500000Y-1100000D03*
Y-1000000D03*
X-1400000Y-800000D03*
Y-900000D03*
X-1500000Y-800000D03*
Y-900000D03*
X-1400000Y-1000000D03*
Y-1100000D03*
X-1500000Y-700000D03*
X-1630000D03*
X-1400000D03*
Y-500000D03*
X-1500000Y-200000D03*
X-1400000Y100000D03*
X-1710000Y297310D03*
X-1500000Y400000D03*
X-1400000D03*
Y600000D03*
X-1500000Y900000D03*
Y700000D03*
X-1400000Y1100000D03*
X-1503590Y1403590D03*
X-1571400Y2307570D03*
X-1256640Y-3428870D03*
X-964460Y-1887390D03*
X-1274460D03*
X-964460Y-1967390D03*
X-1330000Y-1940000D03*
X-1200000Y-1400000D03*
Y-1500000D03*
X-1100000Y-1200000D03*
Y-1300000D03*
Y-1500000D03*
X-1200000Y-1200000D03*
X-1300000Y-1500000D03*
Y-1400000D03*
X-1100000D03*
X-1000000Y-1200000D03*
X-1300000D03*
Y-1300000D03*
X-1200000D03*
X-1000000D03*
Y-1000000D03*
X-1300000D03*
X-1100000D03*
X-1200000Y-800000D03*
X-1000000D03*
Y-1100000D03*
X-1200000Y-1000000D03*
Y-1100000D03*
X-1300000D03*
X-1100000D03*
X-1000000Y-900000D03*
X-1200000D03*
X-1300000D03*
Y-800000D03*
X-1100000Y-700000D03*
X-1300000D03*
X-1200000D03*
X-1000000D03*
X-1100000Y-400000D03*
X-1300000Y-600000D03*
X-1200000D03*
X-1300000Y-300000D03*
X-1000000Y-600000D03*
X-1100000D03*
X-1200000Y-100000D03*
X-1000000Y-200000D03*
X-1300000Y300000D03*
X-1000000Y400000D03*
X-1100000Y200000D03*
X-1200000Y500000D03*
X-1300000Y400000D03*
X-1100000Y300000D03*
Y700000D03*
X-1200000Y1000000D03*
X-1300000Y800000D03*
X-1000000Y900000D03*
X-1300000Y1300000D03*
X-1000000Y1400000D03*
X-1100000Y1200000D03*
X-1200000Y1500000D03*
X-1322800Y2307570D03*
X-1114920Y2158670D03*
X-895180Y-4248870D03*
X-786640Y-3428870D03*
X-679860Y-2056410D03*
X-759860D03*
X-679860Y-1896410D03*
X-759860D03*
X-679860Y-1976410D03*
X-759860D03*
X-700000Y-1500000D03*
X-900000Y-1300000D03*
Y-1200000D03*
Y-1500000D03*
Y-1400000D03*
X-800000Y-1200000D03*
X-700000Y-1400000D03*
X-600000Y-1200000D03*
X-500000Y-1500000D03*
Y-1400000D03*
X-600000Y-1300000D03*
X-800000D03*
X-700000Y-1000000D03*
X-900000D03*
X-800000Y-800000D03*
Y-1100000D03*
Y-1000000D03*
X-600000Y-1100000D03*
Y-1000000D03*
Y-800000D03*
X-500000Y-1000000D03*
X-900000Y-1100000D03*
X-700000D03*
X-500000D03*
X-600000Y-900000D03*
X-800000D03*
X-500000Y-700000D03*
X-700000D03*
X-800000D03*
X-900000D03*
X-700000Y-600000D03*
X-800000Y-300000D03*
X-600000Y-700000D03*
Y-600000D03*
X-500000D03*
X-900000Y-500000D03*
X-600000Y-400000D03*
X-800000Y-600000D03*
X-900000D03*
Y100000D03*
X-500000Y-200000D03*
X-700000Y-100000D03*
X-600000Y200000D03*
X-700000Y500000D03*
X-500000D03*
X-800000Y300000D03*
X-500000Y400000D03*
X-700000Y800000D03*
X-800000D03*
X-500000Y900000D03*
X-700000D03*
X-500000Y600000D03*
X-600000D03*
X-500000Y700000D03*
X-700000Y600000D03*
X-600000Y800000D03*
X-500000Y1000000D03*
Y800000D03*
X-700000Y700000D03*
X-600000Y900000D03*
Y1000000D03*
X-700000D03*
X-600000Y700000D03*
X-900000Y600000D03*
Y1100000D03*
X-600000Y1200000D03*
Y1100000D03*
X-700000Y1200000D03*
X-600000Y1300000D03*
X-500000Y1100000D03*
X-700000Y1400000D03*
Y1100000D03*
X-500000Y1300000D03*
X-700000D03*
X-600000Y1400000D03*
X-500000Y1200000D03*
X-800000Y1400000D03*
Y1300000D03*
X-500000Y1400000D03*
X-700000Y1500000D03*
X-500000D03*
X-600000D03*
X-896720Y2307570D03*
X-648120D03*
X-163780Y-4730890D03*
Y-3930890D03*
X-100000Y-1500000D03*
X-400000Y-1200000D03*
X-300000Y-1500000D03*
Y-1400000D03*
X-200000Y-1200000D03*
X-100000Y-1300000D03*
Y-1200000D03*
Y-1400000D03*
X-400000Y-1300000D03*
X-200000D03*
X-100000Y-1000000D03*
X-400000Y-1100000D03*
Y-1000000D03*
Y-800000D03*
X-300000Y-1000000D03*
X-200000Y-1100000D03*
Y-1000000D03*
Y-800000D03*
X-300000Y-1100000D03*
X-100000D03*
X-200000Y-900000D03*
X-400000D03*
X-100000D03*
Y-800000D03*
Y-700000D03*
Y-500000D03*
X-400000Y-400000D03*
X-300000Y-300000D03*
X-400000Y-700000D03*
X-300000Y-500000D03*
Y-700000D03*
X-200000Y-600000D03*
Y-400000D03*
Y-700000D03*
X-100000Y-300000D03*
X-200000D03*
X-400000Y-600000D03*
Y-300000D03*
Y-500000D03*
X-300000Y-600000D03*
Y-400000D03*
X-200000Y-500000D03*
X-100000Y-600000D03*
Y-400000D03*
X-200000Y100000D03*
X-400000Y-200000D03*
X-300000Y-100000D03*
X-400000Y100000D03*
Y-100000D03*
X-100000Y100000D03*
X-300000Y-200000D03*
Y100000D03*
X-200000Y-100000D03*
X-100000Y-200000D03*
X-200000D03*
Y300000D03*
X-100000Y200000D03*
X-300000D03*
X-400000Y300000D03*
Y500000D03*
X-100000D03*
Y300000D03*
X-300000D03*
X-200000Y200000D03*
X-400000D03*
X-200000Y500000D03*
X-400000Y600000D03*
X-200000Y1000000D03*
X-100000Y700000D03*
Y600000D03*
Y1000000D03*
X-200000Y900000D03*
X-300000Y800000D03*
X-100000D03*
Y1300000D03*
X-300000D03*
Y1400000D03*
Y1200000D03*
X-400000Y1300000D03*
Y1400000D03*
Y1200000D03*
Y1100000D03*
X-100000Y1200000D03*
X-300000Y1500000D03*
X-400000D03*
X-200000D03*
X-431700Y2180580D03*
X-235980Y2251180D03*
X-378420Y2241580D03*
X-181900Y2441080D03*
X48720Y-4730890D03*
X378720Y-4483390D03*
X416220Y-4310890D03*
X100000Y-1200000D03*
X200000Y-1500000D03*
Y-1400000D03*
X300000Y-1200000D03*
X400000Y-1300000D03*
Y-1200000D03*
Y-1500000D03*
Y-1400000D03*
X100000Y-1300000D03*
X300000D03*
Y-1500000D03*
Y-1400000D03*
X400000Y-1000000D03*
X100000Y-1100000D03*
Y-1000000D03*
Y-800000D03*
X200000Y-1000000D03*
X300000Y-1100000D03*
Y-1000000D03*
Y-800000D03*
X100000Y-900000D03*
X300000D03*
X400000D03*
Y-1100000D03*
X200000D03*
X400000Y-800000D03*
X300000Y-700000D03*
X200000D03*
X100000Y-600000D03*
X400000Y-300000D03*
X100000Y-400000D03*
X200000Y-500000D03*
Y-300000D03*
X300000Y-600000D03*
Y-400000D03*
X400000Y-500000D03*
Y-700000D03*
Y-400000D03*
X300000Y-300000D03*
Y-500000D03*
X400000Y-600000D03*
X100000Y-300000D03*
Y-500000D03*
X200000Y-600000D03*
Y-400000D03*
X100000Y-700000D03*
X200000Y-200000D03*
X300000D03*
X200000Y-100000D03*
X400000D03*
X300000Y100000D03*
X100000D03*
X300000Y-100000D03*
X400000Y-200000D03*
Y100000D03*
X200000D03*
X100000Y-100000D03*
Y400000D03*
X400000Y200000D03*
X100000Y300000D03*
X200000Y200000D03*
X300000Y300000D03*
X400000Y500000D03*
X200000Y400000D03*
X300000Y200000D03*
X400000Y300000D03*
X100000Y200000D03*
X200000Y300000D03*
X300000Y800000D03*
X100000Y900000D03*
X200000Y600000D03*
X400000Y1000000D03*
X200000D03*
X100000D03*
X10Y1300010D03*
X100000Y1400000D03*
X200000Y1100000D03*
X100000Y1200000D03*
Y1100000D03*
X300000Y1300000D03*
X200000Y1200000D03*
Y1300000D03*
X400000Y1500000D03*
X403860Y1886140D03*
X496220Y-4383390D03*
X669530Y-2302620D03*
X709530Y-1963190D03*
X803350Y-1959000D03*
X800000Y-1790000D03*
X700000D03*
X500000Y-1300000D03*
Y-1200000D03*
X600000Y-1300000D03*
Y-1200000D03*
Y-1500000D03*
Y-1400000D03*
X700000Y-1300000D03*
Y-1200000D03*
X800000Y-1300000D03*
X500000Y-1500000D03*
Y-1400000D03*
X700000Y-1500000D03*
Y-1400000D03*
X800000Y-800000D03*
X500000Y-1100000D03*
Y-1000000D03*
Y-900000D03*
Y-800000D03*
X600000Y-1100000D03*
Y-1000000D03*
Y-900000D03*
X700000Y-1000000D03*
Y-1100000D03*
Y-500000D03*
X500000Y-700000D03*
Y-400000D03*
X800000Y-300000D03*
X600000Y-700000D03*
Y-200000D03*
X700000Y100000D03*
X500000Y200000D03*
X800000Y300000D03*
X600000Y400000D03*
X700000Y600000D03*
X600000Y900000D03*
X500000Y700000D03*
X800000Y800000D03*
X500000Y1200000D03*
X800000Y1300000D03*
X600000Y1400000D03*
X700000Y1100000D03*
X498300Y1840580D03*
Y1980580D03*
X1248720Y-4325890D03*
X1233720Y-4483390D03*
X956220Y-4215890D03*
X1159530Y-2672620D03*
Y-2272620D03*
X900000Y-1790000D03*
X1300000Y-1300000D03*
X1000000Y-1400000D03*
X1100000Y-1200000D03*
X1200000Y-1500000D03*
Y-1000000D03*
X900000Y-1100000D03*
X1000000Y-900000D03*
X1300000Y-800000D03*
X1000000Y-600000D03*
X1100000D03*
Y-700000D03*
X1000000Y-400000D03*
X1300000Y-300000D03*
X900000Y-600000D03*
X1200000Y-500000D03*
X900000Y-100000D03*
X1200000Y100000D03*
X1100000Y-200000D03*
Y400000D03*
X1000000Y200000D03*
X1300000Y300000D03*
X900000Y500000D03*
X1000000Y700000D03*
X1300000Y800000D03*
X900000Y1000000D03*
X1200000Y600000D03*
X1100000Y900000D03*
X1200000Y1200000D03*
Y1300000D03*
X1000000Y1100000D03*
X1200000D03*
X1100000Y1400000D03*
X1000000Y1200000D03*
X1300000Y1300000D03*
X900000Y1500000D03*
X1238600Y2084770D03*
X1152120Y2060580D03*
X916000Y2441080D03*
X990000Y2380000D03*
X1094020Y2378680D03*
X1306220Y-4380890D03*
X1571220Y-4648390D03*
X1436970Y-4270890D03*
X1525220Y-4111140D03*
X1432590Y-4111760D03*
X1406860Y-2663500D03*
X1615970Y-2845010D03*
Y-2740000D03*
X1679530Y-2492620D03*
X1399530Y-2432620D03*
X1649530Y-1882620D03*
X1503590Y-1403590D03*
X1500000Y-900000D03*
X1400000Y-1100000D03*
Y-600000D03*
X1500000Y-400000D03*
X1400000Y-100000D03*
X1708720Y424110D03*
X1500000Y200000D03*
X1400000Y500000D03*
X1500000Y700000D03*
X1400000Y1000000D03*
X1500000Y1200000D03*
X1400000Y1100000D03*
X1500000D03*
X1403590Y1503590D03*
X2065500Y-4704500D03*
X2125360Y-4275140D03*
X1990240Y-4445920D03*
X2110240Y-4478620D03*
X2080240Y-4555920D03*
X2020240Y-4375920D03*
X1870240Y-4220920D03*
X1927540Y-4155920D03*
X1870240Y-4090920D03*
X2125360Y-4195140D03*
Y-4115140D03*
Y-4035140D03*
X1916420Y-3499800D03*
X1891420Y-3735920D03*
X1959530Y-2072620D03*
X1909530Y-2002620D03*
X2132190Y-1738870D03*
Y-1241670D03*
Y-1490270D03*
X1957730Y-773460D03*
X1958670Y-365080D03*
Y-595080D03*
X2108720Y424110D03*
X2028720D03*
X1948720D03*
X1868720D03*
X1788720D03*
X2484500Y-4704500D03*
X2205360Y-4275140D03*
X2285360D03*
X2365360D03*
X2487340Y-4567340D03*
X2572940Y-4155920D03*
X2205360Y-4195140D03*
X2285360D03*
X2365360D03*
X2205360Y-4115140D03*
X2285360D03*
X2365360D03*
X2205360Y-4035140D03*
X2285360D03*
X2365360D03*
X2315240Y-3833220D03*
X2559800Y-3690200D03*
X2534740Y-3026240D03*
X2950000Y-4470000D03*
X2720240Y-4429740D03*
X2630240Y-4090920D03*
Y-4220920D03*
X2715960Y-3935960D03*
X2999910Y-3473090D03*
X3028440Y-3712360D03*
X3009910Y-3241810D03*
X2843280Y-2397700D03*
X2953090Y-2123090D03*
X3028440Y-2362360D03*
X2723280Y-2397700D03*
X3009910Y-1840090D03*
X2947080Y-522920D03*
X3016830Y-243170D03*
X2988440Y547640D03*
X3048440Y487640D03*
X2858010Y921990D03*
X2923090Y786910D03*
X3048440Y607640D03*
X2842160Y2322160D03*
X2952920Y2187080D03*
X3208440Y-3772360D03*
X3268440Y-3712360D03*
X3328440Y-3772360D03*
X3388440Y-3712360D03*
X3088440Y-3652360D03*
X3208440D03*
X3328440D03*
X3088440Y-3772360D03*
X3148440Y-3712360D03*
X3088440Y-2302360D03*
X3208440D03*
X3328440D03*
X3088440Y-2422360D03*
X3148440Y-2362360D03*
X3208440Y-2422360D03*
X3268440Y-2362360D03*
X3328440Y-2422360D03*
X3388440Y-2362360D03*
X3471710Y-893190D03*
X3171710Y-833190D03*
X3291710D03*
X3411710D03*
X3231710Y-773190D03*
X3351710D03*
X3471710D03*
X3231710Y-893190D03*
X3351710D03*
X3108440Y547640D03*
X3168440Y487640D03*
X3228440Y547640D03*
X3288440Y487640D03*
X3348440Y547640D03*
X3168440Y607640D03*
X3288440D03*
X3131710Y1876810D03*
X3251710D03*
X3371710D03*
X3191710Y1816810D03*
X3311710D03*
X3431710D03*
X3491710Y1876810D03*
X3431710Y1936810D03*
X3311710D03*
X3191710D03*
X3686430Y-5099110D03*
X3633700Y-3998430D03*
X3531710Y-833190D03*
X4107200Y-5096550D03*
X4369420Y-4094150D03*
X4134020Y-3994160D03*
X4690000Y-3027370D03*
X4801190Y-2948810D03*
X4675630Y-3097370D03*
X4753730Y-3253090D03*
X4632630Y-1747370D03*
X4677370Y-1677370D03*
X4753730Y-1903090D03*
X4828810Y-1598810D03*
X4490000Y-910000D03*
X4580000D03*
X4654360Y-449210D03*
X4713730Y1006920D03*
X4780000Y1311190D03*
X4713730Y1295730D03*
X4630630Y1162630D03*
X4550000Y1810000D03*
X4470000D03*
X4614360Y2260790D03*
X5206830Y-3748810D03*
X4885000Y-3645000D03*
X5056270Y-3676270D03*
X5092630Y-2857370D03*
X5085630Y-2398810D03*
X4925630D03*
X5200000Y-1677370D03*
X5097370Y-1507370D03*
X5149470Y-902920D03*
X5170650Y-651740D03*
X5154370Y-169100D03*
X4965780Y-124220D03*
X4950000Y-50000D03*
X5166830Y511190D03*
X4880630D03*
X5113730Y1465730D03*
X5230000Y1232630D03*
X4868810Y1141190D03*
X5203730Y1465730D03*
X5109470Y1807080D03*
X5193750Y2121360D03*
X5215570Y2635750D03*
X4925780Y2580000D03*
X4910000Y2675000D03*
X5170880Y3569750D03*
X5448810Y-3611760D03*
X5443730Y-2940000D03*
X5310000Y-2780000D03*
X5307370Y-2880000D03*
X5448810Y-2261760D03*
X5443730Y-1598710D03*
X5301830Y-1507370D03*
X5455020Y-319280D03*
X5375020D03*
X5455020Y-399280D03*
X5375020D03*
X5408810Y648240D03*
X5403730Y1311290D03*
X5426230Y2311440D03*
X5346230D03*
X5426230Y2391440D03*
X5346230D03*
X6082380Y3674990D03*
X6398400Y311600D03*
X6529100Y309100D03*
X6441780Y1216420D03*
X6255850Y3622070D03*
X6570880Y3569750D03*
X6255850Y3828270D03*
X6797500Y630700D03*
X6790000Y860000D03*
X6847500Y780700D03*
X7080740Y-879260D03*
X7390740D03*
X7177500Y100710D03*
Y420690D03*
X7233670Y1005620D03*
X7247500Y840700D03*
X7874800Y-184310D03*
X7645200D03*
Y705710D03*
X7874800D03*
X7482380Y3674990D03*
X7703950Y3670170D03*
X7645850Y3818270D03*
G54D41*
G01X-6910000Y-3533600D02*
X-7034560D01*
X-7060000Y-3559040D01*
X-7144280D01*
G01X-6910000Y-3453590D02*
X-7035450D01*
X-7100000Y-3389040D01*
X-7144280D01*
G01Y-3209040D02*
X-7074560D01*
X-6910000Y-3373600D01*
G01Y-1714070D02*
X-7035450D01*
X-7100000Y-1649520D01*
X-7144280D01*
G01X-6910000Y-1794080D02*
X-7034560D01*
X-7060000Y-1819520D01*
X-7144280D01*
G01Y-1469520D02*
X-7074560D01*
X-6910000Y-1634080D01*
G01Y-54560D02*
X-7034560D01*
X-7060000Y-80000D01*
X-7144280D01*
G01X-6910000Y25450D02*
X-7035450D01*
X-7100000Y90000D01*
X-7144280D01*
G01Y270000D02*
X-7074560D01*
X-6910000Y105440D01*
G01Y1764970D02*
X-7035450D01*
X-7100000Y1829520D01*
X-7144280D01*
G01X-6910000Y1684960D02*
X-7034560D01*
X-7060000Y1659520D01*
X-7144280D01*
G01Y2009520D02*
X-7074560D01*
X-6910000Y1844960D01*
G01Y-3693590D02*
X-6841170D01*
X-6765720Y-3769040D01*
G01X-6910000Y-3613610D02*
X-6770290D01*
X-6765720Y-3609040D01*
G01X-6910000Y-3293590D02*
X-6771170D01*
X-6765720Y-3299040D01*
G01D02*
Y-3389040D01*
G01X-6910000Y-1874090D02*
X-6770290D01*
X-6765720Y-1869520D01*
G01Y-1559520D02*
Y-1649520D01*
G01X-6910000Y-1954070D02*
X-6841170D01*
X-6765720Y-2029520D01*
G01X-6910000Y-1554070D02*
X-6771170D01*
X-6765720Y-1559520D01*
G01X-6910000Y-134570D02*
X-6770290D01*
X-6765720Y-130000D01*
G01X-6910000Y-214550D02*
X-6841170D01*
X-6765720Y-290000D01*
G01Y180000D02*
Y90000D01*
G01X-6910000Y185450D02*
X-6771170D01*
X-6765720Y180000D01*
G01X-6910000Y1524970D02*
X-6841170D01*
X-6765720Y1449520D01*
G01X-6910000Y1604950D02*
X-6770290D01*
X-6765720Y1609520D01*
G01Y1919520D02*
Y1829520D01*
G01X-6910000Y1924970D02*
X-6771170D01*
X-6765720Y1919520D01*
G01X-3492980Y-88320D02*
X-3072200D01*
X-3070700Y-86820D01*
G01X-3492980Y404740D02*
X-3072200D01*
X-3070700Y406240D01*
G01X-3492980Y897800D02*
X-3072200D01*
X-3070700Y899300D01*
G01X-3492980Y1390860D02*
X-3072200D01*
X-3070700Y1392360D01*
G01X-2973700Y-289820D02*
Y-397600D01*
X-2974420Y-398320D01*
G01X-2973700Y203240D02*
Y95460D01*
X-2974420Y94740D01*
G01X-2973700Y696300D02*
Y588520D01*
X-2974420Y587800D01*
G01X-2973700Y1189360D02*
Y1081580D01*
X-2974420Y1080860D01*
G01X-163780Y-4546610D02*
Y-4730890D01*
G01Y-4455170D02*
Y-3930890D01*
G01X-100000Y800000D02*
X-35720Y864280D01*
X-30000D01*
G54D32*
X6542830Y-4275420D03*
Y-3855430D03*
Y-3435440D03*
X7092840Y-4275420D03*
Y-3855430D03*
Y-3435440D03*
G54D23*
X-6331600Y-3679040D03*
Y-3229040D03*
Y-1939520D03*
Y-1489520D03*
Y-200000D03*
Y250000D03*
Y1539520D03*
Y1989520D03*
X-6128400Y-3679040D03*
Y-3229040D03*
Y-1939520D03*
Y-1489520D03*
Y-200000D03*
Y250000D03*
Y1539520D03*
Y1989520D03*
G54D14*
X-9640320Y3295450D03*
X-9450330D03*
X-9100310D03*
X-8910320D03*
X-8640310D03*
X-8450320D03*
X-8130320D03*
X-7940330D03*
X-3163690Y-289820D03*
Y203240D03*
Y696300D03*
Y1189360D03*
X-2973700Y-289820D03*
Y203240D03*
Y696300D03*
Y1189360D03*
G54D42*
G01X4833730Y-3118810D02*
X4753730D01*
G01Y-3253090D02*
Y-3118810D01*
G01X4833730Y-1768810D02*
X4753730D01*
G01Y-1903090D02*
Y-1768810D01*
G01X4540650Y-737200D02*
Y-562920D01*
X4654360Y-449210D01*
G01X4713730Y1006920D02*
Y1141190D01*
G01X4793730D02*
X4713730D01*
G01X4500650Y1972800D02*
Y2147080D01*
X4614360Y2260790D01*
G54D15*
X-9277000Y3663110D03*
G54D33*
X7002830Y-2598940D03*
X7612840D03*
G54D24*
X-5935080Y-3812860D03*
Y-3645220D03*
X-5924920Y-3262860D03*
Y-3095220D03*
X-5935080Y-2073340D03*
Y-1905700D03*
X-5924920Y-1523340D03*
Y-1355700D03*
X-5935080Y-333820D03*
Y-166180D03*
X-5924920Y216180D03*
Y383820D03*
X-5935080Y1405700D03*
Y1573340D03*
X-5924920Y1955700D03*
Y2123340D03*
X-1114920Y1896180D03*
Y2063820D03*
X48720Y-4432070D03*
Y-4599710D03*
X1571220Y-4332070D03*
Y-4499710D03*
X2155080Y116180D03*
Y283820D03*
G54D43*
G01X-6927680Y3086620D02*
Y2981800D01*
G01X-6847670Y3086620D02*
Y2981800D01*
G01X-6767690Y3086620D02*
Y2981800D01*
G01X-6687680Y3086620D02*
Y2981800D01*
G01X-6939180Y3866920D02*
Y3758290D01*
X-6930320Y3749430D01*
X-6819030D01*
X-6788670Y3719070D01*
Y3565330D01*
X-6878170Y3475830D01*
Y3357270D01*
X-6869310Y3348410D01*
X-6856530D01*
X-6847670Y3339550D01*
Y3272420D01*
G01X-6685180Y3866920D02*
Y3758290D01*
X-6676320Y3749430D01*
X-6615830D01*
X-6559400Y3693000D01*
Y3540600D01*
X-6718180Y3381820D01*
Y3357270D01*
X-6709320Y3348410D01*
X-6696540D01*
X-6687680Y3339550D01*
Y3272420D01*
G01X-6685180Y3612920D02*
Y3721550D01*
X-6676320Y3730410D01*
X-6623710D01*
X-6578420Y3685120D01*
Y3548480D01*
X-6737200Y3389700D01*
Y3357270D01*
X-6746060Y3348410D01*
X-6758830D01*
X-6767690Y3339550D01*
Y3272420D01*
G01X-6939180Y3612920D02*
Y3721550D01*
X-6930320Y3730410D01*
X-6826910D01*
X-6807690Y3711190D01*
Y3573210D01*
X-6897190Y3483710D01*
Y3357270D01*
X-6906050Y3348410D01*
X-6918820D01*
X-6927680Y3339550D01*
Y3272420D01*
G01X-6419680Y3086620D02*
Y2981800D01*
G01X-6259690Y3086620D02*
Y2981800D01*
G01X-6339670Y3086620D02*
Y2981800D01*
G01X-6177180Y3612920D02*
Y3721550D01*
X-6168320Y3730410D01*
X-6115710D01*
X-6070420Y3685120D01*
Y3548480D01*
X-6229200Y3389700D01*
Y3357270D01*
X-6238060Y3348410D01*
X-6250830D01*
X-6259690Y3339550D01*
Y3272420D01*
G01X-6431180Y3866920D02*
Y3758290D01*
X-6422320Y3749430D01*
X-6311030D01*
X-6280670Y3719070D01*
Y3539930D01*
X-6370170Y3450430D01*
Y3357270D01*
X-6361310Y3348410D01*
X-6348530D01*
X-6339670Y3339550D01*
Y3272420D01*
G01X-6431180Y3612920D02*
Y3721550D01*
X-6422320Y3730410D01*
X-6318910D01*
X-6299690Y3711190D01*
Y3547810D01*
X-6389190Y3458310D01*
Y3357270D01*
X-6398050Y3348410D01*
X-6410820D01*
X-6419680Y3339550D01*
Y3272420D01*
G01X-5911680Y3086620D02*
Y2981800D01*
G01X-6179680Y3086620D02*
Y2981800D01*
G01X-5831670Y3086620D02*
Y2981800D01*
G01X-6177180Y3866920D02*
Y3758290D01*
X-6168320Y3749430D01*
X-6107830D01*
X-6051400Y3693000D01*
Y3540600D01*
X-6210180Y3381820D01*
Y3357270D01*
X-6201320Y3348410D01*
X-6188540D01*
X-6179680Y3339550D01*
Y3272420D01*
G01X-5923180Y3866920D02*
Y3758290D01*
X-5914320Y3749430D01*
X-5803030D01*
X-5772670Y3719070D01*
Y3565330D01*
X-5862170Y3475830D01*
Y3357270D01*
X-5853310Y3348410D01*
X-5840530D01*
X-5831670Y3339550D01*
Y3272420D01*
G01X-5923180Y3612920D02*
Y3721550D01*
X-5914320Y3730410D01*
X-5810910D01*
X-5791690Y3711190D01*
Y3573210D01*
X-5881190Y3483710D01*
Y3357270D01*
X-5890050Y3348410D01*
X-5902820D01*
X-5911680Y3339550D01*
Y3272420D01*
G01X-5751690Y3086620D02*
Y2981800D01*
G01X-5403680Y3086620D02*
Y2981800D01*
G01X-5671680Y3086620D02*
Y2981800D01*
G01X-5669180Y3866920D02*
Y3758290D01*
X-5660320Y3749430D01*
X-5599830D01*
X-5543400Y3693000D01*
Y3540600D01*
X-5702180Y3381820D01*
Y3357270D01*
X-5693320Y3348410D01*
X-5680540D01*
X-5671680Y3339550D01*
Y3272420D01*
G01X-5669180Y3612920D02*
Y3721550D01*
X-5660320Y3730410D01*
X-5607710D01*
X-5562420Y3685120D01*
Y3548480D01*
X-5721200Y3389700D01*
Y3357270D01*
X-5730060Y3348410D01*
X-5742830D01*
X-5751690Y3339550D01*
Y3272420D01*
G01X-5415180Y3866920D02*
Y3758290D01*
X-5406320Y3749430D01*
X-5295030D01*
X-5264670Y3719070D01*
Y3539930D01*
X-5354170Y3450430D01*
Y3357270D01*
X-5345310Y3348410D01*
X-5332530D01*
X-5323670Y3339550D01*
Y3272420D01*
G01X-5415180Y3612920D02*
Y3721550D01*
X-5406320Y3730410D01*
X-5302910D01*
X-5283690Y3711190D01*
Y3547810D01*
X-5373190Y3458310D01*
Y3357270D01*
X-5382050Y3348410D01*
X-5394820D01*
X-5403680Y3339550D01*
Y3272420D01*
G01X-4895680Y3086620D02*
Y2981800D01*
G01X-5243690Y3086620D02*
Y2981800D01*
G01X-5163680Y3086620D02*
Y2981800D01*
G01X-5323670Y3086620D02*
Y2981800D01*
G01X-5161180Y3866920D02*
Y3758290D01*
X-5152320Y3749430D01*
X-5091830D01*
X-5035400Y3693000D01*
Y3540600D01*
X-5194180Y3381820D01*
Y3357270D01*
X-5185320Y3348410D01*
X-5172540D01*
X-5163680Y3339550D01*
Y3272420D01*
G01X-5161180Y3612920D02*
Y3721550D01*
X-5152320Y3730410D01*
X-5099710D01*
X-5054420Y3685120D01*
Y3548480D01*
X-5213200Y3389700D01*
Y3357270D01*
X-5222060Y3348410D01*
X-5234830D01*
X-5243690Y3339550D01*
Y3272420D01*
G01X-4907180Y3612920D02*
Y3721550D01*
X-4898320Y3730410D01*
X-4794910D01*
X-4775690Y3711190D01*
Y3547810D01*
X-4865190Y3458310D01*
Y3357270D01*
X-4874050Y3348410D01*
X-4886820D01*
X-4895680Y3339550D01*
Y3272420D01*
G01X-4907180Y3866920D02*
Y3758290D01*
X-4898320Y3749430D01*
X-4787030D01*
X-4756670Y3719070D01*
Y3539930D01*
X-4846170Y3450430D01*
Y3357270D01*
X-4837310Y3348410D01*
X-4824530D01*
X-4815670Y3339550D01*
Y3272420D01*
G01X-4735690Y3086620D02*
Y2981800D01*
G01X-4655680Y3086620D02*
Y2981800D01*
G01X-4815670Y3086620D02*
Y2981800D01*
G01X-4653180Y3866920D02*
Y3758290D01*
X-4644320Y3749430D01*
X-4583830D01*
X-4527400Y3693000D01*
Y3540600D01*
X-4686180Y3381820D01*
Y3357270D01*
X-4677320Y3348410D01*
X-4664540D01*
X-4655680Y3339550D01*
Y3272420D01*
G01X-4653180Y3612920D02*
Y3721550D01*
X-4644320Y3730410D01*
X-4591710D01*
X-4546420Y3685120D01*
Y3548480D01*
X-4705200Y3389700D01*
Y3357270D01*
X-4714060Y3348410D01*
X-4726830D01*
X-4735690Y3339550D01*
Y3272420D01*
G01X-4227690Y3086620D02*
Y2981800D01*
G01X-4387680Y3086620D02*
Y2981800D01*
G01X-4147680Y3086620D02*
Y2981800D01*
G01X-4307670Y3086620D02*
Y2981800D01*
G01X-4145180Y3866920D02*
Y3758290D01*
X-4136320Y3749430D01*
X-4075830D01*
X-4019400Y3693000D01*
Y3540600D01*
X-4178180Y3381820D01*
Y3357270D01*
X-4169320Y3348410D01*
X-4156540D01*
X-4147680Y3339550D01*
Y3272420D01*
G01X-4145180Y3612920D02*
Y3721550D01*
X-4136320Y3730410D01*
X-4083710D01*
X-4038420Y3685120D01*
Y3548480D01*
X-4197200Y3389700D01*
Y3357270D01*
X-4206060Y3348410D01*
X-4218830D01*
X-4227690Y3339550D01*
Y3272420D01*
G01X-4399180Y3612920D02*
Y3721550D01*
X-4390320Y3730410D01*
X-4286910D01*
X-4267690Y3711190D01*
Y3547810D01*
X-4357190Y3458310D01*
Y3357270D01*
X-4366050Y3348410D01*
X-4378820D01*
X-4387680Y3339550D01*
Y3272420D01*
G01X-4399180Y3866920D02*
Y3758290D01*
X-4390320Y3749430D01*
X-4279030D01*
X-4248670Y3719070D01*
Y3539930D01*
X-4338170Y3450430D01*
Y3357270D01*
X-4329310Y3348410D01*
X-4316530D01*
X-4307670Y3339550D01*
Y3272420D01*
G01X-3719690Y3086620D02*
Y2981800D01*
G01X-3639680Y3086620D02*
Y2981800D01*
G01X-3879680Y3086620D02*
Y2981800D01*
G01X-3799670Y3086620D02*
Y2981800D01*
G01X-3637180Y3866920D02*
Y3758290D01*
X-3628320Y3749430D01*
X-3542430D01*
X-3511400Y3718400D01*
Y3540600D01*
X-3670180Y3381820D01*
Y3357270D01*
X-3661320Y3348410D01*
X-3648540D01*
X-3639680Y3339550D01*
Y3272420D01*
G01X-3637180Y3612920D02*
Y3721550D01*
X-3628320Y3730410D01*
X-3550310D01*
X-3530420Y3710520D01*
Y3548480D01*
X-3689200Y3389700D01*
Y3357270D01*
X-3698060Y3348410D01*
X-3710830D01*
X-3719690Y3339550D01*
Y3272420D01*
G01X-3891180Y3866920D02*
Y3758290D01*
X-3882320Y3749430D01*
X-3771030D01*
X-3740670Y3719070D01*
Y3539930D01*
X-3830170Y3450430D01*
Y3357270D01*
X-3821310Y3348410D01*
X-3808530D01*
X-3799670Y3339550D01*
Y3272420D01*
G01X-3891180Y3612920D02*
Y3721550D01*
X-3882320Y3730410D01*
X-3778910D01*
X-3759690Y3711190D01*
Y3547810D01*
X-3849190Y3458310D01*
Y3357270D01*
X-3858050Y3348410D01*
X-3870820D01*
X-3879680Y3339550D01*
Y3272420D01*
G01X-3371680Y3086620D02*
Y2981800D01*
G01X-3291670Y3086620D02*
Y2981800D01*
G01X-3211690Y3086620D02*
Y2981800D01*
G01X-3131680Y3086620D02*
Y2981800D01*
G01X-3129180Y3866920D02*
Y3758290D01*
X-3120320Y3749430D01*
X-3059830D01*
X-3003400Y3693000D01*
Y3540600D01*
X-3162180Y3381820D01*
Y3357270D01*
X-3153320Y3348410D01*
X-3140540D01*
X-3131680Y3339550D01*
Y3272420D01*
G01X-3129180Y3612920D02*
Y3721550D01*
X-3120320Y3730410D01*
X-3067710D01*
X-3022420Y3685120D01*
Y3548480D01*
X-3181200Y3389700D01*
Y3357270D01*
X-3190060Y3348410D01*
X-3202830D01*
X-3211690Y3339550D01*
Y3272420D01*
G01X-3383180Y3612920D02*
Y3721550D01*
X-3374320Y3730410D01*
X-3270910D01*
X-3251690Y3711190D01*
Y3547810D01*
X-3341190Y3458310D01*
Y3357270D01*
X-3350050Y3348410D01*
X-3362820D01*
X-3371680Y3339550D01*
Y3272420D01*
G01X-3383180Y3866920D02*
Y3758290D01*
X-3374320Y3749430D01*
X-3263030D01*
X-3232670Y3719070D01*
Y3539930D01*
X-3322170Y3450430D01*
Y3357270D01*
X-3313310Y3348410D01*
X-3300530D01*
X-3291670Y3339550D01*
Y3272420D01*
G01X-2863680Y3086620D02*
Y2981800D01*
G01X-2783670Y3086620D02*
Y2981800D01*
G01X-2875180Y3866920D02*
Y3758290D01*
X-2866320Y3749430D01*
X-2755030D01*
X-2724670Y3719070D01*
Y3539930D01*
X-2814170Y3450430D01*
Y3357270D01*
X-2805310Y3348410D01*
X-2792530D01*
X-2783670Y3339550D01*
Y3272420D01*
G01X-2875180Y3612920D02*
Y3721550D01*
X-2866320Y3730410D01*
X-2762910D01*
X-2743690Y3711190D01*
Y3547810D01*
X-2833190Y3458310D01*
Y3357270D01*
X-2842050Y3348410D01*
X-2854820D01*
X-2863680Y3339550D01*
Y3272420D01*
G01X498300Y1980580D02*
X450000Y1932280D01*
Y870000D01*
X217130Y637130D01*
X184610D01*
X162870Y615390D01*
Y582870D01*
X80000Y500000D01*
X-100000D01*
G01Y600000D02*
X-160000Y660000D01*
Y914560D01*
X-208310Y962870D01*
X-215390D01*
X-237130Y984610D01*
Y1062870D01*
X-150000Y1150000D01*
Y2165200D01*
X-235980Y2251180D01*
G01X403860Y1886140D02*
X350000Y1832280D01*
Y1290000D01*
X310000Y1250000D01*
X80000D01*
X50000Y1220000D01*
Y1150000D01*
X-100000Y1000000D01*
G01X-181900Y2441080D02*
X-280000Y2342980D01*
Y2220000D01*
X-260000Y2200000D01*
Y960000D01*
X-200000Y900000D01*
G01X498300Y1840580D02*
X550000Y1788880D01*
Y802520D01*
X200000Y452520D01*
Y400000D01*
G54D25*
X-2728870Y-1620000D03*
X-3033670D03*
X-2728870Y-1370000D03*
X-3033670D03*
X-2728870Y-1120000D03*
X-3033670D03*
X-2728870Y-870000D03*
X-3033670D03*
X-2633670Y-270000D03*
Y-520000D03*
X-2381130Y-1720000D03*
Y-1970000D03*
X-2328870Y-270000D03*
Y-520000D03*
X-2076330Y-1720000D03*
Y-1970000D03*
X-1828870Y180000D03*
X-2133670D03*
X-1828870Y430000D03*
X-2133670D03*
X-1828870Y680000D03*
X-2133670D03*
X-1828870Y930000D03*
X-2133670D03*
X-1828870Y1430000D03*
X-2133670D03*
X-1828870Y1180000D03*
X-2133670D03*
X1713490Y-1738870D03*
Y-1241670D03*
Y-1490270D03*
X2018290Y-1738870D03*
Y-1241670D03*
Y-1490270D03*
G54D16*
X-9277000Y3917110D03*
X-9023000Y3663110D03*
Y3917110D03*
X-8769000Y3663110D03*
X-8515000D03*
X-8769000Y3917110D03*
X-8515000D03*
X-8261000Y3663110D03*
Y3917110D03*
G54D34*
X6908840Y-1681200D03*
Y-1181180D03*
Y-1431190D03*
X7458850Y-1681200D03*
Y-1181180D03*
Y-1431190D03*
G54D35*
X7313120Y-2148930D03*
G54D17*
X-7141320Y-4191600D03*
Y-2452080D03*
Y-2765600D03*
Y-1026080D03*
Y-712560D03*
Y713440D03*
Y1026960D03*
Y2452960D03*
X-6671320Y-4191600D03*
Y-2452080D03*
Y-2765600D03*
Y-1026080D03*
Y-712560D03*
Y713440D03*
Y1026960D03*
Y2452960D03*
X-6171320Y-4191600D03*
Y-2452080D03*
Y-2765600D03*
Y-1026080D03*
Y-712560D03*
Y713440D03*
Y1026960D03*
Y2452960D03*
X-5711320Y-3958600D03*
Y-3478600D03*
Y-2998600D03*
Y-2219080D03*
Y-1739080D03*
Y-1259080D03*
Y-479560D03*
Y440D03*
Y480440D03*
Y1259960D03*
Y1739960D03*
Y2219960D03*
G54D26*
X-2319850Y-1412540D03*
Y-1112540D03*
X-2507310Y-77460D03*
X-2370150D03*
X-2182690Y-1412540D03*
X-1975730Y-1228740D03*
X-1838570D03*
X-1977310Y-1437460D03*
X-1840150D03*
X-1832540Y-817310D03*
X-1962540D03*
X-2182690Y-1112540D03*
X-1975730Y-1096980D03*
X-1838570D03*
X-1975730Y-965220D03*
X-1838570D03*
X-1832540Y-680150D03*
X-1962540D03*
X-1842540Y-267310D03*
Y-130150D03*
X-1412540Y-1767310D03*
Y-1630150D03*
X-1752540Y-537310D03*
Y-400150D03*
X-1527310Y-577460D03*
X-1390150D03*
X-1449850Y-2540D03*
X-1617460Y160150D03*
X-1702540Y-267310D03*
Y-130150D03*
X-1617460Y297310D03*
X-1282540Y-1767310D03*
Y-1630150D03*
X-1102540Y-1767310D03*
Y-1630150D03*
X-972540Y-1767310D03*
Y-1630150D03*
X-1312690Y-2540D03*
X-1042690D03*
X-1179850D03*
X-897310Y2540D03*
X-760150D03*
X-282690Y-12540D03*
X-419850D03*
X12540Y-789850D03*
X7460Y-1057310D03*
Y-920150D03*
Y-507310D03*
Y-370150D03*
X12540Y-652690D03*
X287310Y7460D03*
X150150D03*
X12540Y-102690D03*
Y-239850D03*
X430150Y7460D03*
X7460Y32690D03*
Y169850D03*
X12540Y437310D03*
Y300150D03*
Y600150D03*
Y737310D03*
X567310Y7460D03*
X1686850Y156350D03*
Y293510D03*
X1818610Y156350D03*
X2000370D03*
X1818610Y293510D03*
X2000370D03*
X6988920Y840700D03*
X7126080D03*
G54D36*
G01X271940Y-4483390D02*
X378720D01*
G01X180500D02*
X129180Y-4432070D01*
X48720D01*
G01X496220Y-4383390D02*
X373000D01*
X271220Y-4281610D01*
G01Y-4190170D02*
X403250Y-4058140D01*
X1563690D01*
X1714690Y-4209140D01*
G01X416220Y-4310890D02*
X585900Y-4141210D01*
X1307260D01*
X1348720Y-4182670D01*
G01X1249440Y-4215890D02*
X1248720Y-4216610D01*
Y-4325890D01*
G01X1233720Y-4483390D02*
X1554900D01*
X1571220Y-4499710D01*
G01X1158000Y-4215890D02*
X956220D01*
G01X1571220Y-4332070D02*
Y-4250390D01*
X1432590Y-4111760D01*
G01X1306220Y-4380890D02*
X1348720Y-4338390D01*
Y-4274110D01*
G01X1714720Y-4500110D02*
X1714320Y-4499710D01*
X1571220D01*
G01D02*
Y-4648390D01*
G01X1714720Y-4408670D02*
X1714690Y-4408640D01*
Y-4209140D01*
G01X1623250D02*
X1623220D01*
X1525220Y-4111140D01*
G01X1348720Y-4182670D02*
X1348750D01*
X1436970Y-4270890D01*
G54D18*
X-7193180Y3612920D03*
G54D27*
G01X-9640320Y3295450D02*
Y3376370D01*
G01X-9450330Y3295450D02*
Y3376370D01*
G01X-8910320Y3295450D02*
Y3214530D01*
G01X-9100310Y3295450D02*
Y3376370D01*
G01X-8450320Y3295450D02*
Y3214530D01*
G01X-8640310Y3295450D02*
Y3376370D01*
G01X-8130320Y3295450D02*
Y3376370D01*
G01X-7940330Y3295450D02*
Y3214530D01*
G01X-1350000Y-1150010D02*
X-1399990Y-1200000D01*
X-1400000D01*
G01X-1350000Y-1249990D02*
X-1400000Y-1299990D01*
Y-1300000D01*
G01X-1350000Y-849990D02*
Y-850000D01*
X-1400000Y-900000D01*
G01X-1250000Y-1150010D02*
X-1200010Y-1200000D01*
X-1200000D01*
G01X-1050000Y-1449990D02*
X-1100000Y-1499990D01*
Y-1500000D01*
G01X-1250000Y-1249990D02*
X-1200000Y-1299990D01*
Y-1300000D01*
G01X-1050000Y-1350010D02*
X-1000000Y-1300010D01*
Y-1300000D01*
G01X-1150000Y-750010D02*
Y-750000D01*
X-1100000Y-700000D01*
G01X-1350000Y-750010D02*
Y-750000D01*
X-1300000Y-700000D01*
G01X-950000Y-1050010D02*
X-900000Y-1000010D01*
Y-1000000D01*
G01X-950000Y-1149990D02*
X-900010Y-1100000D01*
X-900000D01*
G01X-1150000Y-849990D02*
Y-850000D01*
X-1200000Y-900000D01*
G01X-950000Y-849990D02*
Y-850000D01*
X-1000000Y-900000D01*
G01X-1312690Y-2540D02*
X-1297460D01*
X-1200000Y-100000D01*
G01X-700000Y-1500000D02*
Y-1499990D01*
X-650000Y-1449990D01*
G01X-600000Y-1300000D02*
Y-1300010D01*
X-650000Y-1350010D01*
G01X-850000Y-750010D02*
Y-750000D01*
X-800000Y-700000D01*
G01X-750000Y-750010D02*
Y-750000D01*
X-700000Y-700000D01*
G01X-550000Y-750010D02*
Y-750000D01*
X-500000Y-700000D01*
G01X-700000Y-1000000D02*
Y-1000010D01*
X-750000Y-1050010D01*
G01X-700000Y-1100000D02*
X-700010D01*
X-750000Y-1149990D01*
G01Y-849990D02*
Y-850000D01*
X-800000Y-900000D01*
G01X-850000Y-849990D02*
Y-850000D01*
X-800000Y-900000D01*
G01X-550000Y-849990D02*
Y-850000D01*
X-600000Y-900000D01*
G01Y-600000D02*
Y-575720D01*
X-635720Y-540000D01*
G01X-500000Y-600000D02*
Y-584280D01*
X-544280Y-540000D01*
G01X-100000Y-1500000D02*
Y-1499990D01*
X-150000Y-1449990D01*
G01Y-1350010D02*
X-200000Y-1300010D01*
G01X-150000Y-750010D02*
Y-750000D01*
X-100000Y-700000D01*
G01X7460Y-1057310D02*
X-42690D01*
X-100000Y-1000000D01*
G01X-350000Y-750010D02*
Y-750000D01*
G01Y-849990D02*
Y-850000D01*
X-400000Y-900000D01*
G01X-150000Y-849990D02*
Y-850000D01*
X-200000Y-900000D01*
G01X7460Y-507310D02*
X-92690D01*
X-100000Y-500000D01*
G01X12540Y-239850D02*
X-39850D01*
X-100000Y-300000D01*
G01X-200000Y100000D02*
Y70150D01*
X-282690Y-12540D01*
G01X-419850D02*
Y-80150D01*
X-400000Y-100000D01*
G01X-100000Y100000D02*
X-62390D01*
X7460Y169850D01*
G01X-200000Y-100000D02*
X-199990D01*
X-150000Y-50010D01*
G01X150150Y7460D02*
X97610D01*
X57040Y-33110D01*
X-133100D01*
X-150000Y-50010D01*
G01X-100000Y-200000D02*
X-2690Y-102690D01*
X12540D01*
G01X-150000Y-149990D02*
Y-150000D01*
X-200000Y-200000D01*
G01X-100000D02*
Y-199990D01*
X-150000Y-149990D01*
G01X-100000Y300000D02*
X12390D01*
X12540Y300150D01*
G01Y737310D02*
X-62690D01*
X-100000Y700000D01*
G01X-200000Y1000000D02*
X-150000Y950000D01*
X-35720D01*
X-30000Y955720D01*
G01X200000Y-700000D02*
Y-700010D01*
X150000Y-750010D01*
G01X300000Y-700000D02*
Y-700010D01*
X250000Y-750010D01*
G01X400000Y-1000000D02*
X399990D01*
X350000Y-950010D01*
G01X7460Y-920150D02*
X79850D01*
X100000Y-900000D01*
G01D02*
Y-899990D01*
X150000Y-849990D01*
G01D02*
X250000D01*
G01D02*
Y-850000D01*
X300000Y-900000D01*
G01X12540Y-789850D02*
X7460Y-794930D01*
Y-920150D01*
G01X400000Y-900000D02*
Y-899990D01*
X450000Y-849990D01*
G01X400000Y-1100000D02*
X399990D01*
G01X400000D02*
Y-1099990D01*
X350000Y-1049990D01*
G01X400000Y-800000D02*
X400010D01*
X450000Y-750010D01*
G01X12540Y-652690D02*
X47310D01*
X100000Y-600000D01*
G01X287310Y7460D02*
Y-87310D01*
X300000Y-100000D01*
G01X430150Y7460D02*
Y69850D01*
X400000Y100000D01*
G01X150150Y7460D02*
Y-149860D01*
X150000Y-150010D01*
G01Y-249990D02*
Y-240150D01*
X12540Y-102690D01*
G01D02*
X97310D01*
X100000Y-100000D01*
G01X12540Y437310D02*
X62690D01*
X100000Y400000D01*
G01X567310Y7460D02*
Y132690D01*
X500000Y200000D01*
G01X4490000Y-910000D02*
X4540650Y-859350D01*
Y-828640D01*
G01X4713730Y1232630D02*
Y1295730D01*
G01X5307370Y-2880000D02*
Y-3425170D01*
X5056270Y-3676270D01*
G01X5310000Y-2780000D02*
X5062630Y-3027370D01*
X4833730D01*
G01Y-1677370D02*
X5200000D01*
G01X6441780Y1216420D02*
X6762880D01*
X6973680Y1005620D01*
G01X6255850Y3770170D02*
Y3828270D01*
G01X6790000Y860000D02*
Y712740D01*
X6920000Y582740D01*
Y280000D01*
X7099290Y100710D01*
X7177500D01*
G01X6988920Y840700D02*
X6928920Y780700D01*
X6847500D01*
G01X6988920Y840700D02*
Y990380D01*
X6973680Y1005620D01*
G01X7141320D02*
X7233670D01*
G01X7126080Y840700D02*
X7247500D01*
G01X7645850Y3670170D02*
X7703950D01*
X-1834280Y-416900D03*
X-2186810Y-136670D03*
X-1049880Y-3193370D03*
X-990030D03*
X-650000Y-3090000D03*
X-140000Y2600000D03*
X10Y2500000D03*
X270000Y2540000D03*
X360000Y2590000D03*
X550000D03*
X450000D03*
X650000D03*
X725000D03*
X2368430Y-1837920D03*
X2438120D03*
X4359420Y-4184150D03*
G54D37*
G01X-7235720Y-3389040D02*
Y-3450320D01*
G01Y-3209040D02*
Y-3389040D01*
G01Y-3559040D02*
X-7293820D01*
G01X-7235720Y-1649520D02*
Y-1710800D01*
G01Y-1469520D02*
Y-1649520D01*
G01Y-1819520D02*
X-7293820D01*
G01X-7235720Y90000D02*
Y28720D01*
G01Y270000D02*
Y90000D01*
G01Y-80000D02*
X-7293820D01*
G01X-7235720Y1829520D02*
Y1768240D01*
G01Y2009520D02*
Y1829520D01*
G01Y1659520D02*
X-7293820D01*
G01X-6803820Y-4004120D02*
X-6893670D01*
G01X-6674280Y-3389040D02*
X-6590000D01*
G01X-6674280Y-3609040D02*
X-6590000D01*
G01X-6674280Y-3769040D02*
X-6590000D01*
G01X-6674280Y-3299040D02*
X-6590000D01*
G01X-6803820Y-2264600D02*
X-6893670D01*
G01X-6674280Y-1649520D02*
X-6590000D01*
G01X-6674280Y-1869520D02*
X-6590000D01*
G01X-6674280Y-2029520D02*
X-6590000D01*
G01X-6674280Y-1559520D02*
X-6590000D01*
G01X-6803820Y-525080D02*
X-6893670D01*
G01X-6674280Y90000D02*
X-6590000D01*
G01X-6674280Y-130000D02*
X-6590000D01*
G01X-6674280Y-290000D02*
X-6590000D01*
G01X-6674280Y180000D02*
X-6590000D01*
G01X-6803820Y1214440D02*
X-6893670D01*
G01X-6674280Y1449520D02*
X-6590000D01*
G01X-6674280Y1829520D02*
X-6590000D01*
G01X-6674280Y1609520D02*
X-6590000D01*
G01X-6674280Y1919520D02*
X-6590000D01*
G01X-6636180Y-4004120D02*
X-6546330D01*
G01X-6235720Y-3529040D02*
Y-3379040D01*
G01Y-3529040D02*
X-6298820D01*
G01X-6331600Y-3679040D02*
X-6432800D01*
G01X-6235720Y-3379040D02*
X-6324280D01*
G01X-6415720D02*
Y-3313160D01*
X-6331600Y-3229040D01*
G01D02*
X-6432800D01*
G01X-6636180Y-2264600D02*
X-6546330D01*
G01X-6235720Y-1789520D02*
Y-1639520D01*
G01Y-1789520D02*
X-6298820D01*
G01X-6235720Y-1639520D02*
X-6324280D01*
G01X-6415720D02*
Y-1573640D01*
X-6331600Y-1489520D01*
G01Y-1939520D02*
X-6432800D01*
G01X-6331600Y-1489520D02*
X-6432800D01*
G01X-6636180Y-525080D02*
X-6546330D01*
G01X-6235720Y-50000D02*
Y100000D01*
G01Y-50000D02*
X-6298820D01*
G01X-6235720Y100000D02*
X-6324280D01*
G01X-6415720D02*
Y165880D01*
X-6331600Y250000D01*
G01Y-200000D02*
X-6432800D01*
G01X-6331600Y250000D02*
X-6432800D01*
G01X-6636180Y1214440D02*
X-6546330D01*
G01X-6235720Y1689520D02*
Y1839520D01*
G01Y1689520D02*
X-6298820D01*
G01X-6235720Y1839520D02*
X-6324280D01*
G01X-6415720D02*
Y1905400D01*
X-6331600Y1989520D01*
G01Y1539520D02*
X-6432800D01*
G01X-6331600Y1989520D02*
X-6432800D01*
G01X-5784530Y-3813610D02*
X-5934330D01*
X-5935080Y-3812860D01*
G01D02*
Y-3907710D01*
G01X-6144280Y-3529040D02*
X-6108830Y-3493590D01*
X-6058130D01*
G01X-6144280Y-3529040D02*
Y-3663160D01*
X-6128400Y-3679040D01*
G01X-5935080Y-3645220D02*
X-6094580D01*
X-6128400Y-3679040D01*
G01X-6058130Y-3413610D02*
X-6109710D01*
X-6144280Y-3379040D01*
G01D02*
Y-3244920D01*
X-6128400Y-3229040D01*
G01X-5924920Y-3262860D02*
X-6094580D01*
X-6128400Y-3229040D01*
G01X-5784530Y-3093600D02*
X-5923300D01*
X-5924920Y-3095220D01*
G01X-5784530Y-2074090D02*
X-5934330D01*
X-5935080Y-2073340D01*
G01D02*
Y-2168190D01*
G01X-6144280Y-1789520D02*
X-6108830Y-1754070D01*
X-6058130D01*
G01X-6144280Y-1789520D02*
Y-1923640D01*
X-6128400Y-1939520D01*
G01X-5935080Y-1905700D02*
X-6094580D01*
X-6128400Y-1939520D01*
G01X-6058130Y-1674090D02*
X-6109710D01*
X-6144280Y-1639520D01*
G01D02*
Y-1505400D01*
X-6128400Y-1489520D01*
G01X-5784530Y-1354080D02*
X-5923300D01*
X-5924920Y-1355700D01*
G01Y-1523340D02*
X-6094580D01*
X-6128400Y-1489520D01*
G01X-5784530Y-334570D02*
X-5934330D01*
X-5935080Y-333820D01*
G01D02*
Y-428670D01*
G01X-6144280Y-50000D02*
X-6108830Y-14550D01*
X-6058130D01*
G01X-6144280Y-50000D02*
Y-184120D01*
X-6128400Y-200000D01*
G01X-5935080Y-166180D02*
X-6094580D01*
X-6128400Y-200000D01*
G01X-6058130Y65430D02*
X-6109710D01*
X-6144280Y100000D01*
G01D02*
Y234120D01*
X-6128400Y250000D01*
G01X-5784530Y385440D02*
X-5923300D01*
X-5924920Y383820D01*
G01Y216180D02*
X-6094580D01*
X-6128400Y250000D01*
G01X-5935080Y1405700D02*
Y1310850D01*
G01X-5784530Y1404950D02*
X-5934330D01*
X-5935080Y1405700D01*
G01X-6144280Y1689520D02*
X-6108830Y1724970D01*
X-6058130D01*
G01X-6144280Y1689520D02*
Y1555400D01*
X-6128400Y1539520D01*
G01X-5935080Y1573340D02*
X-6094580D01*
X-6128400Y1539520D01*
G01X-6058130Y1804950D02*
X-6109710D01*
X-6144280Y1839520D01*
G01D02*
Y1973640D01*
X-6128400Y1989520D01*
G01X-5784530Y2124960D02*
X-5923300D01*
X-5924920Y2123340D01*
G01Y1955700D02*
X-6094580D01*
X-6128400Y1989520D01*
G54D28*
X-1820000Y1888870D03*
Y2193670D03*
X-1322800Y1888870D03*
X-1571400D03*
X-1322800Y2193670D03*
X-1571400D03*
X-896720Y1888870D03*
Y2193670D03*
X-648120Y1888870D03*
Y2193670D03*
X1238600Y1888870D03*
X990000D03*
X1238600Y2193670D03*
X990000D03*
G54D19*
X-7193180Y3866920D03*
X-6939180Y3612920D03*
X-6685180D03*
X-6939180Y3866920D03*
X-6685180D03*
X-6431180Y3612920D03*
X-6177180D03*
X-6431180Y3866920D03*
X-6177180D03*
X-5923180Y3612920D03*
Y3866920D03*
X-5669180Y3612920D03*
X-5415180D03*
X-5669180Y3866920D03*
X-5415180D03*
X-5161180Y3612920D03*
X-4907180D03*
X-5161180Y3866920D03*
X-4907180D03*
X-4653180Y3612920D03*
X-4399180D03*
X-4653180Y3866920D03*
X-4399180D03*
X-4145180Y3612920D03*
Y3866920D03*
X-3891180Y3612920D03*
X-3637180D03*
X-3891180Y3866920D03*
X-3637180D03*
X-3383180Y3612920D03*
X-3129180D03*
X-3383180Y3866920D03*
X-3129180D03*
X-2875180Y3612920D03*
X-2621180D03*
X-2875180Y3866920D03*
X-2621180D03*
X-2367180Y3612920D03*
Y3866920D03*
X36320Y-3516320D03*
X-217680D03*
Y-2754320D03*
X36320D03*
X290320Y-3516320D03*
Y-2754320D03*
G54D38*
G01X-9375320Y3013950D02*
X-9485320D01*
X-9543320Y3071950D01*
Y3092450D01*
G01X-9325320Y3158230D02*
X-9491040D01*
X-9543320Y3105950D01*
Y3092450D01*
G01X-9325320Y3249670D02*
Y3614790D01*
X-9277000Y3663110D01*
G01X-9135320Y3013950D02*
X-9065320D01*
X-9003310Y3075960D01*
Y3092450D01*
G01X-9225320Y3158230D02*
X-9059610D01*
X-9003310Y3101930D01*
Y3092450D01*
G01X-9225320Y3249670D02*
Y3460790D01*
X-9023000Y3663110D01*
G01X-8462390Y3092450D02*
X-8543310D01*
G01X-8775320Y3158230D02*
X-8599610D01*
X-8543310Y3101930D01*
Y3092450D01*
G01X-8775320Y3249670D02*
Y3656790D01*
X-8769000Y3663110D01*
G01X-8033320Y3092450D02*
X-7952400D01*
G01X-8265320Y3158230D02*
X-8089600D01*
X-8033320Y3101950D01*
Y3092450D01*
G01X-8265320Y3249670D02*
Y3658790D01*
X-8261000Y3663110D01*
G01X-140000Y2600000D02*
X-2820000D01*
X-3910000Y1510000D01*
Y-2330000D01*
X-4170000Y-2590000D01*
X-6730000D01*
X-7180000Y-3040000D01*
X-7430000D01*
X-7650000Y-3260000D01*
Y-3490000D01*
X-7446410Y-3693590D01*
X-6910000D01*
G01X360000Y2590000D02*
X240000Y2710000D01*
X-2910000D01*
X-4030000Y1590000D01*
Y-750000D01*
X-4120000Y-840000D01*
X-6680000D01*
X-7200000Y-1360000D01*
X-7415810D01*
X-7580000Y-1524190D01*
Y-1780000D01*
X-7405930Y-1954070D01*
X-6910000D01*
G01X550000Y2590000D02*
X310000Y2830000D01*
X-2940000D01*
X-4050000Y1720000D01*
X-4060000D01*
X-4140000Y1640000D01*
Y980000D01*
X-4230000Y890000D01*
X-6740000D01*
X-7240000Y390000D01*
X-7440000D01*
X-7590000Y240000D01*
Y-10000D01*
X-7385450Y-214550D01*
X-6910000D01*
G01Y1524970D02*
X-7544970D01*
X-7660000Y1640000D01*
Y1874850D01*
X-7294850Y2240000D01*
X-7060000D01*
X-6670000Y2630000D01*
X-3290000D01*
X-2978400Y2941600D01*
X373400D01*
X725000Y2590000D01*
G01X10Y2500000D02*
X-29990Y2530000D01*
X-2790000D01*
X-3850000Y1470000D01*
Y-2360000D01*
X-4130000Y-2640000D01*
X-6720000D01*
X-6960000Y-2880000D01*
Y-3243590D01*
X-6910000Y-3293590D01*
G01X270000Y2540000D02*
X160000Y2650000D01*
X-2880000D01*
X-3970000Y1560000D01*
Y-790000D01*
X-4070000Y-890000D01*
X-6660000D01*
X-6940200Y-1170200D01*
Y-1523870D01*
X-6910000Y-1554070D01*
G01X450000Y2590000D02*
X270000Y2770000D01*
X-2930000D01*
X-4085000Y1615000D01*
Y925000D01*
X-4170000Y840000D01*
X-6700000D01*
X-6990000Y550000D01*
Y260000D01*
X-6915450Y185450D01*
X-6910000D01*
G01X650000Y2590000D02*
X350000Y2890000D01*
X-2960000D01*
X-3270000Y2580000D01*
X-6654170D01*
X-6940200Y2293970D01*
Y1955170D01*
X-6910000Y1924970D01*
G01X-3584420Y-88320D02*
X-3533560Y-139180D01*
X-3399750D01*
G01X-3584420Y404740D02*
X-3533560Y353880D01*
X-3399750D01*
G01X-3584420Y897800D02*
X-3533560Y846940D01*
X-3399750D01*
G01X-3584420Y1390860D02*
X-3533560Y1340000D01*
X-3399750D01*
G01X-2790000Y-398320D02*
X-2882980D01*
G01X-2750000Y110000D02*
X-2765260Y94740D01*
X-2882980D01*
G01X-2800000Y590000D02*
X-2880780D01*
X-2882980Y587800D01*
G01X-2810000Y1080000D02*
X-2882120D01*
X-2882980Y1080860D01*
G01X-1834280Y-416900D02*
X-2114510Y-136670D01*
X-2186810D01*
G01X-217680Y-2754320D02*
X650000Y-1886640D01*
Y-1680000D01*
X695720Y-1634280D01*
X700000D01*
G01X48720Y-4599710D02*
Y-4730890D01*
G01X36320Y-2754320D02*
X750000Y-2040640D01*
Y-1680000D01*
X795720Y-1634280D01*
X800000D01*
G01X290320Y-2754320D02*
X850000Y-2194640D01*
Y-1680000D01*
X895720Y-1634280D01*
X900000D01*
G01X800000Y-1725720D02*
Y-1790000D01*
G01X700000Y-1725720D02*
Y-1790000D01*
G01Y-1500000D02*
Y-1634280D01*
G01X800000D02*
Y-1420000D01*
X780000Y-1400000D01*
X700000D01*
G01X900000Y-1634280D02*
Y-1300000D01*
X700000Y-1100000D01*
G01X900000Y-1725720D02*
Y-1790000D01*
G01X6082380Y3674990D02*
X6159230D01*
X6164410Y3680170D01*
G01X6255850D02*
Y3622070D01*
G01X6164410Y3680170D02*
Y3770170D01*
G01X7645850Y3760170D02*
Y3818270D01*
G01X7554410Y3760170D02*
Y3670170D01*
G01X7482380Y3674990D02*
X7549590D01*
X7554410Y3670170D01*
G54D29*
X-1350000Y-1249990D03*
Y-849990D03*
Y-750010D03*
Y-1150010D03*
X-1050000Y-1350010D03*
Y-1449990D03*
X-1250000Y-1249990D03*
X-950000Y-849990D03*
Y-750010D03*
X-1150000Y-849990D03*
Y-750010D03*
X-950000Y-1149990D03*
Y-1050010D03*
X-1250000Y-1150010D03*
X-650000Y-1350010D03*
Y-1449990D03*
X-550000Y-849990D03*
Y-750010D03*
X-750000Y-849990D03*
Y-750010D03*
X-850000Y-849990D03*
Y-750010D03*
X-750000Y-1149990D03*
Y-1050010D03*
X-150000Y-1350010D03*
Y-1449990D03*
X-350000Y-849990D03*
Y-750010D03*
X-150000Y-849990D03*
Y-750010D03*
Y-50010D03*
Y-149990D03*
X250000Y-849990D03*
Y-750010D03*
X150000Y-849990D03*
Y-750010D03*
X350000Y-1049990D03*
Y-950010D03*
X150000Y-150010D03*
Y-249990D03*
X450000Y-750010D03*
Y-849990D03*
G54D39*
G01X4580000Y-910000D02*
X4840000D01*
X5050000Y-700000D01*
Y-80000D01*
X5020000Y-50000D01*
X4950000D01*
G01X4793730Y1232630D02*
X5230000D01*
G01X4910000Y2675000D02*
X4973000D01*
X5000000Y2648000D01*
Y2100000D01*
X4710000Y1810000D01*
X4550000D01*
M02*
