G04 ================== begin FILE IDENTIFICATION RECORD ==================*
G04 Layout Name:  C:/Users/hagzg/Desktop/new/7k325t_ffg900_tmp1.brd*
G04 Film Name:    SILKSCREEN_TL*
G04 File Format:  Gerber RS274X*
G04 File Origin:  Cadence Allegro 17.2-S053*
G04 Origin Date:  Tue Nov 26 13:13:30 2019*
G04 *
G04 Layer:  USER PART NUMBER/SILKSCREEN_TOP*
G04 Layer:  TOLERANCE/SILKSCREEN_TOP*
G04 Layer:  REF DES/SILKSCREEN_TOP*
G04 Layer:  PACKAGE GEOMETRY/SILKSCREEN_TOP*
G04 Layer:  DEVICE TYPE/SILKSCREEN_TOP*
G04 Layer:  COMPONENT VALUE/SILKSCREEN_TOP*
G04 Layer:  BOARD GEOMETRY/SILKSCREEN_TOP*
G04 Layer:  BOARD GEOMETRY/DESIGN_OUTLINE*
G04 *
G04 Offset:    (0.0000 0.0000)*
G04 Mirror:    No*
G04 Mode:      Positive*
G04 Rotation:  0*
G04 FullContactRelief:  No*
G04 UndefLineWidth:     0.1000*
G04 ================== end FILE IDENTIFICATION RECORD ====================*
%FSLAX45Y45*MOMM*%
%IR0*IPPOS*OFA0.00000B0.00000*MIA0B0*SFA1.00000B1.00000*%
%ADD10C,.1*%
%ADD11C,.1001*%
%ADD12C,.13*%
%ADD13C,.2032*%
%ADD14C,.1016*%
%ADD15C,.127*%
%ADD16C,.254*%
%ADD17C,.1524*%
%ADD18C,.1778*%
%ADD19C,.2499*%
%ADD20C,.1999*%
G75*
%LPD*%
G75*
G36*
G01X-1550010Y-1550010D02*
X-1753210D01*
X-1550010Y-1753210D01*
Y-1550010D01*
G37*
G36*
G01X3078500Y-5292150D02*
X3205500D01*
X3142000Y-5228650D01*
X3078500Y-5292150D01*
G37*
G36*
G01X7678460Y-1685190D02*
X7726720Y-1733450D01*
Y-1636930D01*
X7678460Y-1685190D01*
G37*
G54D10*
G01X-9871320Y-4318600D02*
X-5626320D01*
Y-2638600D01*
X-9871320D01*
Y-4318600D01*
G01D02*
X-5626320D01*
Y-2638600D01*
X-9871320D01*
Y-4318600D01*
G01Y-2579080D02*
X-5626320D01*
Y-899080D01*
X-9871320D01*
Y-2579080D01*
G01D02*
X-5626320D01*
Y-899080D01*
X-9871320D01*
Y-2579080D01*
G01Y-839560D02*
X-5626320D01*
Y840440D01*
X-9871320D01*
Y-839560D01*
G01D02*
X-5626320D01*
Y840440D01*
X-9871320D01*
Y-839560D01*
G01Y899960D02*
X-5626320D01*
Y2579960D01*
X-9871320D01*
Y899960D01*
G01D02*
X-5626320D01*
Y2579960D01*
X-9871320D01*
Y899960D01*
G01X-9840000Y4250000D02*
X8350000D01*
Y-5750000D01*
X-9840000D01*
Y4250000D01*
G01X-8754580Y3123500D02*
Y3077990D01*
X-8751870Y3068460D01*
X-8746450Y3062120D01*
X-8739680Y3060000D01*
X-8732910Y3062120D01*
X-8727490Y3068460D01*
X-8724780Y3077990D01*
Y3123500D01*
G01X-8683800Y3060000D02*
Y3123500D01*
X-8691930Y3110800D01*
G01Y3060000D02*
X-8675670D01*
G01X-8642820Y3069520D02*
X-8638760Y3064230D01*
X-8634020Y3061060D01*
X-8627920Y3060000D01*
X-8621820Y3062120D01*
X-8617080Y3066350D01*
X-8613700Y3073760D01*
X-8613020Y3082220D01*
X-8614370Y3090690D01*
X-8617760Y3095980D01*
X-8622500Y3100220D01*
X-8627240Y3101270D01*
X-8631980Y3100220D01*
X-8638080Y3095980D01*
X-8636050Y3123500D01*
X-8617760D01*
G01X-5263230Y-3527300D02*
X-5259840Y-3533650D01*
X-5255780Y-3537880D01*
X-5251030Y-3540000D01*
X-5245620Y-3537880D01*
X-5241550Y-3533650D01*
X-5237490Y-3527300D01*
X-5236130Y-3518830D01*
Y-3476500D01*
G01X-5208700Y-3527300D02*
X-5204640Y-3534710D01*
X-5199220Y-3538940D01*
X-5193120Y-3540000D01*
X-5187700Y-3538940D01*
X-5182280Y-3533650D01*
X-5178900Y-3527300D01*
X-5178220Y-3520950D01*
X-5179580Y-3513540D01*
X-5184320Y-3508250D01*
X-5189060Y-3506130D01*
X-5195150D01*
G01X-5189060D02*
X-5184990Y-3502960D01*
X-5181610Y-3497670D01*
X-5180250Y-3491320D01*
X-5181610Y-3484970D01*
X-5184990Y-3479680D01*
X-5191090Y-3476500D01*
X-5197190Y-3477560D01*
X-5203280Y-3481790D01*
G01X-5253230Y-1937300D02*
X-5249840Y-1943650D01*
X-5245780Y-1947880D01*
X-5241030Y-1950000D01*
X-5235620Y-1947880D01*
X-5231550Y-1943650D01*
X-5227490Y-1937300D01*
X-5226130Y-1928830D01*
Y-1886500D01*
G01X-5175670Y-1950000D02*
Y-1886500D01*
X-5200730Y-1932010D01*
X-5166870D01*
G01X-5223230Y-57300D02*
X-5219840Y-63650D01*
X-5215780Y-67880D01*
X-5211030Y-70000D01*
X-5205620Y-67880D01*
X-5201550Y-63650D01*
X-5197490Y-57300D01*
X-5196130Y-48830D01*
Y-6500D01*
G01X-5168700Y-60480D02*
X-5164640Y-65770D01*
X-5159900Y-68940D01*
X-5153800Y-70000D01*
X-5147700Y-67880D01*
X-5142960Y-63650D01*
X-5139580Y-56240D01*
X-5138900Y-47780D01*
X-5140250Y-39310D01*
X-5143640Y-34020D01*
X-5148380Y-29780D01*
X-5153120Y-28730D01*
X-5157860Y-29780D01*
X-5163960Y-34020D01*
X-5161930Y-6500D01*
X-5143640D01*
G01X-5273230Y1592700D02*
X-5269840Y1586350D01*
X-5265780Y1582120D01*
X-5261030Y1580000D01*
X-5255620Y1582120D01*
X-5251550Y1586350D01*
X-5247490Y1592700D01*
X-5246130Y1601170D01*
Y1643500D01*
G01X-5216670Y1606460D02*
X-5211930Y1613870D01*
X-5207860Y1618100D01*
X-5202450Y1620220D01*
X-5197700Y1618100D01*
X-5194320Y1613870D01*
X-5191610Y1607520D01*
X-5190930Y1600110D01*
X-5191610Y1593760D01*
X-5194320Y1587410D01*
X-5198380Y1582120D01*
X-5203120Y1580000D01*
X-5208540Y1582120D01*
X-5213280Y1588460D01*
X-5215990Y1597990D01*
X-5216670Y1608570D01*
X-5215320Y1622330D01*
X-5213280Y1629740D01*
X-5209900Y1637150D01*
X-5205150Y1642440D01*
X-5200410Y1643500D01*
X-5195670Y1641380D01*
X-5192280Y1636090D01*
G01X-4763230Y3042700D02*
X-4759840Y3036350D01*
X-4755780Y3032120D01*
X-4751030Y3030000D01*
X-4745620Y3032120D01*
X-4741550Y3036350D01*
X-4737490Y3042700D01*
X-4736130Y3051170D01*
Y3093500D01*
G01X-4693800Y3030000D02*
Y3093500D01*
X-4701930Y3080800D01*
G01Y3030000D02*
X-4685670D01*
G01X-3220000Y-195420D02*
X-3156500D01*
Y-208970D01*
X-3159680Y-214380D01*
X-3163910Y-218450D01*
X-3170260Y-221840D01*
X-3177670Y-224540D01*
X-3188250Y-225220D01*
X-3198830Y-224540D01*
X-3206240Y-221840D01*
X-3212590Y-218450D01*
X-3216830Y-214380D01*
X-3220000Y-208970D01*
Y-195420D01*
G01Y-266200D02*
X-3156500D01*
X-3169200Y-258070D01*
G01X-3220000D02*
Y-274330D01*
G01X-3167080Y-309210D02*
X-3160730Y-313270D01*
X-3157560Y-318020D01*
X-3156500Y-323430D01*
X-3158620Y-330210D01*
X-3163910Y-334950D01*
X-3170260Y-336300D01*
X-3176610Y-335630D01*
X-3181900Y-332920D01*
X-3192480Y-319370D01*
X-3199890Y-313270D01*
X-3210480Y-309210D01*
X-3220000Y-307860D01*
Y-336300D01*
G01X-3210000Y304580D02*
X-3146500D01*
Y291030D01*
X-3149680Y285620D01*
X-3153910Y281550D01*
X-3160260Y278160D01*
X-3167670Y275460D01*
X-3178250Y274780D01*
X-3188830Y275460D01*
X-3196240Y278160D01*
X-3202590Y281550D01*
X-3206830Y285620D01*
X-3210000Y291030D01*
Y304580D01*
G01Y233800D02*
X-3146500D01*
X-3159200Y241930D01*
G01X-3210000D02*
Y225670D01*
G01X-3197300Y192820D02*
X-3204710Y188760D01*
X-3208940Y183340D01*
X-3210000Y177240D01*
X-3208940Y171820D01*
X-3203650Y166400D01*
X-3197300Y163020D01*
X-3190950Y162340D01*
X-3183540Y163700D01*
X-3178250Y168440D01*
X-3176130Y173180D01*
Y179270D01*
G01Y173180D02*
X-3172960Y169110D01*
X-3167670Y165730D01*
X-3161320Y164370D01*
X-3154970Y165730D01*
X-3149680Y169110D01*
X-3146500Y175210D01*
X-3147560Y181310D01*
X-3151790Y187400D01*
G01X-3210000Y794580D02*
X-3146500D01*
Y781030D01*
X-3149680Y775620D01*
X-3153910Y771550D01*
X-3160260Y768160D01*
X-3167670Y765460D01*
X-3178250Y764780D01*
X-3188830Y765460D01*
X-3196240Y768160D01*
X-3202590Y771550D01*
X-3206830Y775620D01*
X-3210000Y781030D01*
Y794580D01*
G01Y723800D02*
X-3146500D01*
X-3159200Y731930D01*
G01X-3210000D02*
Y715670D01*
G01Y659790D02*
X-3146500D01*
X-3192010Y684850D01*
Y650990D01*
G01X-3200000Y1324580D02*
X-3136500D01*
Y1311030D01*
X-3139680Y1305620D01*
X-3143910Y1301550D01*
X-3150260Y1298160D01*
X-3157670Y1295460D01*
X-3168250Y1294780D01*
X-3178830Y1295460D01*
X-3186240Y1298160D01*
X-3192590Y1301550D01*
X-3196830Y1305620D01*
X-3200000Y1311030D01*
Y1324580D01*
G01Y1253800D02*
X-3136500D01*
X-3149200Y1261930D01*
G01X-3200000D02*
Y1245670D01*
G01Y1197920D02*
X-3136500D01*
X-3149200Y1206050D01*
G01X-3200000D02*
Y1189790D01*
G01X-2801790Y-4785220D02*
X-2798620Y-4781160D01*
X-2796500Y-4776420D01*
Y-4771000D01*
X-2799680Y-4764900D01*
X-2804970Y-4760160D01*
X-2811320Y-4756770D01*
X-2821900Y-4754060D01*
X-2831430Y-4753390D01*
X-2840950Y-4754740D01*
X-2847300Y-4756770D01*
X-2853650Y-4760840D01*
X-2857880Y-4765580D01*
X-2860000Y-4770320D01*
Y-4775060D01*
X-2857880Y-4779800D01*
X-2854710Y-4783870D01*
X-2850480Y-4787250D01*
G01X-2860000Y-4826200D02*
X-2796500D01*
X-2809200Y-4818070D01*
G01X-2860000D02*
Y-4834330D01*
G01X-2847300Y-4867180D02*
X-2854710Y-4871240D01*
X-2858940Y-4876660D01*
X-2860000Y-4882760D01*
X-2858940Y-4888180D01*
X-2853650Y-4893600D01*
X-2847300Y-4896980D01*
X-2840950Y-4897660D01*
X-2833540Y-4896300D01*
X-2828250Y-4891560D01*
X-2826130Y-4886820D01*
Y-4880730D01*
G01Y-4886820D02*
X-2822960Y-4890890D01*
X-2817670Y-4894270D01*
X-2811320Y-4895630D01*
X-2804970Y-4894270D01*
X-2799680Y-4890890D01*
X-2796500Y-4884790D01*
X-2797560Y-4878690D01*
X-2801790Y-4872600D01*
G01X-2774780Y-3831790D02*
X-2778840Y-3828620D01*
X-2783580Y-3826500D01*
X-2789000D01*
X-2795100Y-3829680D01*
X-2799840Y-3834970D01*
X-2803230Y-3841320D01*
X-2805940Y-3851900D01*
X-2806610Y-3861430D01*
X-2805260Y-3870950D01*
X-2803230Y-3877300D01*
X-2799160Y-3883650D01*
X-2794420Y-3887880D01*
X-2789680Y-3890000D01*
X-2784940D01*
X-2780200Y-3887880D01*
X-2776130Y-3884710D01*
X-2772750Y-3880480D01*
G01X-2733800Y-3890000D02*
Y-3826500D01*
X-2741930Y-3839200D01*
G01Y-3890000D02*
X-2725670D01*
G01X-2690790Y-3863540D02*
X-2686050Y-3856130D01*
X-2681980Y-3851900D01*
X-2676570Y-3849780D01*
X-2671820Y-3851900D01*
X-2668440Y-3856130D01*
X-2665730Y-3862480D01*
X-2665050Y-3869890D01*
X-2665730Y-3876240D01*
X-2668440Y-3882590D01*
X-2672500Y-3887880D01*
X-2677240Y-3890000D01*
X-2682660Y-3887880D01*
X-2687400Y-3881540D01*
X-2690110Y-3872010D01*
X-2690790Y-3861430D01*
X-2689440Y-3847670D01*
X-2687400Y-3840260D01*
X-2684020Y-3832850D01*
X-2679270Y-3827560D01*
X-2674530Y-3826500D01*
X-2669790Y-3828620D01*
X-2666400Y-3833910D01*
G01X-2636940Y-3880480D02*
X-2632880Y-3885770D01*
X-2628140Y-3888940D01*
X-2622040Y-3890000D01*
X-2615940Y-3887880D01*
X-2611200Y-3883650D01*
X-2607820Y-3876240D01*
X-2607140Y-3867780D01*
X-2608490Y-3859310D01*
X-2611880Y-3854020D01*
X-2616620Y-3849780D01*
X-2621360Y-3848730D01*
X-2626100Y-3849780D01*
X-2632200Y-3854020D01*
X-2630170Y-3826500D01*
X-2611880D01*
G01X-2321790Y-4785220D02*
X-2318620Y-4781160D01*
X-2316500Y-4776420D01*
Y-4771000D01*
X-2319680Y-4764900D01*
X-2324970Y-4760160D01*
X-2331320Y-4756770D01*
X-2341900Y-4754060D01*
X-2351430Y-4753390D01*
X-2360950Y-4754740D01*
X-2367300Y-4756770D01*
X-2373650Y-4760840D01*
X-2377880Y-4765580D01*
X-2380000Y-4770320D01*
Y-4775060D01*
X-2377880Y-4779800D01*
X-2374710Y-4783870D01*
X-2370480Y-4787250D01*
G01X-2380000Y-4826200D02*
X-2316500D01*
X-2329200Y-4818070D01*
G01X-2380000D02*
Y-4834330D01*
G01X-2353540Y-4869210D02*
X-2346130Y-4873950D01*
X-2341900Y-4878020D01*
X-2339780Y-4883430D01*
X-2341900Y-4888180D01*
X-2346130Y-4891560D01*
X-2352480Y-4894270D01*
X-2359890Y-4894950D01*
X-2366240Y-4894270D01*
X-2372590Y-4891560D01*
X-2377880Y-4887500D01*
X-2380000Y-4882760D01*
X-2377880Y-4877340D01*
X-2371540Y-4872600D01*
X-2362010Y-4869890D01*
X-2351430Y-4869210D01*
X-2337670Y-4870560D01*
X-2330260Y-4872600D01*
X-2322850Y-4875980D01*
X-2317560Y-4880730D01*
X-2316500Y-4885470D01*
X-2318620Y-4890210D01*
X-2323910Y-4893600D01*
G01X-2601790Y-4765220D02*
X-2598620Y-4761160D01*
X-2596500Y-4756420D01*
Y-4751000D01*
X-2599680Y-4744900D01*
X-2604970Y-4740160D01*
X-2611320Y-4736770D01*
X-2621900Y-4734060D01*
X-2631430Y-4733390D01*
X-2640950Y-4734740D01*
X-2647300Y-4736770D01*
X-2653650Y-4740840D01*
X-2657880Y-4745580D01*
X-2660000Y-4750320D01*
Y-4755060D01*
X-2657880Y-4759800D01*
X-2654710Y-4763870D01*
X-2650480Y-4767250D01*
G01X-2660000Y-4806200D02*
X-2596500D01*
X-2609200Y-4798070D01*
G01X-2660000D02*
Y-4814330D01*
G01Y-4862080D02*
X-2596500D01*
X-2609200Y-4853950D01*
G01X-2660000D02*
Y-4870210D01*
G01X-2593230Y-1160000D02*
Y-1096500D01*
X-2576290D01*
X-2570870Y-1099680D01*
X-2567490Y-1103910D01*
X-2566130Y-1112380D01*
X-2567490Y-1120840D01*
X-2571550Y-1126130D01*
X-2576290Y-1129310D01*
X-2593230D01*
G01X-2576290D02*
X-2566130Y-1160000D01*
G01X-2536670Y-1133540D02*
X-2531930Y-1126130D01*
X-2527860Y-1121900D01*
X-2522450Y-1119780D01*
X-2517700Y-1121900D01*
X-2514320Y-1126130D01*
X-2511610Y-1132480D01*
X-2510930Y-1139890D01*
X-2511610Y-1146240D01*
X-2514320Y-1152590D01*
X-2518380Y-1157880D01*
X-2523120Y-1160000D01*
X-2528540Y-1157880D01*
X-2533280Y-1151540D01*
X-2535990Y-1142010D01*
X-2536670Y-1131430D01*
X-2535320Y-1117670D01*
X-2533280Y-1110260D01*
X-2529900Y-1102850D01*
X-2525150Y-1097560D01*
X-2520410Y-1096500D01*
X-2515670Y-1098620D01*
X-2512280Y-1103910D01*
G01X-2459790Y-1160000D02*
Y-1096500D01*
X-2484850Y-1142010D01*
X-2450990D01*
G01X-2590000Y-374580D02*
X-2653500D01*
Y-361030D01*
X-2650320Y-355620D01*
X-2646090Y-351550D01*
X-2639740Y-348160D01*
X-2632330Y-345460D01*
X-2621750Y-344780D01*
X-2611170Y-345460D01*
X-2603760Y-348160D01*
X-2597410Y-351550D01*
X-2593170Y-355620D01*
X-2590000Y-361030D01*
Y-374580D01*
G01Y-303800D02*
X-2591060Y-299060D01*
X-2594230Y-293640D01*
X-2599520Y-290250D01*
X-2606930Y-288900D01*
X-2614340Y-290250D01*
X-2620690Y-294320D01*
X-2623870Y-300410D01*
Y-307190D01*
X-2625980Y-311250D01*
X-2631270Y-314640D01*
X-2638680Y-315990D01*
X-2646090Y-313960D01*
X-2651380Y-309220D01*
X-2653500Y-303800D01*
X-2651380Y-298380D01*
X-2646090Y-293640D01*
X-2638680Y-291610D01*
X-2631270Y-292960D01*
X-2625980Y-296350D01*
X-2623870Y-300410D01*
Y-307190D01*
X-2620690Y-313280D01*
X-2614340Y-317350D01*
X-2606930Y-318700D01*
X-2599520Y-317350D01*
X-2594230Y-313960D01*
X-2591060Y-308540D01*
X-2590000Y-303800D01*
G01X-2071790Y-4785220D02*
X-2068620Y-4781160D01*
X-2066500Y-4776420D01*
Y-4771000D01*
X-2069680Y-4764900D01*
X-2074970Y-4760160D01*
X-2081320Y-4756770D01*
X-2091900Y-4754060D01*
X-2101430Y-4753390D01*
X-2110950Y-4754740D01*
X-2117300Y-4756770D01*
X-2123650Y-4760840D01*
X-2127880Y-4765580D01*
X-2130000Y-4770320D01*
Y-4775060D01*
X-2127880Y-4779800D01*
X-2124710Y-4783870D01*
X-2120480Y-4787250D01*
G01X-2130000Y-4826200D02*
X-2066500D01*
X-2079200Y-4818070D01*
G01X-2130000D02*
Y-4834330D01*
G01Y-4880730D02*
X-2116240Y-4882080D01*
X-2104600Y-4884110D01*
X-2094020Y-4886820D01*
X-2082380Y-4890210D01*
X-2066500Y-4895630D01*
Y-4868530D01*
G01X-1821790Y-4755220D02*
X-1818620Y-4751160D01*
X-1816500Y-4746420D01*
Y-4741000D01*
X-1819680Y-4734900D01*
X-1824970Y-4730160D01*
X-1831320Y-4726770D01*
X-1841900Y-4724060D01*
X-1851430Y-4723390D01*
X-1860950Y-4724740D01*
X-1867300Y-4726770D01*
X-1873650Y-4730840D01*
X-1877880Y-4735580D01*
X-1880000Y-4740320D01*
Y-4745060D01*
X-1877880Y-4749800D01*
X-1874710Y-4753870D01*
X-1870480Y-4757250D01*
G01X-1880000Y-4796200D02*
X-1816500D01*
X-1829200Y-4788070D01*
G01X-1880000D02*
Y-4804330D01*
G01X-1827080Y-4839210D02*
X-1820730Y-4843270D01*
X-1817560Y-4848020D01*
X-1816500Y-4853430D01*
X-1818620Y-4860210D01*
X-1823910Y-4864950D01*
X-1830260Y-4866300D01*
X-1836610Y-4865630D01*
X-1841900Y-4862920D01*
X-1852480Y-4849370D01*
X-1859890Y-4843270D01*
X-1870480Y-4839210D01*
X-1880000Y-4837860D01*
Y-4866300D01*
G01X-1926770Y-4123500D02*
Y-4060000D01*
X-1953870D01*
G01X-1996200D02*
Y-4123500D01*
X-1988070Y-4110800D01*
G01Y-4060000D02*
X-2004330D01*
G01X-2039210Y-4112920D02*
X-2043270Y-4119270D01*
X-2048020Y-4122440D01*
X-2053430Y-4123500D01*
X-2060210Y-4121380D01*
X-2064950Y-4116090D01*
X-2066300Y-4109740D01*
X-2065630Y-4103390D01*
X-2062920Y-4098100D01*
X-2049370Y-4087520D01*
X-2043270Y-4080110D01*
X-2039210Y-4069520D01*
X-2037860Y-4060000D01*
X-2066300D01*
G01X-1965220Y-3528210D02*
X-1961160Y-3531380D01*
X-1956420Y-3533500D01*
X-1951000D01*
X-1944900Y-3530320D01*
X-1940160Y-3525030D01*
X-1936770Y-3518680D01*
X-1934060Y-3508100D01*
X-1933390Y-3498570D01*
X-1934740Y-3489050D01*
X-1936770Y-3482700D01*
X-1940840Y-3476350D01*
X-1945580Y-3472120D01*
X-1950320Y-3470000D01*
X-1955060D01*
X-1959800Y-3472120D01*
X-1963870Y-3475290D01*
X-1967250Y-3479520D01*
G01X-2006200Y-3470000D02*
Y-3533500D01*
X-1998070Y-3520800D01*
G01Y-3470000D02*
X-2014330D01*
G01X-2049210Y-3496460D02*
X-2053950Y-3503870D01*
X-2058020Y-3508100D01*
X-2063430Y-3510220D01*
X-2068180Y-3508100D01*
X-2071560Y-3503870D01*
X-2074270Y-3497520D01*
X-2074950Y-3490110D01*
X-2074270Y-3483760D01*
X-2071560Y-3477410D01*
X-2067500Y-3472120D01*
X-2062760Y-3470000D01*
X-2057340Y-3472120D01*
X-2052600Y-3478460D01*
X-2049890Y-3487990D01*
X-2049210Y-3498570D01*
X-2050560Y-3512330D01*
X-2052600Y-3519740D01*
X-2055980Y-3527150D01*
X-2060730Y-3532440D01*
X-2065470Y-3533500D01*
X-2070210Y-3531380D01*
X-2073600Y-3526090D01*
G01X-2126090Y-3470000D02*
Y-3533500D01*
X-2101030Y-3487990D01*
X-2134890D01*
G01X-1655220Y-3538210D02*
X-1651160Y-3541380D01*
X-1646420Y-3543500D01*
X-1641000D01*
X-1634900Y-3540320D01*
X-1630160Y-3535030D01*
X-1626770Y-3528680D01*
X-1624060Y-3518100D01*
X-1623390Y-3508570D01*
X-1624740Y-3499050D01*
X-1626770Y-3492700D01*
X-1630840Y-3486350D01*
X-1635580Y-3482120D01*
X-1640320Y-3480000D01*
X-1645060D01*
X-1649800Y-3482120D01*
X-1653870Y-3485290D01*
X-1657250Y-3489520D01*
G01X-1696200Y-3480000D02*
Y-3543500D01*
X-1688070Y-3530800D01*
G01Y-3480000D02*
X-1704330D01*
G01X-1739210Y-3506460D02*
X-1743950Y-3513870D01*
X-1748020Y-3518100D01*
X-1753430Y-3520220D01*
X-1758180Y-3518100D01*
X-1761560Y-3513870D01*
X-1764270Y-3507520D01*
X-1764950Y-3500110D01*
X-1764270Y-3493760D01*
X-1761560Y-3487410D01*
X-1757500Y-3482120D01*
X-1752760Y-3480000D01*
X-1747340Y-3482120D01*
X-1742600Y-3488460D01*
X-1739890Y-3497990D01*
X-1739210Y-3508570D01*
X-1740560Y-3522330D01*
X-1742600Y-3529740D01*
X-1745980Y-3537150D01*
X-1750730Y-3542440D01*
X-1755470Y-3543500D01*
X-1760210Y-3541380D01*
X-1763600Y-3536090D01*
G01X-1793060Y-3492700D02*
X-1797120Y-3485290D01*
X-1802540Y-3481060D01*
X-1808640Y-3480000D01*
X-1814060Y-3481060D01*
X-1819480Y-3486350D01*
X-1822860Y-3492700D01*
X-1823540Y-3499050D01*
X-1822180Y-3506460D01*
X-1817440Y-3511750D01*
X-1812700Y-3513870D01*
X-1806610D01*
G01X-1812700D02*
X-1816770Y-3517040D01*
X-1820150Y-3522330D01*
X-1821510Y-3528680D01*
X-1820150Y-3535030D01*
X-1816770Y-3540320D01*
X-1810670Y-3543500D01*
X-1804570Y-3542440D01*
X-1798480Y-3538210D01*
G01X-2043230Y-1730000D02*
Y-1666500D01*
X-2026290D01*
X-2020870Y-1669680D01*
X-2017490Y-1673910D01*
X-2016130Y-1682380D01*
X-2017490Y-1690840D01*
X-2021550Y-1696130D01*
X-2026290Y-1699310D01*
X-2043230D01*
G01X-2026290D02*
X-2016130Y-1730000D01*
G01X-1986670Y-1703540D02*
X-1981930Y-1696130D01*
X-1977860Y-1691900D01*
X-1972450Y-1689780D01*
X-1967700Y-1691900D01*
X-1964320Y-1696130D01*
X-1961610Y-1702480D01*
X-1960930Y-1709890D01*
X-1961610Y-1716240D01*
X-1964320Y-1722590D01*
X-1968380Y-1727880D01*
X-1973120Y-1730000D01*
X-1978540Y-1727880D01*
X-1983280Y-1721540D01*
X-1985990Y-1712010D01*
X-1986670Y-1701430D01*
X-1985320Y-1687670D01*
X-1983280Y-1680260D01*
X-1979900Y-1672850D01*
X-1975150Y-1667560D01*
X-1970410Y-1666500D01*
X-1965670Y-1668620D01*
X-1962280Y-1673910D01*
G01X-1932820Y-1720480D02*
X-1928760Y-1725770D01*
X-1924020Y-1728940D01*
X-1917920Y-1730000D01*
X-1911820Y-1727880D01*
X-1907080Y-1723650D01*
X-1903700Y-1716240D01*
X-1903020Y-1707780D01*
X-1904370Y-1699310D01*
X-1907760Y-1694020D01*
X-1912500Y-1689780D01*
X-1917240Y-1688730D01*
X-1921980Y-1689780D01*
X-1928080Y-1694020D01*
X-1926050Y-1666500D01*
X-1907760D01*
G01X-1940000Y-1584580D02*
X-2003500D01*
Y-1571030D01*
X-2000320Y-1565620D01*
X-1996090Y-1561550D01*
X-1989740Y-1558160D01*
X-1982330Y-1555460D01*
X-1971750Y-1554780D01*
X-1961170Y-1555460D01*
X-1953760Y-1558160D01*
X-1947410Y-1561550D01*
X-1943170Y-1565620D01*
X-1940000Y-1571030D01*
Y-1584580D01*
G01Y-1513800D02*
X-2003500D01*
X-1990800Y-1521930D01*
G01X-1940000D02*
Y-1505670D01*
G01X-2003500Y-1457920D02*
X-2001380Y-1463340D01*
X-1996090Y-1467400D01*
X-1989740Y-1470110D01*
X-1981270Y-1472140D01*
X-1971750Y-1472820D01*
X-1962220Y-1472140D01*
X-1953760Y-1470110D01*
X-1947410Y-1467400D01*
X-1942120Y-1463340D01*
X-1940000Y-1457920D01*
X-1942120Y-1452500D01*
X-1947410Y-1448440D01*
X-1953760Y-1445730D01*
X-1962220Y-1443700D01*
X-1971750Y-1443020D01*
X-1981270Y-1443700D01*
X-1989740Y-1445730D01*
X-1996090Y-1448440D01*
X-2001380Y-1452500D01*
X-2003500Y-1457920D01*
G01X-2144240Y-1334610D02*
Y-1271110D01*
X-2127300D01*
X-2121880Y-1274290D01*
X-2118500Y-1278520D01*
X-2117140Y-1286990D01*
X-2118500Y-1295450D01*
X-2122560Y-1300740D01*
X-2127300Y-1303920D01*
X-2144240D01*
G01X-2127300D02*
X-2117140Y-1334610D01*
G01X-2087680Y-1308150D02*
X-2082940Y-1300740D01*
X-2078870Y-1296510D01*
X-2073460Y-1294390D01*
X-2068710Y-1296510D01*
X-2065330Y-1300740D01*
X-2062620Y-1307090D01*
X-2061940Y-1314500D01*
X-2062620Y-1320850D01*
X-2065330Y-1327200D01*
X-2069390Y-1332490D01*
X-2074130Y-1334610D01*
X-2079550Y-1332490D01*
X-2084290Y-1326150D01*
X-2087000Y-1316620D01*
X-2087680Y-1306040D01*
X-2086330Y-1292280D01*
X-2084290Y-1284870D01*
X-2080910Y-1277460D01*
X-2076160Y-1272170D01*
X-2071420Y-1271110D01*
X-2066680Y-1273230D01*
X-2063290Y-1278520D01*
G01X-2020280Y-1334610D02*
X-2018930Y-1320850D01*
X-2016900Y-1309210D01*
X-2014190Y-1298630D01*
X-2010800Y-1286990D01*
X-2005380Y-1271110D01*
X-2032480D01*
G01X-2000000Y-1014580D02*
X-2063500D01*
Y-1001030D01*
X-2060320Y-995620D01*
X-2056090Y-991550D01*
X-2049740Y-988160D01*
X-2042330Y-985460D01*
X-2031750Y-984780D01*
X-2021170Y-985460D01*
X-2013760Y-988160D01*
X-2007410Y-991550D01*
X-2003170Y-995620D01*
X-2000000Y-1001030D01*
Y-1014580D01*
G01X-2007410Y-955320D02*
X-2002120Y-950570D01*
X-2000000Y-945150D01*
X-2002120Y-939740D01*
X-2008460Y-934990D01*
X-2017990Y-931610D01*
X-2027520Y-930250D01*
X-2039160D01*
X-2048680Y-931610D01*
X-2057150Y-934990D01*
X-2061380Y-939060D01*
X-2063500Y-943800D01*
X-2061380Y-949220D01*
X-2057150Y-953280D01*
X-2050800Y-955990D01*
X-2042330Y-957350D01*
X-2034930Y-955990D01*
X-2027520Y-952610D01*
X-2023280Y-948540D01*
X-2022220Y-943800D01*
X-2024340Y-938380D01*
X-2029630Y-934320D01*
X-2039160Y-930250D01*
G01X-2144240Y-754610D02*
Y-691110D01*
X-2127300D01*
X-2121880Y-694290D01*
X-2118500Y-698520D01*
X-2117140Y-706990D01*
X-2118500Y-715450D01*
X-2122560Y-720740D01*
X-2127300Y-723920D01*
X-2144240D01*
G01X-2127300D02*
X-2117140Y-754610D01*
G01X-2087680Y-728150D02*
X-2082940Y-720740D01*
X-2078870Y-716510D01*
X-2073460Y-714390D01*
X-2068710Y-716510D01*
X-2065330Y-720740D01*
X-2062620Y-727090D01*
X-2061940Y-734500D01*
X-2062620Y-740850D01*
X-2065330Y-747200D01*
X-2069390Y-752490D01*
X-2074130Y-754610D01*
X-2079550Y-752490D01*
X-2084290Y-746150D01*
X-2087000Y-736620D01*
X-2087680Y-726040D01*
X-2086330Y-712280D01*
X-2084290Y-704870D01*
X-2080910Y-697460D01*
X-2076160Y-692170D01*
X-2071420Y-691110D01*
X-2066680Y-693230D01*
X-2063290Y-698520D01*
G01X-2031800Y-728150D02*
X-2027060Y-720740D01*
X-2022990Y-716510D01*
X-2017580Y-714390D01*
X-2012830Y-716510D01*
X-2009450Y-720740D01*
X-2006740Y-727090D01*
X-2006060Y-734500D01*
X-2006740Y-740850D01*
X-2009450Y-747200D01*
X-2013510Y-752490D01*
X-2018250Y-754610D01*
X-2023670Y-752490D01*
X-2028410Y-746150D01*
X-2031120Y-736620D01*
X-2031800Y-726040D01*
X-2030450Y-712280D01*
X-2028410Y-704870D01*
X-2025030Y-697460D01*
X-2020280Y-692170D01*
X-2015540Y-691110D01*
X-2010800Y-693230D01*
X-2007410Y-698520D01*
G01X-2173230Y-580000D02*
Y-516500D01*
X-2156290D01*
X-2150870Y-519680D01*
X-2147490Y-523910D01*
X-2146130Y-532380D01*
X-2147490Y-540840D01*
X-2151550Y-546130D01*
X-2156290Y-549310D01*
X-2173230D01*
G01X-2156290D02*
X-2146130Y-580000D01*
G01X-2116670Y-553540D02*
X-2111930Y-546130D01*
X-2107860Y-541900D01*
X-2102450Y-539780D01*
X-2097700Y-541900D01*
X-2094320Y-546130D01*
X-2091610Y-552480D01*
X-2090930Y-559890D01*
X-2091610Y-566240D01*
X-2094320Y-572590D01*
X-2098380Y-577880D01*
X-2103120Y-580000D01*
X-2108540Y-577880D01*
X-2113280Y-571540D01*
X-2115990Y-562010D01*
X-2116670Y-551430D01*
X-2115320Y-537670D01*
X-2113280Y-530260D01*
X-2109900Y-522850D01*
X-2105150Y-517560D01*
X-2100410Y-516500D01*
X-2095670Y-518620D01*
X-2092280Y-523910D01*
G01X-2062820Y-567300D02*
X-2058760Y-574710D01*
X-2053340Y-578940D01*
X-2047240Y-580000D01*
X-2041820Y-578940D01*
X-2036400Y-573650D01*
X-2033020Y-567300D01*
X-2032340Y-560950D01*
X-2033700Y-553540D01*
X-2038440Y-548250D01*
X-2043180Y-546130D01*
X-2049270D01*
G01X-2043180D02*
X-2039110Y-542960D01*
X-2035730Y-537670D01*
X-2034370Y-531320D01*
X-2035730Y-524970D01*
X-2039110Y-519680D01*
X-2045210Y-516500D01*
X-2051310Y-517560D01*
X-2057400Y-521790D01*
G01X-1816770Y-300000D02*
Y-363500D01*
X-1833710D01*
X-1839130Y-360320D01*
X-1842510Y-356090D01*
X-1843870Y-347620D01*
X-1842510Y-339160D01*
X-1838450Y-333870D01*
X-1833710Y-330690D01*
X-1816770D01*
G01X-1833710D02*
X-1843870Y-300000D01*
G01X-1871300Y-309520D02*
X-1875360Y-304230D01*
X-1880100Y-301060D01*
X-1886200Y-300000D01*
X-1892300Y-302120D01*
X-1897040Y-306350D01*
X-1900420Y-313760D01*
X-1901100Y-322220D01*
X-1899750Y-330690D01*
X-1896360Y-335980D01*
X-1891620Y-340220D01*
X-1886880Y-341270D01*
X-1882140Y-340220D01*
X-1876040Y-335980D01*
X-1878070Y-363500D01*
X-1896360D01*
G01X-1927180Y-309520D02*
X-1931240Y-304230D01*
X-1935980Y-301060D01*
X-1942080Y-300000D01*
X-1948180Y-302120D01*
X-1952920Y-306350D01*
X-1956300Y-313760D01*
X-1956980Y-322220D01*
X-1955630Y-330690D01*
X-1952240Y-335980D01*
X-1947500Y-340220D01*
X-1942760Y-341270D01*
X-1938020Y-340220D01*
X-1931920Y-335980D01*
X-1933950Y-363500D01*
X-1952240D01*
G01X-1933230Y-700000D02*
Y-636500D01*
X-1916290D01*
X-1910870Y-639680D01*
X-1907490Y-643910D01*
X-1906130Y-652380D01*
X-1907490Y-660840D01*
X-1911550Y-666130D01*
X-1916290Y-669310D01*
X-1933230D01*
G01X-1916290D02*
X-1906130Y-700000D01*
G01X-1878700Y-690480D02*
X-1874640Y-695770D01*
X-1869900Y-698940D01*
X-1863800Y-700000D01*
X-1857700Y-697880D01*
X-1852960Y-693650D01*
X-1849580Y-686240D01*
X-1848900Y-677780D01*
X-1850250Y-669310D01*
X-1853640Y-664020D01*
X-1858380Y-659780D01*
X-1863120Y-658730D01*
X-1867860Y-659780D01*
X-1873960Y-664020D01*
X-1871930Y-636500D01*
X-1853640D01*
G01X-1820790Y-647080D02*
X-1816730Y-640730D01*
X-1811980Y-637560D01*
X-1806570Y-636500D01*
X-1799790Y-638620D01*
X-1795050Y-643910D01*
X-1793700Y-650260D01*
X-1794370Y-656610D01*
X-1797080Y-661900D01*
X-1810630Y-672480D01*
X-1816730Y-679890D01*
X-1820790Y-690480D01*
X-1822140Y-700000D01*
X-1793700D01*
G01X-2144240Y-164610D02*
Y-101110D01*
X-2127300D01*
X-2121880Y-104290D01*
X-2118500Y-108520D01*
X-2117140Y-116990D01*
X-2118500Y-125450D01*
X-2122560Y-130740D01*
X-2127300Y-133920D01*
X-2144240D01*
G01X-2127300D02*
X-2117140Y-164610D01*
G01X-2087680Y-138150D02*
X-2082940Y-130740D01*
X-2078870Y-126510D01*
X-2073460Y-124390D01*
X-2068710Y-126510D01*
X-2065330Y-130740D01*
X-2062620Y-137090D01*
X-2061940Y-144500D01*
X-2062620Y-150850D01*
X-2065330Y-157200D01*
X-2069390Y-162490D01*
X-2074130Y-164610D01*
X-2079550Y-162490D01*
X-2084290Y-156150D01*
X-2087000Y-146620D01*
X-2087680Y-136040D01*
X-2086330Y-122280D01*
X-2084290Y-114870D01*
X-2080910Y-107460D01*
X-2076160Y-102170D01*
X-2071420Y-101110D01*
X-2066680Y-103230D01*
X-2063290Y-108520D01*
G01X-2018930Y-164610D02*
X-2014190Y-163550D01*
X-2008770Y-160380D01*
X-2005380Y-155090D01*
X-2004030Y-147680D01*
X-2005380Y-140270D01*
X-2009450Y-133920D01*
X-2015540Y-130740D01*
X-2022320D01*
X-2026380Y-128630D01*
X-2029770Y-123340D01*
X-2031120Y-115930D01*
X-2029090Y-108520D01*
X-2024350Y-103230D01*
X-2018930Y-101110D01*
X-2013510Y-103230D01*
X-2008770Y-108520D01*
X-2006740Y-115930D01*
X-2008090Y-123340D01*
X-2011480Y-128630D01*
X-2015540Y-130740D01*
X-2022320D01*
X-2028410Y-133920D01*
X-2032480Y-140270D01*
X-2033830Y-147680D01*
X-2032480Y-155090D01*
X-2029090Y-160380D01*
X-2023670Y-163550D01*
X-2018930Y-164610D01*
G01X-1845740Y-30140D02*
X-1800230D01*
X-1790700Y-27430D01*
X-1784360Y-22010D01*
X-1782240Y-15240D01*
X-1784360Y-8470D01*
X-1790700Y-3050D01*
X-1800230Y-340D01*
X-1845740D01*
G01X-1782240Y40640D02*
X-1845740D01*
X-1833040Y32510D01*
G01X-1782240D02*
Y48770D01*
G01X-1794940Y81620D02*
X-1787530Y85680D01*
X-1783300Y91100D01*
X-1782240Y97200D01*
X-1783300Y102620D01*
X-1788590Y108040D01*
X-1794940Y111420D01*
X-1801290Y112100D01*
X-1808700Y110740D01*
X-1813990Y106000D01*
X-1816110Y101260D01*
Y95170D01*
G01Y101260D02*
X-1819280Y105330D01*
X-1824570Y108710D01*
X-1830920Y110070D01*
X-1837270Y108710D01*
X-1842560Y105330D01*
X-1845740Y99230D01*
X-1844680Y93130D01*
X-1840450Y87040D01*
G01X-1531790Y-4735220D02*
X-1528620Y-4731160D01*
X-1526500Y-4726420D01*
Y-4721000D01*
X-1529680Y-4714900D01*
X-1534970Y-4710160D01*
X-1541320Y-4706770D01*
X-1551900Y-4704060D01*
X-1561430Y-4703390D01*
X-1570950Y-4704740D01*
X-1577300Y-4706770D01*
X-1583650Y-4710840D01*
X-1587880Y-4715580D01*
X-1590000Y-4720320D01*
Y-4725060D01*
X-1587880Y-4729800D01*
X-1584710Y-4733870D01*
X-1580480Y-4737250D01*
G01X-1590000Y-4776200D02*
X-1526500D01*
X-1539200Y-4768070D01*
G01X-1590000D02*
Y-4784330D01*
G01Y-4832080D02*
X-1588940Y-4836820D01*
X-1585770Y-4842240D01*
X-1580480Y-4845630D01*
X-1573070Y-4846980D01*
X-1565660Y-4845630D01*
X-1559310Y-4841560D01*
X-1556130Y-4835470D01*
Y-4828690D01*
X-1554020Y-4824630D01*
X-1548730Y-4821240D01*
X-1541320Y-4819890D01*
X-1533910Y-4821920D01*
X-1528620Y-4826660D01*
X-1526500Y-4832080D01*
X-1528620Y-4837500D01*
X-1533910Y-4842240D01*
X-1541320Y-4844270D01*
X-1548730Y-4842920D01*
X-1554020Y-4839530D01*
X-1556130Y-4835470D01*
Y-4828690D01*
X-1559310Y-4822600D01*
X-1565660Y-4818530D01*
X-1573070Y-4817180D01*
X-1580480Y-4818530D01*
X-1585770Y-4821920D01*
X-1588940Y-4827340D01*
X-1590000Y-4832080D01*
G01X-1620000Y-4196770D02*
X-1556500D01*
Y-4213710D01*
X-1559680Y-4219130D01*
X-1563910Y-4222510D01*
X-1572380Y-4223870D01*
X-1580840Y-4222510D01*
X-1586130Y-4218450D01*
X-1589310Y-4213710D01*
Y-4196770D01*
G01Y-4213710D02*
X-1620000Y-4223870D01*
G01Y-4266200D02*
X-1556500D01*
X-1569200Y-4258070D01*
G01X-1620000D02*
Y-4274330D01*
G01X-1556500Y-4322080D02*
X-1558620Y-4316660D01*
X-1563910Y-4312600D01*
X-1570260Y-4309890D01*
X-1578730Y-4307860D01*
X-1588250Y-4307180D01*
X-1597780Y-4307860D01*
X-1606240Y-4309890D01*
X-1612590Y-4312600D01*
X-1617880Y-4316660D01*
X-1620000Y-4322080D01*
X-1617880Y-4327500D01*
X-1612590Y-4331560D01*
X-1606240Y-4334270D01*
X-1597780Y-4336300D01*
X-1588250Y-4336980D01*
X-1578730Y-4336300D01*
X-1570260Y-4334270D01*
X-1563910Y-4331560D01*
X-1558620Y-4327500D01*
X-1556500Y-4322080D01*
G01X-1607300Y-4363060D02*
X-1614710Y-4367120D01*
X-1618940Y-4372540D01*
X-1620000Y-4378640D01*
X-1618940Y-4384060D01*
X-1613650Y-4389480D01*
X-1607300Y-4392860D01*
X-1600950Y-4393540D01*
X-1593540Y-4392180D01*
X-1588250Y-4387440D01*
X-1586130Y-4382700D01*
Y-4376610D01*
G01Y-4382700D02*
X-1582960Y-4386770D01*
X-1577670Y-4390150D01*
X-1571320Y-4391510D01*
X-1564970Y-4390150D01*
X-1559680Y-4386770D01*
X-1556500Y-4380670D01*
X-1557560Y-4374570D01*
X-1561790Y-4368480D01*
G01X-1596220Y-4143350D02*
Y-4079850D01*
X-1604350Y-4092550D01*
G01Y-4143350D02*
X-1588090D01*
G01X-1450010Y-1657440D02*
X-1513510Y-1640510D01*
X-1450010Y-1623580D01*
G01X-1472230Y-1629670D02*
Y-1651350D01*
G01X-1564310Y-1450010D02*
X-1627810D01*
X-1615110Y-1458140D01*
G01X-1564310D02*
Y-1441880D01*
G01X-1573830Y-1064910D02*
X-1568540Y-1060850D01*
X-1565370Y-1056110D01*
X-1564310Y-1050010D01*
X-1566430Y-1043910D01*
X-1570660Y-1039170D01*
X-1578070Y-1035790D01*
X-1586530Y-1035110D01*
X-1595000Y-1036460D01*
X-1600290Y-1039850D01*
X-1604530Y-1044590D01*
X-1605580Y-1049330D01*
X-1604530Y-1054070D01*
X-1600290Y-1060170D01*
X-1627810Y-1058140D01*
Y-1039850D01*
G01X-1564310Y-577950D02*
X-1627810D01*
X-1615110Y-586080D01*
G01X-1564310D02*
Y-569820D01*
G01X-1627810Y-522070D02*
X-1625690Y-527490D01*
X-1620400Y-531550D01*
X-1614050Y-534260D01*
X-1605580Y-536290D01*
X-1596060Y-536970D01*
X-1586530Y-536290D01*
X-1578070Y-534260D01*
X-1571720Y-531550D01*
X-1566430Y-527490D01*
X-1564310Y-522070D01*
X-1566430Y-516650D01*
X-1571720Y-512590D01*
X-1578070Y-509880D01*
X-1586530Y-507850D01*
X-1596060Y-507170D01*
X-1605580Y-507850D01*
X-1614050Y-509880D01*
X-1620400Y-512590D01*
X-1625690Y-516650D01*
X-1627810Y-522070D01*
G01X-1564310Y-77950D02*
X-1627810D01*
X-1615110Y-86080D01*
G01X-1564310D02*
Y-69820D01*
G01X-1573830Y-36970D02*
X-1568540Y-32910D01*
X-1565370Y-28170D01*
X-1564310Y-22070D01*
X-1566430Y-15970D01*
X-1570660Y-11230D01*
X-1578070Y-7850D01*
X-1586530Y-7170D01*
X-1595000Y-8520D01*
X-1600290Y-11910D01*
X-1604530Y-16650D01*
X-1605580Y-21390D01*
X-1604530Y-26130D01*
X-1600290Y-32230D01*
X-1627810Y-30200D01*
Y-11910D01*
G01X-1617230Y409200D02*
X-1623580Y413260D01*
X-1626750Y418010D01*
X-1627810Y423420D01*
X-1625690Y430200D01*
X-1620400Y434940D01*
X-1614050Y436290D01*
X-1607700Y435620D01*
X-1602410Y432910D01*
X-1591830Y419360D01*
X-1584420Y413260D01*
X-1573830Y409200D01*
X-1564310Y407850D01*
Y436290D01*
G01X-1627810Y477950D02*
X-1625690Y472530D01*
X-1620400Y468470D01*
X-1614050Y465760D01*
X-1605580Y463730D01*
X-1596060Y463050D01*
X-1586530Y463730D01*
X-1578070Y465760D01*
X-1571720Y468470D01*
X-1566430Y472530D01*
X-1564310Y477950D01*
X-1566430Y483370D01*
X-1571720Y487430D01*
X-1578070Y490140D01*
X-1586530Y492170D01*
X-1596060Y492850D01*
X-1605580Y492170D01*
X-1614050Y490140D01*
X-1620400Y487430D01*
X-1625690Y483370D01*
X-1627810Y477950D01*
G01X-1617230Y909200D02*
X-1623580Y913260D01*
X-1626750Y918010D01*
X-1627810Y923420D01*
X-1625690Y930200D01*
X-1620400Y934940D01*
X-1614050Y936290D01*
X-1607700Y935620D01*
X-1602410Y932910D01*
X-1591830Y919360D01*
X-1584420Y913260D01*
X-1573830Y909200D01*
X-1564310Y907850D01*
Y936290D01*
G01X-1573830Y963050D02*
X-1568540Y967110D01*
X-1565370Y971850D01*
X-1564310Y977950D01*
X-1566430Y984050D01*
X-1570660Y988790D01*
X-1578070Y992170D01*
X-1586530Y992850D01*
X-1595000Y991500D01*
X-1600290Y988110D01*
X-1604530Y983370D01*
X-1605580Y978630D01*
X-1604530Y973890D01*
X-1600290Y967790D01*
X-1627810Y969820D01*
Y988110D01*
G01X-1577010Y1407170D02*
X-1569600Y1411230D01*
X-1565370Y1416650D01*
X-1564310Y1422750D01*
X-1565370Y1428170D01*
X-1570660Y1433590D01*
X-1577010Y1436970D01*
X-1583360Y1437650D01*
X-1590770Y1436290D01*
X-1596060Y1431550D01*
X-1598180Y1426810D01*
Y1420720D01*
G01Y1426810D02*
X-1601350Y1430880D01*
X-1606640Y1434260D01*
X-1612990Y1435620D01*
X-1619340Y1434260D01*
X-1624630Y1430880D01*
X-1627810Y1424780D01*
X-1626750Y1418680D01*
X-1622520Y1412590D01*
G01X-1627810Y1477950D02*
X-1625690Y1472530D01*
X-1620400Y1468470D01*
X-1614050Y1465760D01*
X-1605580Y1463730D01*
X-1596060Y1463050D01*
X-1586530Y1463730D01*
X-1578070Y1465760D01*
X-1571720Y1468470D01*
X-1566430Y1472530D01*
X-1564310Y1477950D01*
X-1566430Y1483370D01*
X-1571720Y1487430D01*
X-1578070Y1490140D01*
X-1586530Y1492170D01*
X-1596060Y1492850D01*
X-1605580Y1492170D01*
X-1614050Y1490140D01*
X-1620400Y1487430D01*
X-1625690Y1483370D01*
X-1627810Y1477950D01*
G01X-1031790Y-4705220D02*
X-1028620Y-4701160D01*
X-1026500Y-4696420D01*
Y-4691000D01*
X-1029680Y-4684900D01*
X-1034970Y-4680160D01*
X-1041320Y-4676770D01*
X-1051900Y-4674060D01*
X-1061430Y-4673390D01*
X-1070950Y-4674740D01*
X-1077300Y-4676770D01*
X-1083650Y-4680840D01*
X-1087880Y-4685580D01*
X-1090000Y-4690320D01*
Y-4695060D01*
X-1087880Y-4699800D01*
X-1084710Y-4703870D01*
X-1080480Y-4707250D01*
G01X-1090000Y-4744850D02*
X-1076240Y-4746200D01*
X-1064600Y-4748230D01*
X-1054020Y-4750940D01*
X-1042380Y-4754330D01*
X-1026500Y-4759750D01*
Y-4732650D01*
G01X-881790Y-3075220D02*
X-878620Y-3071160D01*
X-876500Y-3066420D01*
Y-3061000D01*
X-879680Y-3054900D01*
X-884970Y-3050160D01*
X-891320Y-3046770D01*
X-901900Y-3044060D01*
X-911430Y-3043390D01*
X-920950Y-3044740D01*
X-927300Y-3046770D01*
X-933650Y-3050840D01*
X-937880Y-3055580D01*
X-940000Y-3060320D01*
Y-3065060D01*
X-937880Y-3069800D01*
X-934710Y-3073870D01*
X-930480Y-3077250D01*
G01X-940000Y-3116200D02*
X-876500D01*
X-889200Y-3108070D01*
G01X-940000D02*
Y-3124330D01*
G01Y-3170730D02*
X-926240Y-3172080D01*
X-914600Y-3174110D01*
X-904020Y-3176820D01*
X-892380Y-3180210D01*
X-876500Y-3185630D01*
Y-3158530D01*
G01X-927300Y-3213060D02*
X-934710Y-3217120D01*
X-938940Y-3222540D01*
X-940000Y-3228640D01*
X-938940Y-3234060D01*
X-933650Y-3239480D01*
X-927300Y-3242860D01*
X-920950Y-3243540D01*
X-913540Y-3242180D01*
X-908250Y-3237440D01*
X-906130Y-3232700D01*
Y-3226610D01*
G01Y-3232700D02*
X-902960Y-3236770D01*
X-897670Y-3240150D01*
X-891320Y-3241510D01*
X-884970Y-3240150D01*
X-879680Y-3236770D01*
X-876500Y-3230670D01*
X-877560Y-3224570D01*
X-881790Y-3218480D01*
G01X-1101790Y-3065220D02*
X-1098620Y-3061160D01*
X-1096500Y-3056420D01*
Y-3051000D01*
X-1099680Y-3044900D01*
X-1104970Y-3040160D01*
X-1111320Y-3036770D01*
X-1121900Y-3034060D01*
X-1131430Y-3033390D01*
X-1140950Y-3034740D01*
X-1147300Y-3036770D01*
X-1153650Y-3040840D01*
X-1157880Y-3045580D01*
X-1160000Y-3050320D01*
Y-3055060D01*
X-1157880Y-3059800D01*
X-1154710Y-3063870D01*
X-1150480Y-3067250D01*
G01X-1160000Y-3106200D02*
X-1096500D01*
X-1109200Y-3098070D01*
G01X-1160000D02*
Y-3114330D01*
G01Y-3160730D02*
X-1146240Y-3162080D01*
X-1134600Y-3164110D01*
X-1124020Y-3166820D01*
X-1112380Y-3170210D01*
X-1096500Y-3175630D01*
Y-3148530D01*
G01X-1107080Y-3205090D02*
X-1100730Y-3209150D01*
X-1097560Y-3213900D01*
X-1096500Y-3219310D01*
X-1098620Y-3226090D01*
X-1103910Y-3230830D01*
X-1110260Y-3232180D01*
X-1116610Y-3231510D01*
X-1121900Y-3228800D01*
X-1132480Y-3215250D01*
X-1139890Y-3209150D01*
X-1150480Y-3205090D01*
X-1160000Y-3203740D01*
Y-3232180D01*
G01X-1270000Y-3056770D02*
X-1206500D01*
Y-3073710D01*
X-1209680Y-3079130D01*
X-1213910Y-3082510D01*
X-1222380Y-3083870D01*
X-1230840Y-3082510D01*
X-1236130Y-3078450D01*
X-1239310Y-3073710D01*
Y-3056770D01*
G01Y-3073710D02*
X-1270000Y-3083870D01*
G01Y-3126200D02*
X-1206500D01*
X-1219200Y-3118070D01*
G01X-1270000D02*
Y-3134330D01*
G01X-1206500Y-3182080D02*
X-1208620Y-3176660D01*
X-1213910Y-3172600D01*
X-1220260Y-3169890D01*
X-1228730Y-3167860D01*
X-1238250Y-3167180D01*
X-1247780Y-3167860D01*
X-1256240Y-3169890D01*
X-1262590Y-3172600D01*
X-1267880Y-3176660D01*
X-1270000Y-3182080D01*
X-1267880Y-3187500D01*
X-1262590Y-3191560D01*
X-1256240Y-3194270D01*
X-1247780Y-3196300D01*
X-1238250Y-3196980D01*
X-1228730Y-3196300D01*
X-1220260Y-3194270D01*
X-1213910Y-3191560D01*
X-1208620Y-3187500D01*
X-1206500Y-3182080D01*
G01X-1260480Y-3223060D02*
X-1265770Y-3227120D01*
X-1268940Y-3231860D01*
X-1270000Y-3237960D01*
X-1267880Y-3244060D01*
X-1263650Y-3248800D01*
X-1256240Y-3252180D01*
X-1247780Y-3252860D01*
X-1239310Y-3251510D01*
X-1234020Y-3248120D01*
X-1229780Y-3243380D01*
X-1228730Y-3238640D01*
X-1229780Y-3233900D01*
X-1234020Y-3227800D01*
X-1206500Y-3229830D01*
Y-3248120D01*
G01X-1050010Y-1626960D02*
Y-1654060D01*
X-1113510D01*
Y-1626960D01*
G01X-1082820Y-1637800D02*
Y-1654060D01*
G01X-994580Y3180000D02*
Y3243500D01*
X-981030D01*
X-975620Y3240320D01*
X-971550Y3236090D01*
X-968160Y3229740D01*
X-965460Y3222330D01*
X-964780Y3211750D01*
X-965460Y3201170D01*
X-968160Y3193760D01*
X-971550Y3187410D01*
X-975620Y3183170D01*
X-981030Y3180000D01*
X-994580D01*
G01X-923800Y3243500D02*
X-929220Y3241380D01*
X-933280Y3236090D01*
X-935990Y3229740D01*
X-938020Y3221270D01*
X-938700Y3211750D01*
X-938020Y3202220D01*
X-935990Y3193760D01*
X-933280Y3187410D01*
X-929220Y3182120D01*
X-923800Y3180000D01*
X-918380Y3182120D01*
X-914320Y3187410D01*
X-911610Y3193760D01*
X-909580Y3202220D01*
X-908900Y3211750D01*
X-909580Y3221270D01*
X-911610Y3229740D01*
X-914320Y3236090D01*
X-918380Y3241380D01*
X-923800Y3243500D01*
G01X-970000Y3020000D02*
X-830000D01*
Y3160000D01*
X-970000D01*
Y3020000D01*
G01X-123780Y-4860890D02*
X-823780D01*
Y-5560890D01*
X-123780D01*
Y-4860890D01*
G01X-655620Y-3828250D02*
X-642070D01*
Y-3847300D01*
X-646130Y-3853650D01*
X-650870Y-3857880D01*
X-657650Y-3860000D01*
X-664420Y-3857880D01*
X-669160Y-3853650D01*
X-673230Y-3847300D01*
X-675940Y-3839890D01*
X-677290Y-3831430D01*
Y-3824020D01*
X-675940Y-3817670D01*
X-673230Y-3810260D01*
X-669160Y-3803910D01*
X-665100Y-3799680D01*
X-659680Y-3796500D01*
X-654940D01*
X-649520Y-3798620D01*
X-645460Y-3802850D01*
G01X-616670Y-3807080D02*
X-612610Y-3800730D01*
X-607860Y-3797560D01*
X-602450Y-3796500D01*
X-595670Y-3798620D01*
X-590930Y-3803910D01*
X-589580Y-3810260D01*
X-590250Y-3816610D01*
X-592960Y-3821900D01*
X-606510Y-3832480D01*
X-612610Y-3839890D01*
X-616670Y-3850480D01*
X-618020Y-3860000D01*
X-589580D01*
G01X-830000Y-3046770D02*
X-766500D01*
Y-3063710D01*
X-769680Y-3069130D01*
X-773910Y-3072510D01*
X-782380Y-3073870D01*
X-790840Y-3072510D01*
X-796130Y-3068450D01*
X-799310Y-3063710D01*
Y-3046770D01*
G01Y-3063710D02*
X-830000Y-3073870D01*
G01Y-3116200D02*
X-766500D01*
X-779200Y-3108070D01*
G01X-830000D02*
Y-3124330D01*
G01X-766500Y-3172080D02*
X-768620Y-3166660D01*
X-773910Y-3162600D01*
X-780260Y-3159890D01*
X-788730Y-3157860D01*
X-798250Y-3157180D01*
X-807780Y-3157860D01*
X-816240Y-3159890D01*
X-822590Y-3162600D01*
X-827880Y-3166660D01*
X-830000Y-3172080D01*
X-827880Y-3177500D01*
X-822590Y-3181560D01*
X-816240Y-3184270D01*
X-807780Y-3186300D01*
X-798250Y-3186980D01*
X-788730Y-3186300D01*
X-780260Y-3184270D01*
X-773910Y-3181560D01*
X-768620Y-3177500D01*
X-766500Y-3172080D01*
G01X-803540Y-3215090D02*
X-796130Y-3219830D01*
X-791900Y-3223900D01*
X-789780Y-3229310D01*
X-791900Y-3234060D01*
X-796130Y-3237440D01*
X-802480Y-3240150D01*
X-809890Y-3240830D01*
X-816240Y-3240150D01*
X-822590Y-3237440D01*
X-827880Y-3233380D01*
X-830000Y-3228640D01*
X-827880Y-3223220D01*
X-821540Y-3218480D01*
X-812010Y-3215770D01*
X-801430Y-3215090D01*
X-787670Y-3216440D01*
X-780260Y-3218480D01*
X-772850Y-3221860D01*
X-767560Y-3226610D01*
X-766500Y-3231350D01*
X-768620Y-3236090D01*
X-773910Y-3239480D01*
G01X-550010Y-1655410D02*
X-613510D01*
G01Y-1629670D02*
X-574350Y-1655410D01*
G01X-550010Y-1625610D02*
X-592340Y-1643900D01*
G01X-644780Y3238210D02*
X-648840Y3241380D01*
X-653580Y3243500D01*
X-659000D01*
X-665100Y3240320D01*
X-669840Y3235030D01*
X-673230Y3228680D01*
X-675940Y3218100D01*
X-676610Y3208570D01*
X-675260Y3199050D01*
X-673230Y3192700D01*
X-669160Y3186350D01*
X-664420Y3182120D01*
X-659680Y3180000D01*
X-654940D01*
X-650200Y3182120D01*
X-646130Y3185290D01*
X-642750Y3189520D01*
G01X-588900Y3238210D02*
X-592960Y3241380D01*
X-597700Y3243500D01*
X-603120D01*
X-609220Y3240320D01*
X-613960Y3235030D01*
X-617350Y3228680D01*
X-620060Y3218100D01*
X-620730Y3208570D01*
X-619380Y3199050D01*
X-617350Y3192700D01*
X-613280Y3186350D01*
X-608540Y3182120D01*
X-603800Y3180000D01*
X-599060D01*
X-594320Y3182120D01*
X-590250Y3185290D01*
X-586870Y3189520D01*
G01X-561470Y3243500D02*
Y3180000D01*
X-534370D01*
G01X-506940D02*
Y3243500D01*
G01X-481200D02*
X-506940Y3204340D01*
G01X-477140Y3180000D02*
X-495430Y3222330D01*
G01X-530000Y3020000D02*
X-390000D01*
Y3160000D01*
X-530000D01*
Y3020000D01*
G01X-399680Y-2640320D02*
Y-3630320D01*
X472320D01*
Y-2640320D01*
X-399680D01*
G01X-50010Y-1654060D02*
X-113510D01*
Y-1637120D01*
X-110330Y-1631700D01*
X-106100Y-1628320D01*
X-97630Y-1626960D01*
X-89170Y-1628320D01*
X-83880Y-1632380D01*
X-80700Y-1637120D01*
Y-1654060D01*
G01Y-1637120D02*
X-50010Y-1626960D01*
G01X-255220Y1891790D02*
X-251160Y1888620D01*
X-246420Y1886500D01*
X-241000D01*
X-234900Y1889680D01*
X-230160Y1894970D01*
X-226770Y1901320D01*
X-224060Y1911900D01*
X-223390Y1921430D01*
X-224740Y1930950D01*
X-226770Y1937300D01*
X-230840Y1943650D01*
X-235580Y1947880D01*
X-240320Y1950000D01*
X-245060D01*
X-249800Y1947880D01*
X-253870Y1944710D01*
X-257250Y1940480D01*
G01X-296200Y1950000D02*
Y1886500D01*
X-288070Y1899200D01*
G01Y1950000D02*
X-304330D01*
G01X-360210D02*
Y1886500D01*
X-335150Y1932010D01*
X-369010D01*
G01X-395090Y1923540D02*
X-399830Y1916130D01*
X-403900Y1911900D01*
X-409310Y1909780D01*
X-414060Y1911900D01*
X-417440Y1916130D01*
X-420150Y1922480D01*
X-420830Y1929890D01*
X-420150Y1936240D01*
X-417440Y1942590D01*
X-413380Y1947880D01*
X-408640Y1950000D01*
X-403220Y1947880D01*
X-398480Y1941540D01*
X-395770Y1932010D01*
X-395090Y1921430D01*
X-396440Y1907670D01*
X-398480Y1900260D01*
X-401860Y1892850D01*
X-406610Y1887560D01*
X-411350Y1886500D01*
X-416090Y1888620D01*
X-419480Y1893910D01*
G01X-246770Y2380000D02*
Y2316500D01*
X-263710D01*
X-269130Y2319680D01*
X-272510Y2323910D01*
X-273870Y2332380D01*
X-272510Y2340840D01*
X-268450Y2346130D01*
X-263710Y2349310D01*
X-246770D01*
G01X-263710D02*
X-273870Y2380000D01*
G01X-301300Y2370480D02*
X-305360Y2375770D01*
X-310100Y2378940D01*
X-316200Y2380000D01*
X-322300Y2377880D01*
X-327040Y2373650D01*
X-330420Y2366240D01*
X-331100Y2357780D01*
X-329750Y2349310D01*
X-326360Y2344020D01*
X-321620Y2339780D01*
X-316880Y2338730D01*
X-312140Y2339780D01*
X-306040Y2344020D01*
X-308070Y2316500D01*
X-326360D01*
G01X-359210Y2353540D02*
X-363950Y2346130D01*
X-368020Y2341900D01*
X-373430Y2339780D01*
X-378180Y2341900D01*
X-381560Y2346130D01*
X-384270Y2352480D01*
X-384950Y2359890D01*
X-384270Y2366240D01*
X-381560Y2372590D01*
X-377500Y2377880D01*
X-372760Y2380000D01*
X-367340Y2377880D01*
X-362600Y2371540D01*
X-359890Y2362010D01*
X-359210Y2351430D01*
X-360560Y2337670D01*
X-362600Y2330260D01*
X-365980Y2322850D01*
X-370730Y2317560D01*
X-375470Y2316500D01*
X-380210Y2318620D01*
X-383600Y2323910D01*
G01X-114580Y3180000D02*
Y3243500D01*
X-101030D01*
X-95620Y3240320D01*
X-91550Y3236090D01*
X-88160Y3229740D01*
X-85460Y3222330D01*
X-84780Y3211750D01*
X-85460Y3201170D01*
X-88160Y3193760D01*
X-91550Y3187410D01*
X-95620Y3183170D01*
X-101030Y3180000D01*
X-114580D01*
G01X-58700Y3192700D02*
X-54640Y3185290D01*
X-49220Y3181060D01*
X-43120Y3180000D01*
X-37700Y3181060D01*
X-32280Y3186350D01*
X-28900Y3192700D01*
X-28220Y3199050D01*
X-29580Y3206460D01*
X-34320Y3211750D01*
X-39060Y3213870D01*
X-45150D01*
G01X-39060D02*
X-34990Y3217040D01*
X-31610Y3222330D01*
X-30250Y3228680D01*
X-31610Y3235030D01*
X-34990Y3240320D01*
X-41090Y3243500D01*
X-47190Y3242440D01*
X-53280Y3238210D01*
G01X-90000Y3020000D02*
X50000D01*
Y3160000D01*
X-90000D01*
Y3020000D01*
G01X394780Y-5168210D02*
X398840Y-5171380D01*
X403580Y-5173500D01*
X409000D01*
X415100Y-5170320D01*
X419840Y-5165030D01*
X423230Y-5158680D01*
X425940Y-5148100D01*
X426610Y-5138570D01*
X425260Y-5129050D01*
X423230Y-5122700D01*
X419160Y-5116350D01*
X414420Y-5112120D01*
X409680Y-5110000D01*
X404940D01*
X400200Y-5112120D01*
X396130Y-5115290D01*
X392750Y-5119520D01*
G01X366670Y-5136460D02*
X361930Y-5143870D01*
X357860Y-5148100D01*
X352450Y-5150220D01*
X347700Y-5148100D01*
X344320Y-5143870D01*
X341610Y-5137520D01*
X340930Y-5130110D01*
X341610Y-5123760D01*
X344320Y-5117410D01*
X348380Y-5112120D01*
X353120Y-5110000D01*
X358540Y-5112120D01*
X363280Y-5118460D01*
X365990Y-5127990D01*
X366670Y-5138570D01*
X365320Y-5152330D01*
X363280Y-5159740D01*
X359900Y-5167150D01*
X355150Y-5172440D01*
X350410Y-5173500D01*
X345670Y-5171380D01*
X342280Y-5166090D01*
G01X73230Y-5243500D02*
Y-5180000D01*
X46130D01*
G01X3800D02*
Y-5243500D01*
X11930Y-5230800D01*
G01Y-5180000D02*
X-4330D01*
G01X316770Y-4110000D02*
Y-4046500D01*
X333710D01*
X339130Y-4049680D01*
X342510Y-4053910D01*
X343870Y-4062380D01*
X342510Y-4070840D01*
X338450Y-4076130D01*
X333710Y-4079310D01*
X316770D01*
G01X333710D02*
X343870Y-4110000D01*
G01X386200D02*
Y-4046500D01*
X378070Y-4059200D01*
G01Y-4110000D02*
X394330D01*
G01X442080D02*
X446820Y-4108940D01*
X452240Y-4105770D01*
X455630Y-4100480D01*
X456980Y-4093070D01*
X455630Y-4085660D01*
X451560Y-4079310D01*
X445470Y-4076130D01*
X438690D01*
X434630Y-4074020D01*
X431240Y-4068730D01*
X429890Y-4061320D01*
X431920Y-4053910D01*
X436660Y-4048620D01*
X442080Y-4046500D01*
X447500Y-4048620D01*
X452240Y-4053910D01*
X454270Y-4061320D01*
X452920Y-4068730D01*
X449530Y-4074020D01*
X445470Y-4076130D01*
X438690D01*
X432600Y-4079310D01*
X428530Y-4085660D01*
X427180Y-4093070D01*
X428530Y-4100480D01*
X431920Y-4105770D01*
X437340Y-4108940D01*
X442080Y-4110000D01*
G01X266770Y-4240000D02*
Y-4176500D01*
X283710D01*
X289130Y-4179680D01*
X292510Y-4183910D01*
X293870Y-4192380D01*
X292510Y-4200840D01*
X288450Y-4206130D01*
X283710Y-4209310D01*
X266770D01*
G01X283710D02*
X293870Y-4240000D01*
G01X336200D02*
X340940Y-4238940D01*
X346360Y-4235770D01*
X349750Y-4230480D01*
X351100Y-4223070D01*
X349750Y-4215660D01*
X345680Y-4209310D01*
X339590Y-4206130D01*
X332810D01*
X328750Y-4204020D01*
X325360Y-4198730D01*
X324010Y-4191320D01*
X326040Y-4183910D01*
X330780Y-4178620D01*
X336200Y-4176500D01*
X341620Y-4178620D01*
X346360Y-4183910D01*
X348390Y-4191320D01*
X347040Y-4198730D01*
X343650Y-4204020D01*
X339590Y-4206130D01*
X332810D01*
X326720Y-4209310D01*
X322650Y-4215660D01*
X321300Y-4223070D01*
X322650Y-4230480D01*
X326040Y-4235770D01*
X331460Y-4238940D01*
X336200Y-4240000D01*
G01X464780Y-2258210D02*
X468840Y-2261380D01*
X473580Y-2263500D01*
X479000D01*
X485100Y-2260320D01*
X489840Y-2255030D01*
X493230Y-2248680D01*
X495940Y-2238100D01*
X496610Y-2228570D01*
X495260Y-2219050D01*
X493230Y-2212700D01*
X489160Y-2206350D01*
X484420Y-2202120D01*
X479680Y-2200000D01*
X474940D01*
X470200Y-2202120D01*
X466130Y-2205290D01*
X462750Y-2209520D01*
G01X438700D02*
X434640Y-2204230D01*
X429900Y-2201060D01*
X423800Y-2200000D01*
X417700Y-2202120D01*
X412960Y-2206350D01*
X409580Y-2213760D01*
X408900Y-2222220D01*
X410250Y-2230690D01*
X413640Y-2235980D01*
X418380Y-2240220D01*
X423120Y-2241270D01*
X427860Y-2240220D01*
X433960Y-2235980D01*
X431930Y-2263500D01*
X413640D01*
G01X380790Y-2252920D02*
X376730Y-2259270D01*
X371980Y-2262440D01*
X366570Y-2263500D01*
X359790Y-2261380D01*
X355050Y-2256090D01*
X353700Y-2249740D01*
X354370Y-2243390D01*
X357080Y-2238100D01*
X370630Y-2227520D01*
X376730Y-2220110D01*
X380790Y-2209520D01*
X382140Y-2200000D01*
X353700D01*
G01X444780Y-2028210D02*
X448840Y-2031380D01*
X453580Y-2033500D01*
X459000D01*
X465100Y-2030320D01*
X469840Y-2025030D01*
X473230Y-2018680D01*
X475940Y-2008100D01*
X476610Y-1998570D01*
X475260Y-1989050D01*
X473230Y-1982700D01*
X469160Y-1976350D01*
X464420Y-1972120D01*
X459680Y-1970000D01*
X454940D01*
X450200Y-1972120D01*
X446130Y-1975290D01*
X442750Y-1979520D01*
G01X418700D02*
X414640Y-1974230D01*
X409900Y-1971060D01*
X403800Y-1970000D01*
X397700Y-1972120D01*
X392960Y-1976350D01*
X389580Y-1983760D01*
X388900Y-1992220D01*
X390250Y-2000690D01*
X393640Y-2005980D01*
X398380Y-2010220D01*
X403120Y-2011270D01*
X407860Y-2010220D01*
X413960Y-2005980D01*
X411930Y-2033500D01*
X393640D01*
G01X347920Y-1970000D02*
Y-2033500D01*
X356050Y-2020800D01*
G01Y-1970000D02*
X339790D01*
G01X450010Y-1640510D02*
X421440D01*
X386510Y-1654060D01*
G01Y-1626960D02*
X421440Y-1640510D01*
G01X633300Y2515580D02*
X103300D01*
Y1985580D01*
X633300D01*
Y2515580D01*
G01X325420Y3180000D02*
Y3243500D01*
X338970D01*
X344380Y3240320D01*
X348450Y3236090D01*
X351840Y3229740D01*
X354540Y3222330D01*
X355220Y3211750D01*
X354540Y3201170D01*
X351840Y3193760D01*
X348450Y3187410D01*
X344380Y3183170D01*
X338970Y3180000D01*
X325420D01*
G01X383330Y3232920D02*
X387390Y3239270D01*
X392140Y3242440D01*
X397550Y3243500D01*
X404330Y3241380D01*
X409070Y3236090D01*
X410420Y3229740D01*
X409750Y3223390D01*
X407040Y3218100D01*
X393490Y3207520D01*
X387390Y3200110D01*
X383330Y3189520D01*
X381980Y3180000D01*
X410420D01*
G01X350000Y3020000D02*
X490000D01*
Y3160000D01*
X350000D01*
Y3020000D01*
G01X588720Y-4883390D02*
X1088720D01*
Y-4283390D01*
X588720D01*
Y-4883390D01*
G01X446770Y-5080000D02*
Y-5016500D01*
X463710D01*
X469130Y-5019680D01*
X472510Y-5023910D01*
X473870Y-5032380D01*
X472510Y-5040840D01*
X468450Y-5046130D01*
X463710Y-5049310D01*
X446770D01*
G01X463710D02*
X473870Y-5080000D01*
G01X503330Y-5053540D02*
X508070Y-5046130D01*
X512140Y-5041900D01*
X517550Y-5039780D01*
X522300Y-5041900D01*
X525680Y-5046130D01*
X528390Y-5052480D01*
X529070Y-5059890D01*
X528390Y-5066240D01*
X525680Y-5072590D01*
X521620Y-5077880D01*
X516880Y-5080000D01*
X511460Y-5077880D01*
X506720Y-5071540D01*
X504010Y-5062010D01*
X503330Y-5051430D01*
X504680Y-5037670D01*
X506720Y-5030260D01*
X510100Y-5022850D01*
X514850Y-5017560D01*
X519590Y-5016500D01*
X524330Y-5018620D01*
X527720Y-5023910D01*
G01X458740Y-3760920D02*
X454680Y-3757750D01*
X449940Y-3755630D01*
X444520D01*
X438420Y-3758810D01*
X433680Y-3764100D01*
X430290Y-3770450D01*
X427580Y-3781030D01*
X426910Y-3790560D01*
X428260Y-3800080D01*
X430290Y-3806430D01*
X434360Y-3812780D01*
X439100Y-3817010D01*
X443840Y-3819130D01*
X448580D01*
X453320Y-3817010D01*
X457390Y-3813840D01*
X460770Y-3809610D01*
G01X499720Y-3819130D02*
X504460Y-3818070D01*
X509880Y-3814900D01*
X513270Y-3809610D01*
X514620Y-3802200D01*
X513270Y-3794790D01*
X509200Y-3788440D01*
X503110Y-3785260D01*
X496330D01*
X492270Y-3783150D01*
X488880Y-3777860D01*
X487530Y-3770450D01*
X489560Y-3763040D01*
X494300Y-3757750D01*
X499720Y-3755630D01*
X505140Y-3757750D01*
X509880Y-3763040D01*
X511910Y-3770450D01*
X510560Y-3777860D01*
X507170Y-3783150D01*
X503110Y-3785260D01*
X496330D01*
X490240Y-3788440D01*
X486170Y-3794790D01*
X484820Y-3802200D01*
X486170Y-3809610D01*
X489560Y-3814900D01*
X494980Y-3818070D01*
X499720Y-3819130D01*
G01X623500Y-3005420D02*
X577990D01*
X568460Y-3008130D01*
X562120Y-3013550D01*
X560000Y-3020320D01*
X562120Y-3027090D01*
X568460Y-3032510D01*
X577990Y-3035220D01*
X623500D01*
G01X560000Y-3076200D02*
X623500D01*
X610800Y-3068070D01*
G01X560000D02*
Y-3084330D01*
G01Y-3132080D02*
X561060Y-3136820D01*
X564230Y-3142240D01*
X569520Y-3145630D01*
X576930Y-3146980D01*
X584340Y-3145630D01*
X590690Y-3141560D01*
X593870Y-3135470D01*
Y-3128690D01*
X595980Y-3124630D01*
X601270Y-3121240D01*
X608680Y-3119890D01*
X616090Y-3121920D01*
X621380Y-3126660D01*
X623500Y-3132080D01*
X621380Y-3137500D01*
X616090Y-3142240D01*
X608680Y-3144270D01*
X601270Y-3142920D01*
X595980Y-3139530D01*
X593870Y-3135470D01*
Y-3128690D01*
X590690Y-3122600D01*
X584340Y-3118530D01*
X576930Y-3117180D01*
X569520Y-3118530D01*
X564230Y-3121920D01*
X561060Y-3127340D01*
X560000Y-3132080D01*
G01X574580Y2736500D02*
Y2782010D01*
X571870Y2791540D01*
X566450Y2797880D01*
X559680Y2800000D01*
X552910Y2797880D01*
X547490Y2791540D01*
X544780Y2782010D01*
Y2736500D01*
G01X503800Y2800000D02*
Y2736500D01*
X511930Y2749200D01*
G01Y2800000D02*
X495670D01*
G01X439790D02*
Y2736500D01*
X464850Y2782010D01*
X430990D01*
G01X765420Y3180000D02*
Y3243500D01*
X778970D01*
X784380Y3240320D01*
X788450Y3236090D01*
X791840Y3229740D01*
X794540Y3222330D01*
X795220Y3211750D01*
X794540Y3201170D01*
X791840Y3193760D01*
X788450Y3187410D01*
X784380Y3183170D01*
X778970Y3180000D01*
X765420D01*
G01X836200D02*
Y3243500D01*
X828070Y3230800D01*
G01Y3180000D02*
X844330D01*
G01X790000Y3020000D02*
X930000D01*
Y3160000D01*
X790000D01*
Y3020000D01*
G01X1384780Y-5048210D02*
X1388840Y-5051380D01*
X1393580Y-5053500D01*
X1399000D01*
X1405100Y-5050320D01*
X1409840Y-5045030D01*
X1413230Y-5038680D01*
X1415940Y-5028100D01*
X1416610Y-5018570D01*
X1415260Y-5009050D01*
X1413230Y-5002700D01*
X1409160Y-4996350D01*
X1404420Y-4992120D01*
X1399680Y-4990000D01*
X1394940D01*
X1390200Y-4992120D01*
X1386130Y-4995290D01*
X1382750Y-4999520D01*
G01X1343800Y-4990000D02*
Y-5053500D01*
X1351930Y-5040800D01*
G01Y-4990000D02*
X1335670D01*
G01X1287920Y-5053500D02*
X1293340Y-5051380D01*
X1297400Y-5046090D01*
X1300110Y-5039740D01*
X1302140Y-5031270D01*
X1302820Y-5021750D01*
X1302140Y-5012220D01*
X1300110Y-5003760D01*
X1297400Y-4997410D01*
X1293340Y-4992120D01*
X1287920Y-4990000D01*
X1282500Y-4992120D01*
X1278440Y-4997410D01*
X1275730Y-5003760D01*
X1273700Y-5012220D01*
X1273020Y-5021750D01*
X1273700Y-5031270D01*
X1275730Y-5039740D01*
X1278440Y-5046090D01*
X1282500Y-5051380D01*
X1287920Y-5053500D01*
G01X964780Y-3858210D02*
X968840Y-3861380D01*
X973580Y-3863500D01*
X979000D01*
X985100Y-3860320D01*
X989840Y-3855030D01*
X993230Y-3848680D01*
X995940Y-3838100D01*
X996610Y-3828570D01*
X995260Y-3819050D01*
X993230Y-3812700D01*
X989160Y-3806350D01*
X984420Y-3802120D01*
X979680Y-3800000D01*
X974940D01*
X970200Y-3802120D01*
X966130Y-3805290D01*
X962750Y-3809520D01*
G01X936670Y-3852920D02*
X932610Y-3859270D01*
X927860Y-3862440D01*
X922450Y-3863500D01*
X915670Y-3861380D01*
X910930Y-3856090D01*
X909580Y-3849740D01*
X910250Y-3843390D01*
X912960Y-3838100D01*
X926510Y-3827520D01*
X932610Y-3820110D01*
X936670Y-3809520D01*
X938020Y-3800000D01*
X909580D01*
G01X867920D02*
Y-3863500D01*
X876050Y-3850800D01*
G01Y-3800000D02*
X859790D01*
G01X1210210Y-4114530D02*
Y-4051030D01*
X1227150D01*
X1232570Y-4054210D01*
X1235950Y-4058440D01*
X1237310Y-4066910D01*
X1235950Y-4075370D01*
X1231890Y-4080660D01*
X1227150Y-4083840D01*
X1210210D01*
G01X1227150D02*
X1237310Y-4114530D01*
G01X1279640D02*
Y-4051030D01*
X1271510Y-4063730D01*
G01Y-4114530D02*
X1287770D01*
G01X1343650D02*
Y-4051030D01*
X1318590Y-4096540D01*
X1352450D01*
G01X1305220Y-2731790D02*
X1301160Y-2728620D01*
X1296420Y-2726500D01*
X1291000D01*
X1284900Y-2729680D01*
X1280160Y-2734970D01*
X1276770Y-2741320D01*
X1274060Y-2751900D01*
X1273390Y-2761430D01*
X1274740Y-2770950D01*
X1276770Y-2777300D01*
X1280840Y-2783650D01*
X1285580Y-2787880D01*
X1290320Y-2790000D01*
X1295060D01*
X1299800Y-2787880D01*
X1303870Y-2784710D01*
X1307250Y-2780480D01*
G01X1346200Y-2790000D02*
Y-2726500D01*
X1338070Y-2739200D01*
G01Y-2790000D02*
X1354330D01*
G01X1387180Y-2780480D02*
X1391240Y-2785770D01*
X1395980Y-2788940D01*
X1402080Y-2790000D01*
X1408180Y-2787880D01*
X1412920Y-2783650D01*
X1416300Y-2776240D01*
X1416980Y-2767780D01*
X1415630Y-2759310D01*
X1412240Y-2754020D01*
X1407500Y-2749780D01*
X1402760Y-2748730D01*
X1398020Y-2749780D01*
X1391920Y-2754020D01*
X1393950Y-2726500D01*
X1412240D01*
G01X1457960Y-2790000D02*
Y-2726500D01*
X1449830Y-2739200D01*
G01Y-2790000D02*
X1466090D01*
G01X996500Y-2494580D02*
X1042010D01*
X1051540Y-2491870D01*
X1057880Y-2486450D01*
X1060000Y-2479680D01*
X1057880Y-2472910D01*
X1051540Y-2467490D01*
X1042010Y-2464780D01*
X996500D01*
G01X1060000Y-2423800D02*
X996500D01*
X1009200Y-2431930D01*
G01X1060000D02*
Y-2415670D01*
G01X996500Y-2367920D02*
X998620Y-2373340D01*
X1003910Y-2377400D01*
X1010260Y-2380110D01*
X1018730Y-2382140D01*
X1028250Y-2382820D01*
X1037780Y-2382140D01*
X1046240Y-2380110D01*
X1052590Y-2377400D01*
X1057880Y-2373340D01*
X1060000Y-2367920D01*
X1057880Y-2362500D01*
X1052590Y-2358440D01*
X1046240Y-2355730D01*
X1037780Y-2353700D01*
X1028250Y-2353020D01*
X1018730Y-2353700D01*
X1010260Y-2355730D01*
X1003910Y-2358440D01*
X998620Y-2362500D01*
X996500Y-2367920D01*
G01X950010Y-1685380D02*
X886510Y-1668450D01*
X950010Y-1651520D01*
G01X927790Y-1657610D02*
Y-1679290D01*
G01X950010Y-1599020D02*
Y-1626120D01*
X886510D01*
Y-1599020D01*
G01X917200Y-1609860D02*
Y-1626120D01*
G01X1303230Y2370000D02*
Y2306500D01*
X1286290D01*
X1280870Y2309680D01*
X1277490Y2313910D01*
X1276130Y2322380D01*
X1277490Y2330840D01*
X1281550Y2336130D01*
X1286290Y2339310D01*
X1303230D01*
G01X1286290D02*
X1276130Y2370000D01*
G01X1248700Y2360480D02*
X1244640Y2365770D01*
X1239900Y2368940D01*
X1233800Y2370000D01*
X1227700Y2367880D01*
X1222960Y2363650D01*
X1219580Y2356240D01*
X1218900Y2347780D01*
X1220250Y2339310D01*
X1223640Y2334020D01*
X1228380Y2329780D01*
X1233120Y2328730D01*
X1237860Y2329780D01*
X1243960Y2334020D01*
X1241930Y2306500D01*
X1223640D01*
G01X1177920Y2370000D02*
Y2306500D01*
X1186050Y2319200D01*
G01Y2370000D02*
X1169790D01*
G01X1235220Y3238210D02*
X1231160Y3241380D01*
X1226420Y3243500D01*
X1221000D01*
X1214900Y3240320D01*
X1210160Y3235030D01*
X1206770Y3228680D01*
X1204060Y3218100D01*
X1203390Y3208570D01*
X1204740Y3199050D01*
X1206770Y3192700D01*
X1210840Y3186350D01*
X1215580Y3182120D01*
X1220320Y3180000D01*
X1225060D01*
X1229800Y3182120D01*
X1233870Y3185290D01*
X1237250Y3189520D01*
G01X1261980Y3188460D02*
X1267390Y3183170D01*
X1273490Y3180000D01*
X1278910D01*
X1284330Y3183170D01*
X1288390Y3188460D01*
X1290420Y3195880D01*
X1289070Y3203280D01*
X1285680Y3209630D01*
X1279590Y3213870D01*
X1271460Y3215980D01*
X1266720Y3220220D01*
X1264680Y3227620D01*
X1266040Y3235030D01*
X1269430Y3240320D01*
X1274170Y3243500D01*
X1278910D01*
X1283650Y3241380D01*
X1287720Y3236090D01*
G01X1230000Y3020000D02*
X1370000D01*
Y3160000D01*
X1230000D01*
Y3020000D01*
G01X1344780Y-5308210D02*
X1348840Y-5311380D01*
X1353580Y-5313500D01*
X1359000D01*
X1365100Y-5310320D01*
X1369840Y-5305030D01*
X1373230Y-5298680D01*
X1375940Y-5288100D01*
X1376610Y-5278570D01*
X1375260Y-5269050D01*
X1373230Y-5262700D01*
X1369160Y-5256350D01*
X1364420Y-5252120D01*
X1359680Y-5250000D01*
X1354940D01*
X1350200Y-5252120D01*
X1346130Y-5255290D01*
X1342750Y-5259520D01*
G01X1315320Y-5257410D02*
X1310570Y-5252120D01*
X1305150Y-5250000D01*
X1299740Y-5252120D01*
X1294990Y-5258460D01*
X1291610Y-5267990D01*
X1290250Y-5277520D01*
Y-5289160D01*
X1291610Y-5298680D01*
X1294990Y-5307150D01*
X1299060Y-5311380D01*
X1303800Y-5313500D01*
X1309220Y-5311380D01*
X1313280Y-5307150D01*
X1315990Y-5300800D01*
X1317350Y-5292330D01*
X1315990Y-5284930D01*
X1312610Y-5277520D01*
X1308540Y-5273280D01*
X1303800Y-5272220D01*
X1298380Y-5274340D01*
X1294320Y-5279630D01*
X1290250Y-5289160D01*
G01X1285420Y-4766500D02*
Y-4812010D01*
X1288130Y-4821540D01*
X1293550Y-4827880D01*
X1300320Y-4830000D01*
X1307090Y-4827880D01*
X1312510Y-4821540D01*
X1315220Y-4812010D01*
Y-4766500D01*
G01X1341300Y-4817300D02*
X1345360Y-4824710D01*
X1350780Y-4828940D01*
X1356880Y-4830000D01*
X1362300Y-4828940D01*
X1367720Y-4823650D01*
X1371100Y-4817300D01*
X1371780Y-4810950D01*
X1370420Y-4803540D01*
X1365680Y-4798250D01*
X1360940Y-4796130D01*
X1354850D01*
G01X1360940D02*
X1365010Y-4792960D01*
X1368390Y-4787670D01*
X1369750Y-4781320D01*
X1368390Y-4774970D01*
X1365010Y-4769680D01*
X1358910Y-4766500D01*
X1352810Y-4767560D01*
X1346720Y-4771790D01*
G01X1566770Y-4550000D02*
Y-4486500D01*
X1583710D01*
X1589130Y-4489680D01*
X1592510Y-4493910D01*
X1593870Y-4502380D01*
X1592510Y-4510840D01*
X1588450Y-4516130D01*
X1583710Y-4519310D01*
X1566770D01*
G01X1583710D02*
X1593870Y-4550000D01*
G01X1636200D02*
Y-4486500D01*
X1628070Y-4499200D01*
G01Y-4550000D02*
X1644330D01*
G01X1692080Y-4486500D02*
X1686660Y-4488620D01*
X1682600Y-4493910D01*
X1679890Y-4500260D01*
X1677860Y-4508730D01*
X1677180Y-4518250D01*
X1677860Y-4527780D01*
X1679890Y-4536240D01*
X1682600Y-4542590D01*
X1686660Y-4547880D01*
X1692080Y-4550000D01*
X1697500Y-4547880D01*
X1701560Y-4542590D01*
X1704270Y-4536240D01*
X1706300Y-4527780D01*
X1706980Y-4518250D01*
X1706300Y-4508730D01*
X1704270Y-4500260D01*
X1701560Y-4493910D01*
X1697500Y-4488620D01*
X1692080Y-4486500D01*
G01X1743500Y-4055420D02*
X1697990D01*
X1688460Y-4058130D01*
X1682120Y-4063550D01*
X1680000Y-4070320D01*
X1682120Y-4077090D01*
X1688460Y-4082510D01*
X1697990Y-4085220D01*
X1743500D01*
G01X1680000Y-4126200D02*
X1743500D01*
X1730800Y-4118070D01*
G01X1680000D02*
Y-4134330D01*
G01Y-4182080D02*
X1743500D01*
X1730800Y-4173950D01*
G01X1680000D02*
Y-4190210D01*
G01X1754780Y-3658210D02*
X1758840Y-3661380D01*
X1763580Y-3663500D01*
X1769000D01*
X1775100Y-3660320D01*
X1779840Y-3655030D01*
X1783230Y-3648680D01*
X1785940Y-3638100D01*
X1786610Y-3628570D01*
X1785260Y-3619050D01*
X1783230Y-3612700D01*
X1779160Y-3606350D01*
X1774420Y-3602120D01*
X1769680Y-3600000D01*
X1764940D01*
X1760200Y-3602120D01*
X1756130Y-3605290D01*
X1752750Y-3609520D01*
G01X1726670Y-3626460D02*
X1721930Y-3633870D01*
X1717860Y-3638100D01*
X1712450Y-3640220D01*
X1707700Y-3638100D01*
X1704320Y-3633870D01*
X1701610Y-3627520D01*
X1700930Y-3620110D01*
X1701610Y-3613760D01*
X1704320Y-3607410D01*
X1708380Y-3602120D01*
X1713120Y-3600000D01*
X1718540Y-3602120D01*
X1723280Y-3608460D01*
X1725990Y-3617990D01*
X1726670Y-3628570D01*
X1725320Y-3642330D01*
X1723280Y-3649740D01*
X1719900Y-3657150D01*
X1715150Y-3662440D01*
X1710410Y-3663500D01*
X1705670Y-3661380D01*
X1702280Y-3656090D01*
G01X1670790Y-3652920D02*
X1666730Y-3659270D01*
X1661980Y-3662440D01*
X1656570Y-3663500D01*
X1649790Y-3661380D01*
X1645050Y-3656090D01*
X1643700Y-3649740D01*
X1644370Y-3643390D01*
X1647080Y-3638100D01*
X1660630Y-3627520D01*
X1666730Y-3620110D01*
X1670790Y-3609520D01*
X1672140Y-3600000D01*
X1643700D01*
G01X1754780Y-3768210D02*
X1758840Y-3771380D01*
X1763580Y-3773500D01*
X1769000D01*
X1775100Y-3770320D01*
X1779840Y-3765030D01*
X1783230Y-3758680D01*
X1785940Y-3748100D01*
X1786610Y-3738570D01*
X1785260Y-3729050D01*
X1783230Y-3722700D01*
X1779160Y-3716350D01*
X1774420Y-3712120D01*
X1769680Y-3710000D01*
X1764940D01*
X1760200Y-3712120D01*
X1756130Y-3715290D01*
X1752750Y-3719520D01*
G01X1726670Y-3736460D02*
X1721930Y-3743870D01*
X1717860Y-3748100D01*
X1712450Y-3750220D01*
X1707700Y-3748100D01*
X1704320Y-3743870D01*
X1701610Y-3737520D01*
X1700930Y-3730110D01*
X1701610Y-3723760D01*
X1704320Y-3717410D01*
X1708380Y-3712120D01*
X1713120Y-3710000D01*
X1718540Y-3712120D01*
X1723280Y-3718460D01*
X1725990Y-3727990D01*
X1726670Y-3738570D01*
X1725320Y-3752330D01*
X1723280Y-3759740D01*
X1719900Y-3767150D01*
X1715150Y-3772440D01*
X1710410Y-3773500D01*
X1705670Y-3771380D01*
X1702280Y-3766090D01*
G01X1657920Y-3710000D02*
Y-3773500D01*
X1666050Y-3760800D01*
G01Y-3710000D02*
X1649790D01*
G01X1730000Y-2936770D02*
X1793500D01*
Y-2953710D01*
X1790320Y-2959130D01*
X1786090Y-2962510D01*
X1777620Y-2963870D01*
X1769160Y-2962510D01*
X1763870Y-2958450D01*
X1760690Y-2953710D01*
Y-2936770D01*
G01Y-2953710D02*
X1730000Y-2963870D01*
G01Y-3004850D02*
X1743760Y-3006200D01*
X1755400Y-3008230D01*
X1765980Y-3010940D01*
X1777620Y-3014330D01*
X1793500Y-3019750D01*
Y-2992650D01*
G01X1739520Y-3047180D02*
X1734230Y-3051240D01*
X1731060Y-3055980D01*
X1730000Y-3062080D01*
X1732120Y-3068180D01*
X1736350Y-3072920D01*
X1743760Y-3076300D01*
X1752220Y-3076980D01*
X1760690Y-3075630D01*
X1765980Y-3072240D01*
X1770220Y-3067500D01*
X1771270Y-3062760D01*
X1770220Y-3058020D01*
X1765980Y-3051920D01*
X1793500Y-3053950D01*
Y-3072240D01*
G01X1573230Y-2723500D02*
Y-2660000D01*
X1546130D01*
G01X1515320Y-2667410D02*
X1510570Y-2662120D01*
X1505150Y-2660000D01*
X1499740Y-2662120D01*
X1494990Y-2668460D01*
X1491610Y-2677990D01*
X1490250Y-2687520D01*
Y-2699160D01*
X1491610Y-2708680D01*
X1494990Y-2717150D01*
X1499060Y-2721380D01*
X1503800Y-2723500D01*
X1509220Y-2721380D01*
X1513280Y-2717150D01*
X1515990Y-2710800D01*
X1517350Y-2702330D01*
X1515990Y-2694930D01*
X1512610Y-2687520D01*
X1508540Y-2683280D01*
X1503800Y-2682220D01*
X1498380Y-2684340D01*
X1494320Y-2689630D01*
X1490250Y-2699160D01*
G01X1834780Y-2348210D02*
X1838840Y-2351380D01*
X1843580Y-2353500D01*
X1849000D01*
X1855100Y-2350320D01*
X1859840Y-2345030D01*
X1863230Y-2338680D01*
X1865940Y-2328100D01*
X1866610Y-2318570D01*
X1865260Y-2309050D01*
X1863230Y-2302700D01*
X1859160Y-2296350D01*
X1854420Y-2292120D01*
X1849680Y-2290000D01*
X1844940D01*
X1840200Y-2292120D01*
X1836130Y-2295290D01*
X1832750Y-2299520D01*
G01X1793800Y-2290000D02*
Y-2353500D01*
X1801930Y-2340800D01*
G01Y-2290000D02*
X1785670D01*
G01X1729790D02*
Y-2353500D01*
X1754850Y-2307990D01*
X1720990D01*
G01X1693560Y-2297410D02*
X1688810Y-2292120D01*
X1683390Y-2290000D01*
X1677980Y-2292120D01*
X1673230Y-2298460D01*
X1669850Y-2307990D01*
X1668490Y-2317520D01*
Y-2329160D01*
X1669850Y-2338680D01*
X1673230Y-2347150D01*
X1677300Y-2351380D01*
X1682040Y-2353500D01*
X1687460Y-2351380D01*
X1691520Y-2347150D01*
X1694230Y-2340800D01*
X1695590Y-2332330D01*
X1694230Y-2324930D01*
X1690850Y-2317520D01*
X1686780Y-2313280D01*
X1682040Y-2312220D01*
X1676620Y-2314340D01*
X1672560Y-2319630D01*
X1668490Y-2329160D01*
G01X1544780Y-2348210D02*
X1548840Y-2351380D01*
X1553580Y-2353500D01*
X1559000D01*
X1565100Y-2350320D01*
X1569840Y-2345030D01*
X1573230Y-2338680D01*
X1575940Y-2328100D01*
X1576610Y-2318570D01*
X1575260Y-2309050D01*
X1573230Y-2302700D01*
X1569160Y-2296350D01*
X1564420Y-2292120D01*
X1559680Y-2290000D01*
X1554940D01*
X1550200Y-2292120D01*
X1546130Y-2295290D01*
X1542750Y-2299520D01*
G01X1503800Y-2290000D02*
Y-2353500D01*
X1511930Y-2340800D01*
G01Y-2290000D02*
X1495670D01*
G01X1462820Y-2299520D02*
X1458760Y-2294230D01*
X1454020Y-2291060D01*
X1447920Y-2290000D01*
X1441820Y-2292120D01*
X1437080Y-2296350D01*
X1433700Y-2303760D01*
X1433020Y-2312220D01*
X1434370Y-2320690D01*
X1437760Y-2325980D01*
X1442500Y-2330220D01*
X1447240Y-2331270D01*
X1451980Y-2330220D01*
X1458080Y-2325980D01*
X1456050Y-2353500D01*
X1437760D01*
G01X1392040D02*
X1397460Y-2351380D01*
X1401520Y-2346090D01*
X1404230Y-2339740D01*
X1406260Y-2331270D01*
X1406940Y-2321750D01*
X1406260Y-2312220D01*
X1404230Y-2303760D01*
X1401520Y-2297410D01*
X1397460Y-2292120D01*
X1392040Y-2290000D01*
X1386620Y-2292120D01*
X1382560Y-2297410D01*
X1379850Y-2303760D01*
X1377820Y-2312220D01*
X1377140Y-2321750D01*
X1377820Y-2331270D01*
X1379850Y-2339740D01*
X1382560Y-2346090D01*
X1386620Y-2351380D01*
X1392040Y-2353500D01*
G01X1450010Y-1685380D02*
X1386510Y-1668450D01*
X1450010Y-1651520D01*
G01X1427790Y-1657610D02*
Y-1679290D01*
G01X1450010Y-1627470D02*
X1386510D01*
G01Y-1601730D02*
X1425670Y-1627470D01*
G01X1450010Y-1597670D02*
X1407680Y-1615960D01*
G01X1453230Y2080000D02*
Y2016500D01*
X1436290D01*
X1430870Y2019680D01*
X1427490Y2023910D01*
X1426130Y2032380D01*
X1427490Y2040840D01*
X1431550Y2046130D01*
X1436290Y2049310D01*
X1453230D01*
G01X1436290D02*
X1426130Y2080000D01*
G01X1398700Y2070480D02*
X1394640Y2075770D01*
X1389900Y2078940D01*
X1383800Y2080000D01*
X1377700Y2077880D01*
X1372960Y2073650D01*
X1369580Y2066240D01*
X1368900Y2057780D01*
X1370250Y2049310D01*
X1373640Y2044020D01*
X1378380Y2039780D01*
X1383120Y2038730D01*
X1387860Y2039780D01*
X1393960Y2044020D01*
X1391930Y2016500D01*
X1373640D01*
G01X1327920D02*
X1333340Y2018620D01*
X1337400Y2023910D01*
X1340110Y2030260D01*
X1342140Y2038730D01*
X1342820Y2048250D01*
X1342140Y2057780D01*
X1340110Y2066240D01*
X1337400Y2072590D01*
X1333340Y2077880D01*
X1327920Y2080000D01*
X1322500Y2077880D01*
X1318440Y2072590D01*
X1315730Y2066240D01*
X1313700Y2057780D01*
X1313020Y2048250D01*
X1313700Y2038730D01*
X1315730Y2030260D01*
X1318440Y2023910D01*
X1322500Y2018620D01*
X1327920Y2016500D01*
G01X2111790Y-4954780D02*
X2108620Y-4958840D01*
X2106500Y-4963580D01*
Y-4969000D01*
X2109680Y-4975100D01*
X2114970Y-4979840D01*
X2121320Y-4983230D01*
X2131900Y-4985940D01*
X2141430Y-4986610D01*
X2150950Y-4985260D01*
X2157300Y-4983230D01*
X2163650Y-4979160D01*
X2167880Y-4974420D01*
X2170000Y-4969680D01*
Y-4964940D01*
X2167880Y-4960200D01*
X2164710Y-4956130D01*
X2160480Y-4952750D01*
G01X2143540Y-4926670D02*
X2136130Y-4921930D01*
X2131900Y-4917860D01*
X2129780Y-4912450D01*
X2131900Y-4907700D01*
X2136130Y-4904320D01*
X2142480Y-4901610D01*
X2149890Y-4900930D01*
X2156240Y-4901610D01*
X2162590Y-4904320D01*
X2167880Y-4908380D01*
X2170000Y-4913120D01*
X2167880Y-4918540D01*
X2161540Y-4923280D01*
X2152010Y-4925990D01*
X2141430Y-4926670D01*
X2127670Y-4925320D01*
X2120260Y-4923280D01*
X2112850Y-4919900D01*
X2107560Y-4915150D01*
X2106500Y-4910410D01*
X2108620Y-4905670D01*
X2113910Y-4902280D01*
G01X2106500Y-4857920D02*
X2108620Y-4863340D01*
X2113910Y-4867400D01*
X2120260Y-4870110D01*
X2128730Y-4872140D01*
X2138250Y-4872820D01*
X2147780Y-4872140D01*
X2156240Y-4870110D01*
X2162590Y-4867400D01*
X2167880Y-4863340D01*
X2170000Y-4857920D01*
X2167880Y-4852500D01*
X2162590Y-4848440D01*
X2156240Y-4845730D01*
X2147780Y-4843700D01*
X2138250Y-4843020D01*
X2128730Y-4843700D01*
X2120260Y-4845730D01*
X2113910Y-4848440D01*
X2108620Y-4852500D01*
X2106500Y-4857920D01*
G01X1833700Y-2902180D02*
Y-2838680D01*
X1825570Y-2851380D01*
G01Y-2902180D02*
X1841830D01*
G01X1785220Y-2201790D02*
X1781160Y-2198620D01*
X1776420Y-2196500D01*
X1771000D01*
X1764900Y-2199680D01*
X1760160Y-2204970D01*
X1756770Y-2211320D01*
X1754060Y-2221900D01*
X1753390Y-2231430D01*
X1754740Y-2240950D01*
X1756770Y-2247300D01*
X1760840Y-2253650D01*
X1765580Y-2257880D01*
X1770320Y-2260000D01*
X1775060D01*
X1779800Y-2257880D01*
X1783870Y-2254710D01*
X1787250Y-2250480D01*
G01X1811300D02*
X1815360Y-2255770D01*
X1820100Y-2258940D01*
X1826200Y-2260000D01*
X1832300Y-2257880D01*
X1837040Y-2253650D01*
X1840420Y-2246240D01*
X1841100Y-2237780D01*
X1839750Y-2229310D01*
X1836360Y-2224020D01*
X1831620Y-2219780D01*
X1826880Y-2218730D01*
X1822140Y-2219780D01*
X1816040Y-2224020D01*
X1818070Y-2196500D01*
X1836360D01*
G01X1882080D02*
X1876660Y-2198620D01*
X1872600Y-2203910D01*
X1869890Y-2210260D01*
X1867860Y-2218730D01*
X1867180Y-2228250D01*
X1867860Y-2237780D01*
X1869890Y-2246240D01*
X1872600Y-2252590D01*
X1876660Y-2257880D01*
X1882080Y-2260000D01*
X1887500Y-2257880D01*
X1891560Y-2252590D01*
X1894270Y-2246240D01*
X1896300Y-2237780D01*
X1896980Y-2228250D01*
X1896300Y-2218730D01*
X1894270Y-2210260D01*
X1891560Y-2203910D01*
X1887500Y-2198620D01*
X1882080Y-2196500D01*
G01X1805220Y-1861790D02*
X1801160Y-1858620D01*
X1796420Y-1856500D01*
X1791000D01*
X1784900Y-1859680D01*
X1780160Y-1864970D01*
X1776770Y-1871320D01*
X1774060Y-1881900D01*
X1773390Y-1891430D01*
X1774740Y-1900950D01*
X1776770Y-1907300D01*
X1780840Y-1913650D01*
X1785580Y-1917880D01*
X1790320Y-1920000D01*
X1795060D01*
X1799800Y-1917880D01*
X1803870Y-1914710D01*
X1807250Y-1910480D01*
G01X1854330Y-1920000D02*
Y-1856500D01*
X1829270Y-1902010D01*
X1863130D01*
G01X1890560Y-1912590D02*
X1895310Y-1917880D01*
X1900730Y-1920000D01*
X1906140Y-1917880D01*
X1910890Y-1911540D01*
X1914270Y-1902010D01*
X1915630Y-1892480D01*
Y-1880840D01*
X1914270Y-1871320D01*
X1910890Y-1862850D01*
X1906820Y-1858620D01*
X1902080Y-1856500D01*
X1896660Y-1858620D01*
X1892600Y-1862850D01*
X1889890Y-1869200D01*
X1888530Y-1877670D01*
X1889890Y-1885070D01*
X1893270Y-1892480D01*
X1897340Y-1896720D01*
X1902080Y-1897780D01*
X1907500Y-1895660D01*
X1911560Y-1890370D01*
X1915630Y-1880840D01*
G01X2090000Y-1983230D02*
X2026500D01*
Y-1966290D01*
X2029680Y-1960870D01*
X2033910Y-1957490D01*
X2042380Y-1956130D01*
X2050840Y-1957490D01*
X2056130Y-1961550D01*
X2059310Y-1966290D01*
Y-1983230D01*
G01Y-1966290D02*
X2090000Y-1956130D01*
G01X2063540Y-1926670D02*
X2056130Y-1921930D01*
X2051900Y-1917860D01*
X2049780Y-1912450D01*
X2051900Y-1907700D01*
X2056130Y-1904320D01*
X2062480Y-1901610D01*
X2069890Y-1900930D01*
X2076240Y-1901610D01*
X2082590Y-1904320D01*
X2087880Y-1908380D01*
X2090000Y-1913120D01*
X2087880Y-1918540D01*
X2081540Y-1923280D01*
X2072010Y-1925990D01*
X2061430Y-1926670D01*
X2047670Y-1925320D01*
X2040260Y-1923280D01*
X2032850Y-1919900D01*
X2027560Y-1915150D01*
X2026500Y-1910410D01*
X2028620Y-1905670D01*
X2033910Y-1902280D01*
G01X2082590Y-1869440D02*
X2087880Y-1864690D01*
X2090000Y-1859270D01*
X2087880Y-1853860D01*
X2081540Y-1849110D01*
X2072010Y-1845730D01*
X2062480Y-1844370D01*
X2050840D01*
X2041320Y-1845730D01*
X2032850Y-1849110D01*
X2028620Y-1853180D01*
X2026500Y-1857920D01*
X2028620Y-1863340D01*
X2032850Y-1867400D01*
X2039200Y-1870110D01*
X2047670Y-1871470D01*
X2055070Y-1870110D01*
X2062480Y-1866730D01*
X2066720Y-1862660D01*
X2067780Y-1857920D01*
X2065660Y-1852500D01*
X2060370Y-1848440D01*
X2050840Y-1844370D01*
G01X2120000Y-1846770D02*
X2183500D01*
Y-1863710D01*
X2180320Y-1869130D01*
X2176090Y-1872510D01*
X2167620Y-1873870D01*
X2159160Y-1872510D01*
X2153870Y-1868450D01*
X2150690Y-1863710D01*
Y-1846770D01*
G01Y-1863710D02*
X2120000Y-1873870D01*
G01Y-1914850D02*
X2133760Y-1916200D01*
X2145400Y-1918230D01*
X2155980Y-1920940D01*
X2167620Y-1924330D01*
X2183500Y-1929750D01*
Y-1902650D01*
G01X2132700Y-1957180D02*
X2125290Y-1961240D01*
X2121060Y-1966660D01*
X2120000Y-1972760D01*
X2121060Y-1978180D01*
X2126350Y-1983600D01*
X2132700Y-1986980D01*
X2139050Y-1987660D01*
X2146460Y-1986300D01*
X2151750Y-1981560D01*
X2153870Y-1976820D01*
Y-1970730D01*
G01Y-1976820D02*
X2157040Y-1980890D01*
X2162330Y-1984270D01*
X2168680Y-1985630D01*
X2175030Y-1984270D01*
X2180320Y-1980890D01*
X2183500Y-1974790D01*
X2182440Y-1968690D01*
X2178210Y-1962600D01*
G01X2351790Y-4954780D02*
X2348620Y-4958840D01*
X2346500Y-4963580D01*
Y-4969000D01*
X2349680Y-4975100D01*
X2354970Y-4979840D01*
X2361320Y-4983230D01*
X2371900Y-4985940D01*
X2381430Y-4986610D01*
X2390950Y-4985260D01*
X2397300Y-4983230D01*
X2403650Y-4979160D01*
X2407880Y-4974420D01*
X2410000Y-4969680D01*
Y-4964940D01*
X2407880Y-4960200D01*
X2404710Y-4956130D01*
X2400480Y-4952750D01*
G01X2383540Y-4926670D02*
X2376130Y-4921930D01*
X2371900Y-4917860D01*
X2369780Y-4912450D01*
X2371900Y-4907700D01*
X2376130Y-4904320D01*
X2382480Y-4901610D01*
X2389890Y-4900930D01*
X2396240Y-4901610D01*
X2402590Y-4904320D01*
X2407880Y-4908380D01*
X2410000Y-4913120D01*
X2407880Y-4918540D01*
X2401540Y-4923280D01*
X2392010Y-4925990D01*
X2381430Y-4926670D01*
X2367670Y-4925320D01*
X2360260Y-4923280D01*
X2352850Y-4919900D01*
X2347560Y-4915150D01*
X2346500Y-4910410D01*
X2348620Y-4905670D01*
X2353910Y-4902280D01*
G01X2397300Y-4872820D02*
X2404710Y-4868760D01*
X2408940Y-4863340D01*
X2410000Y-4857240D01*
X2408940Y-4851820D01*
X2403650Y-4846400D01*
X2397300Y-4843020D01*
X2390950Y-4842340D01*
X2383540Y-4843700D01*
X2378250Y-4848440D01*
X2376130Y-4853180D01*
Y-4859270D01*
G01Y-4853180D02*
X2372960Y-4849110D01*
X2367670Y-4845730D01*
X2361320Y-4844370D01*
X2354970Y-4845730D01*
X2349680Y-4849110D01*
X2346500Y-4855210D01*
X2347560Y-4861310D01*
X2351790Y-4867400D01*
G01X2694780Y-3888210D02*
X2698840Y-3891380D01*
X2703580Y-3893500D01*
X2709000D01*
X2715100Y-3890320D01*
X2719840Y-3885030D01*
X2723230Y-3878680D01*
X2725940Y-3868100D01*
X2726610Y-3858570D01*
X2725260Y-3849050D01*
X2723230Y-3842700D01*
X2719160Y-3836350D01*
X2714420Y-3832120D01*
X2709680Y-3830000D01*
X2704940D01*
X2700200Y-3832120D01*
X2696130Y-3835290D01*
X2692750Y-3839520D01*
G01X2666670Y-3856460D02*
X2661930Y-3863870D01*
X2657860Y-3868100D01*
X2652450Y-3870220D01*
X2647700Y-3868100D01*
X2644320Y-3863870D01*
X2641610Y-3857520D01*
X2640930Y-3850110D01*
X2641610Y-3843760D01*
X2644320Y-3837410D01*
X2648380Y-3832120D01*
X2653120Y-3830000D01*
X2658540Y-3832120D01*
X2663280Y-3838460D01*
X2665990Y-3847990D01*
X2666670Y-3858570D01*
X2665320Y-3872330D01*
X2663280Y-3879740D01*
X2659900Y-3887150D01*
X2655150Y-3892440D01*
X2650410Y-3893500D01*
X2645670Y-3891380D01*
X2642280Y-3886090D01*
G01X2589790Y-3830000D02*
Y-3893500D01*
X2614850Y-3847990D01*
X2580990D01*
G01X2340000Y-3456770D02*
X2403500D01*
Y-3473710D01*
X2400320Y-3479130D01*
X2396090Y-3482510D01*
X2387620Y-3483870D01*
X2379160Y-3482510D01*
X2373870Y-3478450D01*
X2370690Y-3473710D01*
Y-3456770D01*
G01Y-3473710D02*
X2340000Y-3483870D01*
G01Y-3534330D02*
X2403500D01*
X2357990Y-3509270D01*
Y-3543130D01*
G01X2340000Y-3582080D02*
X2341060Y-3586820D01*
X2344230Y-3592240D01*
X2349520Y-3595630D01*
X2356930Y-3596980D01*
X2364340Y-3595630D01*
X2370690Y-3591560D01*
X2373870Y-3585470D01*
Y-3578690D01*
X2375980Y-3574630D01*
X2381270Y-3571240D01*
X2388680Y-3569890D01*
X2396090Y-3571920D01*
X2401380Y-3576660D01*
X2403500Y-3582080D01*
X2401380Y-3587500D01*
X2396090Y-3592240D01*
X2388680Y-3594270D01*
X2381270Y-3592920D01*
X2375980Y-3589530D01*
X2373870Y-3585470D01*
Y-3578690D01*
X2370690Y-3572600D01*
X2364340Y-3568530D01*
X2356930Y-3567180D01*
X2349520Y-3568530D01*
X2344230Y-3571920D01*
X2341060Y-3577340D01*
X2340000Y-3582080D01*
G01X2490000Y-3603230D02*
X2426500D01*
Y-3586290D01*
X2429680Y-3580870D01*
X2433910Y-3577490D01*
X2442380Y-3576130D01*
X2450840Y-3577490D01*
X2456130Y-3581550D01*
X2459310Y-3586290D01*
Y-3603230D01*
G01Y-3586290D02*
X2490000Y-3576130D01*
G01Y-3525670D02*
X2426500D01*
X2472010Y-3550730D01*
Y-3516870D01*
G01X2482590Y-3489440D02*
X2487880Y-3484690D01*
X2490000Y-3479270D01*
X2487880Y-3473860D01*
X2481540Y-3469110D01*
X2472010Y-3465730D01*
X2462480Y-3464370D01*
X2450840D01*
X2441320Y-3465730D01*
X2432850Y-3469110D01*
X2428620Y-3473180D01*
X2426500Y-3477920D01*
X2428620Y-3483340D01*
X2432850Y-3487400D01*
X2439200Y-3490110D01*
X2447670Y-3491470D01*
X2455070Y-3490110D01*
X2462480Y-3486730D01*
X2466720Y-3482660D01*
X2467780Y-3477920D01*
X2465660Y-3472500D01*
X2460370Y-3468440D01*
X2450840Y-3464370D01*
G01X2568210Y-1825220D02*
X2571380Y-1821160D01*
X2573500Y-1816420D01*
Y-1811000D01*
X2570320Y-1804900D01*
X2565030Y-1800160D01*
X2558680Y-1796770D01*
X2548100Y-1794060D01*
X2538570Y-1793390D01*
X2529050Y-1794740D01*
X2522700Y-1796770D01*
X2516350Y-1800840D01*
X2512120Y-1805580D01*
X2510000Y-1810320D01*
Y-1815060D01*
X2512120Y-1819800D01*
X2515290Y-1823870D01*
X2519520Y-1827250D01*
G01X2510000Y-1866200D02*
X2573500D01*
X2560800Y-1858070D01*
G01X2510000D02*
Y-1874330D01*
G01X2519520Y-1907180D02*
X2514230Y-1911240D01*
X2511060Y-1915980D01*
X2510000Y-1922080D01*
X2512120Y-1928180D01*
X2516350Y-1932920D01*
X2523760Y-1936300D01*
X2532220Y-1936980D01*
X2540690Y-1935630D01*
X2545980Y-1932240D01*
X2550220Y-1927500D01*
X2551270Y-1922760D01*
X2550220Y-1918020D01*
X2545980Y-1911920D01*
X2573500Y-1913950D01*
Y-1932240D01*
G01X2522700Y-1963060D02*
X2515290Y-1967120D01*
X2511060Y-1972540D01*
X2510000Y-1978640D01*
X2511060Y-1984060D01*
X2516350Y-1989480D01*
X2522700Y-1992860D01*
X2529050Y-1993540D01*
X2536460Y-1992180D01*
X2541750Y-1987440D01*
X2543870Y-1982700D01*
Y-1976610D01*
G01Y-1982700D02*
X2547040Y-1986770D01*
X2552330Y-1990150D01*
X2558680Y-1991510D01*
X2565030Y-1990150D01*
X2570320Y-1986770D01*
X2573500Y-1980670D01*
X2572440Y-1974570D01*
X2568210Y-1968480D01*
G01X2278210Y-1825220D02*
X2281380Y-1821160D01*
X2283500Y-1816420D01*
Y-1811000D01*
X2280320Y-1804900D01*
X2275030Y-1800160D01*
X2268680Y-1796770D01*
X2258100Y-1794060D01*
X2248570Y-1793390D01*
X2239050Y-1794740D01*
X2232700Y-1796770D01*
X2226350Y-1800840D01*
X2222120Y-1805580D01*
X2220000Y-1810320D01*
Y-1815060D01*
X2222120Y-1819800D01*
X2225290Y-1823870D01*
X2229520Y-1827250D01*
G01X2220000Y-1866200D02*
X2283500D01*
X2270800Y-1858070D01*
G01X2220000D02*
Y-1874330D01*
G01X2229520Y-1907180D02*
X2224230Y-1911240D01*
X2221060Y-1915980D01*
X2220000Y-1922080D01*
X2222120Y-1928180D01*
X2226350Y-1932920D01*
X2233760Y-1936300D01*
X2242220Y-1936980D01*
X2250690Y-1935630D01*
X2255980Y-1932240D01*
X2260220Y-1927500D01*
X2261270Y-1922760D01*
X2260220Y-1918020D01*
X2255980Y-1911920D01*
X2283500Y-1913950D01*
Y-1932240D01*
G01X2272920Y-1965090D02*
X2279270Y-1969150D01*
X2282440Y-1973900D01*
X2283500Y-1979310D01*
X2281380Y-1986090D01*
X2276090Y-1990830D01*
X2269740Y-1992180D01*
X2263390Y-1991510D01*
X2258100Y-1988800D01*
X2247520Y-1975250D01*
X2240110Y-1969150D01*
X2229520Y-1965090D01*
X2220000Y-1963740D01*
Y-1992180D01*
G01X2346770Y-1760000D02*
Y-1696500D01*
X2363710D01*
X2369130Y-1699680D01*
X2372510Y-1703910D01*
X2373870Y-1712380D01*
X2372510Y-1720840D01*
X2368450Y-1726130D01*
X2363710Y-1729310D01*
X2346770D01*
G01X2363710D02*
X2373870Y-1760000D01*
G01X2414850D02*
X2416200Y-1746240D01*
X2418230Y-1734600D01*
X2420940Y-1724020D01*
X2424330Y-1712380D01*
X2429750Y-1696500D01*
X2402650D01*
G01X2459210Y-1707080D02*
X2463270Y-1700730D01*
X2468020Y-1697560D01*
X2473430Y-1696500D01*
X2480210Y-1698620D01*
X2484950Y-1703910D01*
X2486300Y-1710260D01*
X2485630Y-1716610D01*
X2482920Y-1721900D01*
X2469370Y-1732480D01*
X2463270Y-1739890D01*
X2459210Y-1750480D01*
X2457860Y-1760000D01*
X2486300D01*
G01X2505220Y-291790D02*
X2501160Y-288620D01*
X2496420Y-286500D01*
X2491000D01*
X2484900Y-289680D01*
X2480160Y-294970D01*
X2476770Y-301320D01*
X2474060Y-311900D01*
X2473390Y-321430D01*
X2474740Y-330950D01*
X2476770Y-337300D01*
X2480840Y-343650D01*
X2485580Y-347880D01*
X2490320Y-350000D01*
X2495060D01*
X2499800Y-347880D01*
X2503870Y-344710D01*
X2507250Y-340480D01*
G01X2546200Y-350000D02*
Y-286500D01*
X2538070Y-299200D01*
G01Y-350000D02*
X2554330D01*
G01X2610210D02*
Y-286500D01*
X2585150Y-332010D01*
X2619010D01*
G01X2515220Y-521790D02*
X2511160Y-518620D01*
X2506420Y-516500D01*
X2501000D01*
X2494900Y-519680D01*
X2490160Y-524970D01*
X2486770Y-531320D01*
X2484060Y-541900D01*
X2483390Y-551430D01*
X2484740Y-560950D01*
X2486770Y-567300D01*
X2490840Y-573650D01*
X2495580Y-577880D01*
X2500320Y-580000D01*
X2505060D01*
X2509800Y-577880D01*
X2513870Y-574710D01*
X2517250Y-570480D01*
G01X2556200Y-580000D02*
Y-516500D01*
X2548070Y-529200D01*
G01Y-580000D02*
X2564330D01*
G01X2597180Y-570480D02*
X2601240Y-575770D01*
X2605980Y-578940D01*
X2612080Y-580000D01*
X2618180Y-577880D01*
X2622920Y-573650D01*
X2626300Y-566240D01*
X2626980Y-557780D01*
X2625630Y-549310D01*
X2622240Y-544020D01*
X2617500Y-539780D01*
X2612760Y-538730D01*
X2608020Y-539780D01*
X2601920Y-544020D01*
X2603950Y-516500D01*
X2622240D01*
G01X2475220Y928210D02*
X2471160Y931380D01*
X2466420Y933500D01*
X2461000D01*
X2454900Y930320D01*
X2450160Y925030D01*
X2446770Y918680D01*
X2444060Y908100D01*
X2443390Y898570D01*
X2444740Y889050D01*
X2446770Y882700D01*
X2450840Y876350D01*
X2455580Y872120D01*
X2460320Y870000D01*
X2465060D01*
X2469800Y872120D01*
X2473870Y875290D01*
X2477250Y879520D01*
G01X2501300Y882700D02*
X2505360Y875290D01*
X2510780Y871060D01*
X2516880Y870000D01*
X2522300Y871060D01*
X2527720Y876350D01*
X2531100Y882700D01*
X2531780Y889050D01*
X2530420Y896460D01*
X2525680Y901750D01*
X2520940Y903870D01*
X2514850D01*
G01X2520940D02*
X2525010Y907040D01*
X2528390Y912330D01*
X2529750Y918680D01*
X2528390Y925030D01*
X2525010Y930320D01*
X2518910Y933500D01*
X2512810Y932440D01*
X2506720Y928210D01*
G01X2572080Y933500D02*
X2566660Y931380D01*
X2562600Y926090D01*
X2559890Y919740D01*
X2557860Y911270D01*
X2557180Y901750D01*
X2557860Y892220D01*
X2559890Y883760D01*
X2562600Y877410D01*
X2566660Y872120D01*
X2572080Y870000D01*
X2577500Y872120D01*
X2581560Y877410D01*
X2584270Y883760D01*
X2586300Y892220D01*
X2586980Y901750D01*
X2586300Y911270D01*
X2584270Y919740D01*
X2581560Y926090D01*
X2577500Y931380D01*
X2572080Y933500D01*
G01X2475220Y718210D02*
X2471160Y721380D01*
X2466420Y723500D01*
X2461000D01*
X2454900Y720320D01*
X2450160Y715030D01*
X2446770Y708680D01*
X2444060Y698100D01*
X2443390Y688570D01*
X2444740Y679050D01*
X2446770Y672700D01*
X2450840Y666350D01*
X2455580Y662120D01*
X2460320Y660000D01*
X2465060D01*
X2469800Y662120D01*
X2473870Y665290D01*
X2477250Y669520D01*
G01X2501300Y672700D02*
X2505360Y665290D01*
X2510780Y661060D01*
X2516880Y660000D01*
X2522300Y661060D01*
X2527720Y666350D01*
X2531100Y672700D01*
X2531780Y679050D01*
X2530420Y686460D01*
X2525680Y691750D01*
X2520940Y693870D01*
X2514850D01*
G01X2520940D02*
X2525010Y697040D01*
X2528390Y702330D01*
X2529750Y708680D01*
X2528390Y715030D01*
X2525010Y720320D01*
X2518910Y723500D01*
X2512810Y722440D01*
X2506720Y718210D01*
G01X2572080Y660000D02*
Y723500D01*
X2563950Y710800D01*
G01Y660000D02*
X2580210D01*
G01X2455220Y2338210D02*
X2451160Y2341380D01*
X2446420Y2343500D01*
X2441000D01*
X2434900Y2340320D01*
X2430160Y2335030D01*
X2426770Y2328680D01*
X2424060Y2318100D01*
X2423390Y2308570D01*
X2424740Y2299050D01*
X2426770Y2292700D01*
X2430840Y2286350D01*
X2435580Y2282120D01*
X2440320Y2280000D01*
X2445060D01*
X2449800Y2282120D01*
X2453870Y2285290D01*
X2457250Y2289520D01*
G01X2481300Y2292700D02*
X2485360Y2285290D01*
X2490780Y2281060D01*
X2496880Y2280000D01*
X2502300Y2281060D01*
X2507720Y2286350D01*
X2511100Y2292700D01*
X2511780Y2299050D01*
X2510420Y2306460D01*
X2505680Y2311750D01*
X2500940Y2313870D01*
X2494850D01*
G01X2500940D02*
X2505010Y2317040D01*
X2508390Y2322330D01*
X2509750Y2328680D01*
X2508390Y2335030D01*
X2505010Y2340320D01*
X2498910Y2343500D01*
X2492810Y2342440D01*
X2486720Y2338210D01*
G01X2550730Y2280000D02*
X2552080Y2293760D01*
X2554110Y2305400D01*
X2556820Y2315980D01*
X2560210Y2327620D01*
X2565630Y2343500D01*
X2538530D01*
G01X2455220Y2158210D02*
X2451160Y2161380D01*
X2446420Y2163500D01*
X2441000D01*
X2434900Y2160320D01*
X2430160Y2155030D01*
X2426770Y2148680D01*
X2424060Y2138100D01*
X2423390Y2128570D01*
X2424740Y2119050D01*
X2426770Y2112700D01*
X2430840Y2106350D01*
X2435580Y2102120D01*
X2440320Y2100000D01*
X2445060D01*
X2449800Y2102120D01*
X2453870Y2105290D01*
X2457250Y2109520D01*
G01X2481300Y2112700D02*
X2485360Y2105290D01*
X2490780Y2101060D01*
X2496880Y2100000D01*
X2502300Y2101060D01*
X2507720Y2106350D01*
X2511100Y2112700D01*
X2511780Y2119050D01*
X2510420Y2126460D01*
X2505680Y2131750D01*
X2500940Y2133870D01*
X2494850D01*
G01X2500940D02*
X2505010Y2137040D01*
X2508390Y2142330D01*
X2509750Y2148680D01*
X2508390Y2155030D01*
X2505010Y2160320D01*
X2498910Y2163500D01*
X2492810Y2162440D01*
X2486720Y2158210D01*
G01X2552080Y2100000D02*
X2556820Y2101060D01*
X2562240Y2104230D01*
X2565630Y2109520D01*
X2566980Y2116930D01*
X2565630Y2124340D01*
X2561560Y2130690D01*
X2555470Y2133870D01*
X2548690D01*
X2544630Y2135980D01*
X2541240Y2141270D01*
X2539890Y2148680D01*
X2541920Y2156090D01*
X2546660Y2161380D01*
X2552080Y2163500D01*
X2557500Y2161380D01*
X2562240Y2156090D01*
X2564270Y2148680D01*
X2562920Y2141270D01*
X2559530Y2135980D01*
X2555470Y2133870D01*
X2548690D01*
X2542600Y2130690D01*
X2538530Y2124340D01*
X2537180Y2116930D01*
X2538530Y2109520D01*
X2541920Y2104230D01*
X2547340Y2101060D01*
X2552080Y2100000D01*
G01X2780000Y-4643230D02*
X2716500D01*
Y-4626290D01*
X2719680Y-4620870D01*
X2723910Y-4617490D01*
X2732380Y-4616130D01*
X2740840Y-4617490D01*
X2746130Y-4621550D01*
X2749310Y-4626290D01*
Y-4643230D01*
G01Y-4626290D02*
X2780000Y-4616130D01*
G01Y-4565670D02*
X2716500D01*
X2762010Y-4590730D01*
Y-4556870D01*
G01X2780000Y-4519270D02*
X2766240Y-4517920D01*
X2754600Y-4515890D01*
X2744020Y-4513180D01*
X2732380Y-4509790D01*
X2716500Y-4504370D01*
Y-4531470D01*
G01X2825220Y-3451790D02*
X2821160Y-3448620D01*
X2816420Y-3446500D01*
X2811000D01*
X2804900Y-3449680D01*
X2800160Y-3454970D01*
X2796770Y-3461320D01*
X2794060Y-3471900D01*
X2793390Y-3481430D01*
X2794740Y-3490950D01*
X2796770Y-3497300D01*
X2800840Y-3503650D01*
X2805580Y-3507880D01*
X2810320Y-3510000D01*
X2815060D01*
X2819800Y-3507880D01*
X2823870Y-3504710D01*
X2827250Y-3500480D01*
G01X2874330Y-3510000D02*
Y-3446500D01*
X2849270Y-3492010D01*
X2883130D01*
G01X2909210Y-3457080D02*
X2913270Y-3450730D01*
X2918020Y-3447560D01*
X2923430Y-3446500D01*
X2930210Y-3448620D01*
X2934950Y-3453910D01*
X2936300Y-3460260D01*
X2935630Y-3466610D01*
X2932920Y-3471900D01*
X2919370Y-3482480D01*
X2913270Y-3489890D01*
X2909210Y-3500480D01*
X2907860Y-3510000D01*
X2936300D01*
G01X2765220Y-3321790D02*
X2761160Y-3318620D01*
X2756420Y-3316500D01*
X2751000D01*
X2744900Y-3319680D01*
X2740160Y-3324970D01*
X2736770Y-3331320D01*
X2734060Y-3341900D01*
X2733390Y-3351430D01*
X2734740Y-3360950D01*
X2736770Y-3367300D01*
X2740840Y-3373650D01*
X2745580Y-3377880D01*
X2750320Y-3380000D01*
X2755060D01*
X2759800Y-3377880D01*
X2763870Y-3374710D01*
X2767250Y-3370480D01*
G01X2814330Y-3380000D02*
Y-3316500D01*
X2789270Y-3362010D01*
X2823130D01*
G01X2862080Y-3380000D02*
Y-3316500D01*
X2853950Y-3329200D01*
G01Y-3380000D02*
X2870210D01*
G01X2794380Y-2758250D02*
X2807930D01*
Y-2777300D01*
X2803870Y-2783650D01*
X2799130Y-2787880D01*
X2792350Y-2790000D01*
X2785580Y-2787880D01*
X2780840Y-2783650D01*
X2776770Y-2777300D01*
X2774060Y-2769890D01*
X2772710Y-2761430D01*
Y-2754020D01*
X2774060Y-2747670D01*
X2776770Y-2740260D01*
X2780840Y-2733910D01*
X2784900Y-2729680D01*
X2790320Y-2726500D01*
X2795060D01*
X2800480Y-2728620D01*
X2804540Y-2732850D01*
G01X2846200Y-2790000D02*
Y-2726500D01*
X2838070Y-2739200D01*
G01Y-2790000D02*
X2854330D01*
G01X2715220Y-2261790D02*
X2711160Y-2258620D01*
X2706420Y-2256500D01*
X2701000D01*
X2694900Y-2259680D01*
X2690160Y-2264970D01*
X2686770Y-2271320D01*
X2684060Y-2281900D01*
X2683390Y-2291430D01*
X2684740Y-2300950D01*
X2686770Y-2307300D01*
X2690840Y-2313650D01*
X2695580Y-2317880D01*
X2700320Y-2320000D01*
X2705060D01*
X2709800Y-2317880D01*
X2713870Y-2314710D01*
X2717250Y-2310480D01*
G01X2743330Y-2267080D02*
X2747390Y-2260730D01*
X2752140Y-2257560D01*
X2757550Y-2256500D01*
X2764330Y-2258620D01*
X2769070Y-2263910D01*
X2770420Y-2270260D01*
X2769750Y-2276610D01*
X2767040Y-2281900D01*
X2753490Y-2292480D01*
X2747390Y-2299890D01*
X2743330Y-2310480D01*
X2741980Y-2320000D01*
X2770420D01*
G01X2810730D02*
X2812080Y-2306240D01*
X2814110Y-2294600D01*
X2816820Y-2284020D01*
X2820210Y-2272380D01*
X2825630Y-2256500D01*
X2798530D01*
G01X2945220Y-1691790D02*
X2941160Y-1688620D01*
X2936420Y-1686500D01*
X2931000D01*
X2924900Y-1689680D01*
X2920160Y-1694970D01*
X2916770Y-1701320D01*
X2914060Y-1711900D01*
X2913390Y-1721430D01*
X2914740Y-1730950D01*
X2916770Y-1737300D01*
X2920840Y-1743650D01*
X2925580Y-1747880D01*
X2930320Y-1750000D01*
X2935060D01*
X2939800Y-1747880D01*
X2943870Y-1744710D01*
X2947250Y-1740480D01*
G01X2973330Y-1697080D02*
X2977390Y-1690730D01*
X2982140Y-1687560D01*
X2987550Y-1686500D01*
X2994330Y-1688620D01*
X2999070Y-1693910D01*
X3000420Y-1700260D01*
X2999750Y-1706610D01*
X2997040Y-1711900D01*
X2983490Y-1722480D01*
X2977390Y-1729890D01*
X2973330Y-1740480D01*
X2971980Y-1750000D01*
X3000420D01*
G01X3029210Y-1723540D02*
X3033950Y-1716130D01*
X3038020Y-1711900D01*
X3043430Y-1709780D01*
X3048180Y-1711900D01*
X3051560Y-1716130D01*
X3054270Y-1722480D01*
X3054950Y-1729890D01*
X3054270Y-1736240D01*
X3051560Y-1742590D01*
X3047500Y-1747880D01*
X3042760Y-1750000D01*
X3037340Y-1747880D01*
X3032600Y-1741540D01*
X3029890Y-1732010D01*
X3029210Y-1721430D01*
X3030560Y-1707670D01*
X3032600Y-1700260D01*
X3035980Y-1692850D01*
X3040730Y-1687560D01*
X3045470Y-1686500D01*
X3050210Y-1688620D01*
X3053600Y-1693910D01*
G01X2660000Y-1983230D02*
X2596500D01*
Y-1966290D01*
X2599680Y-1960870D01*
X2603910Y-1957490D01*
X2612380Y-1956130D01*
X2620840Y-1957490D01*
X2626130Y-1961550D01*
X2629310Y-1966290D01*
Y-1983230D01*
G01Y-1966290D02*
X2660000Y-1956130D01*
G01Y-1915150D02*
X2646240Y-1913800D01*
X2634600Y-1911770D01*
X2624020Y-1909060D01*
X2612380Y-1905670D01*
X2596500Y-1900250D01*
Y-1927350D01*
G01Y-1857920D02*
X2598620Y-1863340D01*
X2603910Y-1867400D01*
X2610260Y-1870110D01*
X2618730Y-1872140D01*
X2628250Y-1872820D01*
X2637780Y-1872140D01*
X2646240Y-1870110D01*
X2652590Y-1867400D01*
X2657880Y-1863340D01*
X2660000Y-1857920D01*
X2657880Y-1852500D01*
X2652590Y-1848440D01*
X2646240Y-1845730D01*
X2637780Y-1843700D01*
X2628250Y-1843020D01*
X2618730Y-1843700D01*
X2610260Y-1845730D01*
X2603910Y-1848440D01*
X2598620Y-1852500D01*
X2596500Y-1857920D01*
G01X2700000Y-1866770D02*
X2763500D01*
Y-1883710D01*
X2760320Y-1889130D01*
X2756090Y-1892510D01*
X2747620Y-1893870D01*
X2739160Y-1892510D01*
X2733870Y-1888450D01*
X2730690Y-1883710D01*
Y-1866770D01*
G01Y-1883710D02*
X2700000Y-1893870D01*
G01Y-1934850D02*
X2713760Y-1936200D01*
X2725400Y-1938230D01*
X2735980Y-1940940D01*
X2747620Y-1944330D01*
X2763500Y-1949750D01*
Y-1922650D01*
G01X2700000Y-2000210D02*
X2763500D01*
X2717990Y-1975150D01*
Y-2009010D01*
G01X3252060Y-4310000D02*
X3246640Y-4308940D01*
X3241900Y-4304710D01*
X3237840Y-4298360D01*
X3235130Y-4290950D01*
X3233770Y-4282480D01*
Y-4274020D01*
X3235130Y-4265550D01*
X3237840Y-4258140D01*
X3241900Y-4251790D01*
X3246640Y-4247560D01*
X3252060Y-4246500D01*
X3257480Y-4247560D01*
X3262220Y-4251790D01*
X3266280Y-4258140D01*
X3268990Y-4265550D01*
X3270350Y-4274020D01*
Y-4282480D01*
X3268990Y-4290950D01*
X3266280Y-4298360D01*
X3262220Y-4304710D01*
X3257480Y-4308940D01*
X3252060Y-4310000D01*
G01X3257480Y-4293070D02*
X3265610Y-4310000D01*
G01X3307940D02*
Y-4246500D01*
X3299810Y-4259200D01*
G01Y-4310000D02*
X3316070D01*
G01X3410000Y-3966770D02*
X3473500D01*
Y-3983710D01*
X3470320Y-3989130D01*
X3466090Y-3992510D01*
X3457620Y-3993870D01*
X3449160Y-3992510D01*
X3443870Y-3988450D01*
X3440690Y-3983710D01*
Y-3966770D01*
G01Y-3983710D02*
X3410000Y-3993870D01*
G01X3462920Y-4023330D02*
X3469270Y-4027390D01*
X3472440Y-4032140D01*
X3473500Y-4037550D01*
X3471380Y-4044330D01*
X3466090Y-4049070D01*
X3459740Y-4050420D01*
X3453390Y-4049750D01*
X3448100Y-4047040D01*
X3437520Y-4033490D01*
X3430110Y-4027390D01*
X3419520Y-4023330D01*
X3410000Y-4021980D01*
Y-4050420D01*
G01X4473730Y-2818090D02*
X3433730D01*
Y-3848090D01*
X4473730D01*
Y-2818090D01*
G01Y-1468090D02*
X3433730D01*
Y-2498090D01*
X4473730D01*
Y-1468090D01*
G01X4430650Y162080D02*
X3390650D01*
Y-867920D01*
X4430650D01*
Y162080D01*
G01X4433730Y1441910D02*
X3393730D01*
Y411910D01*
X4433730D01*
Y1441910D01*
G01X4390650Y2872080D02*
X3350650D01*
Y1842080D01*
X4390650D01*
Y2872080D01*
G01X3800000Y-4259680D02*
X3798940Y-4265100D01*
X3794710Y-4269840D01*
X3788360Y-4273900D01*
X3780950Y-4276610D01*
X3772480Y-4277970D01*
X3764020D01*
X3755550Y-4276610D01*
X3748140Y-4273900D01*
X3741790Y-4269840D01*
X3737560Y-4265100D01*
X3736500Y-4259680D01*
X3737560Y-4254260D01*
X3741790Y-4249520D01*
X3748140Y-4245460D01*
X3755550Y-4242750D01*
X3764020Y-4241390D01*
X3772480D01*
X3780950Y-4242750D01*
X3788360Y-4245460D01*
X3794710Y-4249520D01*
X3798940Y-4254260D01*
X3800000Y-4259680D01*
G01X3783070Y-4254260D02*
X3800000Y-4246130D01*
G01X3747080Y-4216670D02*
X3740730Y-4212610D01*
X3737560Y-4207860D01*
X3736500Y-4202450D01*
X3738620Y-4195670D01*
X3743910Y-4190930D01*
X3750260Y-4189580D01*
X3756610Y-4190250D01*
X3761900Y-4192960D01*
X3772480Y-4206510D01*
X3779890Y-4212610D01*
X3790480Y-4216670D01*
X3800000Y-4218020D01*
Y-4189580D01*
G01X3903230Y-1083500D02*
Y-1020000D01*
X3876130D01*
G01X3846670Y-1072920D02*
X3842610Y-1079270D01*
X3837860Y-1082440D01*
X3832450Y-1083500D01*
X3825670Y-1081380D01*
X3820930Y-1076090D01*
X3819580Y-1069740D01*
X3820250Y-1063390D01*
X3822960Y-1058100D01*
X3836510Y-1047520D01*
X3842610Y-1040110D01*
X3846670Y-1029520D01*
X3848020Y-1020000D01*
X3819580D01*
G01X3993230Y1536500D02*
Y1600000D01*
X3966130D01*
G01X3938700Y1590480D02*
X3934640Y1595770D01*
X3929900Y1598940D01*
X3923800Y1600000D01*
X3917700Y1597880D01*
X3912960Y1593650D01*
X3909580Y1586240D01*
X3908900Y1577780D01*
X3910250Y1569310D01*
X3913640Y1564020D01*
X3918380Y1559780D01*
X3923120Y1558730D01*
X3927860Y1559780D01*
X3933960Y1564020D01*
X3931930Y1536500D01*
X3913640D01*
G01X4218210Y-4915220D02*
X4221380Y-4911160D01*
X4223500Y-4906420D01*
Y-4901000D01*
X4220320Y-4894900D01*
X4215030Y-4890160D01*
X4208680Y-4886770D01*
X4198100Y-4884060D01*
X4188570Y-4883390D01*
X4179050Y-4884740D01*
X4172700Y-4886770D01*
X4166350Y-4890840D01*
X4162120Y-4895580D01*
X4160000Y-4900320D01*
Y-4905060D01*
X4162120Y-4909800D01*
X4165290Y-4913870D01*
X4169520Y-4917250D01*
G01X4172700Y-4941300D02*
X4165290Y-4945360D01*
X4161060Y-4950780D01*
X4160000Y-4956880D01*
X4161060Y-4962300D01*
X4166350Y-4967720D01*
X4172700Y-4971100D01*
X4179050Y-4971780D01*
X4186460Y-4970420D01*
X4191750Y-4965680D01*
X4193870Y-4960940D01*
Y-4954850D01*
G01Y-4960940D02*
X4197040Y-4965010D01*
X4202330Y-4968390D01*
X4208680Y-4969750D01*
X4215030Y-4968390D01*
X4220320Y-4965010D01*
X4223500Y-4958910D01*
X4222440Y-4952810D01*
X4218210Y-4946720D01*
G01X4166770Y-4710000D02*
Y-4646500D01*
X4183710D01*
X4189130Y-4649680D01*
X4192510Y-4653910D01*
X4193870Y-4662380D01*
X4192510Y-4670840D01*
X4188450Y-4676130D01*
X4183710Y-4679310D01*
X4166770D01*
G01X4183710D02*
X4193870Y-4710000D01*
G01X4236200D02*
Y-4646500D01*
X4228070Y-4659200D01*
G01Y-4710000D02*
X4244330D01*
G01X4293230Y-4280000D02*
Y-4343500D01*
X4276290D01*
X4270870Y-4340320D01*
X4267490Y-4336090D01*
X4266130Y-4327620D01*
X4267490Y-4319160D01*
X4271550Y-4313870D01*
X4276290Y-4310690D01*
X4293230D01*
G01X4276290D02*
X4266130Y-4280000D01*
G01X4238700Y-4292700D02*
X4234640Y-4285290D01*
X4229220Y-4281060D01*
X4223120Y-4280000D01*
X4217700Y-4281060D01*
X4212280Y-4286350D01*
X4208900Y-4292700D01*
X4208220Y-4299050D01*
X4209580Y-4306460D01*
X4214320Y-4311750D01*
X4219060Y-4313870D01*
X4225150D01*
G01X4219060D02*
X4214990Y-4317040D01*
X4211610Y-4322330D01*
X4210250Y-4328680D01*
X4211610Y-4335030D01*
X4214990Y-4340320D01*
X4221090Y-4343500D01*
X4227190Y-4342440D01*
X4233280Y-4338210D01*
G01X4246770Y-4020000D02*
Y-3956500D01*
X4263710D01*
X4269130Y-3959680D01*
X4272510Y-3963910D01*
X4273870Y-3972380D01*
X4272510Y-3980840D01*
X4268450Y-3986130D01*
X4263710Y-3989310D01*
X4246770D01*
G01X4263710D02*
X4273870Y-4020000D01*
G01X4324330D02*
Y-3956500D01*
X4299270Y-4002010D01*
X4333130D01*
G01X4154960Y-2767590D02*
Y-2704090D01*
X4127860D01*
G01X4100430Y-2716790D02*
X4096370Y-2709380D01*
X4090950Y-2705150D01*
X4084850Y-2704090D01*
X4079430Y-2705150D01*
X4074010Y-2710440D01*
X4070630Y-2716790D01*
X4069950Y-2723140D01*
X4071310Y-2730550D01*
X4076050Y-2735840D01*
X4080790Y-2737960D01*
X4086880D01*
G01X4080790D02*
X4076720Y-2741130D01*
X4073340Y-2746420D01*
X4071980Y-2752770D01*
X4073340Y-2759120D01*
X4076720Y-2764410D01*
X4082820Y-2767590D01*
X4088920Y-2766530D01*
X4095010Y-2762300D01*
G01X4173230Y236500D02*
Y300000D01*
X4146130D01*
G01X4095670D02*
Y236500D01*
X4120730Y282010D01*
X4086870D01*
G01X4604580Y-5473500D02*
Y-5427990D01*
X4601870Y-5418460D01*
X4596450Y-5412120D01*
X4589680Y-5410000D01*
X4582910Y-5412120D01*
X4577490Y-5418460D01*
X4574780Y-5427990D01*
Y-5473500D01*
G01X4546670Y-5462920D02*
X4542610Y-5469270D01*
X4537860Y-5472440D01*
X4532450Y-5473500D01*
X4525670Y-5471380D01*
X4520930Y-5466090D01*
X4519580Y-5459740D01*
X4520250Y-5453390D01*
X4522960Y-5448100D01*
X4536510Y-5437520D01*
X4542610Y-5430110D01*
X4546670Y-5419520D01*
X4548020Y-5410000D01*
X4519580D01*
G01X4646770Y-4327300D02*
X4650160Y-4333650D01*
X4654220Y-4337880D01*
X4658970Y-4340000D01*
X4664380Y-4337880D01*
X4668450Y-4333650D01*
X4672510Y-4327300D01*
X4673870Y-4318830D01*
Y-4276500D01*
G01X4716200Y-4340000D02*
Y-4276500D01*
X4708070Y-4289200D01*
G01Y-4340000D02*
X4724330D01*
G01X4772080D02*
Y-4276500D01*
X4763950Y-4289200D01*
G01Y-4340000D02*
X4780210D01*
G01X4581600Y-4598150D02*
X4819600D01*
Y-4430150D01*
X4581600D01*
Y-4598150D01*
G01X4551790Y-3444780D02*
X4548620Y-3448840D01*
X4546500Y-3453580D01*
Y-3459000D01*
X4549680Y-3465100D01*
X4554970Y-3469840D01*
X4561320Y-3473230D01*
X4571900Y-3475940D01*
X4581430Y-3476610D01*
X4590950Y-3475260D01*
X4597300Y-3473230D01*
X4603650Y-3469160D01*
X4607880Y-3464420D01*
X4610000Y-3459680D01*
Y-3454940D01*
X4607880Y-3450200D01*
X4604710Y-3446130D01*
X4600480Y-3442750D01*
G01X4597300Y-3418700D02*
X4604710Y-3414640D01*
X4608940Y-3409220D01*
X4610000Y-3403120D01*
X4608940Y-3397700D01*
X4603650Y-3392280D01*
X4597300Y-3388900D01*
X4590950Y-3388220D01*
X4583540Y-3389580D01*
X4578250Y-3394320D01*
X4576130Y-3399060D01*
Y-3405150D01*
G01Y-3399060D02*
X4572960Y-3394990D01*
X4567670Y-3391610D01*
X4561320Y-3390250D01*
X4554970Y-3391610D01*
X4549680Y-3394990D01*
X4546500Y-3401090D01*
X4547560Y-3407190D01*
X4551790Y-3413280D01*
G01X4583540Y-3360790D02*
X4576130Y-3356050D01*
X4571900Y-3351980D01*
X4569780Y-3346570D01*
X4571900Y-3341820D01*
X4576130Y-3338440D01*
X4582480Y-3335730D01*
X4589890Y-3335050D01*
X4596240Y-3335730D01*
X4602590Y-3338440D01*
X4607880Y-3342500D01*
X4610000Y-3347240D01*
X4607880Y-3352660D01*
X4601540Y-3357400D01*
X4592010Y-3360110D01*
X4581430Y-3360790D01*
X4567670Y-3359440D01*
X4560260Y-3357400D01*
X4552850Y-3354020D01*
X4547560Y-3349270D01*
X4546500Y-3344530D01*
X4548620Y-3339790D01*
X4553910Y-3336400D01*
G01X4850000Y-3813230D02*
X4786500D01*
Y-3796290D01*
X4789680Y-3790870D01*
X4793910Y-3787490D01*
X4802380Y-3786130D01*
X4810840Y-3787490D01*
X4816130Y-3791550D01*
X4819310Y-3796290D01*
Y-3813230D01*
G01Y-3796290D02*
X4850000Y-3786130D01*
G01X4837300Y-3758700D02*
X4844710Y-3754640D01*
X4848940Y-3749220D01*
X4850000Y-3743120D01*
X4848940Y-3737700D01*
X4843650Y-3732280D01*
X4837300Y-3728900D01*
X4830950Y-3728220D01*
X4823540Y-3729580D01*
X4818250Y-3734320D01*
X4816130Y-3739060D01*
Y-3745150D01*
G01Y-3739060D02*
X4812960Y-3734990D01*
X4807670Y-3731610D01*
X4801320Y-3730250D01*
X4794970Y-3731610D01*
X4789680Y-3734990D01*
X4786500Y-3741090D01*
X4787560Y-3747190D01*
X4791790Y-3753280D01*
G01X4850000Y-3679790D02*
X4786500D01*
X4832010Y-3704850D01*
Y-3670990D01*
G01X4563230Y-3843500D02*
Y-3780000D01*
X4536130D01*
G01X4506670Y-3806460D02*
X4501930Y-3813870D01*
X4497860Y-3818100D01*
X4492450Y-3820220D01*
X4487700Y-3818100D01*
X4484320Y-3813870D01*
X4481610Y-3807520D01*
X4480930Y-3800110D01*
X4481610Y-3793760D01*
X4484320Y-3787410D01*
X4488380Y-3782120D01*
X4493120Y-3780000D01*
X4498540Y-3782120D01*
X4503280Y-3788460D01*
X4505990Y-3797990D01*
X4506670Y-3808570D01*
X4505320Y-3822330D01*
X4503280Y-3829740D01*
X4499900Y-3837150D01*
X4495150Y-3842440D01*
X4490410Y-3843500D01*
X4485670Y-3841380D01*
X4482280Y-3836090D01*
G01X4561790Y-3184780D02*
X4558620Y-3188840D01*
X4556500Y-3193580D01*
Y-3199000D01*
X4559680Y-3205100D01*
X4564970Y-3209840D01*
X4571320Y-3213230D01*
X4581900Y-3215940D01*
X4591430Y-3216610D01*
X4600950Y-3215260D01*
X4607300Y-3213230D01*
X4613650Y-3209160D01*
X4617880Y-3204420D01*
X4620000Y-3199680D01*
Y-3194940D01*
X4617880Y-3190200D01*
X4614710Y-3186130D01*
X4610480Y-3182750D01*
G01X4620000Y-3135670D02*
X4556500D01*
X4602010Y-3160730D01*
Y-3126870D01*
G01X4610480Y-3102820D02*
X4615770Y-3098760D01*
X4618940Y-3094020D01*
X4620000Y-3087920D01*
X4617880Y-3081820D01*
X4613650Y-3077080D01*
X4606240Y-3073700D01*
X4597780Y-3073020D01*
X4589310Y-3074370D01*
X4584020Y-3077760D01*
X4579780Y-3082500D01*
X4578730Y-3087240D01*
X4579780Y-3091980D01*
X4584020Y-3098080D01*
X4556500Y-3096050D01*
Y-3077760D01*
G01X4531790Y-2104780D02*
X4528620Y-2108840D01*
X4526500Y-2113580D01*
Y-2119000D01*
X4529680Y-2125100D01*
X4534970Y-2129840D01*
X4541320Y-2133230D01*
X4551900Y-2135940D01*
X4561430Y-2136610D01*
X4570950Y-2135260D01*
X4577300Y-2133230D01*
X4583650Y-2129160D01*
X4587880Y-2124420D01*
X4590000Y-2119680D01*
Y-2114940D01*
X4587880Y-2110200D01*
X4584710Y-2106130D01*
X4580480Y-2102750D01*
G01X4537080Y-2076670D02*
X4530730Y-2072610D01*
X4527560Y-2067860D01*
X4526500Y-2062450D01*
X4528620Y-2055670D01*
X4533910Y-2050930D01*
X4540260Y-2049580D01*
X4546610Y-2050250D01*
X4551900Y-2052960D01*
X4562480Y-2066510D01*
X4569890Y-2072610D01*
X4580480Y-2076670D01*
X4590000Y-2078020D01*
Y-2049580D01*
G01X4537080Y-2020790D02*
X4530730Y-2016730D01*
X4527560Y-2011980D01*
X4526500Y-2006570D01*
X4528620Y-1999790D01*
X4533910Y-1995050D01*
X4540260Y-1993700D01*
X4546610Y-1994370D01*
X4551900Y-1997080D01*
X4562480Y-2010630D01*
X4569890Y-2016730D01*
X4580480Y-2020790D01*
X4590000Y-2022140D01*
Y-1993700D01*
G01X4531790Y-1874780D02*
X4528620Y-1878840D01*
X4526500Y-1883580D01*
Y-1889000D01*
X4529680Y-1895100D01*
X4534970Y-1899840D01*
X4541320Y-1903230D01*
X4551900Y-1905940D01*
X4561430Y-1906610D01*
X4570950Y-1905260D01*
X4577300Y-1903230D01*
X4583650Y-1899160D01*
X4587880Y-1894420D01*
X4590000Y-1889680D01*
Y-1884940D01*
X4587880Y-1880200D01*
X4584710Y-1876130D01*
X4580480Y-1872750D01*
G01X4577300Y-1848700D02*
X4584710Y-1844640D01*
X4588940Y-1839220D01*
X4590000Y-1833120D01*
X4588940Y-1827700D01*
X4583650Y-1822280D01*
X4577300Y-1818900D01*
X4570950Y-1818220D01*
X4563540Y-1819580D01*
X4558250Y-1824320D01*
X4556130Y-1829060D01*
Y-1835150D01*
G01Y-1829060D02*
X4552960Y-1824990D01*
X4547670Y-1821610D01*
X4541320Y-1820250D01*
X4534970Y-1821610D01*
X4529680Y-1824990D01*
X4526500Y-1831090D01*
X4527560Y-1837190D01*
X4531790Y-1843280D01*
G01X4537080Y-1790790D02*
X4530730Y-1786730D01*
X4527560Y-1781980D01*
X4526500Y-1776570D01*
X4528620Y-1769790D01*
X4533910Y-1765050D01*
X4540260Y-1763700D01*
X4546610Y-1764370D01*
X4551900Y-1767080D01*
X4562480Y-1780630D01*
X4569890Y-1786730D01*
X4580480Y-1790790D01*
X4590000Y-1792140D01*
Y-1763700D01*
G01X4743230Y-1030000D02*
Y-1093500D01*
X4726290D01*
X4720870Y-1090320D01*
X4717490Y-1086090D01*
X4716130Y-1077620D01*
X4717490Y-1069160D01*
X4721550Y-1063870D01*
X4726290Y-1060690D01*
X4743230D01*
G01X4726290D02*
X4716130Y-1030000D01*
G01X4673800D02*
Y-1093500D01*
X4681930Y-1080800D01*
G01Y-1030000D02*
X4665670D01*
G01X4632820Y-1039520D02*
X4628760Y-1034230D01*
X4624020Y-1031060D01*
X4617920Y-1030000D01*
X4611820Y-1032120D01*
X4607080Y-1036350D01*
X4603700Y-1043760D01*
X4603020Y-1052220D01*
X4604370Y-1060690D01*
X4607760Y-1065980D01*
X4612500Y-1070220D01*
X4617240Y-1071270D01*
X4621980Y-1070220D01*
X4628080Y-1065980D01*
X4626050Y-1093500D01*
X4607760D01*
G01X4491790Y805220D02*
X4488620Y801160D01*
X4486500Y796420D01*
Y791000D01*
X4489680Y784900D01*
X4494970Y780160D01*
X4501320Y776770D01*
X4511900Y774060D01*
X4521430Y773390D01*
X4530950Y774740D01*
X4537300Y776770D01*
X4543650Y780840D01*
X4547880Y785580D01*
X4550000Y790320D01*
Y795060D01*
X4547880Y799800D01*
X4544710Y803870D01*
X4540480Y807250D01*
G01X4497080Y833330D02*
X4490730Y837390D01*
X4487560Y842140D01*
X4486500Y847550D01*
X4488620Y854330D01*
X4493910Y859070D01*
X4500260Y860420D01*
X4506610Y859750D01*
X4511900Y857040D01*
X4522480Y843490D01*
X4529890Y837390D01*
X4540480Y833330D01*
X4550000Y831980D01*
Y860420D01*
G01X4537300Y887180D02*
X4544710Y891240D01*
X4548940Y896660D01*
X4550000Y902760D01*
X4548940Y908180D01*
X4543650Y913600D01*
X4537300Y916980D01*
X4530950Y917660D01*
X4523540Y916300D01*
X4518250Y911560D01*
X4516130Y906820D01*
Y900730D01*
G01Y906820D02*
X4512960Y910890D01*
X4507670Y914270D01*
X4501320Y915630D01*
X4494970Y914270D01*
X4489680Y910890D01*
X4486500Y904790D01*
X4487560Y898690D01*
X4491790Y892600D01*
G01X4461790Y1055220D02*
X4458620Y1051160D01*
X4456500Y1046420D01*
Y1041000D01*
X4459680Y1034900D01*
X4464970Y1030160D01*
X4471320Y1026770D01*
X4481900Y1024060D01*
X4491430Y1023390D01*
X4500950Y1024740D01*
X4507300Y1026770D01*
X4513650Y1030840D01*
X4517880Y1035580D01*
X4520000Y1040320D01*
Y1045060D01*
X4517880Y1049800D01*
X4514710Y1053870D01*
X4510480Y1057250D01*
G01X4507300Y1081300D02*
X4514710Y1085360D01*
X4518940Y1090780D01*
X4520000Y1096880D01*
X4518940Y1102300D01*
X4513650Y1107720D01*
X4507300Y1111100D01*
X4500950Y1111780D01*
X4493540Y1110420D01*
X4488250Y1105680D01*
X4486130Y1100940D01*
Y1094850D01*
G01Y1100940D02*
X4482960Y1105010D01*
X4477670Y1108390D01*
X4471320Y1109750D01*
X4464970Y1108390D01*
X4459680Y1105010D01*
X4456500Y1098910D01*
X4457560Y1092810D01*
X4461790Y1086720D01*
G01X4510480Y1137180D02*
X4515770Y1141240D01*
X4518940Y1145980D01*
X4520000Y1152080D01*
X4517880Y1158180D01*
X4513650Y1162920D01*
X4506240Y1166300D01*
X4497780Y1166980D01*
X4489310Y1165630D01*
X4484020Y1162240D01*
X4479780Y1157500D01*
X4478730Y1152760D01*
X4479780Y1148020D01*
X4484020Y1141920D01*
X4456500Y1143950D01*
Y1162240D01*
G01X4868210Y1604780D02*
X4871380Y1608840D01*
X4873500Y1613580D01*
Y1619000D01*
X4870320Y1625100D01*
X4865030Y1629840D01*
X4858680Y1633230D01*
X4848100Y1635940D01*
X4838570Y1636610D01*
X4829050Y1635260D01*
X4822700Y1633230D01*
X4816350Y1629160D01*
X4812120Y1624420D01*
X4810000Y1619680D01*
Y1614940D01*
X4812120Y1610200D01*
X4815290Y1606130D01*
X4819520Y1602750D01*
G01X4822700Y1578700D02*
X4815290Y1574640D01*
X4811060Y1569220D01*
X4810000Y1563120D01*
X4811060Y1557700D01*
X4816350Y1552280D01*
X4822700Y1548900D01*
X4829050Y1548220D01*
X4836460Y1549580D01*
X4841750Y1554320D01*
X4843870Y1559060D01*
Y1565150D01*
G01Y1559060D02*
X4847040Y1554990D01*
X4852330Y1551610D01*
X4858680Y1550250D01*
X4865030Y1551610D01*
X4870320Y1554990D01*
X4873500Y1561090D01*
X4872440Y1567190D01*
X4868210Y1573280D01*
G01X4810000Y1499790D02*
X4873500D01*
X4827990Y1524850D01*
Y1490990D01*
G01X4723230Y1730000D02*
Y1666500D01*
X4706290D01*
X4700870Y1669680D01*
X4697490Y1673910D01*
X4696130Y1682380D01*
X4697490Y1690840D01*
X4701550Y1696130D01*
X4706290Y1699310D01*
X4723230D01*
G01X4706290D02*
X4696130Y1730000D01*
G01X4668700Y1717300D02*
X4664640Y1724710D01*
X4659220Y1728940D01*
X4653120Y1730000D01*
X4647700Y1728940D01*
X4642280Y1723650D01*
X4638900Y1717300D01*
X4638220Y1710950D01*
X4639580Y1703540D01*
X4644320Y1698250D01*
X4649060Y1696130D01*
X4655150D01*
G01X4649060D02*
X4644990Y1692960D01*
X4641610Y1687670D01*
X4640250Y1681320D01*
X4641610Y1674970D01*
X4644990Y1669680D01*
X4651090Y1666500D01*
X4657190Y1667560D01*
X4663280Y1671790D01*
G01X4597920Y1730000D02*
X4593180Y1728940D01*
X4587760Y1725770D01*
X4584370Y1720480D01*
X4583020Y1713070D01*
X4584370Y1705660D01*
X4588440Y1699310D01*
X4594530Y1696130D01*
X4601310D01*
X4605370Y1694020D01*
X4608760Y1688730D01*
X4610110Y1681320D01*
X4608080Y1673910D01*
X4603340Y1668620D01*
X4597920Y1666500D01*
X4592500Y1668620D01*
X4587760Y1673910D01*
X4585730Y1681320D01*
X4587080Y1688730D01*
X4590470Y1694020D01*
X4594530Y1696130D01*
X4601310D01*
X4607400Y1699310D01*
X4611470Y1705660D01*
X4612820Y1713070D01*
X4611470Y1720480D01*
X4608080Y1725770D01*
X4602660Y1728940D01*
X4597920Y1730000D01*
G01X5245420Y-3516500D02*
Y-3562010D01*
X5248130Y-3571540D01*
X5253550Y-3577880D01*
X5260320Y-3580000D01*
X5267090Y-3577880D01*
X5272510Y-3571540D01*
X5275220Y-3562010D01*
Y-3516500D01*
G01X5316200Y-3580000D02*
X5320940Y-3578940D01*
X5326360Y-3575770D01*
X5329750Y-3570480D01*
X5331100Y-3563070D01*
X5329750Y-3555660D01*
X5325680Y-3549310D01*
X5319590Y-3546130D01*
X5312810D01*
X5308750Y-3544020D01*
X5305360Y-3538730D01*
X5304010Y-3531320D01*
X5306040Y-3523910D01*
X5310780Y-3518620D01*
X5316200Y-3516500D01*
X5321620Y-3518620D01*
X5326360Y-3523910D01*
X5328390Y-3531320D01*
X5327040Y-3538730D01*
X5323650Y-3544020D01*
X5319590Y-3546130D01*
X5312810D01*
X5306720Y-3549310D01*
X5302650Y-3555660D01*
X5301300Y-3563070D01*
X5302650Y-3570480D01*
X5306040Y-3575770D01*
X5311460Y-3578940D01*
X5316200Y-3580000D01*
G01X4908210Y-2685220D02*
X4911380Y-2681160D01*
X4913500Y-2676420D01*
Y-2671000D01*
X4910320Y-2664900D01*
X4905030Y-2660160D01*
X4898680Y-2656770D01*
X4888100Y-2654060D01*
X4878570Y-2653390D01*
X4869050Y-2654740D01*
X4862700Y-2656770D01*
X4856350Y-2660840D01*
X4852120Y-2665580D01*
X4850000Y-2670320D01*
Y-2675060D01*
X4852120Y-2679800D01*
X4855290Y-2683870D01*
X4859520Y-2687250D01*
G01X4850000Y-2734330D02*
X4913500D01*
X4867990Y-2709270D01*
Y-2743130D01*
G01X4876460Y-2769210D02*
X4883870Y-2773950D01*
X4888100Y-2778020D01*
X4890220Y-2783430D01*
X4888100Y-2788180D01*
X4883870Y-2791560D01*
X4877520Y-2794270D01*
X4870110Y-2794950D01*
X4863760Y-2794270D01*
X4857410Y-2791560D01*
X4852120Y-2787500D01*
X4850000Y-2782760D01*
X4852120Y-2777340D01*
X4858460Y-2772600D01*
X4867990Y-2769890D01*
X4878570Y-2769210D01*
X4892330Y-2770560D01*
X4899740Y-2772600D01*
X4907150Y-2775980D01*
X4912440Y-2780730D01*
X4913500Y-2785470D01*
X4911380Y-2790210D01*
X4906090Y-2793600D01*
G01X5020000Y-2783230D02*
X4956500D01*
Y-2766290D01*
X4959680Y-2760870D01*
X4963910Y-2757490D01*
X4972380Y-2756130D01*
X4980840Y-2757490D01*
X4986130Y-2761550D01*
X4989310Y-2766290D01*
Y-2783230D01*
G01Y-2766290D02*
X5020000Y-2756130D01*
G01Y-2705670D02*
X4956500D01*
X5002010Y-2730730D01*
Y-2696870D01*
G01X5020000Y-2657920D02*
X4956500D01*
X4969200Y-2666050D01*
G01X5020000D02*
Y-2649790D01*
G01X5220000Y-2646770D02*
X5283500D01*
Y-2663710D01*
X5280320Y-2669130D01*
X5276090Y-2672510D01*
X5267620Y-2673870D01*
X5259160Y-2672510D01*
X5253870Y-2668450D01*
X5250690Y-2663710D01*
Y-2646770D01*
G01Y-2663710D02*
X5220000Y-2673870D01*
G01X5232700Y-2701300D02*
X5225290Y-2705360D01*
X5221060Y-2710780D01*
X5220000Y-2716880D01*
X5221060Y-2722300D01*
X5226350Y-2727720D01*
X5232700Y-2731100D01*
X5239050Y-2731780D01*
X5246460Y-2730420D01*
X5251750Y-2725680D01*
X5253870Y-2720940D01*
Y-2714850D01*
G01Y-2720940D02*
X5257040Y-2725010D01*
X5262330Y-2728390D01*
X5268680Y-2729750D01*
X5275030Y-2728390D01*
X5280320Y-2725010D01*
X5283500Y-2718910D01*
X5282440Y-2712810D01*
X5278210Y-2706720D01*
G01X5246460Y-2759210D02*
X5253870Y-2763950D01*
X5258100Y-2768020D01*
X5260220Y-2773430D01*
X5258100Y-2778180D01*
X5253870Y-2781560D01*
X5247520Y-2784270D01*
X5240110Y-2784950D01*
X5233760Y-2784270D01*
X5227410Y-2781560D01*
X5222120Y-2777500D01*
X5220000Y-2772760D01*
X5222120Y-2767340D01*
X5228460Y-2762600D01*
X5237990Y-2759890D01*
X5248570Y-2759210D01*
X5262330Y-2760560D01*
X5269740Y-2762600D01*
X5277150Y-2765980D01*
X5282440Y-2770730D01*
X5283500Y-2775470D01*
X5281380Y-2780210D01*
X5276090Y-2783600D01*
G01X5180000Y-2793230D02*
X5116500D01*
Y-2776290D01*
X5119680Y-2770870D01*
X5123910Y-2767490D01*
X5132380Y-2766130D01*
X5140840Y-2767490D01*
X5146130Y-2771550D01*
X5149310Y-2776290D01*
Y-2793230D01*
G01Y-2776290D02*
X5180000Y-2766130D01*
G01Y-2715670D02*
X5116500D01*
X5162010Y-2740730D01*
Y-2706870D01*
G01X5116500Y-2667920D02*
X5118620Y-2673340D01*
X5123910Y-2677400D01*
X5130260Y-2680110D01*
X5138730Y-2682140D01*
X5148250Y-2682820D01*
X5157780Y-2682140D01*
X5166240Y-2680110D01*
X5172590Y-2677400D01*
X5177880Y-2673340D01*
X5180000Y-2667920D01*
X5177880Y-2662500D01*
X5172590Y-2658440D01*
X5166240Y-2655730D01*
X5157780Y-2653700D01*
X5148250Y-2653020D01*
X5138730Y-2653700D01*
X5130260Y-2655730D01*
X5123910Y-2658440D01*
X5118620Y-2662500D01*
X5116500Y-2667920D01*
G01X4890000Y-2433230D02*
X4826500D01*
Y-2416290D01*
X4829680Y-2410870D01*
X4833910Y-2407490D01*
X4842380Y-2406130D01*
X4850840Y-2407490D01*
X4856130Y-2411550D01*
X4859310Y-2416290D01*
Y-2433230D01*
G01Y-2416290D02*
X4890000Y-2406130D01*
G01X4837080Y-2376670D02*
X4830730Y-2372610D01*
X4827560Y-2367860D01*
X4826500Y-2362450D01*
X4828620Y-2355670D01*
X4833910Y-2350930D01*
X4840260Y-2349580D01*
X4846610Y-2350250D01*
X4851900Y-2352960D01*
X4862480Y-2366510D01*
X4869890Y-2372610D01*
X4880480Y-2376670D01*
X4890000Y-2378020D01*
Y-2349580D01*
G01X4826500Y-2307920D02*
X4828620Y-2313340D01*
X4833910Y-2317400D01*
X4840260Y-2320110D01*
X4848730Y-2322140D01*
X4858250Y-2322820D01*
X4867780Y-2322140D01*
X4876240Y-2320110D01*
X4882590Y-2317400D01*
X4887880Y-2313340D01*
X4890000Y-2307920D01*
X4887880Y-2302500D01*
X4882590Y-2298440D01*
X4876240Y-2295730D01*
X4867780Y-2293700D01*
X4858250Y-2293020D01*
X4848730Y-2293700D01*
X4840260Y-2295730D01*
X4833910Y-2298440D01*
X4828620Y-2302500D01*
X4826500Y-2307920D01*
G01X5235420Y-2176500D02*
Y-2222010D01*
X5238130Y-2231540D01*
X5243550Y-2237880D01*
X5250320Y-2240000D01*
X5257090Y-2237880D01*
X5262510Y-2231540D01*
X5265220Y-2222010D01*
Y-2176500D01*
G01X5291300Y-2230480D02*
X5295360Y-2235770D01*
X5300100Y-2238940D01*
X5306200Y-2240000D01*
X5312300Y-2237880D01*
X5317040Y-2233650D01*
X5320420Y-2226240D01*
X5321100Y-2217780D01*
X5319750Y-2209310D01*
X5316360Y-2204020D01*
X5311620Y-2199780D01*
X5306880Y-2198730D01*
X5302140Y-2199780D01*
X5296040Y-2204020D01*
X5298070Y-2176500D01*
X5316360D01*
G01X4898210Y-1295220D02*
X4901380Y-1291160D01*
X4903500Y-1286420D01*
Y-1281000D01*
X4900320Y-1274900D01*
X4895030Y-1270160D01*
X4888680Y-1266770D01*
X4878100Y-1264060D01*
X4868570Y-1263390D01*
X4859050Y-1264740D01*
X4852700Y-1266770D01*
X4846350Y-1270840D01*
X4842120Y-1275580D01*
X4840000Y-1280320D01*
Y-1285060D01*
X4842120Y-1289800D01*
X4845290Y-1293870D01*
X4849520Y-1297250D01*
G01X4852700Y-1321300D02*
X4845290Y-1325360D01*
X4841060Y-1330780D01*
X4840000Y-1336880D01*
X4841060Y-1342300D01*
X4846350Y-1347720D01*
X4852700Y-1351100D01*
X4859050Y-1351780D01*
X4866460Y-1350420D01*
X4871750Y-1345680D01*
X4873870Y-1340940D01*
Y-1334850D01*
G01Y-1340940D02*
X4877040Y-1345010D01*
X4882330Y-1348390D01*
X4888680Y-1349750D01*
X4895030Y-1348390D01*
X4900320Y-1345010D01*
X4903500Y-1338910D01*
X4902440Y-1332810D01*
X4898210Y-1326720D01*
G01X4852700Y-1377180D02*
X4845290Y-1381240D01*
X4841060Y-1386660D01*
X4840000Y-1392760D01*
X4841060Y-1398180D01*
X4846350Y-1403600D01*
X4852700Y-1406980D01*
X4859050Y-1407660D01*
X4866460Y-1406300D01*
X4871750Y-1401560D01*
X4873870Y-1396820D01*
Y-1390730D01*
G01Y-1396820D02*
X4877040Y-1400890D01*
X4882330Y-1404270D01*
X4888680Y-1405630D01*
X4895030Y-1404270D01*
X4900320Y-1400890D01*
X4903500Y-1394790D01*
X4902440Y-1388690D01*
X4898210Y-1382600D01*
G01X5220000Y-1266770D02*
X5283500D01*
Y-1283710D01*
X5280320Y-1289130D01*
X5276090Y-1292510D01*
X5267620Y-1293870D01*
X5259160Y-1292510D01*
X5253870Y-1288450D01*
X5250690Y-1283710D01*
Y-1266770D01*
G01Y-1283710D02*
X5220000Y-1293870D01*
G01X5272920Y-1323330D02*
X5279270Y-1327390D01*
X5282440Y-1332140D01*
X5283500Y-1337550D01*
X5281380Y-1344330D01*
X5276090Y-1349070D01*
X5269740Y-1350420D01*
X5263390Y-1349750D01*
X5258100Y-1347040D01*
X5247520Y-1333490D01*
X5240110Y-1327390D01*
X5229520Y-1323330D01*
X5220000Y-1321980D01*
Y-1350420D01*
G01Y-1400210D02*
X5283500D01*
X5237990Y-1375150D01*
Y-1409010D01*
G01X5160000Y-1403230D02*
X5096500D01*
Y-1386290D01*
X5099680Y-1380870D01*
X5103910Y-1377490D01*
X5112380Y-1376130D01*
X5120840Y-1377490D01*
X5126130Y-1381550D01*
X5129310Y-1386290D01*
Y-1403230D01*
G01Y-1386290D02*
X5160000Y-1376130D01*
G01X5107080Y-1346670D02*
X5100730Y-1342610D01*
X5097560Y-1337860D01*
X5096500Y-1332450D01*
X5098620Y-1325670D01*
X5103910Y-1320930D01*
X5110260Y-1319580D01*
X5116610Y-1320250D01*
X5121900Y-1322960D01*
X5132480Y-1336510D01*
X5139890Y-1342610D01*
X5150480Y-1346670D01*
X5160000Y-1348020D01*
Y-1319580D01*
G01Y-1277920D02*
X5158940Y-1273180D01*
X5155770Y-1267760D01*
X5150480Y-1264370D01*
X5143070Y-1263020D01*
X5135660Y-1264370D01*
X5129310Y-1268440D01*
X5126130Y-1274530D01*
Y-1281310D01*
X5124020Y-1285370D01*
X5118730Y-1288760D01*
X5111320Y-1290110D01*
X5103910Y-1288080D01*
X5098620Y-1283340D01*
X5096500Y-1277920D01*
X5098620Y-1272500D01*
X5103910Y-1267760D01*
X5111320Y-1265730D01*
X5118730Y-1267080D01*
X5124020Y-1270470D01*
X5126130Y-1274530D01*
Y-1281310D01*
X5129310Y-1287400D01*
X5135660Y-1291470D01*
X5143070Y-1292820D01*
X5150480Y-1291470D01*
X5155770Y-1288080D01*
X5158940Y-1282660D01*
X5160000Y-1277920D01*
G01X5000000Y-1403230D02*
X4936500D01*
Y-1386290D01*
X4939680Y-1380870D01*
X4943910Y-1377490D01*
X4952380Y-1376130D01*
X4960840Y-1377490D01*
X4966130Y-1381550D01*
X4969310Y-1386290D01*
Y-1403230D01*
G01Y-1386290D02*
X5000000Y-1376130D01*
G01X4987300Y-1348700D02*
X4994710Y-1344640D01*
X4998940Y-1339220D01*
X5000000Y-1333120D01*
X4998940Y-1327700D01*
X4993650Y-1322280D01*
X4987300Y-1318900D01*
X4980950Y-1318220D01*
X4973540Y-1319580D01*
X4968250Y-1324320D01*
X4966130Y-1329060D01*
Y-1335150D01*
G01Y-1329060D02*
X4962960Y-1324990D01*
X4957670Y-1321610D01*
X4951320Y-1320250D01*
X4944970Y-1321610D01*
X4939680Y-1324990D01*
X4936500Y-1331090D01*
X4937560Y-1337190D01*
X4941790Y-1343280D01*
G01X5000000Y-1277920D02*
X4936500D01*
X4949200Y-1286050D01*
G01X5000000D02*
Y-1269790D01*
G01X5083230Y-1030000D02*
Y-1093500D01*
X5066290D01*
X5060870Y-1090320D01*
X5057490Y-1086090D01*
X5056130Y-1077620D01*
X5057490Y-1069160D01*
X5061550Y-1063870D01*
X5066290Y-1060690D01*
X5083230D01*
G01X5066290D02*
X5056130Y-1030000D01*
G01X5013800D02*
Y-1093500D01*
X5021930Y-1080800D01*
G01Y-1030000D02*
X5005670D01*
G01X4969440Y-1037410D02*
X4964690Y-1032120D01*
X4959270Y-1030000D01*
X4953860Y-1032120D01*
X4949110Y-1038460D01*
X4945730Y-1047990D01*
X4944370Y-1057520D01*
Y-1069160D01*
X4945730Y-1078680D01*
X4949110Y-1087150D01*
X4953180Y-1091380D01*
X4957920Y-1093500D01*
X4963340Y-1091380D01*
X4967400Y-1087150D01*
X4970110Y-1080800D01*
X4971470Y-1072330D01*
X4970110Y-1064930D01*
X4966730Y-1057520D01*
X4962660Y-1053280D01*
X4957920Y-1052220D01*
X4952500Y-1054340D01*
X4948440Y-1059630D01*
X4944370Y-1069160D01*
G01X5033500Y-645420D02*
X4987990D01*
X4978460Y-648130D01*
X4972120Y-653550D01*
X4970000Y-660320D01*
X4972120Y-667090D01*
X4978460Y-672510D01*
X4987990Y-675220D01*
X5033500D01*
G01X4970000Y-724330D02*
X5033500D01*
X4987990Y-699270D01*
Y-733130D01*
G01X4940000Y236770D02*
X4876500D01*
Y253710D01*
X4879680Y259130D01*
X4883910Y262510D01*
X4892380Y263870D01*
X4900840Y262510D01*
X4906130Y258450D01*
X4909310Y253710D01*
Y236770D01*
G01Y253710D02*
X4940000Y263870D01*
G01X4887080Y293330D02*
X4880730Y297390D01*
X4877560Y302140D01*
X4876500Y307550D01*
X4878620Y314330D01*
X4883910Y319070D01*
X4890260Y320420D01*
X4896610Y319750D01*
X4901900Y317040D01*
X4912480Y303490D01*
X4919890Y297390D01*
X4930480Y293330D01*
X4940000Y291980D01*
Y320420D01*
G01Y362080D02*
X4876500D01*
X4889200Y353950D01*
G01X4940000D02*
Y370210D01*
G01X5060000Y383230D02*
X5123500D01*
Y366290D01*
X5120320Y360870D01*
X5116090Y357490D01*
X5107620Y356130D01*
X5099160Y357490D01*
X5093870Y361550D01*
X5090690Y366290D01*
Y383230D01*
G01Y366290D02*
X5060000Y356130D01*
G01X5072700Y328700D02*
X5065290Y324640D01*
X5061060Y319220D01*
X5060000Y313120D01*
X5061060Y307700D01*
X5066350Y302280D01*
X5072700Y298900D01*
X5079050Y298220D01*
X5086460Y299580D01*
X5091750Y304320D01*
X5093870Y309060D01*
Y315150D01*
G01Y309060D02*
X5097040Y304990D01*
X5102330Y301610D01*
X5108680Y300250D01*
X5115030Y301610D01*
X5120320Y304990D01*
X5123500Y311090D01*
X5122440Y317190D01*
X5118210Y323280D01*
G01X5072700Y272820D02*
X5065290Y268760D01*
X5061060Y263340D01*
X5060000Y257240D01*
X5061060Y251820D01*
X5066350Y246400D01*
X5072700Y243020D01*
X5079050Y242340D01*
X5086460Y243700D01*
X5091750Y248440D01*
X5093870Y253180D01*
Y259270D01*
G01Y253180D02*
X5097040Y249110D01*
X5102330Y245730D01*
X5108680Y244370D01*
X5115030Y245730D01*
X5120320Y249110D01*
X5123500Y255210D01*
X5122440Y261310D01*
X5118210Y267400D01*
G01X5195420Y733500D02*
Y687990D01*
X5198130Y678460D01*
X5203550Y672120D01*
X5210320Y670000D01*
X5217090Y672120D01*
X5222510Y678460D01*
X5225220Y687990D01*
Y733500D01*
G01X5253330Y696460D02*
X5258070Y703870D01*
X5262140Y708100D01*
X5267550Y710220D01*
X5272300Y708100D01*
X5275680Y703870D01*
X5278390Y697520D01*
X5279070Y690110D01*
X5278390Y683760D01*
X5275680Y677410D01*
X5271620Y672120D01*
X5266880Y670000D01*
X5261460Y672120D01*
X5256720Y678460D01*
X5254010Y687990D01*
X5253330Y698570D01*
X5254680Y712330D01*
X5256720Y719740D01*
X5260100Y727150D01*
X5264850Y732440D01*
X5269590Y733500D01*
X5274330Y731380D01*
X5277720Y726090D01*
G01X5190000Y1653230D02*
X5253500D01*
Y1636290D01*
X5250320Y1630870D01*
X5246090Y1627490D01*
X5237620Y1626130D01*
X5229160Y1627490D01*
X5223870Y1631550D01*
X5220690Y1636290D01*
Y1653230D01*
G01Y1636290D02*
X5190000Y1626130D01*
G01X5242920Y1596670D02*
X5249270Y1592610D01*
X5252440Y1587860D01*
X5253500Y1582450D01*
X5251380Y1575670D01*
X5246090Y1570930D01*
X5239740Y1569580D01*
X5233390Y1570250D01*
X5228100Y1572960D01*
X5217520Y1586510D01*
X5210110Y1592610D01*
X5199520Y1596670D01*
X5190000Y1598020D01*
Y1569580D01*
G01X5199520Y1542820D02*
X5194230Y1538760D01*
X5191060Y1534020D01*
X5190000Y1527920D01*
X5192120Y1521820D01*
X5196350Y1517080D01*
X5203760Y1513700D01*
X5212220Y1513020D01*
X5220690Y1514370D01*
X5225980Y1517760D01*
X5230220Y1522500D01*
X5231270Y1527240D01*
X5230220Y1531980D01*
X5225980Y1538080D01*
X5253500Y1536050D01*
Y1517760D01*
G01X5130000Y1506770D02*
X5066500D01*
Y1523710D01*
X5069680Y1529130D01*
X5073910Y1532510D01*
X5082380Y1533870D01*
X5090840Y1532510D01*
X5096130Y1528450D01*
X5099310Y1523710D01*
Y1506770D01*
G01Y1523710D02*
X5130000Y1533870D01*
G01X5117300Y1561300D02*
X5124710Y1565360D01*
X5128940Y1570780D01*
X5130000Y1576880D01*
X5128940Y1582300D01*
X5123650Y1587720D01*
X5117300Y1591100D01*
X5110950Y1591780D01*
X5103540Y1590420D01*
X5098250Y1585680D01*
X5096130Y1580940D01*
Y1574850D01*
G01Y1580940D02*
X5092960Y1585010D01*
X5087670Y1588390D01*
X5081320Y1589750D01*
X5074970Y1588390D01*
X5069680Y1585010D01*
X5066500Y1578910D01*
X5067560Y1572810D01*
X5071790Y1566720D01*
G01X5066500Y1632080D02*
X5068620Y1626660D01*
X5073910Y1622600D01*
X5080260Y1619890D01*
X5088730Y1617860D01*
X5098250Y1617180D01*
X5107780Y1617860D01*
X5116240Y1619890D01*
X5122590Y1622600D01*
X5127880Y1626660D01*
X5130000Y1632080D01*
X5127880Y1637500D01*
X5122590Y1641560D01*
X5116240Y1644270D01*
X5107780Y1646300D01*
X5098250Y1646980D01*
X5088730Y1646300D01*
X5080260Y1644270D01*
X5073910Y1641560D01*
X5068620Y1637500D01*
X5066500Y1632080D01*
G01X4980000Y1496770D02*
X4916500D01*
Y1513710D01*
X4919680Y1519130D01*
X4923910Y1522510D01*
X4932380Y1523870D01*
X4940840Y1522510D01*
X4946130Y1518450D01*
X4949310Y1513710D01*
Y1496770D01*
G01Y1513710D02*
X4980000Y1523870D01*
G01X4927080Y1553330D02*
X4920730Y1557390D01*
X4917560Y1562140D01*
X4916500Y1567550D01*
X4918620Y1574330D01*
X4923910Y1579070D01*
X4930260Y1580420D01*
X4936610Y1579750D01*
X4941900Y1577040D01*
X4952480Y1563490D01*
X4959890Y1557390D01*
X4970480Y1553330D01*
X4980000Y1551980D01*
Y1580420D01*
G01X4972590Y1610560D02*
X4977880Y1615310D01*
X4980000Y1620730D01*
X4977880Y1626140D01*
X4971540Y1630890D01*
X4962010Y1634270D01*
X4952480Y1635630D01*
X4940840D01*
X4931320Y1634270D01*
X4922850Y1630890D01*
X4918620Y1626820D01*
X4916500Y1622080D01*
X4918620Y1616660D01*
X4922850Y1612600D01*
X4929200Y1609890D01*
X4937670Y1608530D01*
X4945070Y1609890D01*
X4952480Y1613270D01*
X4956720Y1617340D01*
X4957780Y1622080D01*
X4955660Y1627500D01*
X4950370Y1631560D01*
X4940840Y1635630D01*
G01X5073230Y1720000D02*
Y1656500D01*
X5056290D01*
X5050870Y1659680D01*
X5047490Y1663910D01*
X5046130Y1672380D01*
X5047490Y1680840D01*
X5051550Y1686130D01*
X5056290Y1689310D01*
X5073230D01*
G01X5056290D02*
X5046130Y1720000D01*
G01X4995670D02*
Y1656500D01*
X5020730Y1702010D01*
X4986870D01*
G01X4960790Y1667080D02*
X4956730Y1660730D01*
X4951980Y1657560D01*
X4946570Y1656500D01*
X4939790Y1658620D01*
X4935050Y1663910D01*
X4933700Y1670260D01*
X4934370Y1676610D01*
X4937080Y1681900D01*
X4950630Y1692480D01*
X4956730Y1699890D01*
X4960790Y1710480D01*
X4962140Y1720000D01*
X4933700D01*
G01X5318210Y2174780D02*
X5321380Y2178840D01*
X5323500Y2183580D01*
Y2189000D01*
X5320320Y2195100D01*
X5315030Y2199840D01*
X5308680Y2203230D01*
X5298100Y2205940D01*
X5288570Y2206610D01*
X5279050Y2205260D01*
X5272700Y2203230D01*
X5266350Y2199160D01*
X5262120Y2194420D01*
X5260000Y2189680D01*
Y2184940D01*
X5262120Y2180200D01*
X5265290Y2176130D01*
X5269520Y2172750D01*
G01X5260000Y2125670D02*
X5323500D01*
X5277990Y2150730D01*
Y2116870D01*
G01X5260000Y2069790D02*
X5323500D01*
X5277990Y2094850D01*
Y2060990D01*
G01X4953500Y2084580D02*
X4907990D01*
X4898460Y2081870D01*
X4892120Y2076450D01*
X4890000Y2069680D01*
X4892120Y2062910D01*
X4898460Y2057490D01*
X4907990Y2054780D01*
X4953500D01*
G01X4890000Y2015150D02*
X4903760Y2013800D01*
X4915400Y2011770D01*
X4925980Y2009060D01*
X4937620Y2005670D01*
X4953500Y2000250D01*
Y2027350D01*
G01X5638210Y-3335220D02*
X5641380Y-3331160D01*
X5643500Y-3326420D01*
Y-3321000D01*
X5640320Y-3314900D01*
X5635030Y-3310160D01*
X5628680Y-3306770D01*
X5618100Y-3304060D01*
X5608570Y-3303390D01*
X5599050Y-3304740D01*
X5592700Y-3306770D01*
X5586350Y-3310840D01*
X5582120Y-3315580D01*
X5580000Y-3320320D01*
Y-3325060D01*
X5582120Y-3329800D01*
X5585290Y-3333870D01*
X5589520Y-3337250D01*
G01X5592700Y-3361300D02*
X5585290Y-3365360D01*
X5581060Y-3370780D01*
X5580000Y-3376880D01*
X5581060Y-3382300D01*
X5586350Y-3387720D01*
X5592700Y-3391100D01*
X5599050Y-3391780D01*
X5606460Y-3390420D01*
X5611750Y-3385680D01*
X5613870Y-3380940D01*
Y-3374850D01*
G01Y-3380940D02*
X5617040Y-3385010D01*
X5622330Y-3388390D01*
X5628680Y-3389750D01*
X5635030Y-3388390D01*
X5640320Y-3385010D01*
X5643500Y-3378910D01*
X5642440Y-3372810D01*
X5638210Y-3366720D01*
G01X5587410Y-3420560D02*
X5582120Y-3425310D01*
X5580000Y-3430730D01*
X5582120Y-3436140D01*
X5588460Y-3440890D01*
X5597990Y-3444270D01*
X5607520Y-3445630D01*
X5619160D01*
X5628680Y-3444270D01*
X5637150Y-3440890D01*
X5641380Y-3436820D01*
X5643500Y-3432080D01*
X5641380Y-3426660D01*
X5637150Y-3422600D01*
X5630800Y-3419890D01*
X5622330Y-3418530D01*
X5614930Y-3419890D01*
X5607520Y-3423270D01*
X5603280Y-3427340D01*
X5602220Y-3432080D01*
X5604340Y-3437500D01*
X5609630Y-3441560D01*
X5619160Y-3445630D01*
G01X5310000Y-3666770D02*
X5373500D01*
Y-3683710D01*
X5370320Y-3689130D01*
X5366090Y-3692510D01*
X5357620Y-3693870D01*
X5349160Y-3692510D01*
X5343870Y-3688450D01*
X5340690Y-3683710D01*
Y-3666770D01*
G01Y-3683710D02*
X5310000Y-3693870D01*
G01Y-3744330D02*
X5373500D01*
X5327990Y-3719270D01*
Y-3753130D01*
G01X5322700Y-3777180D02*
X5315290Y-3781240D01*
X5311060Y-3786660D01*
X5310000Y-3792760D01*
X5311060Y-3798180D01*
X5316350Y-3803600D01*
X5322700Y-3806980D01*
X5329050Y-3807660D01*
X5336460Y-3806300D01*
X5341750Y-3801560D01*
X5343870Y-3796820D01*
Y-3790730D01*
G01Y-3796820D02*
X5347040Y-3800890D01*
X5352330Y-3804270D01*
X5358680Y-3805630D01*
X5365030Y-3804270D01*
X5370320Y-3800890D01*
X5373500Y-3794790D01*
X5372440Y-3788690D01*
X5368210Y-3782600D01*
G01X5571790Y-3134780D02*
X5568620Y-3138840D01*
X5566500Y-3143580D01*
Y-3149000D01*
X5569680Y-3155100D01*
X5574970Y-3159840D01*
X5581320Y-3163230D01*
X5591900Y-3165940D01*
X5601430Y-3166610D01*
X5610950Y-3165260D01*
X5617300Y-3163230D01*
X5623650Y-3159160D01*
X5627880Y-3154420D01*
X5630000Y-3149680D01*
Y-3144940D01*
X5627880Y-3140200D01*
X5624710Y-3136130D01*
X5620480Y-3132750D01*
G01X5630000Y-3085670D02*
X5566500D01*
X5612010Y-3110730D01*
Y-3076870D01*
G01X5566500Y-3037920D02*
X5568620Y-3043340D01*
X5573910Y-3047400D01*
X5580260Y-3050110D01*
X5588730Y-3052140D01*
X5598250Y-3052820D01*
X5607780Y-3052140D01*
X5616240Y-3050110D01*
X5622590Y-3047400D01*
X5627880Y-3043340D01*
X5630000Y-3037920D01*
X5627880Y-3032500D01*
X5622590Y-3028440D01*
X5616240Y-3025730D01*
X5607780Y-3023700D01*
X5598250Y-3023020D01*
X5588730Y-3023700D01*
X5580260Y-3025730D01*
X5573910Y-3028440D01*
X5568620Y-3032500D01*
X5566500Y-3037920D01*
G01X5648210Y-2135220D02*
X5651380Y-2131160D01*
X5653500Y-2126420D01*
Y-2121000D01*
X5650320Y-2114900D01*
X5645030Y-2110160D01*
X5638680Y-2106770D01*
X5628100Y-2104060D01*
X5618570Y-2103390D01*
X5609050Y-2104740D01*
X5602700Y-2106770D01*
X5596350Y-2110840D01*
X5592120Y-2115580D01*
X5590000Y-2120320D01*
Y-2125060D01*
X5592120Y-2129800D01*
X5595290Y-2133870D01*
X5599520Y-2137250D01*
G01X5642920Y-2163330D02*
X5649270Y-2167390D01*
X5652440Y-2172140D01*
X5653500Y-2177550D01*
X5651380Y-2184330D01*
X5646090Y-2189070D01*
X5639740Y-2190420D01*
X5633390Y-2189750D01*
X5628100Y-2187040D01*
X5617520Y-2173490D01*
X5610110Y-2167390D01*
X5599520Y-2163330D01*
X5590000Y-2161980D01*
Y-2190420D01*
G01Y-2240210D02*
X5653500D01*
X5607990Y-2215150D01*
Y-2249010D01*
G01X5280000Y-2306770D02*
X5343500D01*
Y-2323710D01*
X5340320Y-2329130D01*
X5336090Y-2332510D01*
X5327620Y-2333870D01*
X5319160Y-2332510D01*
X5313870Y-2328450D01*
X5310690Y-2323710D01*
Y-2306770D01*
G01Y-2323710D02*
X5280000Y-2333870D01*
G01X5292700Y-2361300D02*
X5285290Y-2365360D01*
X5281060Y-2370780D01*
X5280000Y-2376880D01*
X5281060Y-2382300D01*
X5286350Y-2387720D01*
X5292700Y-2391100D01*
X5299050Y-2391780D01*
X5306460Y-2390420D01*
X5311750Y-2385680D01*
X5313870Y-2380940D01*
Y-2374850D01*
G01Y-2380940D02*
X5317040Y-2385010D01*
X5322330Y-2388390D01*
X5328680Y-2389750D01*
X5335030Y-2388390D01*
X5340320Y-2385010D01*
X5343500Y-2378910D01*
X5342440Y-2372810D01*
X5338210Y-2366720D01*
G01X5332920Y-2419210D02*
X5339270Y-2423270D01*
X5342440Y-2428020D01*
X5343500Y-2433430D01*
X5341380Y-2440210D01*
X5336090Y-2444950D01*
X5329740Y-2446300D01*
X5323390Y-2445630D01*
X5318100Y-2442920D01*
X5307520Y-2429370D01*
X5300110Y-2423270D01*
X5289520Y-2419210D01*
X5280000Y-2417860D01*
Y-2446300D01*
G01X5611790Y-1754780D02*
X5608620Y-1758840D01*
X5606500Y-1763580D01*
Y-1769000D01*
X5609680Y-1775100D01*
X5614970Y-1779840D01*
X5621320Y-1783230D01*
X5631900Y-1785940D01*
X5641430Y-1786610D01*
X5650950Y-1785260D01*
X5657300Y-1783230D01*
X5663650Y-1779160D01*
X5667880Y-1774420D01*
X5670000Y-1769680D01*
Y-1764940D01*
X5667880Y-1760200D01*
X5664710Y-1756130D01*
X5660480Y-1752750D01*
G01X5617080Y-1726670D02*
X5610730Y-1722610D01*
X5607560Y-1717860D01*
X5606500Y-1712450D01*
X5608620Y-1705670D01*
X5613910Y-1700930D01*
X5620260Y-1699580D01*
X5626610Y-1700250D01*
X5631900Y-1702960D01*
X5642480Y-1716510D01*
X5649890Y-1722610D01*
X5660480Y-1726670D01*
X5670000Y-1728020D01*
Y-1699580D01*
G01X5660480Y-1672820D02*
X5665770Y-1668760D01*
X5668940Y-1664020D01*
X5670000Y-1657920D01*
X5667880Y-1651820D01*
X5663650Y-1647080D01*
X5656240Y-1643700D01*
X5647780Y-1643020D01*
X5639310Y-1644370D01*
X5634020Y-1647760D01*
X5629780Y-1652500D01*
X5628730Y-1657240D01*
X5629780Y-1661980D01*
X5634020Y-1668080D01*
X5606500Y-1666050D01*
Y-1647760D01*
G01X5358210Y-565220D02*
X5361380Y-561160D01*
X5363500Y-556420D01*
Y-551000D01*
X5360320Y-544900D01*
X5355030Y-540160D01*
X5348680Y-536770D01*
X5338100Y-534060D01*
X5328570Y-533390D01*
X5319050Y-534740D01*
X5312700Y-536770D01*
X5306350Y-540840D01*
X5302120Y-545580D01*
X5300000Y-550320D01*
Y-555060D01*
X5302120Y-559800D01*
X5305290Y-563870D01*
X5309520Y-567250D01*
G01X5352920Y-593330D02*
X5359270Y-597390D01*
X5362440Y-602140D01*
X5363500Y-607550D01*
X5361380Y-614330D01*
X5356090Y-619070D01*
X5349740Y-620420D01*
X5343390Y-619750D01*
X5338100Y-617040D01*
X5327520Y-603490D01*
X5320110Y-597390D01*
X5309520Y-593330D01*
X5300000Y-591980D01*
Y-620420D01*
G01X5363500Y-662080D02*
X5361380Y-656660D01*
X5356090Y-652600D01*
X5349740Y-649890D01*
X5341270Y-647860D01*
X5331750Y-647180D01*
X5322220Y-647860D01*
X5313760Y-649890D01*
X5307410Y-652600D01*
X5302120Y-656660D01*
X5300000Y-662080D01*
X5302120Y-667500D01*
X5307410Y-671560D01*
X5313760Y-674270D01*
X5322220Y-676300D01*
X5331750Y-676980D01*
X5341270Y-676300D01*
X5349740Y-674270D01*
X5356090Y-671560D01*
X5361380Y-667500D01*
X5363500Y-662080D01*
G01X5381790Y-164780D02*
X5378620Y-168840D01*
X5376500Y-173580D01*
Y-179000D01*
X5379680Y-185100D01*
X5384970Y-189840D01*
X5391320Y-193230D01*
X5401900Y-195940D01*
X5411430Y-196610D01*
X5420950Y-195260D01*
X5427300Y-193230D01*
X5433650Y-189160D01*
X5437880Y-184420D01*
X5440000Y-179680D01*
Y-174940D01*
X5437880Y-170200D01*
X5434710Y-166130D01*
X5430480Y-162750D01*
G01X5440000Y-123800D02*
X5376500D01*
X5389200Y-131930D01*
G01X5440000D02*
Y-115670D01*
G01X5432590Y-79440D02*
X5437880Y-74690D01*
X5440000Y-69270D01*
X5437880Y-63860D01*
X5431540Y-59110D01*
X5422010Y-55730D01*
X5412480Y-54370D01*
X5400840D01*
X5391320Y-55730D01*
X5382850Y-59110D01*
X5378620Y-63180D01*
X5376500Y-67920D01*
X5378620Y-73340D01*
X5382850Y-77400D01*
X5389200Y-80110D01*
X5397670Y-81470D01*
X5405070Y-80110D01*
X5412480Y-76730D01*
X5416720Y-72660D01*
X5417780Y-67920D01*
X5415660Y-62500D01*
X5410370Y-58440D01*
X5400840Y-54370D01*
G01X5628210Y894780D02*
X5631380Y898840D01*
X5633500Y903580D01*
Y909000D01*
X5630320Y915100D01*
X5625030Y919840D01*
X5618680Y923230D01*
X5608100Y925940D01*
X5598570Y926610D01*
X5589050Y925260D01*
X5582700Y923230D01*
X5576350Y919160D01*
X5572120Y914420D01*
X5570000Y909680D01*
Y904940D01*
X5572120Y900200D01*
X5575290Y896130D01*
X5579520Y892750D01*
G01X5622920Y866670D02*
X5629270Y862610D01*
X5632440Y857860D01*
X5633500Y852450D01*
X5631380Y845670D01*
X5626090Y840930D01*
X5619740Y839580D01*
X5613390Y840250D01*
X5608100Y842960D01*
X5597520Y856510D01*
X5590110Y862610D01*
X5579520Y866670D01*
X5570000Y868020D01*
Y839580D01*
G01Y797920D02*
X5571060Y793180D01*
X5574230Y787760D01*
X5579520Y784370D01*
X5586930Y783020D01*
X5594340Y784370D01*
X5600690Y788440D01*
X5603870Y794530D01*
Y801310D01*
X5605980Y805370D01*
X5611270Y808760D01*
X5618680Y810110D01*
X5626090Y808080D01*
X5631380Y803340D01*
X5633500Y797920D01*
X5631380Y792500D01*
X5626090Y787760D01*
X5618680Y785730D01*
X5611270Y787080D01*
X5605980Y790470D01*
X5603870Y794530D01*
Y801310D01*
X5600690Y807400D01*
X5594340Y811470D01*
X5586930Y812820D01*
X5579520Y811470D01*
X5574230Y808080D01*
X5571060Y802660D01*
X5570000Y797920D01*
G01X5561790Y1175220D02*
X5558620Y1171160D01*
X5556500Y1166420D01*
Y1161000D01*
X5559680Y1154900D01*
X5564970Y1150160D01*
X5571320Y1146770D01*
X5581900Y1144060D01*
X5591430Y1143390D01*
X5600950Y1144740D01*
X5607300Y1146770D01*
X5613650Y1150840D01*
X5617880Y1155580D01*
X5620000Y1160320D01*
Y1165060D01*
X5617880Y1169800D01*
X5614710Y1173870D01*
X5610480Y1177250D01*
G01X5567080Y1203330D02*
X5560730Y1207390D01*
X5557560Y1212140D01*
X5556500Y1217550D01*
X5558620Y1224330D01*
X5563910Y1229070D01*
X5570260Y1230420D01*
X5576610Y1229750D01*
X5581900Y1227040D01*
X5592480Y1213490D01*
X5599890Y1207390D01*
X5610480Y1203330D01*
X5620000Y1201980D01*
Y1230420D01*
G01X5612590Y1260560D02*
X5617880Y1265310D01*
X5620000Y1270730D01*
X5617880Y1276140D01*
X5611540Y1280890D01*
X5602010Y1284270D01*
X5592480Y1285630D01*
X5580840D01*
X5571320Y1284270D01*
X5562850Y1280890D01*
X5558620Y1276820D01*
X5556500Y1272080D01*
X5558620Y1266660D01*
X5562850Y1262600D01*
X5569200Y1259890D01*
X5577670Y1258530D01*
X5585070Y1259890D01*
X5592480Y1263270D01*
X5596720Y1267340D01*
X5597780Y1272080D01*
X5595660Y1277500D01*
X5590370Y1281560D01*
X5580840Y1285630D01*
G01X5341790Y2525220D02*
X5338620Y2521160D01*
X5336500Y2516420D01*
Y2511000D01*
X5339680Y2504900D01*
X5344970Y2500160D01*
X5351320Y2496770D01*
X5361900Y2494060D01*
X5371430Y2493390D01*
X5380950Y2494740D01*
X5387300Y2496770D01*
X5393650Y2500840D01*
X5397880Y2505580D01*
X5400000Y2510320D01*
Y2515060D01*
X5397880Y2519800D01*
X5394710Y2523870D01*
X5390480Y2527250D01*
G01X5400000Y2574330D02*
X5336500D01*
X5382010Y2549270D01*
Y2583130D01*
G01X5387300Y2607180D02*
X5394710Y2611240D01*
X5398940Y2616660D01*
X5400000Y2622760D01*
X5398940Y2628180D01*
X5393650Y2633600D01*
X5387300Y2636980D01*
X5380950Y2637660D01*
X5373540Y2636300D01*
X5368250Y2631560D01*
X5366130Y2626820D01*
Y2620730D01*
G01Y2626820D02*
X5362960Y2630890D01*
X5357670Y2634270D01*
X5351320Y2635630D01*
X5344970Y2634270D01*
X5339680Y2630890D01*
X5336500Y2624790D01*
X5337560Y2618690D01*
X5341790Y2612600D01*
G01X5583900Y3351540D02*
X5578490Y3356830D01*
X5572390Y3360000D01*
X5566970D01*
X5561550Y3356830D01*
X5557490Y3351540D01*
X5555460Y3344120D01*
X5556810Y3336720D01*
X5560200Y3330370D01*
X5566290Y3326130D01*
X5574420Y3324020D01*
X5579160Y3319780D01*
X5581200Y3312380D01*
X5579840Y3304970D01*
X5576450Y3299680D01*
X5571710Y3296500D01*
X5566970D01*
X5562230Y3298620D01*
X5558160Y3303910D01*
G01X5534120Y3296500D02*
X5524640Y3360000D01*
X5513800Y3296500D01*
X5502960Y3360000D01*
X5493480Y3296500D01*
G01X5472820Y3347300D02*
X5468760Y3354710D01*
X5463340Y3358940D01*
X5457240Y3360000D01*
X5451820Y3358940D01*
X5446400Y3353650D01*
X5443020Y3347300D01*
X5442340Y3340950D01*
X5443700Y3333540D01*
X5448440Y3328250D01*
X5453180Y3326130D01*
X5459270D01*
G01X5453180D02*
X5449110Y3322960D01*
X5445730Y3317670D01*
X5444370Y3311320D01*
X5445730Y3304970D01*
X5449110Y3299680D01*
X5455210Y3296500D01*
X5461310Y3297560D01*
X5467400Y3301790D01*
G01X6536840Y-2454440D02*
Y-2216440D01*
X6368840D01*
Y-2454440D01*
X6536840D01*
G01X6447300Y-1993230D02*
X6453650Y-1989840D01*
X6457880Y-1985780D01*
X6460000Y-1981030D01*
X6457880Y-1975620D01*
X6453650Y-1971550D01*
X6447300Y-1967490D01*
X6438830Y-1966130D01*
X6396500D01*
G01X6452590Y-1935320D02*
X6457880Y-1930570D01*
X6460000Y-1925150D01*
X6457880Y-1919740D01*
X6451540Y-1914990D01*
X6442010Y-1911610D01*
X6432480Y-1910250D01*
X6420840D01*
X6411320Y-1911610D01*
X6402850Y-1914990D01*
X6398620Y-1919060D01*
X6396500Y-1923800D01*
X6398620Y-1929220D01*
X6402850Y-1933280D01*
X6409200Y-1935990D01*
X6417670Y-1937350D01*
X6425070Y-1935990D01*
X6432480Y-1932610D01*
X6436720Y-1928540D01*
X6437780Y-1923800D01*
X6435660Y-1918380D01*
X6430370Y-1914320D01*
X6420840Y-1910250D01*
G01X6514580Y196500D02*
Y242010D01*
X6511870Y251540D01*
X6506450Y257880D01*
X6499680Y260000D01*
X6492910Y257880D01*
X6487490Y251540D01*
X6484780Y242010D01*
Y196500D01*
G01X6443800Y260000D02*
Y196500D01*
X6451930Y209200D01*
G01Y260000D02*
X6435670D01*
G01X6400790Y233540D02*
X6396050Y226130D01*
X6391980Y221900D01*
X6386570Y219780D01*
X6381820Y221900D01*
X6378440Y226130D01*
X6375730Y232480D01*
X6375050Y239890D01*
X6375730Y246240D01*
X6378440Y252590D01*
X6382500Y257880D01*
X6387240Y260000D01*
X6392660Y257880D01*
X6397400Y251540D01*
X6400110Y242010D01*
X6400790Y231430D01*
X6399440Y217670D01*
X6397400Y210260D01*
X6394020Y202850D01*
X6389270Y197560D01*
X6384530Y196500D01*
X6379790Y198620D01*
X6376400Y203910D01*
G01X6476490Y1227060D02*
Y1290560D01*
X6493430D01*
X6498850Y1287380D01*
X6502230Y1283150D01*
X6503590Y1274680D01*
X6502230Y1266220D01*
X6498170Y1260930D01*
X6493430Y1257750D01*
X6476490D01*
G01X6493430D02*
X6503590Y1227060D01*
G01X6545920D02*
X6550660Y1228120D01*
X6556080Y1231290D01*
X6559470Y1236580D01*
X6560820Y1243990D01*
X6559470Y1251400D01*
X6555400Y1257750D01*
X6549310Y1260930D01*
X6542530D01*
X6538470Y1263040D01*
X6535080Y1268330D01*
X6533730Y1275740D01*
X6535760Y1283150D01*
X6540500Y1288440D01*
X6545920Y1290560D01*
X6551340Y1288440D01*
X6556080Y1283150D01*
X6558110Y1275740D01*
X6556760Y1268330D01*
X6553370Y1263040D01*
X6549310Y1260930D01*
X6542530D01*
X6536440Y1257750D01*
X6532370Y1251400D01*
X6531020Y1243990D01*
X6532370Y1236580D01*
X6535760Y1231290D01*
X6541180Y1228120D01*
X6545920Y1227060D01*
G01X6601800D02*
X6606540Y1228120D01*
X6611960Y1231290D01*
X6615350Y1236580D01*
X6616700Y1243990D01*
X6615350Y1251400D01*
X6611280Y1257750D01*
X6605190Y1260930D01*
X6598410D01*
X6594350Y1263040D01*
X6590960Y1268330D01*
X6589610Y1275740D01*
X6591640Y1283150D01*
X6596380Y1288440D01*
X6601800Y1290560D01*
X6607220Y1288440D01*
X6611960Y1283150D01*
X6613990Y1275740D01*
X6612640Y1268330D01*
X6609250Y1263040D01*
X6605190Y1260930D01*
X6598410D01*
X6592320Y1257750D01*
X6588250Y1251400D01*
X6586900Y1243990D01*
X6588250Y1236580D01*
X6591640Y1231290D01*
X6597060Y1228120D01*
X6601800Y1227060D01*
G01X6789340Y-2456940D02*
Y-2218940D01*
X6621340D01*
Y-2456940D01*
X6789340D01*
G01X6637300Y-1973230D02*
X6643650Y-1969840D01*
X6647880Y-1965780D01*
X6650000Y-1961030D01*
X6647880Y-1955620D01*
X6643650Y-1951550D01*
X6637300Y-1947490D01*
X6628830Y-1946130D01*
X6586500D01*
G01X6650000Y-1903800D02*
X6648940Y-1899060D01*
X6645770Y-1893640D01*
X6640480Y-1890250D01*
X6633070Y-1888900D01*
X6625660Y-1890250D01*
X6619310Y-1894320D01*
X6616130Y-1900410D01*
Y-1907190D01*
X6614020Y-1911250D01*
X6608730Y-1914640D01*
X6601320Y-1915990D01*
X6593910Y-1913960D01*
X6588620Y-1909220D01*
X6586500Y-1903800D01*
X6588620Y-1898380D01*
X6593910Y-1893640D01*
X6601320Y-1891610D01*
X6608730Y-1892960D01*
X6614020Y-1896350D01*
X6616130Y-1900410D01*
Y-1907190D01*
X6619310Y-1913280D01*
X6625660Y-1917350D01*
X6633070Y-1918700D01*
X6640480Y-1917350D01*
X6645770Y-1913960D01*
X6648940Y-1908540D01*
X6650000Y-1903800D01*
G01X6963900Y3401540D02*
X6958490Y3406830D01*
X6952390Y3410000D01*
X6946970D01*
X6941550Y3406830D01*
X6937490Y3401540D01*
X6935460Y3394120D01*
X6936810Y3386720D01*
X6940200Y3380370D01*
X6946290Y3376130D01*
X6954420Y3374020D01*
X6959160Y3369780D01*
X6961200Y3362380D01*
X6959840Y3354970D01*
X6956450Y3349680D01*
X6951710Y3346500D01*
X6946970D01*
X6942230Y3348620D01*
X6938160Y3353910D01*
G01X6914120Y3346500D02*
X6904640Y3410000D01*
X6893800Y3346500D01*
X6882960Y3410000D01*
X6873480Y3346500D01*
G01X6850790Y3357080D02*
X6846730Y3350730D01*
X6841980Y3347560D01*
X6836570Y3346500D01*
X6829790Y3348620D01*
X6825050Y3353910D01*
X6823700Y3360260D01*
X6824370Y3366610D01*
X6827080Y3371900D01*
X6840630Y3382480D01*
X6846730Y3389890D01*
X6850790Y3400480D01*
X6852140Y3410000D01*
X6823700D01*
G01X7255420Y-4666500D02*
Y-4712010D01*
X7258130Y-4721540D01*
X7263550Y-4727880D01*
X7270320Y-4730000D01*
X7277090Y-4727880D01*
X7282510Y-4721540D01*
X7285220Y-4712010D01*
Y-4666500D01*
G01X7326200Y-4730000D02*
Y-4666500D01*
X7318070Y-4679200D01*
G01Y-4730000D02*
X7334330D01*
G01X7243900Y-1918460D02*
X7238490Y-1913170D01*
X7232390Y-1910000D01*
X7226970D01*
X7221550Y-1913170D01*
X7217490Y-1918460D01*
X7215460Y-1925880D01*
X7216810Y-1933280D01*
X7220200Y-1939630D01*
X7226290Y-1943870D01*
X7234420Y-1945980D01*
X7239160Y-1950220D01*
X7241200Y-1957620D01*
X7239840Y-1965030D01*
X7236450Y-1970320D01*
X7231710Y-1973500D01*
X7226970D01*
X7222230Y-1971380D01*
X7218160Y-1966090D01*
G01X7194120Y-1973500D02*
X7184640Y-1910000D01*
X7173800Y-1973500D01*
X7162960Y-1910000D01*
X7153480Y-1973500D01*
G01X7117920Y-1910000D02*
Y-1973500D01*
X7126050Y-1960800D01*
G01Y-1910000D02*
X7109790D01*
G01X7248210Y-515220D02*
X7251380Y-511160D01*
X7253500Y-506420D01*
Y-501000D01*
X7250320Y-494900D01*
X7245030Y-490160D01*
X7238680Y-486770D01*
X7228100Y-484060D01*
X7218570Y-483390D01*
X7209050Y-484740D01*
X7202700Y-486770D01*
X7196350Y-490840D01*
X7192120Y-495580D01*
X7190000Y-500320D01*
Y-505060D01*
X7192120Y-509800D01*
X7195290Y-513870D01*
X7199520Y-517250D01*
G01X7190000Y-556200D02*
X7253500D01*
X7240800Y-548070D01*
G01X7190000D02*
Y-564330D01*
G01X7696500Y-2029680D02*
X7760000D01*
G01X7696500Y-2045260D02*
Y-2014100D01*
G01X7760000Y-1973800D02*
X7696500D01*
X7709200Y-1981930D01*
G01X7760000D02*
Y-1965670D01*
G01X7528210Y-515220D02*
X7531380Y-511160D01*
X7533500Y-506420D01*
Y-501000D01*
X7530320Y-494900D01*
X7525030Y-490160D01*
X7518680Y-486770D01*
X7508100Y-484060D01*
X7498570Y-483390D01*
X7489050Y-484740D01*
X7482700Y-486770D01*
X7476350Y-490840D01*
X7472120Y-495580D01*
X7470000Y-500320D01*
Y-505060D01*
X7472120Y-509800D01*
X7475290Y-513870D01*
X7479520Y-517250D01*
G01X7522920Y-543330D02*
X7529270Y-547390D01*
X7532440Y-552140D01*
X7533500Y-557550D01*
X7531380Y-564330D01*
X7526090Y-569070D01*
X7519740Y-570420D01*
X7513390Y-569750D01*
X7508100Y-567040D01*
X7497520Y-553490D01*
X7490110Y-547390D01*
X7479520Y-543330D01*
X7470000Y-541980D01*
Y-570420D01*
G01X7883230Y-382700D02*
X7879840Y-376350D01*
X7875780Y-372120D01*
X7871030Y-370000D01*
X7865620Y-372120D01*
X7861550Y-376350D01*
X7857490Y-382700D01*
X7856130Y-391170D01*
Y-433500D01*
G01X7826670Y-422920D02*
X7822610Y-429270D01*
X7817860Y-432440D01*
X7812450Y-433500D01*
X7805670Y-431380D01*
X7800930Y-426090D01*
X7799580Y-419740D01*
X7800250Y-413390D01*
X7802960Y-408100D01*
X7816510Y-397520D01*
X7822610Y-390110D01*
X7826670Y-379520D01*
X7828020Y-370000D01*
X7799580D01*
G01X7692610Y40710D02*
X7677370D01*
G01D02*
G03X7792610I57620J0D01*
G01D02*
X7777370D01*
G01X7692610D02*
G03X7777370I42380J0D01*
G01D02*
X7792610D01*
G01D02*
G03X7677370I-57620J0D01*
G01D02*
X7692610D01*
G01X7777370D02*
G03X7692610I-42380J0D01*
G01Y480690D02*
X7677370D01*
G01D02*
G03X7792610I57620J0D01*
G01D02*
X7777370D01*
G01X7692610D02*
G03X7777370I42380J0D01*
G01D02*
X7792610D01*
G01D02*
G03X7677370I-57620J0D01*
G01D02*
X7692610D01*
G01X7777370D02*
G03X7692610I-42380J0D01*
G01X8240000Y-942550D02*
X8176500D01*
Y-916810D01*
G01X8207190Y-926290D02*
Y-942550D01*
G01X8240000Y-873800D02*
X8176500D01*
X8189200Y-881930D01*
G01X8240000D02*
Y-865670D01*
G54D20*
G01X7370010Y35710D02*
Y-44300D01*
G01Y565700D02*
Y485690D01*
G01X7649990Y-234300D02*
X7870010D01*
G01X7649990Y755700D02*
X7870010D01*
G01X8200000Y-234300D02*
X8330000D01*
G01D02*
Y755700D01*
G01D02*
X8200000D01*
G54D11*
G01X8260000D02*
Y-234300D01*
G54D12*
G01X-9785000Y4171110D02*
Y3409110D01*
G01D02*
X-8998010D01*
G01X-9785000Y4171110D02*
Y3409110D01*
G01D02*
X-9734000D01*
G01X-9682990Y4171110D02*
X-9785000D01*
G01X-7753000D02*
X-9785000D01*
G01X-9734000Y3409110D02*
X-8998010D01*
G01X-9150000Y3536110D02*
X-9404000D01*
G01D02*
Y3790110D01*
G01D02*
X-9150000D01*
G01X-8998010Y3409110D02*
Y3536110D01*
G01D02*
X-8539990D01*
G01X-9150000Y3790110D02*
Y3536110D01*
G01X-8539990D02*
Y3511120D01*
G01D02*
Y3409110D01*
G01D02*
X-7829000D01*
G01D02*
X-7753000D01*
G01D02*
Y4171110D01*
G54D13*
G01X-3676660Y-208790D02*
X-3679200D01*
X-3727460Y-257050D01*
X-3679200Y-305310D01*
X-3676660D01*
G01Y284270D02*
X-3679200D01*
X-3727460Y236010D01*
X-3679200Y187750D01*
X-3676660D01*
G01Y777330D02*
X-3679200D01*
X-3727460Y729070D01*
X-3679200Y680810D01*
X-3676660D01*
G01Y1270390D02*
X-3679200D01*
X-3727460Y1222130D01*
X-3679200Y1173870D01*
X-3676660D01*
G01X-2163870Y-1576200D02*
X-2161330D01*
X-2113070Y-1527940D01*
X-2161330Y-1479680D01*
X-2163870D01*
G01Y-996200D02*
X-2161330D01*
X-2113070Y-947940D01*
X-2161330Y-899680D01*
X-2163870D01*
G01Y-406200D02*
X-2161330D01*
X-2113070Y-357940D01*
X-2161330Y-309680D01*
X-2163870D01*
G01X3015000Y-4580950D02*
X3726200D01*
Y-4987350D01*
X3015000D01*
Y-4580950D01*
G01X3859300Y-4618450D02*
X4341900D01*
G01Y-4389850D02*
X3859300D01*
G01D02*
Y-4618450D01*
G01X4341900D02*
Y-4389850D01*
G01X5150090Y-3574870D02*
G03I-12700J0D01*
G01Y-2224870D02*
G03I-12700J0D01*
G01X5110090Y685130D02*
G03I-12700J0D01*
G54D14*
G01X-2375650Y-1732230D02*
X-2314690D01*
G01X-2375650Y-1661110D02*
X-2314690D01*
G01X-2375650D02*
Y-1732230D01*
G01X-2271510Y-1661110D02*
X-2210550D01*
G01Y-1732230D02*
X-2268970D01*
G01X-2375650Y-1152230D02*
X-2314690D01*
G01X-2375650Y-1081110D02*
X-2314690D01*
G01X-2375650D02*
Y-1152230D01*
G01X-2271510Y-1081110D02*
X-2210550D01*
G01Y-1152230D02*
X-2268970D01*
G01X-2375650Y-572230D02*
X-2314690D01*
G01X-2375650Y-501110D02*
X-2314690D01*
G01X-2375650D02*
Y-572230D01*
G01X-2271510Y-501110D02*
X-2210550D01*
G01Y-572230D02*
X-2268970D01*
G01X-1832820Y-3603310D02*
X-1893780D01*
G01X-1832820Y-3674430D02*
X-1893780D01*
G01X-1832820D02*
Y-3603310D01*
G01X-1936960Y-3674430D02*
X-1997920D01*
G01D02*
Y-3603310D01*
G01D02*
X-1939500D01*
G01X-2210550Y-1661110D02*
Y-1732230D01*
G01Y-1081110D02*
Y-1152230D01*
G01Y-501110D02*
Y-572230D01*
G01X-1796180Y-434440D02*
X-1857140D01*
G01X-1796180Y-505560D02*
X-1857140D01*
G01X-1900320D02*
X-1961280D01*
G01D02*
Y-434440D01*
G01D02*
X-1902860D01*
G01X-1963820Y-585560D02*
X-1902860D01*
G01X-1963820Y-514440D02*
X-1902860D01*
G01X-1963820D02*
Y-585560D01*
G01X-1859680Y-514440D02*
X-1798720D01*
G01Y-585560D02*
X-1857140D01*
G01X-1702200Y-3935050D02*
Y-3996010D01*
G01X-1631080Y-3935050D02*
Y-3996010D01*
G01Y-3935050D02*
X-1702200D01*
G01X-1631080Y-4039190D02*
Y-4100150D01*
G01D02*
X-1702200D01*
G01D02*
Y-4041730D01*
G01X-1632820Y-3603310D02*
X-1693780D01*
G01X-1632820Y-3674430D02*
X-1693780D01*
G01X-1632820D02*
Y-3603310D01*
G01X-1736960Y-3674430D02*
X-1797920D01*
G01D02*
Y-3603310D01*
G01D02*
X-1739500D01*
G01X-1796180Y-505560D02*
Y-434440D01*
G01X-1798720Y-514440D02*
Y-585560D01*
G01X-938840Y-3379190D02*
Y-3440150D01*
G01D02*
X-1009960D01*
G01D02*
Y-3381730D01*
G01X-1029960Y-3379190D02*
Y-3440150D01*
G01D02*
X-1101080D01*
G01D02*
Y-3381730D01*
G01X-1121080Y-3379190D02*
Y-3440150D01*
G01D02*
X-1192200D01*
G01D02*
Y-3381730D01*
G01X-1009960Y-3275050D02*
Y-3336010D01*
G01X-938840Y-3275050D02*
Y-3336010D01*
G01Y-3275050D02*
X-1009960D01*
G01X-1101080D02*
Y-3336010D01*
G01X-1029960Y-3275050D02*
Y-3336010D01*
G01Y-3275050D02*
X-1101080D01*
G01X-1192200D02*
Y-3336010D01*
G01X-1121080Y-3275050D02*
Y-3336010D01*
G01Y-3275050D02*
X-1192200D01*
G01X-847720Y-3379190D02*
Y-3440150D01*
G01D02*
X-918840D01*
G01D02*
Y-3381730D01*
G01Y-3275050D02*
Y-3336010D01*
G01X-847720Y-3275050D02*
Y-3336010D01*
G01Y-3275050D02*
X-918840D01*
G01X-197880Y2096140D02*
X-258840D01*
G01X-197880Y2025020D02*
X-258840D01*
G01X-197880D02*
Y2096140D01*
G01X-302020Y2025020D02*
X-362980D01*
G01D02*
Y2096140D01*
G01D02*
X-304560D01*
G01X-197880Y2226140D02*
X-258840D01*
G01X-197880Y2155020D02*
X-258840D01*
G01X-197880D02*
Y2226140D01*
G01X-302020Y2155020D02*
X-362980D01*
G01D02*
Y2226140D01*
G01D02*
X-304560D01*
G01X392400Y-4236450D02*
X453360D01*
G01X392400Y-4165330D02*
X453360D01*
G01X392400D02*
Y-4236450D01*
G01X632540Y-5181450D02*
X571580D01*
G01X632540D02*
Y-5110330D01*
G01X528400Y-5181450D02*
X467440D01*
G01D02*
Y-5110330D01*
G01X632540D02*
X571580D01*
G01X467440D02*
X525860D01*
G01X554900Y-5096450D02*
X615860D01*
G01X554900Y-5025330D02*
X615860D01*
G01X554900D02*
Y-5096450D01*
G01X659040Y-5025330D02*
X720000D01*
G01D02*
Y-5096450D01*
G01D02*
X661580D01*
G01X482400Y-4136450D02*
X543360D01*
G01X482400Y-4065330D02*
X543360D01*
G01X482400D02*
Y-4136450D01*
G01X586540Y-4065330D02*
X647500D01*
G01D02*
Y-4136450D01*
G01D02*
X589080D01*
G01X496540Y-4165330D02*
X557500D01*
G01D02*
Y-4236450D01*
G01D02*
X499080D01*
G01X843350Y-2202550D02*
X782390D01*
G01X843350Y-2273670D02*
X782390D01*
G01X739210D02*
X678250D01*
G01D02*
Y-2202550D01*
G01D02*
X736670D01*
G01X1137400Y-4236450D02*
X1198360D01*
G01X1137400Y-4165330D02*
X1198360D01*
G01X1137400D02*
Y-4236450D01*
G01X1241540Y-4165330D02*
X1302500D01*
G01Y-4236450D02*
X1244080D01*
G01X843350Y-2273670D02*
Y-2202550D01*
G01X1132120Y2285020D02*
X1071160D01*
G01X1132120D02*
Y2356140D01*
G01X1027980Y2285020D02*
X967020D01*
G01D02*
Y2356140D01*
G01X1132120Y2096140D02*
X1071160D01*
G01X1132120Y2025020D02*
X1071160D01*
G01X1132120D02*
Y2096140D01*
G01X1027980Y2025020D02*
X967020D01*
G01D02*
Y2096140D01*
G01D02*
X1025440D01*
G01X1132120Y2356140D02*
X1071160D01*
G01X967020D02*
X1025440D01*
G01X1307650Y-4547450D02*
X1368610D01*
G01X1307650Y-4476330D02*
X1368610D01*
G01X1307650D02*
Y-4547450D01*
G01X1411790Y-4476330D02*
X1472750D01*
G01D02*
Y-4547450D01*
G01D02*
X1414330D01*
G01X1302500Y-4165330D02*
Y-4236450D01*
G01X1717720Y-2693880D02*
Y-2754840D01*
G01X1788840Y-2693880D02*
X1717720D01*
G01X1788840Y-2858980D02*
X1717720D01*
G01D02*
Y-2800560D01*
G01X1525710Y-2273670D02*
X1586670D01*
G01X1525710Y-2202550D02*
X1586670D01*
G01X1525710D02*
Y-2273670D01*
G01X1629850Y-2202550D02*
X1690810D01*
G01D02*
Y-2273670D01*
G01D02*
X1632390D01*
G01X1687960Y-2438260D02*
X1627000D01*
G01D02*
Y-2367140D01*
G01D02*
X1685420D01*
G01X1597100D02*
X1536140D01*
G01X1597100Y-2438260D02*
X1536140D01*
G01X1597100D02*
Y-2367140D01*
G01X1492960Y-2438260D02*
X1432000D01*
G01D02*
Y-2367140D01*
G01D02*
X1490420D01*
G01X2084060Y-3700360D02*
X2023100D01*
G01X2084060Y-3771480D02*
X2023100D01*
G01X2084060D02*
Y-3700360D01*
G01X1979920Y-3771480D02*
X1918960D01*
G01D02*
Y-3700360D01*
G01D02*
X1977380D01*
G01X1788840Y-2693880D02*
Y-2754840D01*
G01Y-2798020D02*
Y-2858980D01*
G01X1792100Y-2367140D02*
X1731140D01*
G01X1792100Y-2438260D02*
X1731140D01*
G01X1792100D02*
Y-2367140D01*
G01X2140520Y-2201520D02*
Y-2140560D01*
G01Y-2201520D02*
X2211640D01*
G01X2140520Y-2097380D02*
Y-2036420D01*
G01D02*
X2211640D01*
G01X2649920Y-4031480D02*
X2588960D01*
G01D02*
Y-3960360D01*
G01D02*
X2647380D01*
G01X2344680Y-3652100D02*
Y-3713060D01*
G01X2415800Y-3652100D02*
Y-3713060D01*
G01Y-3652100D02*
X2344680D01*
G01X2415800Y-3756240D02*
Y-3817200D01*
G01D02*
X2344680D01*
G01D02*
Y-3758780D01*
G01X2505800Y-3819740D02*
Y-3758780D01*
G01X2434680Y-3819740D02*
Y-3758780D01*
G01Y-3819740D02*
X2505800D01*
G01X2434680Y-3715600D02*
Y-3654640D01*
G01D02*
X2505800D01*
G01D02*
Y-3713060D01*
G01X2413880Y-2033880D02*
Y-2094840D01*
G01X2485000Y-2033880D02*
Y-2094840D01*
G01Y-2138020D02*
Y-2198980D01*
G01D02*
X2413880D01*
G01D02*
Y-2140560D01*
G01X2322760Y-2033880D02*
Y-2094840D01*
G01X2393880Y-2033880D02*
Y-2094840D01*
G01Y-2138020D02*
Y-2198980D01*
G01D02*
X2322760D01*
G01D02*
Y-2140560D01*
G01X2211640Y-2201520D02*
Y-2140560D01*
G01Y-2036420D02*
Y-2094840D01*
G01X2576120Y-2201520D02*
Y-2140560D01*
G01X2505000Y-2201520D02*
Y-2140560D01*
G01Y-2201520D02*
X2576120D01*
G01X2505000Y-2097380D02*
Y-2036420D01*
G01X2576120D02*
Y-2094840D01*
G01X2231640Y-2033880D02*
Y-2094840D01*
G01X2302760Y-2033880D02*
Y-2094840D01*
G01Y-2138020D02*
Y-2198980D01*
G01D02*
X2231640D01*
G01D02*
Y-2140560D01*
G01X2596120Y-2033880D02*
Y-2094840D01*
G01X2667240Y-2198980D02*
X2596120D01*
G01D02*
Y-2140560D01*
G01X2485000Y-2033880D02*
X2413880D01*
G01X2393880D02*
X2322760D01*
G01X2319460Y-1993260D02*
X2380420D01*
G01X2319460Y-1922140D02*
X2380420D01*
G01X2319460D02*
Y-1993260D01*
G01X2423600Y-1922140D02*
X2484560D01*
G01D02*
Y-1993260D01*
G01D02*
X2426140D01*
G01X2505000Y-2036420D02*
X2576120D01*
G01X2302760Y-2033880D02*
X2231640D01*
G01X2667240D02*
X2596120D01*
G01X2755800Y-4409740D02*
Y-4348780D01*
G01X2684680Y-4409740D02*
Y-4348780D01*
G01Y-4409740D02*
X2755800D01*
G01X2684680Y-4305600D02*
Y-4244640D01*
G01X2755800D02*
Y-4303060D01*
G01X2754060Y-3960360D02*
X2693100D01*
G01X2754060Y-4031480D02*
X2693100D01*
G01X2754060D02*
Y-3960360D01*
G01X2684680Y-4244640D02*
X2755800D01*
G01X3019910Y-3508650D02*
X3080870D01*
G01X3019910Y-3437530D02*
X3080870D01*
G01X3019910D02*
Y-3508650D01*
G01Y-2158650D02*
X3080870D01*
G01X3019910Y-2087530D02*
X3080870D01*
G01X3019910D02*
Y-2158650D01*
G01X2667240Y-2033880D02*
Y-2094840D01*
G01Y-2138020D02*
Y-2198980D01*
G01X3026830Y-558480D02*
X3087790D01*
G01X3026830Y-487360D02*
X3087790D01*
G01X3026830D02*
Y-558480D01*
G01X2979910Y751350D02*
X3040870D01*
G01X2979910Y822470D02*
X3040870D01*
G01X2979910D02*
Y751350D01*
G01X2986830Y2151520D02*
X3047790D01*
G01X2986830Y2222640D02*
X3047790D01*
G01X2986830D02*
Y2151520D01*
G01X3124050Y-3437530D02*
X3185010D01*
G01D02*
Y-3508650D01*
G01D02*
X3126590D01*
G01X3124050Y-2087530D02*
X3185010D01*
G01D02*
Y-2158650D01*
G01D02*
X3126590D01*
G01X3130970Y-487360D02*
X3191930D01*
G01D02*
Y-558480D01*
G01D02*
X3133510D01*
G01X3084050Y822470D02*
X3145010D01*
G01D02*
Y751350D01*
G01D02*
X3086590D01*
G01X3090970Y2222640D02*
X3151930D01*
G01D02*
Y2151520D01*
G01D02*
X3093510D01*
G01X3535040Y-3960330D02*
Y-4021290D01*
G01X3606160Y-3960330D02*
Y-4021290D01*
G01Y-3960330D02*
X3535040D01*
G01X3606160Y-4064470D02*
Y-4125430D01*
G01D02*
X3535040D01*
G01D02*
Y-4067010D01*
G01X4344420Y-4148590D02*
X4283460D01*
G01X4344420Y-4219710D02*
X4283460D01*
G01X4344420D02*
Y-4148590D01*
G01X4240280Y-4219710D02*
X4179320D01*
G01D02*
Y-4148590D01*
G01D02*
X4237740D01*
G01X4176780Y-4129710D02*
X4237740D01*
G01X4176780Y-4058590D02*
X4237740D01*
G01X4176780D02*
Y-4129710D01*
G01X4280920Y-4058590D02*
X4341880D01*
G01D02*
Y-4129710D01*
G01D02*
X4283460D01*
G01X4769290Y-3476910D02*
Y-3415950D01*
G01X4698170Y-3476910D02*
Y-3415950D01*
G01Y-3476910D02*
X4769290D01*
G01X4698170Y-3372770D02*
Y-3311810D01*
G01D02*
X4769290D01*
G01D02*
Y-3370230D01*
G01Y-3226910D02*
Y-3165950D01*
G01X4698170Y-3226910D02*
Y-3165950D01*
G01Y-3226910D02*
X4769290D01*
G01X4698170Y-3122770D02*
Y-3061810D01*
G01D02*
X4769290D01*
G01D02*
Y-3120230D01*
G01Y-2126910D02*
Y-2065950D01*
G01X4698170Y-2126910D02*
Y-2065950D01*
G01Y-2126910D02*
X4769290D01*
G01X4698170Y-2022770D02*
Y-1961810D01*
G01D02*
X4769290D01*
G01D02*
Y-2020230D01*
G01Y-1876910D02*
Y-1815950D01*
G01X4698170Y-1876910D02*
Y-1815950D01*
G01Y-1876910D02*
X4769290D01*
G01X4698170Y-1772770D02*
Y-1711810D01*
G01D02*
X4769290D01*
G01D02*
Y-1770230D01*
G01X4784470Y-867360D02*
X4723510D01*
G01X4784470Y-938480D02*
X4723510D01*
G01X4784470D02*
Y-867360D01*
G01X4680330Y-938480D02*
X4619370D01*
G01D02*
Y-867360D01*
G01D02*
X4677790D01*
G01X4729290Y783090D02*
Y844050D01*
G01X4658170Y783090D02*
Y844050D01*
G01Y783090D02*
X4729290D01*
G01X4658170Y887230D02*
Y948190D01*
G01D02*
X4729290D01*
G01D02*
Y889770D01*
G01Y1033090D02*
Y1094050D01*
G01X4658170Y1033090D02*
Y1094050D01*
G01Y1033090D02*
X4729290D01*
G01X4658170Y1137230D02*
Y1198190D01*
G01D02*
X4729290D01*
G01D02*
Y1139770D01*
G01X4744470Y1842640D02*
X4683510D01*
G01X4744470Y1771520D02*
X4683510D01*
G01X4744470D02*
Y1842640D01*
G01X4640330Y1771520D02*
X4579370D01*
G01D02*
Y1842640D01*
G01D02*
X4637790D01*
G01X5019290Y-3786910D02*
Y-3725950D01*
G01X4948170Y-3786910D02*
Y-3725950D01*
G01Y-3786910D02*
X5019290D01*
G01X4948170Y-3682770D02*
Y-3621810D01*
G01D02*
X5019290D01*
G01D02*
Y-3680230D01*
G01X5108170Y-3619270D02*
Y-3680230D01*
G01X5179290Y-3619270D02*
Y-3680230D01*
G01Y-3619270D02*
X5108170D01*
G01X5179290Y-3723410D02*
Y-3784370D01*
G01D02*
X5108170D01*
G01D02*
Y-3725950D01*
G01X4919290Y-2923410D02*
Y-2984370D01*
G01D02*
X4848170D01*
G01D02*
Y-2925950D01*
G01X5009290Y-2986910D02*
Y-2925950D01*
G01X4938170Y-2986910D02*
Y-2925950D01*
G01Y-2986910D02*
X5009290D01*
G01X5279290Y-2984370D02*
X5208170D01*
G01D02*
Y-2925950D01*
G01X5189290Y-2986910D02*
Y-2925950D01*
G01X5118170Y-2986910D02*
Y-2925950D01*
G01Y-2986910D02*
X5189290D01*
G01X4848170Y-2819270D02*
Y-2880230D01*
G01X4919290Y-2819270D02*
Y-2880230D01*
G01Y-2819270D02*
X4848170D01*
G01X4938170Y-2882770D02*
Y-2821810D01*
G01D02*
X5009290D01*
G01D02*
Y-2880230D01*
G01X5208170Y-2819270D02*
Y-2880230D01*
G01X5279290Y-2819270D02*
X5208170D01*
G01X5118170Y-2882770D02*
Y-2821810D01*
G01D02*
X5189290D01*
G01D02*
Y-2880230D01*
G01X5019290Y-2436910D02*
Y-2375950D01*
G01X4948170Y-2436910D02*
Y-2375950D01*
G01Y-2436910D02*
X5019290D01*
G01X4948170Y-2332770D02*
Y-2271810D01*
G01D02*
X5019290D01*
G01D02*
Y-2330230D01*
G01X5108170Y-2269270D02*
Y-2330230D01*
G01X5179290Y-2269270D02*
Y-2330230D01*
G01Y-2269270D02*
X5108170D01*
G01X5179290Y-2373410D02*
Y-2434370D01*
G01D02*
X5108170D01*
G01D02*
Y-2375950D01*
G01X4848170Y-1469270D02*
Y-1530230D01*
G01X4919290Y-1469270D02*
Y-1530230D01*
G01Y-1469270D02*
X4848170D01*
G01X4919290Y-1573410D02*
Y-1634370D01*
G01D02*
X4848170D01*
G01D02*
Y-1575950D01*
G01X5208170Y-1469270D02*
Y-1530230D01*
G01X5279290Y-1469270D02*
X5208170D01*
G01X5279290Y-1634370D02*
X5208170D01*
G01D02*
Y-1575950D01*
G01X5189290Y-1636910D02*
Y-1575950D01*
G01X5118170Y-1636910D02*
Y-1575950D01*
G01Y-1636910D02*
X5189290D01*
G01X5118170Y-1532770D02*
Y-1471810D01*
G01D02*
X5189290D01*
G01D02*
Y-1530230D01*
G01X5009290Y-1636910D02*
Y-1575950D01*
G01X4938170Y-1636910D02*
Y-1575950D01*
G01Y-1636910D02*
X5009290D01*
G01X4938170Y-1532770D02*
Y-1471810D01*
G01D02*
X5009290D01*
G01D02*
Y-1530230D01*
G01X5124470Y-867360D02*
X5063510D01*
G01X5124470Y-938480D02*
X5063510D01*
G01X5124470D02*
Y-867360D01*
G01X5020330Y-938480D02*
X4959370D01*
G01D02*
Y-867360D01*
G01D02*
X5017790D01*
G01X5135090Y-459100D02*
Y-520060D01*
G01X5206210Y-459100D02*
Y-520060D01*
G01Y-459100D02*
X5135090D01*
G01X5206210Y-563240D02*
Y-624200D01*
G01D02*
X5135090D01*
G01D02*
Y-565780D01*
G01X4979290Y473090D02*
Y534050D01*
G01X4908170Y473090D02*
Y534050D01*
G01Y473090D02*
X4979290D01*
G01X5139290Y536590D02*
Y475630D01*
G01D02*
X5068170D01*
G01D02*
Y534050D01*
G01X4908170Y577230D02*
Y638190D01*
G01D02*
X4979290D01*
G01D02*
Y579770D01*
G01X5068170Y640730D02*
Y579770D01*
G01X5139290Y640730D02*
Y579770D01*
G01Y640730D02*
X5068170D01*
G01X4808170Y1440730D02*
Y1379770D01*
G01X4879290Y1440730D02*
Y1379770D01*
G01Y1440730D02*
X4808170D01*
G01X4879290Y1336590D02*
Y1275630D01*
G01D02*
X4808170D01*
G01D02*
Y1334050D01*
G01X5168170Y1440730D02*
Y1379770D01*
G01X5239290Y1440730D02*
Y1379770D01*
G01Y1440730D02*
X5168170D01*
G01X5239290Y1336590D02*
Y1275630D01*
G01D02*
X5168170D01*
G01D02*
Y1334050D01*
G01X5149290Y1273090D02*
Y1334050D01*
G01X5078170Y1273090D02*
Y1334050D01*
G01Y1273090D02*
X5149290D01*
G01X5078170Y1377230D02*
Y1438190D01*
G01D02*
X5149290D01*
G01D02*
Y1379770D01*
G01X4969290Y1273090D02*
Y1334050D01*
G01X4898170Y1273090D02*
Y1334050D01*
G01Y1273090D02*
X4969290D01*
G01X4898170Y1377230D02*
Y1438190D01*
G01D02*
X4969290D01*
G01D02*
Y1379770D01*
G01X5084470Y1842640D02*
X5023510D01*
G01X5084470Y1771520D02*
X5023510D01*
G01X5084470D02*
Y1842640D01*
G01X4980330Y1771520D02*
X4919370D01*
G01D02*
Y1842640D01*
G01D02*
X4977790D01*
G01X5095090Y2250900D02*
Y2189940D01*
G01X5166210Y2250900D02*
Y2189940D01*
G01Y2250900D02*
X5095090D01*
G01X5166210Y2146760D02*
Y2085800D01*
G01D02*
X5095090D01*
G01D02*
Y2144220D01*
G01X5279290Y-2923410D02*
Y-2984370D01*
G01Y-2819270D02*
Y-2880230D01*
G01Y-1469270D02*
Y-1530230D01*
G01Y-1573410D02*
Y-1634370D01*
G01X6403680Y1105140D02*
X6464640D01*
G01X6403680Y1176260D02*
X6464640D01*
G01X6403680D02*
Y1105140D01*
G01X6507820Y1176260D02*
X6568780D01*
G01D02*
Y1105140D01*
G01D02*
X6510360D01*
G54D15*
G01X-5012690Y3316910D02*
X-7710170D01*
G01D02*
Y4162930D01*
G01D02*
X-1850190D01*
G01X-7320180Y3739920D02*
Y3485920D01*
G01D02*
X-7066180D01*
G01Y3739920D02*
X-7320180D01*
G01X-7066180Y3485920D02*
Y3739920D01*
G01X-4551530Y3384320D02*
X-5011320D01*
G01D02*
X-5012690Y3316910D01*
G01X-1850190D02*
X-4550180D01*
G01D02*
X-4551530Y3384320D01*
G01X-2506590Y-5467680D02*
X-2735190D01*
G01D02*
Y-5279720D01*
G01X-2746590D02*
Y-5467680D01*
G01D02*
X-2975190D01*
G01D02*
Y-5279720D01*
G01X-2506590Y-4962220D02*
X-2735190D01*
G01D02*
Y-5152720D01*
G01X-2746590D02*
Y-4962220D01*
G01D02*
X-2975190D01*
G01D02*
Y-5152720D01*
G01X-2258340Y-5279720D02*
Y-5467680D01*
G01D02*
X-2486940D01*
G01D02*
Y-5279720D01*
G01X-2506590D02*
Y-5467680D01*
G01X-2258340Y-5152720D02*
Y-4962220D01*
G01D02*
X-2486940D01*
G01D02*
Y-5152720D01*
G01X-2506590D02*
Y-4962220D01*
G01X-2000840Y-5279720D02*
Y-5467680D01*
G01D02*
X-2229440D01*
G01D02*
Y-5279720D01*
G01X-1743340Y-5467680D02*
X-1971940D01*
G01D02*
Y-5279720D01*
G01X-2000840Y-5152720D02*
Y-4962220D01*
G01D02*
X-2229440D01*
G01D02*
Y-5152720D01*
G01X-1743340Y-4962220D02*
X-1971940D01*
G01D02*
Y-5152720D01*
G01X-1862370Y-3874750D02*
Y-3762990D01*
G01X-1767120Y-3874750D02*
X-1862370D01*
G01X-1919640Y-3877290D02*
X-2014890D01*
G01X-1919640Y-3765530D02*
Y-3877290D01*
G01X-2171100D02*
X-2078390D01*
G01X-2171100Y-3765530D02*
Y-3877290D01*
G01X-1862370Y-3762990D02*
X-1767120D01*
G01X-2014890Y-3765530D02*
X-1919640D01*
G01X-2078390D02*
X-2171100D01*
G01X-1850190Y4162930D02*
Y3316910D01*
G01X-1485090Y-5279720D02*
Y-5467680D01*
G01D02*
X-1713690D01*
G01D02*
Y-5279720D01*
G01X-1743340D02*
Y-5467680D01*
G01X-1485090Y-5152720D02*
Y-4962220D01*
G01D02*
X-1713690D01*
G01D02*
Y-5152720D01*
G01X-1743340D02*
Y-4962220D01*
G01X-1610910Y-3874750D02*
Y-3762990D01*
G01X-1703620Y-3874750D02*
X-1610910D01*
G01Y-3762990D02*
X-1703620D01*
G01X-762500Y-4698990D02*
Y-4815830D01*
G01D02*
X-919980D01*
G01X-922520D02*
Y-4698990D01*
G01X-763770Y-4617710D02*
Y-4505950D01*
G01X-768850D02*
X-921250D01*
G01X-922520D02*
Y-4622790D01*
G01X393040Y-3850880D02*
X281280D01*
G01Y-3855960D02*
Y-4008360D01*
G01Y-4009630D02*
X398120D01*
G01X474320Y-3849610D02*
X591160D01*
G01D02*
Y-4007090D01*
G01Y-4009630D02*
X474320D01*
G01X880220Y-4152690D02*
X692260D01*
G01D02*
Y-3924090D01*
G01D02*
X880220D01*
G01X762710Y-2137710D02*
X874470D01*
G01X681430Y-2138980D02*
X564590D01*
G01D02*
Y-1981500D01*
G01X874470Y-1978960D02*
X757630D01*
G01X564590D02*
X681430D01*
G01X1099400Y-5353400D02*
X1211160D01*
G01Y-5348320D02*
Y-5195920D01*
G01Y-5194650D02*
X1094320D01*
G01X1018120Y-5354670D02*
X901280D01*
G01D02*
Y-5197190D01*
G01Y-5194650D02*
X1018120D01*
G01X1099400Y-5103400D02*
X1211160D01*
G01Y-5098320D02*
Y-4945920D01*
G01Y-4944650D02*
X1094320D01*
G01X1018120Y-5104670D02*
X901280D01*
G01D02*
Y-4947190D01*
G01Y-4944650D02*
X1018120D01*
G01X1007220Y-4152690D02*
X1197720D01*
G01D02*
Y-3924090D01*
G01D02*
X1007220D01*
G01X1213820Y-2651120D02*
X1306530D01*
G01X1213820Y-2539360D02*
Y-2651120D01*
G01X1306530Y-2539360D02*
X1213820D01*
G01X874470Y-2132630D02*
Y-1980230D01*
G01X1557550Y-2531820D02*
X1652800D01*
G01X1557550Y-2643580D02*
Y-2531820D01*
G01X1652800Y-2643580D02*
X1557550D01*
G01X1809010Y-2531820D02*
X1716300D01*
G01Y-2643580D02*
X1809010D01*
G01X1465280Y-2651120D02*
X1370030D01*
G01X1465280Y-2539360D02*
Y-2651120D01*
G01X1370030Y-2539360D02*
X1465280D01*
G01X1524590Y-1978100D02*
Y-2130500D01*
G01Y-2131770D02*
X1641430D01*
G01X1834470D02*
X1717630D01*
G01X1636350Y-1973020D02*
X1524590D01*
G01X1717630Y-1971750D02*
X1834470D01*
G01X2146900Y-4760380D02*
X2258660D01*
G01X2146900Y-4667670D02*
Y-4760380D01*
G01Y-4508920D02*
X2258660D01*
G01X2146900Y-4604170D02*
Y-4508920D01*
G01X2043420Y-3681010D02*
X2155180D01*
G01Y-3675930D02*
Y-3523530D01*
G01Y-3522260D02*
X2038340D01*
G01X1962140Y-3682280D02*
X1845300D01*
G01D02*
Y-3524800D01*
G01Y-3522260D02*
X1962140D01*
G01X1809010Y-2643580D02*
Y-2531820D01*
G01X1834470Y-1971750D02*
Y-2129230D01*
G01X2438660Y-4760380D02*
Y-4667670D01*
G01X2326900Y-4760380D02*
X2438660D01*
G01X2326900Y-4667670D02*
Y-4760380D01*
G01X2258660D02*
Y-4667670D01*
G01X2438660Y-4508920D02*
Y-4604170D01*
G01X2326900Y-4508920D02*
X2438660D01*
G01X2326900Y-4604170D02*
Y-4508920D01*
G01X2258660D02*
Y-4604170D01*
G01X2938790Y-3263080D02*
Y-3415480D01*
G01Y-3416750D02*
X3055630D01*
G01X3050550Y-3258000D02*
X2938790D01*
G01X3050550Y-1908000D02*
X2938790D01*
G01Y-1913080D02*
Y-2065480D01*
G01Y-2066750D02*
X3055630D01*
G01X2945710Y-312910D02*
Y-465310D01*
G01Y-466580D02*
X3062550D01*
G01X3057470Y-307830D02*
X2945710D01*
G01X3010550Y1002000D02*
X2898790D01*
G01Y996920D02*
Y844520D01*
G01Y843250D02*
X3015630D01*
G01X2905710Y2397090D02*
Y2244690D01*
G01Y2243420D02*
X3022550D01*
G01X3017470Y2402170D02*
X2905710D01*
G01X3248670Y-3256730D02*
Y-3414210D01*
G01Y-3416750D02*
X3131830D01*
G01Y-3256730D02*
X3248670D01*
G01X3131830Y-1906730D02*
X3248670D01*
G01D02*
Y-2064210D01*
G01Y-2066750D02*
X3131830D01*
G01X3255590Y-306560D02*
Y-464040D01*
G01Y-466580D02*
X3138750D01*
G01Y-306560D02*
X3255590D01*
G01X3091830Y1003270D02*
X3208670D01*
G01D02*
Y845790D01*
G01Y843250D02*
X3091830D01*
G01X3215590Y2403440D02*
Y2245960D01*
G01Y2243420D02*
X3098750D01*
G01Y2403440D02*
X3215590D01*
G01X4094900Y-5195610D02*
X3866300D01*
G01D02*
Y-5007650D01*
G01Y-4690150D02*
Y-4880650D01*
G01X4094900Y-4690150D02*
X3866300D01*
G01X4094900Y-5007650D02*
Y-5195610D01*
G01X5010610Y-5284150D02*
X4260600D01*
Y-4714150D01*
X5010610D01*
Y-5284150D01*
G01X4094900Y-4880650D02*
Y-4690150D01*
G01X4262760Y-5155910D02*
X4293240D01*
Y-5049230D01*
X4265300D01*
G01X4758060Y-5280370D02*
Y-5234650D01*
X4549780D01*
Y-5282910D01*
G01X5006980Y-5160990D02*
X4973960D01*
Y-5051770D01*
X5009520D01*
G01X5175560Y-296100D02*
Y-407860D01*
G01X5180640D02*
X5333040D01*
G01X5174290Y-214820D02*
Y-97980D01*
G01D02*
X5331770D01*
G01X5135560Y2413900D02*
Y2302140D01*
G01X5140640D02*
X5293040D01*
G01X5134290Y2495180D02*
Y2612020D01*
G01D02*
X5291770D01*
G01X5869380Y3495160D02*
X5169380D01*
G01D02*
Y3578470D01*
G01X5869380Y3845170D02*
X5169380D01*
G01D02*
Y3771510D01*
G01X5530090Y-3471190D02*
Y-3588030D01*
G01D02*
X5372610D01*
G01X5370070D02*
Y-3471190D01*
G01X5528820Y-3389910D02*
Y-3278150D01*
G01X5523740D02*
X5371340D01*
G01X5370070D02*
Y-3394990D01*
G01X5502150Y-2966090D02*
Y-3061340D01*
G01X5390390Y-2966090D02*
X5502150D01*
G01X5390390Y-3061340D02*
Y-2966090D01*
G01X5502150Y-3217550D02*
Y-3124840D01*
G01X5390390Y-3217550D02*
X5502150D01*
G01X5390390Y-3124840D02*
Y-3217550D01*
G01X5530090Y-2121190D02*
Y-2238030D01*
G01D02*
X5372610D01*
G01X5370070D02*
Y-2121190D01*
G01X5528820Y-2039910D02*
Y-1928150D01*
G01X5523740D02*
X5371340D01*
G01X5370070D02*
Y-2044990D01*
G01X5502150Y-1616090D02*
Y-1711340D01*
G01X5390390D02*
Y-1616090D01*
G01X5502150Y-1867550D02*
Y-1774840D01*
G01X5390390Y-1867550D02*
X5502150D01*
G01X5390390Y-1774840D02*
Y-1867550D01*
G01Y-1616090D02*
X5502150D01*
G01X5334310Y-407860D02*
Y-291020D01*
G01Y-97980D02*
Y-214820D01*
G01X5488820Y870090D02*
Y981850D01*
G01X5483740D02*
X5331340D01*
G01X5330070D02*
Y865010D01*
G01X5490090Y788810D02*
Y671970D01*
G01D02*
X5332610D01*
G01X5330070D02*
Y788810D01*
G01X5462150Y1293910D02*
Y1198660D01*
G01X5350390Y1293910D02*
X5462150D01*
G01X5350390Y1198660D02*
Y1293910D01*
G01X5462150Y1042450D02*
Y1135160D01*
G01X5350390Y1042450D02*
X5462150D01*
G01X5350390Y1135160D02*
Y1042450D01*
G01X5294310Y2302140D02*
Y2418980D01*
G01Y2612020D02*
Y2495180D01*
G01X5628080Y3725790D02*
Y3611490D01*
G01D02*
X5399480D01*
G01D02*
Y3725790D01*
G01D02*
X5628080D01*
G01X5869380Y3573390D02*
Y3495160D01*
G01Y3774050D02*
Y3845170D01*
G01X7269380Y3495160D02*
X6569380D01*
G01D02*
Y3578470D01*
G01X7269380Y3845170D02*
X6569380D01*
G01D02*
Y3771510D01*
G01X7028080Y3611490D02*
X6799480D01*
G01D02*
Y3725790D01*
G01D02*
X7028080D01*
G01X7444100Y-640500D02*
Y-757340D01*
G01X7604120Y-950380D02*
X7446640D01*
G01X7444100D02*
Y-833540D01*
G01X7154100Y-640500D02*
Y-757340D01*
G01X7314120Y-833540D02*
Y-950380D01*
G01D02*
X7156640D01*
G01X7154100D02*
Y-833540D01*
G01X7597770Y-640500D02*
X7445370D01*
G01X7312850Y-752260D02*
Y-640500D01*
G01X7307770D02*
X7155370D01*
G01X7028080Y3725790D02*
Y3611490D01*
G01X7269380Y3573390D02*
Y3495160D01*
G01Y3774050D02*
Y3845170D01*
G01X7604120Y-833540D02*
Y-950380D01*
G01X7602850Y-752260D02*
Y-640500D01*
G54D16*
G01X1393530Y-2244630D02*
G03I-12700J0D01*
G01X1917500Y-4023840D02*
G03I-12700J0D01*
G01X4657470Y-294470D02*
G03I-12851J1D01*
G01X4617470Y2415530D02*
G03I-12851J1D01*
G01X6132700Y405900D02*
Y522740D01*
G01X6259700Y405900D02*
X6132700D01*
G01Y1015500D02*
Y893580D01*
G01X6259700Y1015500D02*
X6132700D01*
G01X6899100Y-2146820D02*
Y-3045980D01*
G01D02*
X8301180D01*
G01X7125160Y-2146820D02*
X6899100D01*
G01X7633830Y-1856180D02*
X7307620D01*
Y-1751230D01*
X7066320D01*
Y-1856180D01*
X6733830D01*
G01D02*
Y-1006200D01*
G01D02*
X7633830D01*
G01X6691500Y405900D02*
X6615300D01*
G01X6742300Y456700D02*
X6691500Y405900D01*
G01X6742300Y532900D02*
Y456700D01*
G01X6800720Y558300D02*
G03I-12700J0D01*
G01X6742300Y888500D02*
Y1015500D01*
G01D02*
X6620380D01*
G01X8301180Y-2154440D02*
X7490920D01*
G01X7633830Y-1006200D02*
Y-1856180D01*
G01X8301180Y-3045980D02*
Y-2154440D01*
G54D17*
G01X-6771800Y-4139440D02*
X-5892960D01*
G01X-6771800Y-3913380D02*
Y-4139440D01*
G01Y-3042160D02*
Y-2821180D01*
G01D02*
X-5900580D01*
G01X-6771800Y-2399920D02*
X-5892960D01*
G01X-6771800Y-2173860D02*
Y-2399920D01*
G01Y-1302640D02*
Y-1081660D01*
G01D02*
X-5900580D01*
G01X-6771800Y-660400D02*
X-5892960D01*
G01X-6771800Y-434340D02*
Y-660400D01*
G01Y436880D02*
Y657860D01*
G01D02*
X-5900580D01*
G01X-6771800Y1079120D02*
X-5892960D01*
G01X-6771800Y1305180D02*
Y1079120D01*
G01Y2176400D02*
Y2397380D01*
G01D02*
X-5900580D01*
G01X-5892960Y-4139440D02*
Y-3885440D01*
G01X-5900580Y-2821180D02*
Y-3037080D01*
G01X-5892960Y-2399920D02*
Y-2145920D01*
G01X-5900580Y-1081660D02*
Y-1297560D01*
G01X-5892960Y-660400D02*
Y-406400D01*
G01X-5900580Y657860D02*
Y441960D01*
G01X-5892960Y1079120D02*
Y1333120D01*
G01X-5900580Y2397380D02*
Y2181480D01*
G01X-2516770Y-1393030D02*
X-2532010Y-1377790D01*
G01Y-1235550D02*
X-2516770Y-1220310D01*
G01X-2532010Y-1393030D02*
Y-1220310D01*
G01D02*
X-2191650D01*
G01Y-1393030D02*
X-2532010D01*
G01X-2516770Y-813030D02*
X-2532010Y-797790D01*
G01Y-813030D02*
Y-640310D01*
G01X-2191650Y-813030D02*
X-2532010D01*
G01Y-655550D02*
X-2516770Y-640310D01*
G01X-2532010D02*
X-2191650D01*
G01X-2516770Y-223030D02*
X-2532010Y-207790D01*
G01Y-65550D02*
X-2516770Y-50310D01*
G01X-2532010Y-223030D02*
Y-50310D01*
G01D02*
X-2191650D01*
G01Y-223030D02*
X-2532010D01*
G01X-2191650Y-1220310D02*
Y-1393030D01*
G01Y-640310D02*
Y-813030D01*
G01Y-50310D02*
Y-223030D01*
G01X1753210Y-1753210D02*
Y1753210D01*
X-1753210D01*
Y-1753210D01*
X1753210D01*
G01X1550010Y-1550010D02*
Y1550010D01*
X-1550010D01*
Y-1550010D01*
X1550010D01*
G01X1059520Y-2186210D02*
Y-2110010D01*
G01X1219540Y-2293120D02*
X1059520D01*
G01Y-2003100D02*
X1219540D01*
G01X2072440Y-4405930D02*
X2000230D01*
Y-4333720D01*
G01Y-3978120D02*
Y-3905910D01*
X2072440D01*
G01X2500250Y-4333720D02*
Y-4405930D01*
X2415340D01*
G01X2428040Y-3905910D02*
X2500250D01*
G01D02*
Y-3978120D01*
G01X3837240Y-4013970D02*
Y-3950470D01*
X3979480D01*
G01X3837240Y-4163830D02*
Y-4232410D01*
X3982020D01*
G01X4740760Y-476000D02*
Y-524210D01*
X4785690D01*
G01X4740760Y-224190D02*
Y-270060D01*
G01X4785490Y-224190D02*
X4740760D01*
G01X4700760Y2234000D02*
Y2185790D01*
X4745690D01*
G01X4700760Y2485810D02*
Y2439940D01*
G01X4745490Y2485810D02*
X4700760D01*
G01X4949430Y-3478100D02*
X4888720D01*
Y-3442790D01*
G01X5101830Y-3478100D02*
X5025630D01*
G01X5238740Y-3442790D02*
Y-3478100D01*
X5178030D01*
G01X4888720Y-3128080D02*
X4949430D01*
G01X4888720Y-3163390D02*
Y-3128080D01*
G01X5178030D02*
X5238740D01*
Y-3163390D01*
G01X5025630Y-3128080D02*
X5101830D01*
G01X4949430Y-2128100D02*
X4888720D01*
Y-2092790D01*
G01X5101830Y-2128100D02*
X5025630D01*
G01X5238740Y-2092790D02*
Y-2128100D01*
X5178030D01*
G01X4888720Y-1778080D02*
X4949430D01*
G01X4888720Y-1813390D02*
Y-1778080D01*
G01X5178030D02*
X5238740D01*
Y-1813390D01*
G01X5025630Y-1778080D02*
X5101830D01*
G01X4992570Y-524210D02*
X5040780D01*
Y-476920D01*
G01Y-270970D02*
Y-224190D01*
X4993280D01*
G01X4909430Y781900D02*
X4848720D01*
Y817210D01*
G01X5061830Y781900D02*
X4985630D01*
G01X5198740Y817210D02*
Y781900D01*
X5138030D01*
G01X4848720Y1131920D02*
X4909430D01*
G01X4848720Y1096610D02*
Y1131920D01*
G01X5138030D02*
X5198740D01*
Y1096610D01*
G01X4985630Y1131920D02*
X5061830D01*
G01X4952570Y2185790D02*
X5000780D01*
Y2233080D01*
G01Y2439030D02*
Y2485810D01*
X4953280D01*
G01X7097230Y-3220430D02*
Y-3156930D01*
X8426290D01*
Y-4553930D01*
X7097230D01*
Y-4490430D01*
G01X7727420Y-1292780D02*
Y-678100D01*
X8098260D01*
Y-1292780D01*
X7727420D01*
G54D18*
G01X-6883510Y-3132300D02*
X-6934920Y-3080900D01*
G01D02*
Y-3197200D01*
G01D02*
X-6934510Y-3197610D01*
G01D02*
X-6883510Y-3146600D01*
G01D02*
Y-3132410D01*
G01D02*
Y-3132300D01*
G01Y-1392780D02*
X-6934920Y-1341380D01*
G01D02*
Y-1457680D01*
G01D02*
X-6934510Y-1458090D01*
G01D02*
X-6883510Y-1407080D01*
G01D02*
Y-1392890D01*
G01D02*
Y-1392780D01*
G01Y346740D02*
X-6934920Y398140D01*
G01D02*
Y281840D01*
G01D02*
X-6934510Y281430D01*
G01D02*
X-6883510Y332440D01*
G01D02*
Y346630D01*
G01D02*
Y346740D01*
G01Y2086260D02*
X-6934920Y2137660D01*
G01D02*
Y2021360D01*
G01D02*
X-6934510Y2020950D01*
G01D02*
X-6883510Y2071960D01*
G01D02*
Y2086150D01*
G01D02*
Y2086260D01*
G01X-3300740Y-191010D02*
Y-343410D01*
X-3674120D01*
Y-173230D01*
X-3300740D01*
Y-191010D01*
G01Y302050D02*
Y149650D01*
X-3674120D01*
Y319830D01*
X-3300740D01*
Y302050D01*
G01Y795110D02*
Y642710D01*
X-3674120D01*
Y812890D01*
X-3300740D01*
Y795110D01*
G01Y1288170D02*
Y1135770D01*
X-3674120D01*
Y1305950D01*
X-3300740D01*
Y1288170D01*
G01X-2539790Y-1593980D02*
Y-1441580D01*
X-2166410D01*
Y-1611760D01*
X-2539790D01*
Y-1593980D01*
G01Y-1013980D02*
Y-861580D01*
X-2166410D01*
Y-1031760D01*
X-2539790D01*
Y-1013980D01*
G01Y-423980D02*
Y-271580D01*
X-2166410D01*
Y-441760D01*
X-2539790D01*
Y-423980D01*
G01X-1408260Y-4222090D02*
X-1461600Y-4275430D01*
X-1352380D01*
X-1405720Y-4222090D01*
X-1408260D01*
G01X-763100Y-3526130D02*
X-1535260D01*
Y-4186530D01*
X-763100D01*
Y-3526130D01*
G01X2021660Y-2980920D02*
X1968320Y-3034260D01*
X2077540D01*
X2024200Y-2980920D01*
X2021660D01*
G01X2666820Y-2284960D02*
X1894660D01*
Y-2945360D01*
X2666820D01*
Y-2284960D01*
G54D19*
G01X7250000Y100700D02*
G03I-12500J0D01*
M02*
